<?xml version="1.0" encoding="utf-8"?>
<!-- Generator: Adobe Illustrator 19.1.1, SVG Export Plug-In . SVG Version: 6.00 Build 0)  -->
<svg version="1.1" id="Слой_1" xmlns="http://www.w3.org/2000/svg" xmlns:xlink="http://www.w3.org/1999/xlink" x="0px" y="0px"
	 viewBox="-80.8 25.8 25.5 25.5" style="enable-background:new -80.8 25.8 25.5 25.5;" xml:space="preserve">
<style type="text/css">
	.st0{fill:#FFFFFF;}
</style>
<path class="st0" d="M-55.5,35c0,0,0-0.6-0.6-0.6h-3.8l-5.8-6.1l0,0c0.1-0.1,0.1-0.3,0.1-0.4c0-0.6-0.6-1.3-1.3-1.3
	c-0.6,0-1.3,0.6-1.3,1.3s0.6,1.3,1.3,1.3c0.1,0,0.3,0,0.4-0.1h0.1l4.9,5.3h-13.4l5-5.3l0,0c0.1,0,0.3,0.1,0.4,0.1
	c0.6,0,1.3-0.6,1.3-1.3c0-0.6-0.6-1.3-1.3-1.3s-1.3,0.6-1.3,1.3c0,0.1,0,0.3,0,0.4l0,0l-5.8,6.1H-80c0,0-0.6,0-0.6,0.6v2.5
	c0,0,0,0.4,0.6,0.4h23.7c0,0,0.6,0.1,0.6-0.4C-55.5,36.6-55.5,35-55.5,35z"/>
<path class="st0" d="M-79.4,39L-79.4,39c0,0,2.5,7.9,3.1,9.5c0.6,1.1,1.5,1.5,1.9,1.8c0.1,0,0.3,0.1,0.4,0.1c1.5,0,11.3,0.1,12.1,0
	c1.7-0.4,2.5-2.2,2.5-2.2l2.8-9.1h-22.8C-79.4,39.1-79.4,39-79.4,39z M-73.2,47.9c-1,0-1-0.3-1-0.7l-1.1-6c0-0.1-0.1-0.7,0.6-0.7
	h0.7c0.3,0,0.4,0.3,0.6,0.7l1,6C-72.2,47.6-72.3,47.9-73.2,47.9z M-70.5,47.9c-0.6,0-1-0.1-1-1l-0.4-5.7c0-0.4,0-1,0.7-1h0.3
	c0.6,0,0.7,0.3,1,1l0.3,5.8C-69.7,47.8-69.8,47.9-70.5,47.9z M-66.9,47.2c0,0.6-0.1,1-1,1c-0.7,0-1-0.3-1-1v-5.8c0-0.6,0.1-1,1-1
	c0.7,0,1,0.3,1,1V47.2z M-63.7,41.4l-0.4,5.8c-0.1,0.7-0.3,1-1,1s-1-0.1-1-1l0.3-5.8c0-0.6,0.3-1,1-1h0.3
	C-63.7,40.5-63.5,40.9-63.7,41.4z M-60.5,41.2l-1.1,6c-0.1,0.4-0.1,1-1,1c-1,0-1-0.3-1-1l1-6c0.1-0.4,0.1-0.7,0.6-0.7h0.7
	C-60.5,40.5-60.5,41.1-60.5,41.2z"/>
</svg>
