<?xml version="1.0" standalone="no"?>
<!DOCTYPE svg PUBLIC "-//W3C//DTD SVG 1.1//EN" "http://www.w3.org/Graphics/SVG/1.1/DTD/svg11.dtd" >
<svg>
<metadata>
Created by FontForge 20090914 at Thu Mar 28 00:38:43 2013
 By www-data
Copyright (c) Gophmann Alexandra Leopoldovna work, 2005. All rights reserved.
</metadata>
<defs>
<font id="Aquarelle" horiz-adv-x="500" >
  <font-face 
    font-family="Aquarelle"
    font-weight="500"
    font-stretch="normal"
    units-per-em="1000"
    panose-1="3 0 5 0 0 0 0 0 0 0"
    ascent="800"
    descent="-200"
    x-height="268"
    cap-height="899.002"
    bbox="-648.001 -553.011 2230.05 1211"
    underline-thickness="20"
    underline-position="-123"
    unicode-range="U+0020-U+F002"
  />
<missing-glyph 
d="M63 0v900h375v-900h-375zM125 63h250v775h-250v-775z" />
    <glyph glyph-name=".notdef" 
d="M63 0v900h375v-900h-375zM125 63h250v775h-250v-775z" />
    <glyph glyph-name="space" unicode=" " horiz-adv-x="276" 
 />
    <glyph glyph-name="exclam" unicode="!" horiz-adv-x="416" 
d="M584 770c-196.667 -304 -311.336 -500.001 -344.003 -588.001c-7.33301 -18 -17.666 -27 -30.999 -27c-12 0 -18 6.33301 -18 19c0 4 1 8.66699 3 14c10.667 26.667 27.667 64.834 51 114.501s54 111.5 92 185.5l101 192.5c29.333 54.333 54.666 99.5 75.999 135.5
c0.666992 2 3.33398 3 8.00098 3c10.667 0 22 -5 34 -15c8.66699 -5.33301 15.834 -11.833 21.501 -19.5s7.83398 -12.5 6.50098 -14.5zM187.998 13.999c0 -12 -4.66699 -22.333 -14 -31s-20.666 -13 -33.999 -13s-24.666 4.33301 -33.999 13s-14 19 -14 31
c0 12.667 4.66699 23.5 14 32.5s20.666 13.5 33.999 13.5s24.666 -4.5 33.999 -13.5s14 -19.833 14 -32.5z" />
    <glyph glyph-name="quotedbl" unicode="&#x22;" horiz-adv-x="318" 
d="M301 671c0 -18 -13.332 -60 -39.999 -126l-26 -64.5l-26 -64.5h-15l28 238c2 13.333 7.66699 24.333 17 33s20.666 13 33.999 13c18.667 0 28 -9.66699 28 -29zM146.001 672c0 -18 -12.999 -60.333 -38.999 -127l-26 -64.5l-27 -64.5h-14l27 237
c1.33301 12 7.16602 22.833 17.499 32.5s21.5 14.5 33.5 14.5c18.667 0 28 -9.33301 28 -28z" />
    <glyph glyph-name="numbersign" unicode="#" horiz-adv-x="746" 
d="M719 465l-28 -48h-149l-83 -141h161l-29 -47h-161l-139 -229h-53l137 229h-138l-139 -229h-53l138 229h-158l30 47h156l84 141h-170l29 48h170l138 231h55l-140 -231h140l139 231h54l-139 -231h148zM488 417h-139l-85 -141h140z" />
    <glyph glyph-name="dollar" unicode="$" horiz-adv-x="449" 
d="M475 487c0 -18 -5.16602 -33.501 -15.499 -46.501s-23.5 -19.5 -39.5 -19.5c-12.667 0 -23.334 4.5 -32.001 13.5s-12.667 19.833 -12 32.5c0.666992 28 15.667 42 45 42c16.667 0 27 -5.66699 31 -17c-5.33301 32 -26.333 52 -63 60l-117 -212
c44.667 -59.333 67 -108.666 67 -147.999c0 -60 -29 -108.333 -87 -145c-49.333 -32.667 -105.666 -49 -168.999 -49l-28 -53l-34 -6l35 61c-64.667 12 -105.667 29.667 -123 53c0.666992 4.66699 6.66699 12.667 18 24h9c26 -28 62 -46.667 108 -56l149 272
c-40 50.667 -60 93 -60 127c0 49.333 25 88.666 75 117.999c41.333 24.667 88.666 37 141.999 37l28 52l32 6l-33 -61c49.333 -9.33301 74 -37.666 74 -84.999zM364.001 555.999c-2.66699 0 -5 0.333008 -7 1h-7c-32.667 0 -61.667 -10.333 -87 -31
c-28.667 -22 -43 -48.667 -43 -80c0 -14.667 4 -29 12 -43l24 -41zM276.001 173.999c0 28.667 -13.667 61.333 -41 98l-141 -254c46.667 0 87.667 14.333 123 43c39.333 31.333 59 69 59 113z" />
    <glyph glyph-name="percent" unicode="%" horiz-adv-x="621" 
d="M620 661l-615 -744.998h-37l-1 5c54 56.667 120 130.834 198 222.501l272 329.5c-64.667 -55.333 -118 -83 -160 -83c-24 0 -43.333 8.33301 -58 25c-32 -23.333 -61 -34.666 -87 -33.999c-46.667 0.666992 -70 30.334 -70 89.001c0 29.333 7 60.666 21 93.999
c20 46.667 48.333 86.334 85 119.001c38 33.333 73 49.666 105 48.999c48.667 -0.666992 73 -25.334 73 -74.001c0 -34.667 -12.333 -76.334 -37 -125.001c-22.667 -44.667 -46.334 -78.334 -71.001 -101.001c8.66699 -16 22.334 -24 41.001 -24c32 0 76.667 22.667 134 68
c8.66699 6.66699 21.5 18.5 38.5 35.5s38.167 39.833 63.5 68.5c48.667 54.667 74.667 82.667 78 84c2.66699 1.33301 7.66699 2.66602 15 3.99902c8 0 12 -2.33301 12 -7zM490 321.002c49.333 -1.33301 74 -26.999 74 -76.999c0 -54.667 -23.667 -113.667 -71 -177
c-49.333 -65.333 -97.333 -97.333 -144 -96c-46.667 0.666992 -70 30 -70 88c0 29.333 7 60.666 21 93.999c20 47.333 48.333 87.333 85 120s71.667 48.667 105 48zM283 699.003c-20 0 -42.6689 -12.667 -68.002 -38c-23.333 -24 -44.333 -55.333 -63 -94
c-22.667 -48 -34 -88 -34 -120c0 -29.333 11.333 -44 34 -44c16 0 34.667 8.66699 56 26c-10.667 16 -15.667 32.333 -15 49c0 28.667 11.333 43 34 43c20 0 30 -10 30 -30c0 -2 -0.666992 -5.66699 -2 -11c6.66699 9.33301 13.334 20.333 20.001 33
s13.334 27.334 20.001 44.001c16.667 39.333 25 71.666 25 96.999c0 30 -12.333 45 -37 45zM536.998 244.003c0 30 -12.332 45.001 -36.999 45.001c-20 0 -42.667 -12.667 -68 -38c-23.333 -24 -44.333 -55.333 -63 -94c-22.667 -48 -34 -88.333 -34 -121
c0 -29.333 11.667 -44 35 -44c26.667 0 60.667 26 102 78c13.333 16 27.666 43.667 42.999 83c14.667 37.333 22 67.666 22 90.999z" />
    <glyph glyph-name="ampersand" unicode="&#x26;" horiz-adv-x="606" 
d="M731 420c10 -15.333 15 -29.9971 15 -43.9971c0 -34 -23.667 -63.667 -71 -89s-99.666 -37.333 -156.999 -36c24.667 -20.667 37 -46.667 37 -78c0 -51.333 -27.667 -99.666 -83 -144.999c-59.333 -48.667 -129.666 -73 -210.999 -73c-80.667 0 -143.334 19 -188.001 57
c-41.333 35.333 -62 79 -62 131c0 59.333 24.667 112.666 74 159.999c55.333 52.667 127.333 83.334 216 92.001c-19.333 26 -28.666 56 -27.999 90c2 65.333 37.667 119.666 107 162.999c60.667 38 126.334 56.333 197.001 55c33.333 0 60.333 -6.33301 81 -19
c26 -15.333 39 -38.333 39 -69c0 -19.333 -6 -36.5 -18 -51.5s-26.333 -22.5 -43 -22.5c-13.333 0 -24.5 4.66699 -33.5 14s-13.5 20.666 -13.5 33.999c0.666992 30.667 16.667 45.667 48 45c18 0 29 -6 33 -18c0.666992 2.66699 1 6.66699 1 12
c0 30.667 -22.667 46.667 -68 48c-66.667 1.33301 -131.667 -26 -195 -82c-20 -18.667 -38.333 -41.667 -55 -69c-18 -31.333 -27 -60.333 -27 -87c0 -14.667 3 -28 9 -40c23.333 1.33301 42 2.16602 56 2.49902s23 0.166016 27 -0.500977
c31.333 -3.33301 47 -14.666 47 -33.999s-16.667 -29 -50 -29c-36.667 0 -70.334 14.667 -101.001 44c-62.667 -9.33301 -113.334 -40.333 -152.001 -93c-35.333 -47.333 -53 -100 -53 -158c0 -46.667 12.333 -84.334 37 -113.001c26.667 -32.667 65 -49 115 -49
c65.333 0 122.666 22.667 171.999 68c44.667 40.667 68 83 70 127c0.666992 26 -12.333 46.333 -39 61c-25.333 14 -56 21 -92 21c-38.667 0 -72.334 -7.33301 -101.001 -22c-31.333 -16 -49.666 -37.667 -54.999 -65c-5.33301 -35.333 16.667 -66 66 -92
c6 -3.33301 9 -8.66602 9 -15.999c0 -4 -1.66699 -6 -5 -6c-2 0 -3.33301 0.333008 -4 1c-70.667 38 -106 81 -106 129c0 31.333 16 57 48 77c35.333 21.333 81.333 32 138 32h177c30 0 67 9 111 27c52.667 22 79 46.667 79 74c0 9.33301 -3 18.666 -9 27.999
c-6 8.66699 -5 13 3 13c3.33301 0 6 -1.66699 8 -5zM417 383.003c-12.667 1.33301 -25.167 1.99902 -37.5 1.99902s-24.5 -0.333008 -36.5 -1c16.667 -20 40.667 -30 72 -30c22 0 33 4 33 12c0 10.667 -10.333 16.334 -31 17.001z" />
    <glyph glyph-name="quotesingle" unicode="'" horiz-adv-x="218" 
d="M276 524c3.33301 -18 -9.66602 -46.668 -38.999 -86.001c-30 -41.333 -61 -71.333 -93 -90c-17.333 -9.33301 -28.666 -14 -33.999 -14c-2.66699 0 -4 1.33301 -4 4c0 6.66699 6 16.667 18 30c27.333 30 52.666 66 75.999 108c-16 0.666992 -24 14 -24 40
c0 12.667 5.16699 24.334 15.5 35.001s25.166 15.667 44.499 15c22.667 -0.666992 36 -14.667 40 -42z" />
    <glyph glyph-name="parenleft" unicode="(" horiz-adv-x="530" 
d="M610 848c-123.333 -51.333 -234.667 -142.999 -334 -274.999c-105.333 -141.333 -158 -279.666 -158 -414.999c0 -145.333 10 -231.333 30 -258c4.66699 -6.66699 7 -13 7 -19c0 -10 -5 -15 -15 -15c-8 0 -16.667 4.66699 -26 14c-16 15.333 -29.333 55.666 -40 120.999
c-4.66699 28 -8.16699 53.667 -10.5 77s-3.5 44.666 -3.5 63.999c0 164 46 308.667 138 434c68.667 93.333 170 181.333 304 264c38.667 24.667 66.667 37 84 37c16 0 24 -9.66699 24 -29z" />
    <glyph glyph-name="parenright" unicode=")" horiz-adv-x="616" 
d="M560 596c0 -165.333 -46.001 -310.333 -138.001 -435c-34.667 -46.667 -77.167 -92 -127.5 -136s-109.166 -87 -176.499 -129c-38.667 -24.667 -66.667 -37 -84 -37c-16 0 -24 9.66699 -24 29c123.333 51.333 234 143 332 275c105.333 141.333 158 279.666 158 414.999
c0 146 -10 232 -30 258c-5.33301 7.33301 -8 14 -8 20c0 10.667 5.33301 16 16 16c8 0 16.667 -4.66699 26 -14c15.333 -16.667 29 -57.667 41 -123c10 -55.333 15 -101.666 15 -138.999z" />
    <glyph glyph-name="asterisk" unicode="*" horiz-adv-x="431" 
d="M392 389c10 0 14.999 -3.33301 14.999 -10c0 -14 -11.333 -21.333 -34 -22l-132 -5l29 -58l24 -47c0.666992 -0.666992 1 -2.66699 1 -6c0 -6.66699 -2.5 -13.334 -7.5 -20.001s-10.167 -10 -15.5 -10c-7.33301 0 -19.666 18.667 -36.999 56l-14 34
c-4.66699 11.333 -9.66699 22.666 -15 33.999l-109 -119c-2.66699 -2.66699 -7 -4 -13 -4c-16.667 0 -25 6.33301 -25 19c0 5.33301 3 11 9 17l100 101l-132 -5c-5.33301 0 -10 2.83301 -14 8.5s-6 11.834 -6 18.501c0 12 7 18 21 18h145l-29 65l-28 60
c-2 4 -3 7.66699 -3 11c0 7.33301 3.33301 11 10 11c10.667 0 19.667 -7 27 -21l27.5 -53.5l31.5 -61.5l116 117c4.66699 4.66699 9 7 13 7c5.33301 0 8 -4 8 -12c0 -9.33301 -4.66699 -19.666 -14 -30.999l-85 -92h136z" />
    <glyph glyph-name="plus" unicode="+" horiz-adv-x="458" 
d="M461 238c11.333 0 16.999 -4.66699 16.999 -14c0 -8.66699 -6.66699 -13 -20 -13c-20 0 -64.333 -2 -133 -6c-3.33301 -18 -6.83301 -38.333 -10.5 -61l-12.5 -76c-0.666992 -4 -4.66699 -7.83301 -12 -11.5s-14.666 -5.5 -21.999 -5.5
c-12.667 0 -17.334 5.66699 -14.001 17l13.5 53.5l20.5 81.5c-37.333 -2 -84.333 -5 -141 -9c-7.33301 -1.33301 -11 5.33398 -11 20.001c0 18.667 7.66699 28 23 28h20c10 0 22.667 -0.333008 38 -1c18.667 -0.666992 34.667 -1.16699 48 -1.5s24.333 -0.5 33 -0.5l15 62.5
l20 82.5c2.66699 14 9.66699 21 21 21c8 0 10.333 -5.66699 7 -17c-6.66699 -24.667 -16.667 -74.334 -30 -149.001h54.5c21.667 0 46.834 -0.333008 75.501 -1z" />
    <glyph glyph-name="comma" unicode="," horiz-adv-x="232" 
d="M192 36c2 -18 -11.001 -46.334 -39.001 -85.001c-30 -42 -61 -72.333 -93 -91c-16 -10 -27 -15 -33 -15c-2.66699 0 -4 1.33301 -4 4c0 8 6.33301 18.333 19 31c9.33301 10 20.5 23.833 33.5 41.5s27.167 39.167 42.5 64.5c-17.333 3.33301 -26 17.333 -26 42
c0 12.667 5.5 24.334 16.5 35.001s26.167 15.667 45.5 15c22.667 -1.33301 35.334 -15.333 38.001 -42z" />
    <glyph glyph-name="hyphen" unicode="-" horiz-adv-x="380" 
d="M320 188c-52.667 -0.666992 -94.002 -3.66797 -124.002 -9.00098c-17.333 -2.66699 -36.166 -4.83398 -56.499 -6.50098s-42.166 -3.16699 -65.499 -4.5c-28 -1.33301 -42 2.66699 -42 12c0 6 6.33301 13.333 19 22s25.667 15.334 39 20.001c18 6 43 9 75 9
c15.333 0 36 -1 62 -3s57 -5.33301 93 -10c29.333 -3.33301 44 -9 44 -17c0 -7.33301 -14.667 -11.666 -44 -12.999z" />
    <glyph glyph-name="hyphen" unicode="&#x2010;" horiz-adv-x="380" 
d="M320 188c-52.667 -0.666992 -94.002 -3.66797 -124.002 -9.00098c-17.333 -2.66699 -36.166 -4.83398 -56.499 -6.50098s-42.166 -3.16699 -65.499 -4.5c-28 -1.33301 -42 2.66699 -42 12c0 6 6.33301 13.333 19 22s25.667 15.334 39 20.001c18 6 43 9 75 9
c15.333 0 36 -1 62 -3s57 -5.33301 93 -10c29.333 -3.33301 44 -9 44 -17c0 -7.33301 -14.667 -11.666 -44 -12.999z" />
    <glyph glyph-name="period" unicode="." horiz-adv-x="240" 
d="M188 14c0 -12 -4.66699 -22.333 -14 -31s-20.666 -13 -33.999 -13s-24.666 4.33301 -33.999 13s-14 19 -14 31c0 12.667 4.66699 23.5 14 32.5s20.666 13.5 33.999 13.5s24.666 -4.5 33.999 -13.5s14 -19.833 14 -32.5z" />
    <glyph glyph-name="slash" unicode="/" horiz-adv-x="548" 
d="M844 775c10 -5.33301 15 -12.332 15 -20.999c0 -4.66699 -2.33301 -7 -7 -7c-4 0 -10.167 2.33301 -18.5 7s-16.5 7 -24.5 7c-42.667 0 -114 -55.333 -214 -166c-58 -64 -150.667 -177.667 -278 -341c-56.667 -72.667 -107.667 -132.834 -153 -180.501
s-85.333 -83.167 -120 -106.5c-6.66699 -4.66699 -12.334 -7 -17.001 -7s-7 2 -7 6c0 4.66699 3 9.66699 9 15c94 86.667 179 185.667 255 297l61 90l60 90c34 48 66.333 90.333 97 127s60 68.667 88 96c74.667 72.667 140.334 109 197.001 109c20.667 0 39.667 -5 57 -15z
" />
    <glyph glyph-name="zero" unicode="0" horiz-adv-x="820" 
d="M690 150c-30.667 -28.667 -63.835 -54.501 -99.502 -77.501s-74.5 -43.833 -116.5 -62.5c-84.667 -36.667 -162 -54.667 -232 -54s-127 20.667 -171 60c-44 38.667 -66 89.334 -66 152.001c0 22.667 3 46 9 70c20.667 84 65.334 154.667 134.001 212
c46.667 38.667 110.667 74.667 192 108c88.667 36 164.667 54 228 54c12 0 23 -0.333008 33 -1s15 -4.33398 15 -11.001c0 -7.33301 -6 -11.333 -18 -12c-70 -6 -138.333 -21.333 -205 -46c-75.333 -27.333 -135 -60.666 -179 -99.999c-48 -42 -86.667 -90.667 -116 -146
c-28.667 -54.667 -43 -106.334 -43 -155.001c0 -47.333 14.333 -84.333 43 -111c33.333 -29.333 81.333 -44 144 -44s130.334 17.667 203.001 53c66 32 129 75 189 129c39.333 35.333 71.666 75.666 96.999 120.999c26 46 39 87.667 39 125c0 80 -56.667 115.333 -170 106
c-109.333 -8.66699 -209.333 -52 -300 -130c-2 -3.33301 -5 -5 -9 -5c-12 0 -16.333 5.66699 -13 17c5.33301 18.667 36 43.334 92 74.001c82.667 44.667 161.334 68.667 236.001 72c71.333 2.66699 126 -10.666 164 -39.999c33.333 -27.333 50 -64 50 -110
c0 -40 -11.5 -81.833 -34.5 -125.5s-54.833 -84.5 -95.5 -122.5z" />
    <glyph glyph-name="one" unicode="1" horiz-adv-x="366" 
d="M406 582c-20.667 -28 -43.498 -62.3359 -68.498 -103.003s-52.5 -88 -82.5 -142c-68 -123.333 -122.667 -235.666 -164 -336.999c-2 -6.66699 -8.66699 -10 -20 -10s-17 4.66699 -17 14c0 2.66699 1 6.66699 3 12l55.5 117l55.5 116c20.667 44 39.167 85.5 55.5 124.5
s31.166 76.5 44.499 112.5c-1.33301 -1.33301 -5.33301 -4.16602 -12 -8.49902s-15.667 -10.833 -27 -19.5c-13.333 -9.33301 -24.333 -17.666 -33 -24.999s-15.334 -13.333 -20.001 -18c-7.33301 -5.33301 -13 -8 -17 -8c-3.33301 0 -5 1.66699 -5 5c0 6 6 14.667 18 26
l75 74l109 106c4 1.33301 7.66699 2 11 2c10 0 19.167 -3.66699 27.5 -11s12.5 -14.666 12.5 -21.999c0 -2.66699 -0.333008 -4.33398 -1 -5.00098z" />
    <glyph glyph-name="two" unicode="2" horiz-adv-x="566" 
d="M428 -50c-3.33301 -1.33301 -6.66699 -1.00195 -10 0.998047s-5 4.66699 -5 8c0 4.66699 3.33301 8.33398 10 11.001c18.667 8.66699 28 18 28 28c0 14.667 -18.333 28 -55 40c-38 12 -72.667 17.667 -104 17c-56.667 -2 -140 -23 -250 -63
c-14.667 -5.33301 -26.334 -8 -35.001 -8c-14 0 -21 5.33301 -21 16c0 13.333 8.66699 27.666 26 42.999s36 23 56 23c61.333 20.667 139 61.667 233 123c52 34.667 97.5 68.834 136.5 102.501s71.5 66.834 97.5 99.501c41.333 52.667 62 97.334 62 134.001
c0 40 -23.333 60 -70 60c-28.667 0 -62 -8.33301 -100 -25c-45.333 -19.333 -85 -44 -119 -74c-38.667 -34 -64 -69.333 -76 -106c-3.33301 -9.33301 -7.66602 -14 -12.999 -14c-2.66699 0 -4 2.66699 -4 8c0 3.33301 0.333008 6 1 8c8.66699 40.667 32.667 80.667 72 120
c18 17.333 37.5 33.166 58.5 47.499s43.833 26.833 68.5 37.5c36.667 16 70 24 100 24c36 0 64.167 -10.5 84.5 -31.5s30.5 -48.5 30.5 -82.5c0 -48 -19.667 -94.333 -59 -139c-14.667 -16.667 -32.167 -33.5 -52.5 -50.5s-44.5 -34.167 -72.5 -51.5l-126 -78
c-78 -51.333 -123.333 -83.333 -136 -96c188.667 0 281.667 -27.333 279 -82c-2 -24 -13.667 -40.667 -35 -50z" />
    <glyph glyph-name="three" unicode="3" horiz-adv-x="566" 
d="M102 427c2.66699 56.667 43.665 102.001 122.998 136.001c62.667 28 128 42 196 42s123 -14 165 -42s63 -62 63 -102c0 -36 -17.333 -70 -52 -102c-38.667 -36.667 -93.667 -66.334 -165 -89.001c-13.333 -4.66699 -33.333 -9 -60 -13
c-34 -5.33301 -52.667 -8.33301 -56 -9c54 0.666992 96.333 -9.83301 127 -31.5s46 -49.167 46 -82.5c0 -47.333 -28.667 -91.666 -86 -132.999c-17.333 -12.667 -36.666 -24.167 -57.999 -34.5s-44.666 -19.166 -69.999 -26.499c-50 -16 -97 -24 -141 -24
c-72 0 -116.333 19.333 -133 58c-6 14.667 -9 29.667 -9 45c0 44.667 24.667 71 74 79c10.667 0.666992 16 -1 16 -5c0 -6.66699 -5.66699 -9.33398 -17 -8.00098c-6 0.666992 -11.833 -0.833008 -17.5 -4.5s-10.834 -8.66699 -15.501 -15s-8.5 -13.666 -11.5 -21.999
s-4.5 -16.833 -4.5 -25.5c0 -14 4 -26 12 -36c16.667 -22 48.667 -33 96 -33c42 0 86 8.33301 132 25c47.333 16 87 37 119 63c42.667 34.667 64 66.667 64 96c0 33.333 -27.667 59.666 -83 78.999c-49.333 17.333 -101.666 24.666 -156.999 21.999
c-17.333 -1.33301 -26 3 -26 13c0 12 11.333 17.667 34 17c65.333 -2 133 6.33301 203 25c62.667 16.667 110.667 40.667 144 72c30 28 45 58.333 45 91c0 42.667 -22.333 77 -67 103c-47.333 28 -106.666 37 -177.999 27c-60.667 -8.66699 -113 -27.667 -157 -57
c-44.667 -29.333 -68.334 -62.333 -71.001 -99c-1.33301 -11.333 -6.33301 -17 -15 -17c-7.33301 0 -10.333 6 -9 18z" />
    <glyph glyph-name="four" unicode="4" horiz-adv-x="552" 
d="M556 564c-11.333 -9.33301 -43.334 -56.333 -96.001 -141c-53.333 -84.667 -80 -131 -80 -139l12 -4c8.66699 -1.33301 17.334 -2.83301 26.001 -4.5s17.667 -3.16699 27 -4.5c24.667 -6 37 -13.667 37 -23s-4.66699 -14 -14 -14v4c0 -2.66699 -1.33301 -4 -4 -4l-8 2
l-26 4c-26 4 -41.333 6 -46 6c-0.666992 0 -4.33398 -0.333008 -11.001 -1s-12.334 -1 -17.001 -1c-8.66699 -15.333 -20.5 -38.166 -35.5 -68.499l-54.5 -113.5l-38 -80c-3.33301 -6.66699 -6.66602 -12.834 -9.99902 -18.501s-6.66602 -10.834 -9.99902 -15.501
c-12 0 -18 8 -18 24c0 15.333 17.333 59 52 131l48 103.5c10.667 23.667 16.667 36.834 18 39.501c-4 1.33301 -8.66699 2 -14 2c-92.667 0 -178.667 -13.333 -258 -40c-14.667 0 -22 7.33301 -22 22c0 8 12.667 20.667 38 38l25 16l25 16l112.5 79l112.5 79
c84 62.667 150.333 124.667 199 186c20 0 30 -19.333 30 -58v-22zM459.999 528l-83.002 -67.5l-90 -67.5l-79.5 -59c-22.333 -16.667 -40.166 -30.667 -53.499 -42h84h27.5c9 0 17.5 -0.333008 25.5 -1c8 0 14.333 -0.166992 19 -0.5s8 -0.5 10 -0.5
s3.33301 -0.166992 4 -0.5s1.33398 -0.833008 2.00098 -1.5c13.333 0 58 80 134 240z" />
    <glyph glyph-name="five" unicode="5" horiz-adv-x="550" 
d="M602 542c-73.333 -3.33301 -123.331 -6.33691 -149.998 -9.00391c-65.333 -7.33301 -114 -17.666 -146 -30.999h-8l-8 -2c-6.66699 0 -10 -1.33301 -10 -4c-20 -22 -42.667 -58 -68 -108c48 16 88.667 24 122 24c101.333 0 152 -41.667 152 -125
c0 -72 -33 -143.333 -99 -214c-70 -75.333 -145.667 -113 -227 -113c-40.667 0 -76.334 12.333 -107.001 37c-34 28 -51 63.667 -51 107c0 6 5 21.667 15 47c10 24.667 17.667 37 23 37c9.33301 0 14 -5.33301 14 -16c0 -1.33301 -2.66699 -9.33301 -8 -24
s-8 -26.667 -8 -36c0 -77.333 38.333 -116 115 -116c39.333 0 77.666 10.667 114.999 32c40 23.333 76.333 60 109 110c32.667 50.667 49 96 49 136c0 38 -8.33301 64.167 -25 78.5s-44.334 21.5 -83.001 21.5c-44 0 -98 -32 -162 -96c-3.33301 -4 -5.33301 -6 -6 -6
c-4.66699 -3.33301 -10 -5 -16 -5c-18 0 -27 7.66699 -27 23c0 2.66699 1 6.66699 3 12c0.666992 0.666992 1.5 1.83398 2.5 3.50098s2.16699 3.83398 3.5 6.50098l12 18c5.33301 8.66699 11 17.167 17 25.5s12.333 16.5 19 24.5c30 46.667 48.667 82 56 106
c-5.33301 2.66699 -10.333 5.33398 -15 8.00098s-7 8.66699 -7 18c2 0.666992 12 8.66699 30 24c14.667 12 24.667 18 30 18h6.5c3.66699 0 8.83398 -0.333008 15.501 -1s11.834 -1 15.501 -1h6.5c24 0 61.667 3 113 9c25.333 3.33301 47.666 5.83301 66.999 7.5
s35.666 2.5 48.999 2.5s25.833 -0.5 37.5 -1.5s22.834 -2.83301 33.501 -5.5v-22z" />
    <glyph glyph-name="six" unicode="6" horiz-adv-x="492" 
d="M458 644c-2 -7.33301 -9.33203 -15.333 -21.999 -24c-42.667 -28.667 -82.667 -59.667 -120 -93s-72 -70 -104 -110c-74 -91.333 -118 -179.666 -132 -264.999c-2 -13.333 -3 -26.333 -3 -39c0 -36 7 -65.333 21 -88c16 -27.333 40 -41 72 -41c44.667 0 88.667 21 132 63
c40 40 68.667 85.667 86 137c7.33301 23.333 11 45.666 11 66.999c0 60.667 -25.667 91 -77 91c-29.333 0 -66.666 -16.667 -111.999 -50c-12.667 -6.66699 -21.334 -10 -26.001 -10l-2 2c-2.66699 2.66699 -4 6 -4 10c0 15.333 18.333 33.333 55 54
c34.667 20 61.667 30 81 30c42 0 76 -14.667 102 -44s39 -64.333 39 -105c0 -64 -33.333 -126.333 -100 -187c-66 -60 -131 -90 -195 -90c-43.333 0 -77.333 20 -102 60c-20.667 33.333 -31 74 -31 122c0 86.667 48 188 144 304c91.333 110 179.666 181.667 264.999 215
c6 2 11.333 3 16 3c8 0 10 -4 6 -12z" />
    <glyph glyph-name="seven" unicode="7" horiz-adv-x="496" 
d="M498 554c3.33301 -18.667 -26.002 -61.333 -88.002 -128l-58 -59l-70 -73c-57.333 -59.333 -100.666 -110.666 -129.999 -153.999c-38 -57.333 -62 -115.333 -72 -174h-6c-0.666992 0 -1.83398 -0.333008 -3.50098 -1s-3.16699 -1 -4.5 -1
c-5.33301 0 -11.666 7.66699 -18.999 23c-2 4.66699 -4 9 -6 13s-3.66699 8 -5 12c-1.33301 6.66699 -2 12.334 -2 17.001c0 18 6.66699 38.333 20 61l13 17.5l27 36.5c13.333 17.333 38 47.166 74 89.499l144 166.5c81.333 93.333 122 148.666 122 165.999
c0 8 -9 12 -27 12c-20 0 -46.333 -4 -79 -12c-7.33301 -2 -17.5 -5.16699 -30.5 -9.5s-28.167 -10.166 -45.5 -17.499c-42 -17.333 -74 -32.333 -96 -45l-30 -24c-8 -8 -17.333 -12 -28 -12c-13.333 0 -20 8.33301 -20 25c0 12.667 4.33301 25.667 13 39
s20.334 22.666 35.001 27.999c112 41.333 206 62 282 62c14 0 30.667 -5 50 -15c24 -12.667 37.333 -27 40 -43z" />
    <glyph glyph-name="eight" unicode="8" horiz-adv-x="516" 
d="M658 616l-68.5 -44.498c-20.333 -13 -38.833 -24.167 -55.5 -33.5c11.333 -26.667 18 -47.334 20 -62.001c2 -18.667 -2 -28 -12 -28c-6 0 -11.333 2.33301 -16 7c-5.33301 4.66699 -17.333 23.667 -36 57c-6.66699 -2.66699 -20.167 -10.5 -40.5 -23.5
s-47.833 -31.833 -82.5 -56.5c-68.667 -48.667 -105 -76.667 -109 -84l2 -2l4 -10c24 -45.333 36 -84 36 -116c0 -65.333 -25.333 -123 -76 -173c-51.333 -50 -108 -73.667 -170 -71c-28 1.33301 -49.5 11.333 -64.5 30s-22.5 40.667 -22.5 66c0 52 37 112.667 111 182
c12 11.333 27.667 24.833 47 40.5l69 55.5c-16.667 36 -25 70 -25 102c0 54 23 97.667 69 131c40.667 28.667 88.667 43 144 43c64.667 0 110 -18.667 136 -56l89.5 46c23 11.333 39.167 18.666 48.5 21.999c10 2 15 0 15 -6s-4.33301 -11.333 -13 -16zM474 544.002
c-17.333 34 -51.665 50.999 -102.998 50.999c-26.667 0 -48.334 -3.66699 -65.001 -11c-59.333 -27.333 -89 -64 -89 -110c0 -18.667 4.33301 -38 13 -58c1.33301 -3.33301 3.16602 -7.66602 5.49902 -12.999l8.5 -19l122 88c38 26.667 74 50.667 108 72zM250.001 198.001
c0 7.33301 -5.33398 24.667 -16.001 52c-10 27.333 -18.667 48 -26 62c-19.333 -13.333 -39.166 -29.666 -59.499 -48.999s-40.833 -42.333 -61.5 -69c-44.667 -56.667 -67 -101.334 -67 -134.001c0 -37.333 17.333 -56 52 -56c36.667 0 74.667 18.667 114 56
c42.667 40.667 64 86.667 64 138z" />
    <glyph glyph-name="nine" unicode="9" horiz-adv-x="510" 
d="M478 480l-6.00293 3.99805v-2l-2 4c-2.66699 0 -4 2.66699 -4 8c0 -2.66699 2.66699 6.66602 8 27.999c4.66699 16 7 30 7 42c0 37.333 -23.667 56 -71 56c-62 0 -131.667 -37.333 -209 -112c-78 -75.333 -117 -142.666 -117 -201.999c0 -34.667 15.667 -52 47 -52
c22.667 0 54 9.66699 94 29c34.667 16.667 63 33.667 85 51c8.66699 6.66699 17.834 14.667 27.501 24s20.167 20.333 31.5 33c28 32 46.333 52.333 55 61c2.66699 2.66699 6 4 10 4s8.16699 -1.33301 12.5 -4s8.33301 -6 12 -10s6.83398 -8 9.50098 -12s4 -7.33301 4 -10
s-26.667 -46.667 -80 -132c-96 -152 -150 -261.333 -162 -328c-1.33301 -4.66699 -2.33301 -9 -3 -13s-1.66699 -8.33301 -3 -13c-2.66699 -10.667 -8.66699 -16 -18 -16s-13.333 6 -12 18c3.33301 78 50 205.333 140 382c-16 -12.667 -32.667 -24.167 -50 -34.5
s-35.333 -20.166 -54 -29.499c-46 -22 -85 -33 -117 -33c-58.667 0 -85.667 38.333 -81 115c5.33301 66 52.666 135 141.999 207c86.667 70 164.667 105 234 105c70.667 0 106 -27.667 106 -83c0 -9.33301 -1.16699 -18.666 -3.5 -27.999s-5.16602 -18 -8.49902 -26
s-7.16602 -14.667 -11.499 -20s-8.5 -9 -12.5 -11z" />
    <glyph glyph-name="colon" unicode=":" horiz-adv-x="240" 
d="M288 222c0 -12.667 -4.66699 -23.5 -14 -32.5s-20.666 -13.5 -33.999 -13.5s-24.666 4.5 -33.999 13.5s-14 19.833 -14 32.5s4.66699 23.5 14 32.5s20.666 13.5 33.999 13.5s24.666 -4.5 33.999 -13.5s14 -19.833 14 -32.5zM196 40c0 -12.667 -4.66699 -23.5 -14 -32.5
s-20.666 -13.5 -33.999 -13.5s-24.666 4.5 -33.999 13.5s-14 19.833 -14 32.5s4.66699 23.5 14 32.5s20.666 13.5 33.999 13.5s24.666 -4.5 33.999 -13.5s14 -19.833 14 -32.5z" />
    <glyph glyph-name="semicolon" unicode=";" horiz-adv-x="232" 
d="M324 254c0 -12.667 -4.66699 -23.5 -14 -32.5s-20.666 -13.5 -33.999 -13.5s-24.666 4.5 -33.999 13.5s-14 19.833 -14 32.5c0 12 4.66699 22.333 14 31s20.666 13 33.999 13s24.666 -4.33301 33.999 -13s14 -19 14 -31zM192 36c2 -18 -11.001 -46.334 -39.001 -85.001
c-30 -42 -61 -72.333 -93 -91c-16 -10 -27 -15 -33 -15c-2.66699 0 -4 1.33301 -4 4c0 8 6.33301 18.333 19 31c9.33301 10 20.5 23.833 33.5 41.5s27.167 39.167 42.5 64.5c-17.333 3.33301 -26 17.333 -26 42c0 12.667 5.5 24.334 16.5 35.001s26.167 15.667 45.5 15
c22.667 -1.33301 35.334 -15.333 38.001 -42z" />
    <glyph glyph-name="less" unicode="&#x3c;" horiz-adv-x="329" 
d="M333 297c-6.66699 -10.667 -32.335 -33.001 -77.002 -67.001l-42 -30l-43 -30l-1 -136l-5 -10l-7 -3c-1.33301 0.666992 -2.66602 1.16699 -3.99902 1.5s-2.66602 0.833008 -3.99902 1.5c-6.66699 18.667 -13.667 44.334 -21 77.001
c-3.33301 13.333 -6.33301 26.333 -9 39l-8 39c139.333 86 210.333 128.667 213 128l7 -3z" />
    <glyph glyph-name="equal" unicode="=" horiz-adv-x="458" 
d="M409 322c0 -7.33301 -5.66699 -11 -17 -11c-24.667 0 -49.5 -0.666992 -74.5 -2s-50.5 -3.33301 -76.5 -6c-54 -6 -79.667 -9 -77 -9c-11.333 0 -17 9.66699 -17 29c0 12.667 5.66699 19 17 19h147c65.333 0 98 -6.66699 98 -20zM409 222
c0 -7.33301 -5.66699 -11 -17 -11c-24.667 0 -49.5 -0.666992 -74.5 -2s-50.5 -3.33301 -76.5 -6c-54 -6 -79.667 -9 -77 -9c-11.333 0 -17 9.66699 -17 29c0 12.667 5.66699 19 17 19h147c65.333 0 98 -6.66699 98 -20z" />
    <glyph glyph-name="greater" unicode="&#x3e;" horiz-adv-x="329" 
d="M248 150l-205 -128l-7 -1c-1.33301 0 -4 0.666992 -8 2l-1 4c0 8.66699 26.667 32.667 80 72l41 30l41 29l1 136c1.33301 2 2.33301 3.66699 3 5l2 4l8 4l9 -4c8 -19.333 15 -44.666 21 -75.999c2.66699 -12.667 5.16699 -25.334 7.5 -38.001z" />
    <glyph glyph-name="question" unicode="?" horiz-adv-x="600" 
d="M608 710c0 -46 -22.002 -93.333 -66.002 -142c-28 -32 -76 -73.333 -144 -124c-16.667 -12 -36.667 -27.5 -60 -46.5l-82 -67.5c-42.667 -40.667 -64 -78 -64 -112v-2c0 -9.33301 4 -14 12 -14c-0.666992 -2.66699 -1.16699 -5.66699 -1.5 -9s-1.16602 -7 -2.49902 -11
c-2 -12 -9.33301 -18 -22 -18c-11.333 0 -20.333 6 -27 18c-4.66699 8.66699 -7 17.334 -7 26.001c0 38 21.667 82.667 65 134c12.667 15.333 30.5 34.166 53.5 56.499l85.5 79.5l138 132c40 44.667 60 82 60 112c0 30.667 -16 46 -48 46
c-77.333 0 -158.666 -27.333 -243.999 -82c-66.667 -42.667 -111.334 -80.667 -134.001 -114c-4 -6 -10.333 -9 -19 -9c-9.33301 0 -14 4 -14 12c0 6.66699 3.66699 15.667 11 27c24.667 36.667 72.334 77.667 143.001 123c88.667 58 171 87 247 87
c28 0 53.667 -8.33301 77 -25c28.667 -20 43 -45.667 43 -77zM181.998 14c0 -12 -4.66699 -22.333 -14 -31s-20.666 -13 -33.999 -13s-24.666 4.33301 -33.999 13s-14 19 -14 31c0 12.667 4.66699 23.5 14 32.5s20.666 13.5 33.999 13.5s24.666 -4.5 33.999 -13.5
s14 -19.833 14 -32.5z" />
    <glyph glyph-name="A" unicode="A" horiz-adv-x="1018" 
d="M278 265c15.333 3.33301 32 6.33105 50 8.99805s37.667 5.33398 59 8.00098c108.667 110.667 188.667 219.667 240 327c22 46.667 33 89 33 127c0 36.667 -9.66699 65.667 -29 87s-44.333 32 -75 32c-45.333 0 -90.333 -21.333 -135 -64c-52 -50 -94.333 -120 -127 -210
c-22 -61.333 -33 -125.666 -33 -192.999c0 -44 5.66699 -85 17 -123zM1049 117.998c-14.667 -19.333 -30.6709 -37.3242 -48.0039 -53.9912s-35.666 -32.334 -54.999 -47.001c-47.333 -36 -88.666 -54 -123.999 -54c-50.667 0 -83.667 36.667 -99 110
c-3.33301 16.667 -5 34.667 -5 54c0 42 6.33301 92.667 19 152c-28.667 -0.666992 -63.667 -1.83398 -105 -3.50098s-89.666 -4.16699 -144.999 -7.5c-2.66699 -2 -15 -13.333 -37 -34l-97 -91c40.667 -33.333 91.667 -50 153 -50c42.667 0 74.334 10.333 95.001 31
c2.66699 2.66699 5.33398 2.66699 8.00098 0s2.66699 -5.33398 0 -8.00098c-23.333 -23.333 -57.666 -35 -102.999 -35c-66 0 -120.333 17.333 -163 52c-54.667 -52 -103 -95.167 -145 -129.5s-78 -60.166 -108 -77.499c14.667 -7.33301 31.334 -13.333 50.001 -18
s39.667 -8.33398 63 -11.001c7.33301 -1.33301 11 -3 11 -5c0 -5.33301 -6 -7.33301 -18 -6c-47.333 5.33301 -88 15.666 -122 30.999c-106.667 -62.667 -192.334 -92.667 -257.001 -90c-28 0.666992 -42 9.66699 -42 27c0 7.33301 3 16.666 9 27.999
c3.33301 9.33301 8.66602 15.666 15.999 18.999c-6 -14 -9 -25.333 -9 -34c0 -14.667 11.333 -22.334 34 -23.001c60.667 -2 137.334 25.333 230.001 82c-52.667 24.667 -79 59.334 -79 104.001c0 30.667 13 62 39 94c54.667 66.667 136 112.334 244 137.001
c-13.333 42 -20 88 -20 138c0 66.667 10.333 128 31 184c34.667 94 80 166.333 136 217c48.667 44 98.334 66 149.001 66c36.667 0 66.667 -12.167 90 -36.5s35 -57.5 35 -99.5c0 -37.333 -10.667 -79.333 -32 -126c-47.333 -100.667 -127.333 -207.334 -240 -320.001
c7.33301 1.33301 16.166 2.5 26.499 3.5l35.5 3.5c36 36 73 75.167 111 117.5s77.333 88.833 118 139.5c112 140 168 235 168 285c0 24 -13 36.667 -39 38c-6 0 -9 1.66699 -9 5c0 6 5.33301 9 16 9c50 -2 75 -23 75 -63c0 -26.667 -11 -61.334 -33 -104.001
c3.33301 -4.66699 4 -11.667 2 -21c-10 -40 -22 -92 -36 -156l-49 -231c83.333 13.333 125 47.666 125 102.999c0 7.33301 3 11 9 11c4 0 6.66699 -2.66699 8 -8c3.33301 -72 -45.334 -116 -146.001 -132c-4.66699 -28 -8 -53.667 -10 -77s-3 -45 -3 -65
c0 -33.333 3 -61.333 9 -84c10.667 -48 31.667 -72 63 -72c26 0 59 18 99 54c7.33301 6.66699 17.666 17 30.999 31l50 54c8 8 14 12 18 12c3.33301 0 5 -2.66699 5 -8c0 -4.66699 -1 -8.33398 -3 -11.001zM848.996 668.007c-45.333 -71.333 -96.334 -137.333 -153.001 -198
c-15.333 -16.667 -37.833 -39.5 -67.5 -68.5l-111.5 -106.5c26.667 2.66699 64.334 4.66699 113.001 6c56 0.666992 93.667 1.66699 113 3c6 25.333 13.5 53.833 22.5 85.5l30.5 104.5l26 87zM274.995 222.007c-58.667 -19.333 -111.333 -45.333 -158 -78
c-62 -43.333 -93 -86.333 -93 -129c0 -28.667 16 -55 48 -79c28.667 18.667 64 45.667 106 81s91 79.666 147 132.999c-9.33301 8.66699 -18.333 19.334 -27 32.001l-11 -9c-81.333 -69.333 -128 -104 -140 -104c-2.66699 0 -4.33398 1.33301 -5.00098 4
c-1.33301 4 -0.666016 6.33301 2.00098 7c21.333 13.333 44.166 29.333 68.499 48s50.5 40 78.5 64c-3.33301 4.66699 -6.16602 9.5 -8.49902 14.5zM346.996 243.007c-9.33301 -2.66699 -18.668 -5.16797 -28.001 -7.50098s-18.666 -5.16602 -27.999 -8.49902l6 -12
c2 -4 4.33301 -8 7 -12c14.667 12.667 29 26 43 40zM440.994 262.006c-13.333 -2.66699 -25.999 -5.00098 -37.999 -7.00098s-22.667 -4 -32 -6l-30 -28.5c-10 -9.66699 -20.333 -19.167 -31 -28.5c3.33301 -5.33301 7.16602 -10.666 11.499 -15.999l13.5 -16
c12.667 11.333 27.667 25.5 45 42.5z" />
    <glyph glyph-name="B" unicode="B" horiz-adv-x="945" 
d="M305 710c-19.333 59.333 -56.333 88.999 -111 88.999c-45.333 0 -77 -20 -95 -60c-2.66699 -4.66699 -4 -9.33398 -4 -14.001c0 -24 25.667 -34.333 77 -31c15.333 0.666992 33.833 2.33398 55.5 5.00098s47.5 6.33398 77.5 11.001zM164 196.999
c-60 -39.333 -90 -81.667 -90 -127c0 -12 2.66699 -24.333 8 -37l44 86c14 27.333 26.667 53.333 38 78zM214 254.998c14 4.66699 29.9971 8.66504 47.9971 11.998c36 113.333 103.667 239.666 203 378.999c11.333 15.333 28 23 50 23c16.667 0 25 -4 25 -12
c0 -3.33301 -2 -7 -6 -11c-21.333 -21.333 -55.666 -69 -102.999 -143c-56 -87.333 -97.667 -163.666 -125 -228.999c16.667 2.66699 33.334 4.5 50.001 5.5s33.667 1.5 51 1.5c117.333 0 188.666 -20.667 213.999 -62c2.66699 -6 1 -9.33301 -5 -10
c-6 0 -11.333 1.33301 -16 4c-40.667 26.667 -108.334 40 -203.001 40c-18 0 -35.5 -0.5 -52.5 -1.5s-33.5 -2.83301 -49.5 -5.5c-13.333 -36 -20 -64.667 -20 -86c-0.666992 -24.667 4 -45.667 14 -63c10.667 -18.667 25.667 -28 45 -28
c4.66699 0 8.33398 0.333008 11.001 1c8.66699 2 13 -0.666992 13 -8c0 -2.66699 -2.66699 -4.66699 -8 -6c-32.667 -2 -58.334 6 -77.001 24s-28.667 43 -30 75c-0.666992 22.667 3 50 11 82c-10 -2.66699 -20 -5.83398 -30 -9.50098s-20 -8.16699 -30 -13.5l-46 -87
l-59 -109c32.667 -54 96.334 -81 191.001 -81c108 0 207 19.333 297 58c80.667 34.667 143.334 79 188.001 133c36 42.667 54 82.667 54 120c0 44.667 -25.667 80.667 -77 108c-47.333 25.333 -104.666 38 -171.999 38c-40.667 0 -79 -5 -115 -15c-8 -2 -12 0.666992 -12 8
c0 4 1.33301 8.66699 4 14s6.16699 10.333 10.5 15s9.5 8.83398 15.5 12.501s12.333 5.83398 19 6.50098c16.667 2 28.667 1.33301 36 -2c73.333 23.333 139.666 65 198.999 125c47.333 47.333 71 86.666 71 117.999c0 41.333 -42 62 -126 62
c-23.333 -0.666992 -49.166 -2.66699 -77.499 -6s-58.833 -8.66602 -91.5 -15.999c-1.33301 -0.666992 -16 -4.16699 -44 -10.5s-69 -16.166 -123 -29.499c4 -30.667 2.33301 -67 -5 -109c-15.333 -81.333 -54.333 -185.333 -117 -312zM814.997 107.996
c-46 -56 -114.002 -101.332 -204.002 -135.999c-96 -37.333 -200.333 -56 -313 -56c-95.333 0 -170.666 23.333 -225.999 70l-81 -146c-2 -3.33301 -4.66699 -4 -8 -2c-4 1.33301 -5 4 -3 8l43.5 80l37.5 69c-26 24.667 -39 51.667 -39 81c0 60 54.667 115.667 164 167
c94 199.333 136.333 342 127 428c-61.333 -15.333 -108.333 -23.333 -141 -24c-37.333 -1.33301 -65.666 4.33398 -84.999 17.001c-17.333 11.333 -26 26.333 -26 45c0 7.33301 1.33301 14 4 20c8 24 24.167 43.5 48.5 58.5s51.5 22.5 81.5 22.5c66 0 110 -32 132 -96l87 15
c56.667 10 99.667 17 129 21c24.667 3.33301 47.667 6 69 8s41.333 3.66699 60 5c59.333 3.33301 105.333 -4 138 -22c31.333 -16 47 -39.333 47 -70c0 -40.667 -26.333 -83.334 -79 -128.001c-60 -52 -136.333 -93.667 -229 -125c2 -0.666992 5.66699 -1 11 -1
c8 0.666992 16 1.16699 24 1.5s16 0.5 24 0.5c72.667 0 134.667 -15.667 186 -47c52.667 -32.667 79 -75.334 79 -128.001c0 -44 -19.333 -89.333 -58 -136z" />
    <glyph glyph-name="C" unicode="C" horiz-adv-x="865" 
d="M59 409c12 22 27.001 44.333 45.001 67c68.667 88 161 160.667 277 218c-59.333 14.667 -116.333 20.667 -171 18c-58.667 -4 -109.334 -20.333 -152.001 -49c-50.667 -34.667 -75 -79 -73 -133c2 -50.667 26.667 -91 74 -121zM760.001 391l61.002 33.999
c17.333 10 31.666 19.333 42.999 28c44.667 32.667 76.667 69.667 96 111c10.667 22 16 43.667 16 65c0 38.667 -19.333 68.334 -58 89.001c-37.333 19.333 -87 29 -149 29c-97.333 0 -199.333 -22 -306 -66c51.333 -22 101.666 -50.667 150.999 -86
c33.333 -23.333 64.333 -51 93 -83c36.667 -40.667 55 -76 55 -106c0 -3.33301 -0.666992 -8.33301 -2 -15zM997.003 570.999c-43.333 -80 -127.671 -149.334 -253.004 -208.001l-2 -1c-5.33301 -2 -9.33301 -3 -12 -3c-4 0 -5.33301 1.66699 -4 5s4.33301 7 9 11
c5.33301 9.33301 8 19.333 8 30c0 30 -19.667 66.667 -59 110c-28 30 -54 53.667 -78 71c-51.333 36.667 -105 65.667 -161 87c-131.333 -57.333 -235 -135.333 -311 -234c-13.333 -17.333 -25.333 -34.333 -36 -51c42.667 -17.333 88.334 -26 137.001 -26
c60 0 95.667 11 107 33c1.33301 3.33301 3.66602 4 6.99902 2c4 -2 5 -5 3 -9c-6 -12 -21.5 -21.833 -46.5 -29.5s-54.5 -11.5 -88.5 -11.5c-46.667 0 -90 7.66699 -130 23c-33.333 -57.333 -50 -110.333 -50 -159c0 -68.667 31.667 -123 95 -163
c64.667 -39.333 150.667 -59 258 -59c13.333 0 27 0.333008 41 1s28.333 1.66699 43 3c80 6.66699 145 16.667 195 30c90 22.667 161.667 58.667 215 108c4.66699 4 8.33398 6 11.001 6c4 0 5.66699 -3 5 -9c-1.33301 -5.33301 -4 -10 -8 -14
c-44 -38 -113 -73.667 -207 -107c-39.333 -13.333 -76.333 -24.333 -111 -33s-67.334 -15 -98.001 -19c-33.333 -4 -65.666 -6 -96.999 -6c-153.333 0 -262 43.667 -326 131c-63.333 88.667 -64.666 192 -3.99902 310c-52.667 32.667 -79 79.667 -79 141
c-1.33301 59.333 24.334 108 77.001 146c45.333 34.667 99.333 53.334 162 56.001c60.667 2.66699 125.334 -7 194.001 -29c134 61.333 268 92 402 92c74 0 129.333 -15.333 166 -46c30.667 -24.667 46 -57.667 46 -99c0 -28 -6.66699 -54.667 -20 -80z" />
    <glyph glyph-name="D" unicode="D" horiz-adv-x="1186" 
d="M105 41c48.667 -24.667 122.335 -37.001 221.002 -37.001c172.667 0 337.667 38 495 114c-21.333 40.667 -54.333 76.667 -99 108c-32.667 22.667 -77.334 41.667 -134.001 57c-54 14.667 -111 22 -171 22c-18 0 -35.5 -0.666992 -52.5 -2s-33.167 -3.33301 -48.5 -6
c-13.333 -30 -23.333 -56.333 -30 -79s-10.334 -42 -11.001 -58c-0.666992 -24.667 4 -45.667 14 -63c10.667 -18.667 25.667 -28 45 -28c4.66699 0 8.33398 0.333008 11.001 1c8.66699 2 13 -0.666992 13 -8c0 -2.66699 -2.66699 -4.66699 -8 -6
c-32.667 -2 -58.334 6 -77.001 24s-28.667 43 -30 75c-0.666992 34.667 8 78.334 26 131.001c-8 -2 -16 -4.16699 -24 -6.5s-16 -4.83301 -24 -7.5c-16 -38.667 -33.667 -77.167 -53 -115.5s-40.333 -76.833 -63 -115.5zM196.001 261.999
c-44 -19.333 -79.333 -42.5 -106 -69.5s-40 -53.5 -40 -79.5s14 -47.333 42 -64c20.667 36.667 39.5 72.667 56.5 108s32.833 70.333 47.5 105zM280.001 699.999c-14.667 60.667 -47.333 91 -98 91c-28 0 -49.833 -5.5 -65.5 -16.5s-23.5 -23.833 -23.5 -38.5
c0 -24.667 17 -38.334 51 -41.001c15.333 -1.33301 34.333 -1.66602 57 -0.999023s49 2.66699 79 6zM220.002 319.999c50.667 132.667 72.998 242.999 66.998 330.999c-18.667 -2.66699 -36.167 -4.5 -52.5 -5.5s-31.833 -1.5 -46.5 -1.5c-94.667 0 -142 22.333 -142 67
c0 24.667 13.333 47 40 67c26.667 20.667 57.667 31 93 31c66 0 107 -35.667 123 -107c30 3.33301 60.5 7.16602 91.5 11.499s63.167 9.16602 96.5 14.499c102.667 18 195.667 27 279 27c130.667 0 233.334 -21.333 308.001 -64c87.333 -51.333 131 -120.666 131 -207.999
c0 -46.667 -12.5 -93.334 -37.5 -140.001s-58.833 -89 -101.5 -127c-59.333 -50.667 -129 -94.667 -209 -132c5.33301 -19.333 8 -37.333 8 -54c0 -48 -17 -88 -51 -120c-35.333 -33.333 -84 -50.666 -146 -51.999c-31.333 -0.666992 -61 6.66602 -89 21.999
c-26.667 14.667 -43 31.334 -49 50.001c-1.33301 4.66699 0 7.33398 4 8.00098c4 1.33301 6.66699 0 8 -4c5.33301 -16 19.333 -30.333 42 -43c26 -15.333 54 -22.333 84 -21c56 0.666992 99.5 15.167 130.5 43.5s46.5 64.5 46.5 108.5c0 16 -2.66699 33.667 -8 53
c-155.333 -68 -319.666 -102 -492.999 -102c-110.667 0 -196.334 14 -257.001 42l-20 -31.5l-20 -31.5c-2 -3.33301 -5 -4 -9 -2c-3.33301 1.33301 -4 4 -2 8c12.667 20 25.334 41.333 38.001 64c-49.333 26 -74 59.667 -74 101c0 38.667 20.333 76.334 61 113.001
s92.667 64.667 156 84zM337 340.998c8 0.666992 16.0029 1.16699 24.0029 1.5s16.333 0.5 25 0.5c64.667 0 129.334 -9.33301 194.001 -28c62 -18.667 113.333 -41.667 154 -69c50 -34 86.333 -73 109 -117c61.333 31.333 116.666 68.333 165.999 111
c21.333 18 40.666 37.5 57.999 58.5s32.166 42.667 44.499 65s21.833 45 28.5 68s10 45.5 10 67.5c0 70 -33 125.667 -99 167c-65.333 41.333 -150.666 62 -255.999 62c-76.667 0 -172.334 -12.667 -287.001 -38c-37.333 -8.66699 -72.333 -16 -105 -22s-64 -11 -94 -15
c6 -87.333 -16 -196.333 -66 -327c14.667 4 29.667 7 45 9c42 102 101 205.667 177 311c11.333 15.333 28 23 50 23c16.667 0 25 -4 25 -12c0 -3.33301 -2 -7 -6 -11c-8.66699 -8 -19.834 -21.333 -33.501 -40s-30.167 -43 -49.5 -73
c-45.333 -67.333 -83.333 -131.333 -114 -192z" />
    <glyph glyph-name="E" unicode="E" horiz-adv-x="794" 
d="M769 614c22 8.66699 33.001 29.668 33.001 63.001c0 24 -9 43.667 -27 59c-21.333 18.667 -54 28 -98 28c-42.667 0 -93.334 -9 -152.001 -27s-107.334 -46.333 -146.001 -85c46.667 18 93.334 31 140.001 39c10.667 1.33301 23.167 2.5 37.5 3.5s30.833 1.5 49.5 1.5
c114.667 0 172 -20.667 172 -62c0 -6.66699 -3 -13.334 -9 -20.001zM80.001 277.001c53.333 52 128.667 93.667 226 125c6.66699 2 54.667 12 144 30c-52 -0.666992 -97.333 11.333 -136 36c-38 24.667 -55 54.667 -51 90l2 12c0.666992 4 1.66699 8 3 12
c-130.667 -74.667 -196 -161 -196 -259c0 -16 2.66699 -31.333 8 -46zM779.002 202.001c-2.66699 -64.667 -44 -121.667 -124 -171c-72 -44.667 -159 -73 -261 -85c-31.333 -4 -60.666 -6 -87.999 -6c-86 0 -155.667 16.333 -209 49c-51.333 30 -80.333 69.333 -87 118
c-8 48.667 7.66699 97 47 145c-6.66699 14 -10 31 -10 51c0 120 77.333 221.333 232 304c37.333 69.333 119.666 121.666 246.999 156.999c58 15.333 109.333 23 154 23c53.333 0 95.666 -10.667 126.999 -32c27.333 -19.333 41 -42.666 41 -69.999
c0 -20.667 -8.16699 -39.5 -24.5 -56.5s-39.5 -27.833 -69.5 -32.5h-7h-3c-5.33301 1.33301 -8 3 -8 5c0 6.66699 5 10 15 10c10 4.66699 15 12.334 15 23.001c0 30.667 -48.333 46 -145 46c-42.667 0 -76.334 -2 -101.001 -6c-52.667 -8.66699 -108 -25.334 -166 -50.001
c-17.333 -24 -27.333 -48 -30 -72c-4 -38 26 -68 90 -90c56 -19.333 117.667 -27.333 185 -24c22 0.666992 33 -5.66602 33 -18.999c0 -14.667 -12.667 -21.334 -38 -20.001c-81.333 2.66699 -168.666 -8 -261.999 -32c-104 -26.667 -178.333 -70 -223 -130
c28 -26 65.667 -39 113 -39c20 0 39.833 2.5 59.5 7.5s41.5 15.833 65.5 32.5c29.333 20 44 39 44 57c0 4.66699 -1.33301 9.33398 -4 14.001c-2.66699 3.33301 -2.33398 5.66602 0.999023 6.99902c1.33301 0.666992 3.33301 -0.666016 6 -3.99902
c3.33301 -6.66699 5 -13 5 -19c0 -20 -14.333 -41.333 -43 -64c-23.333 -18 -45.666 -30.667 -66.999 -38c-30 -10.667 -60.667 -16 -92 -16c-43.333 0 -78.666 10.667 -105.999 32c-11.333 -24 -17 -46.667 -17 -68c0 -48 21.667 -88 65 -120
c46.667 -34 109.334 -51 188.001 -51c26 0 52.667 2 80 6c93.333 13.333 174 40.666 242 81.999c74 44.667 113.333 94 118 148c1.33301 9.33301 4 14 8 14c3.33301 0 4.66602 -5.33301 3.99902 -16z" />
    <glyph glyph-name="F" unicode="F" horiz-adv-x="1068" 
d="M839 720c-3.33301 52 -16.999 92.667 -40.999 122c-22 26.667 -49.333 40 -82 40c-30.667 0 -58.667 -11.333 -84 -34c-28 -26 -48.333 -60 -61 -102c42.667 -0.666992 86.167 -3.16699 130.5 -7.5s90.166 -10.5 137.499 -18.5zM783.001 383l33.001 -2
c10.667 -0.666992 20.667 -1.66699 30 -3c3.33301 6.66699 9.66602 21 18.999 43s21.333 52 36 90c13.333 35.333 26 65.333 38 90s22.667 44.334 32 59.001c-17.333 4.66699 -34.833 8.66699 -52.5 12l-54.5 10c-3.33301 -92.667 -30.333 -192.334 -81 -299.001zM1046 673
l-1.00098 -2c14 -4.66699 28 -9 42 -13s28 -8.33301 42 -13c16.667 -4.66699 32 -8.66699 46 -12s27.333 -6 40 -8c28 -4 45 -6 51 -6c19.333 0 32.333 6.33301 39 19c2 2.66699 4.33301 4 7 4c6 0 9 -3 9 -9c0 -2 -0.333008 -3.66699 -1 -5c-14 -21.333 -39 -32 -75 -32
c-30.667 0 -67 5.33301 -109 16c-2 0.666992 -11.667 3.66699 -29 9s-43 12.666 -77 21.999l-129 -270c8 -1.33301 18.167 -3.16602 30.5 -5.49902l43.5 -8.5c13.333 -1.33301 25.166 -3.66602 35.499 -6.99902s19.833 -7.33301 28.5 -12c17.333 -9.33301 17.333 -14 0 -14
c-16.667 0 -40.667 3.33301 -72 10l-46.5 8.5c-12.333 2.33301 -21.833 3.83301 -28.5 4.5c-62 -143.333 -151.333 -253.333 -268 -330c-116.667 -77.333 -248 -115 -394 -113c-75.333 0.666992 -133.333 14.667 -174 42c-37.333 24 -56 54.667 -56 92
c-0 20 5.33301 39.333 16 58c48 90 173 134 375 132c30 -0.666992 55.667 -2.5 77 -5.5s38.666 -7.83301 51.999 -14.5c13.333 -7.33301 20 -13.333 20 -18c0 -2.66699 -2 -4 -6 -4c-2.66699 0 -8 1.66699 -16 5c-12.667 6.66699 -54.667 10.334 -126 11.001
c-164.667 2.66699 -274.667 -35.666 -330 -114.999c-12.667 -18.667 -19 -37.334 -19 -56.001c0 -26.667 13 -48 39 -64c28.667 -18.667 72.334 -28.667 131.001 -30c154.667 -2 284.334 35 389.001 111c90.667 66 167 166.333 229 301
c-14.667 2.66699 -35.334 3.66699 -62.001 3c-58.667 -112.667 -130 -203 -214 -271c-94 -76.667 -192 -112.334 -294 -107.001c-4 1.33301 -5.66699 3.33301 -5 6c1.33301 3.33301 3.33301 5 6 5c94.667 -2 186.667 34 276 108c78.667 64.667 146 150.667 202 258
c-51.333 -3.33301 -108.333 -9.33301 -171 -18c-62 -9.33301 -104 -17.333 -126 -24c-8 -2.66699 -15 -4 -21 -4c-11.333 0 -9.33301 8 6 24c12.667 14 24.667 24 36 30c28.667 16.667 96 25 202 25c14.667 0 29.5 -0.166992 44.5 -0.5s30.167 -0.833008 45.5 -1.5
c26.667 54.667 46.834 107.167 60.501 157.5s21.167 98.5 22.5 144.5c-48 7.33301 -95 12.166 -141 14.499s-91.667 2.16602 -137 -0.500977c-0.666992 -6.66699 -1.16699 -13.167 -1.5 -19.5s-0.5 -12.833 -0.5 -19.5c0 -93.333 38.333 -166.333 115 -219
c2.66699 -2 3 -4.66699 1 -8s-4.33301 -3.66602 -7 -0.999023c-44 30 -78 66.667 -102 110c-22 40.667 -33 83.334 -33 128.001v13.5c0 4.33301 0.333008 8.83301 1 13.5c-74.667 -6.66699 -142.167 -20.334 -202.5 -41.001s-107.833 -46 -142.5 -76
c-30 -26 -45 -50.333 -45 -73c0 -28 20.333 -42 61 -42c16.667 0 36 3 58 9c6.66699 1.33301 11.334 2 14.001 2c6 0 9 -1.66699 9 -5c0 -5.33301 -6.66699 -10 -20 -14c-26 -8 -50.333 -12 -73 -12c-50.667 0 -82.334 16.333 -95.001 49c-14 34 -3.66699 70.333 31 109
c39.333 44 102.333 80.667 189 110c62 20.667 137.333 31.334 226 32.001c14 44.667 37.667 80.667 71 108c30.667 24.667 64.334 37 101.001 37c38.667 0 71.334 -14.333 98.001 -43c29.333 -31.333 45.666 -75.666 48.999 -132.999c22.667 -4 44.667 -8.5 66 -13.5
l63 -15.5c11.333 11.333 23.333 17.666 36 18.999c14.667 0 22 -6 22 -18c0 -4.66699 -1.33301 -9.33398 -4 -14.001z" />
    <glyph glyph-name="G" unicode="G" horiz-adv-x="1030" 
d="M177 516c90.667 90.667 212.332 160.667 364.999 210l53 16.5c16.667 5 32.667 9.5 48 13.5c-79.333 36 -167 54 -263 54c-58 0 -114.333 -16.333 -169 -49c-62 -38 -92 -84 -90 -138c0.666992 -42 19.334 -77.667 56.001 -107zM901.998 484
c26.667 15.333 54.6689 40.666 84.002 75.999c32.667 38.667 49 70.667 49 96c0 54 -50 81 -150 81c-21.333 0 -44.333 -1.16699 -69 -3.5s-51.334 -5.83301 -80.001 -10.5l22 -14c7.33301 -4.66699 14.666 -9.66699 21.999 -15c32 -22.667 60.333 -50.667 85 -84
c27.333 -37.333 41 -70.666 41 -99.999c0 -10 -1.33301 -18.667 -4 -26zM1078 625c0 -34.667 -21.666 -68.6631 -64.999 -101.996c-34 -26 -73.667 -46.667 -119 -62c-13.333 -7.33301 -20.666 -8.33301 -21.999 -3c-0.666992 2.66699 2 6.66699 8 12
c6 8.66699 9 19.334 9 32.001c0 29.333 -16 64.666 -48 105.999c-27.333 32.667 -55.333 59.667 -84 81l-22 15.5l-22 14.5c-63.333 -12 -117.333 -25 -162 -39c-131.333 -42 -240.333 -106.333 -327 -193c44 -20.667 94 -31 150 -31c61.333 0 97.666 10.667 108.999 32
c2 4.66699 4.66699 5.33398 8 2.00098c3.33301 -2 4 -4.66699 2 -8c-6 -12 -22.167 -21.833 -48.5 -29.5s-56.5 -11.5 -90.5 -11.5c-56.667 0 -106 9.33301 -148 28c-81.333 -88.667 -122 -182 -122 -280c0 -69.333 33.333 -124 100 -164c60.667 -35.333 137 -53 229 -53
c121.333 0 225.666 29 312.999 87c96.667 65.333 138.334 151.333 125.001 258c-32.667 0 -64.334 -1 -95.001 -3s-60.334 -5.33301 -89.001 -10c-19.333 -2.66699 -41.833 -6.66699 -67.5 -12l-89.5 -19c-37.333 -8.66699 -70.666 -16 -99.999 -22l-76 -15
c-3.33301 10.667 -1.33301 23.667 6 39s14.666 24.666 21.999 27.999c43.333 17.333 142.666 32.666 297.999 45.999c32 2.66699 62.333 4.5 91 5.5s56.334 1.5 83.001 1.5c94.667 0 163 -8.66699 205 -26c10.667 -4.66699 17 -10.667 19 -18
c0.666992 -1.33301 0.833984 -4.5 0.500977 -9.5s-0.833008 -11.167 -1.5 -18.5c-56 17.333 -113.667 28 -173 32c18.667 -16.667 28 -40.667 28 -72c0 -78.667 -60 -150.334 -180 -215.001c-115.333 -62.667 -237.666 -94 -366.999 -94c-97.333 0 -174.333 21 -231 63
c-65.333 47.333 -98 117.666 -98 210.999c0 104 41 200 123 288c-42 32 -63 74.667 -63 128c0 57.333 29.667 106.666 89 147.999c54 36 112.333 55.333 175 58c97.333 5.33301 199 -17.667 305 -69c75.333 18.667 141.666 28 198.999 28c84 0 142.333 -21.333 175 -64
c26 -33.333 39 -67 39 -101z" />
    <glyph glyph-name="H" unicode="H" horiz-adv-x="1402" 
d="M788 441c20 62.667 30 121.002 30 175.002c0 63.333 -14.333 112.333 -43 147c-27.333 31.333 -61.333 47 -102 47c-49.333 0 -95.333 -20.667 -138 -62c-44 -44 -70.667 -101.333 -80 -172c-6 -49.333 -2.66699 -99 10 -149c50 7.33301 101.833 12.166 155.5 14.499
s109.5 2.16602 167.5 -0.500977zM836 667.002c8 -46 5.33301 -99.999 -8 -161.999l-8 -33c-2.66699 -10.667 -5.66699 -21.334 -9 -32.001l75 -6c28 72 40.667 139.333 38 202c-0.666992 30.667 -15 46 -43 46c-12 0 -27 -5 -45 -15zM952 268.003
c-12 -33.333 -34.0029 -62.3291 -66.0029 -86.9961c-34 -26 -72 -40.667 -114 -44c-22.667 -25.333 -46.667 -49.333 -72 -72s-52 -44.334 -80 -65.001c-100.667 -72.667 -213 -109 -337 -109c-32 0 -62.5 2.83301 -91.5 8.5s-55.167 14 -78.5 25s-43.5 24.333 -60.5 40
s-29.5 33.5 -37.5 53.5c-9.33301 22.667 -14 45.334 -14 68.001c0 61.333 27 119.666 81 174.999c57.333 59.333 135.666 103.666 234.999 132.999c19.333 6 39.166 11.5 59.499 16.5s41.833 9.16699 64.5 12.5c-14.667 52.667 -19 104 -13 154c10 84 46 149.667 108 197
c57.333 43.333 116 57.333 176 42c64 -16.667 104.333 -62 121 -136c34.667 20 68.334 30 101.001 30c40 0 60.667 -20 62 -60c3.33301 -72.667 -11 -146.667 -43 -222c52 -8 116.333 -23 193 -45c42.667 130.667 94.667 239.667 156 327c74 103.333 150 155 228 155
c35.333 0 69.333 -10.333 102 -31c9.33301 -5.33301 14 -14 14 -26c0 -4 -1.33301 -6 -4 -6c-3.33301 0 -8.66602 3.66699 -15.999 11c-21.333 21.333 -44.666 32 -69.999 32c-59.333 0 -127 -55.667 -203 -167c-52.667 -76.667 -93.667 -151.334 -123 -224.001l-17 -44.5
l-16 -43.5c74.667 -26.667 112 -58 112 -94c0 -15.333 -7.33301 -30.333 -22 -45c-6 -6 -11.333 -9 -16 -9c-2.66699 0 -4 1.66699 -4 5c0 1.33301 1 3.33301 3 6s4.16699 5.83398 6.5 9.50098s4.5 7.5 6.5 11.5s3 8 3 12c0 25.333 -33.667 48.666 -101 69.999
c-27.333 -83.333 -44.666 -155.333 -51.999 -216c-0.666992 -3.33301 -1 -6.66602 -1 -9.99902v-10c0 -62 16 -93 48 -93c12 0 26.333 5.66699 43 17c3.33301 3.33301 6.33301 5 9 5c3.33301 0 5 -2 5 -6c0 -5.33301 -3 -10 -9 -14c-19.333 -13.333 -37.333 -20 -54 -20
c-23.333 0 -43.666 11.667 -60.999 35c-15.333 21.333 -23.333 44 -24 68c-1.33301 66 13.667 152 45 258c-88 23.333 -154.333 37.333 -199 42c-42.667 -90 -93.334 -169 -152.001 -237c36 5.33301 69.333 19.666 100 42.999c28 22.667 47 48.667 57 78
c0.666992 4 3.33398 5.33301 8.00098 4c4 -0.666992 5.33301 -3.33398 4 -8.00098zM455.997 378.007c-20 -3.33301 -39.167 -7.49902 -57.5 -12.499s-36.166 -10.167 -53.499 -15.5c-92 -29.333 -164.333 -70.333 -217 -123c-50 -51.333 -75 -103.333 -75 -156
c0 -12.667 1.66699 -26.334 5 -41.001c6 -18 15.5 -34.167 28.5 -48.5s29 -26.5 48 -36.5s40.333 -17.667 64 -23s49.167 -8 76.5 -8c117.333 0 225.666 40.667 324.999 122c20 16.667 39.167 33.834 57.5 51.501s35.833 36.167 52.5 55.5c-9.33301 2 -18.333 4.5 -27 7.5
l-27 9.5c-119.333 -140 -255 -210 -407 -210c-8 0 -20.333 3 -37 9c-22 6.66699 -38 15.667 -48 27c-2 3.33301 -1.66699 6.33301 1 9c2 2 4.66699 1.66699 8 -1c9.33301 -9.33301 23.666 -17.333 42.999 -24c17.333 -5.33301 28.333 -8 33 -8
c148.667 0 279.334 68.333 392.001 205c-84 41.333 -145.667 111.666 -185 210.999zM774.997 401.008c-54 1.33301 -105.5 0.331055 -154.5 -3.00195s-96.5 -8.66602 -142.5 -15.999c34.667 -97.333 91.667 -165.666 171 -204.999c53.333 67.333 95.333 142 126 224z
M869.997 396.006c-12.667 1.33301 -25 2.16602 -37 2.49902s-24 0.833008 -36 1.5c-31.333 -84 -75.333 -160.667 -132 -230c8.66699 -3.33301 17.5 -6.5 26.5 -9.5s18.167 -5.16699 27.5 -6.5c56.667 66.667 107 147.334 151 242.001z" />
    <glyph glyph-name="I" unicode="I" horiz-adv-x="713" 
d="M590 748c-30 -30 -56.667 -76.666 -80 -139.999c-23.333 -62.667 -35 -115.334 -35 -158.001c0 -18.667 2.66699 -33 8 -43s12 -15 20 -15c14.667 0 20 0.666992 16 2c2 -1.33301 3 -2.33301 3 -3c0 -6.66699 -10 -10 -30 -10c-34 0 -51 24.667 -51 74
c0 46 14.333 100 43 162c28.667 62.667 61.667 111.667 99 147c-23.333 42 -56.666 63 -99.999 63c-66 0 -120.667 -35.667 -164 -107c-36 -61.333 -54 -127.333 -54 -198c0 -81.333 16 -151.333 48 -210c36 -67.333 88.333 -109.333 157 -126
c19.333 32.667 37.166 66.834 53.499 102.501s30.833 73.5 43.5 113.5c27.333 87.333 41 165.666 41 234.999c0 44 -6 81 -18 111zM535 177.001c28 52.667 55 115.668 81 189.001c43.333 122 65 220.333 65 295c0 43.333 -7.66699 76.666 -23 99.999c-6 8 -13.667 12 -23 12
c-8 0 -17.667 -3.66699 -29 -11l-2 -2c15.333 -34 23 -74.667 23 -122c0 -14.667 -0.666992 -29.667 -2 -45s-3.33301 -31.333 -6 -48c-21.333 -131.333 -66 -252.333 -134 -363c8 -1.33301 16.167 -2.33301 24.5 -3zM168 -102.998
c4.66699 -0.666992 9 -1.16797 13 -1.50098s8.33301 -0.5 13 -0.5c44.667 0 92.667 16 144 48c52.667 32.667 98.667 77.334 138 134.001c9.33301 13.333 18.333 27.333 27 42l26 46c-18 0.666992 -35 2.66699 -51 6c-84 -132 -187.333 -223.333 -310 -274zM696 784.001
c30.667 -30.667 46.0039 -77.9971 46.0039 -141.997c0 -78 -21.333 -175 -64 -291c-11.333 -30 -23.166 -58.833 -35.499 -86.5s-25.166 -54.167 -38.499 -79.5c38.667 10.667 73.667 30.667 105 60c28 26 46.667 54.333 56 85c1.33301 4 4.33301 5.66699 9 5
c3.33301 -0.666992 4.66602 -3 3.99902 -7c-10 -34.667 -31.333 -66.334 -64 -95.001c-35.333 -31.333 -74.333 -52 -117 -62c-58 -103.333 -124.333 -182.333 -199 -237c-65.333 -48.667 -130.333 -73 -195 -73c-30.667 0 -58.334 6 -83.001 18
c-8.66699 -2.66699 -17.334 -5.16699 -26.001 -7.5s-17.334 -4.16602 -26.001 -5.49902c-12.667 -2.66699 -29.334 -2.66699 -50.001 0c-22.667 4 -38.667 9.33301 -48 16c-1.33301 1.33301 -2 2.66602 -2 3.99902c0 4.66699 2.33301 7 7 7c10 -4 25.333 -8 46 -12
c20 -4.66699 35 -6 45 -4c6.66699 1.33301 13.167 3 19.5 5s12.833 3.66699 19.5 5c-56.667 34 -85 91 -85 171c0 21.333 2.33301 42.666 7 63.999c20 104.667 84.333 202.667 193 294c1.33301 1.33301 3.33301 2 6 2c6.66699 0 10 -2.33301 10 -7
c0 -2.66699 -2.66699 -6.66699 -8 -12c-87.333 -77.333 -140.333 -169.333 -159 -276c-2.66699 -12.667 -4.5 -24.834 -5.5 -36.501s-1.5 -23.167 -1.5 -34.5c0 -82 29 -132.333 87 -151c125.333 48 230 139 314 273c-76 20 -133.333 68.333 -172 145
c-34.667 68 -49.334 146.667 -44.001 236c4.66699 82 32.667 151 84 207c47.333 51.333 99 77 155 77c48 0 84.667 -21 110 -63c21.333 17.333 41.333 26 60 26c14.667 0 28 -6 40 -18z" />
    <glyph glyph-name="J" unicode="J" horiz-adv-x="713" 
d="M588 723c-20.667 65.333 -59 98.666 -115 99.999c-36.667 0.666992 -70.667 -15.666 -102 -48.999c-34 -36.667 -55.333 -83.667 -64 -141c66.667 38.667 140.667 65.667 222 81c9.33301 1.33301 19 2.83301 29 4.5s20 3.16699 30 4.5zM780 805
c0 -10.667 -0.327148 -22.6592 -0.994141 -35.9922s-1.66699 -28.333 -3 -45c66 -9.33301 106.333 -30.333 121 -63c1.33301 -4 2 -6.33301 2 -7c0 -5.33301 -2.66699 -8 -8 -8c-4 0 -7.33301 2.33301 -10 7c-9.33301 20 -45.333 31.333 -108 34
c-17.333 -162 -50.333 -309.333 -99 -442c-53.333 -146 -134 -268.333 -242 -367c-54.667 -50.667 -116.334 -91.667 -185.001 -123c-72 -34.667 -141.333 -52 -208 -52c-50 0 -88.333 12.5 -115 37.5s-37.667 57.5 -33 97.5c7.33301 73.333 63 143.666 167 210.999
c80.667 52.667 185.667 100.667 315 144c6.66699 1.33301 12 2 16 2c6.66699 0 10 -1.33301 10 -4s-6.66699 -6.66699 -20 -12c-112 -37.333 -205.333 -82.333 -280 -135c-92.667 -65.333 -142.334 -132.666 -149.001 -201.999c-3.33301 -34.667 6 -61.834 28 -81.501
s53 -29.5 93 -29.5c88 0 179.667 40.333 275 121c114.667 96.667 203.667 230.667 267 402c51.333 138 85.333 282.333 102 433c-15.333 -0.666992 -30.833 -1.5 -46.5 -2.5s-31.834 -2.5 -48.501 -4.5c2.66699 -14 4.66699 -28.667 6 -44s2 -31.666 2 -48.999
c0 -104 -22 -215.333 -66 -334c-47.333 -125.333 -108 -229 -182 -311c-84 -94 -174.667 -146 -272 -156c-2 0 -3.66699 0.666992 -5 2c-1.33301 2 -1.33301 4 0 6c0.666992 1.33301 2.66699 2.66602 6 3.99902c101.333 15.333 194.666 78 279.999 188
c76 98 134 215.667 174 353c39.333 132 51.333 244.667 36 338c-62.667 -8.66699 -118.5 -20.334 -167.5 -35.001s-91.833 -32.334 -128.5 -53.001c-0.666992 -50.667 10.666 -97 33.999 -139c26 -46 64.667 -80 116 -102c4 -1.33301 5 -4 3 -8s-4.66699 -5 -8 -3
c-52 22 -93 55.333 -123 100c-29.333 41.333 -45.333 86.666 -48 135.999c-43.333 -30.667 -63.666 -63.334 -60.999 -98.001c2 -24.667 10 -41.334 24 -50.001c4 -3.33301 6 -6 6 -8c0 -8.66699 -5.66699 -9.33398 -17 -2.00098c-22 14.667 -34.667 35.667 -38 63
c-4.66699 48.667 24.333 94.334 87 137.001v5c6 58 28.333 108.333 67 151c39.333 43.333 82.333 64.666 129 63.999c64 -0.666992 108.667 -37.334 134 -110.001c19.333 2 38.333 3.33301 57 4s36.667 0.666992 54 0c1.33301 12 2.16602 23.5 2.49902 34.5
s0.166016 21.167 -0.500977 30.5c0 2.66699 1.33301 5.66699 4 9s6.16699 6.33301 10.5 9s9 5 14 7s9.5 3 13.5 3c10 0 15.667 -5.66699 17 -17z" />
    <glyph glyph-name="K" unicode="K" horiz-adv-x="1218" 
d="M409 444c34.667 97.333 52 179.666 52 246.999c0 58 -12 103.667 -36 137c-22 30.667 -49.667 46 -83 46c-42 0 -79 -22.333 -111 -67c-36 -51.333 -56 -118.666 -60 -201.999c-2 -52 4.33301 -107.333 19 -166c66.667 9.33301 139.667 11 219 5zM292 218
c11.333 15.333 22.333 31.3301 33 47.9971s20.667 34.334 30 53.001c-20.667 -4.66699 -40.5 -8.66699 -59.5 -12s-37.167 -5.66602 -54.5 -6.99902c14.667 -29.333 31.667 -56.666 51 -81.999zM346 159.997c16.667 23.333 33.5 50.167 50.5 80.5s34.833 64.5 53.5 102.5
l-37 -10l-36 -10c-11.333 -21.333 -23.5 -41.833 -36.5 -61.5s-26.167 -38.167 -39.5 -55.5c13.333 -16 28.333 -31.333 45 -46zM709 723.998c-8.66699 -12.667 -26.1689 -43.332 -52.502 -91.999l-106.5 -204l29 -4c62 25.333 120.5 53.333 175.5 84
s106.833 64.334 155.5 101.001c98.667 73.333 157.334 138.333 176.001 195c5.33301 15.333 11 23 17 23c3.33301 0 5 -3.66699 5 -11c0 -4 -0.333008 -7.33301 -1 -10c-12 -68 -64 -139.667 -156 -215c-84.667 -68.667 -187.334 -128.334 -308.001 -179.001
c133.333 -26.667 243.666 -65.334 330.999 -116.001c122.667 -72 184 -162 184 -270c0 -30 -4.33301 -60 -13 -90c-4 -14 -10.333 -21 -19 -21c-5.33301 0 -8 3.66699 -8 11c0 2 0.666992 5.66699 2 11c6 20.667 9 41 9 61c0 92.667 -62 174.667 -186 246
c-105.333 60.667 -235.666 105.334 -390.999 134.001c-6 -2.66699 -12 -5 -18 -7l-18 -6c-26 -48.667 -50.667 -91.834 -74 -129.501s-45.333 -70.5 -66 -98.5c49.333 -33.333 103.666 -50 162.999 -50c42 0 70.333 10.333 85 31c2 3.33301 4.66699 3.33301 8 0
c4 -3.33301 5 -6.33301 3 -9c-16 -22.667 -46.667 -34 -92 -34c-63.333 0 -121.333 17.333 -174 52c-67.333 -87.333 -129.333 -131.333 -186 -132c-19.333 -0.666992 -37.333 2 -54 8s-31.167 14.833 -43.5 26.5s-22 25.5 -29 41.5s-10.5 33.667 -10.5 53
c0 4 0.166992 8 0.5 12s0.833008 8 1.5 12c2 11.333 7.66699 17 17 17c5.33301 0 8 -3.33301 8 -10c0 -3.33301 -1 -9 -3 -17s-3 -14.667 -3 -20c0 -26 11.667 -48.667 35 -68c22.667 -18 50.334 -25.333 83.001 -22c47.333 5.33301 98.333 46 153 122
c-14.667 12 -30 27 -46 45c-5.33301 -6.66699 -12.166 -14.667 -20.499 -24s-18.5 -20 -30.5 -32c-28.667 -30.667 -46 -46 -52 -46s-9 2.66699 -9 8c0 0.666992 0.666992 1.66699 2 3c18.667 14.667 36.334 30.5 53.001 47.5s32.667 35.167 48 54.5
c-22 26 -42.333 57 -61 93c-10.667 -0.666992 -20.667 -1.16699 -30 -1.5s-18.666 -0.166016 -27.999 0.500977c-34 1.33301 -62 8.33301 -84 21s-33 27.334 -33 44.001c0 32.667 40.667 56.667 122 72c-17.333 64 -25 121.333 -23 172c4 87.333 27 157.666 69 210.999
c36.667 46.667 79.667 70 129 70c40 0 73 -16.333 99 -49c28.667 -34.667 43 -83.334 43 -146.001c0 -67.333 -18.667 -151 -56 -251c19.333 -0.666992 40.666 -2.66699 63.999 -6l43 97.5l54 123.5c18.667 42.667 28.667 64 30 64c16.667 24 40.667 36.667 72 38
c14.667 0 22 -5.33301 22 -16c0 -6.66699 -2 -13 -6 -19zM396.998 364c40 8.66699 60 17.6689 60 27.002c0 6.66699 -14 11 -42 13c-2.66699 -6.66699 -5.5 -13.334 -8.5 -20.001s-6.16699 -13.334 -9.5 -20.001zM177.998 404.002l-9 -2
c-16.667 -2 -30.167 -7.16699 -40.5 -15.5s-15.5 -16.833 -15.5 -25.5c0 -16.667 15.667 -25.667 47 -27c14 -1.33301 29 -1.33301 45 0c-10.667 24 -19.667 47.333 -27 70zM394.998 406.002c-40 3.33301 -76.166 5 -108.499 5s-61.5 -1.33301 -87.5 -4
c3.33301 -12.667 7.16602 -25 11.499 -37s9.16602 -23.667 14.499 -35c16.667 1.33301 37.334 4 62.001 8s54 9.66699 88 17l10 22.5z" />
    <glyph glyph-name="L" unicode="L" horiz-adv-x="1122" 
d="M575 250c18.667 -3.33301 37.665 -5.33398 56.998 -6.00098l2 6c2.66699 6.66699 9.5 27 20.5 61l45.5 145c15.333 48.667 29 89.834 41 123.501s22 60.167 30 79.5c38.667 90 91.334 152.667 158.001 188c-10.667 3.33301 -24 5.66602 -40 6.99902
c-63.333 1.33301 -116.666 -40.667 -159.999 -126c-13.333 -27.333 -27 -60.666 -41 -99.999s-27.667 -85 -41 -137c-30 -116 -54 -196.333 -72 -241zM434.998 43.999l26.999 -19c8.66699 -6 17.334 -11.667 26.001 -17c17.333 2.66699 42.333 31 75 85
c28 46.667 49 90.667 63 132l-31 2c-10 0.666992 -19.667 1.66699 -29 3c-35.333 -78 -79 -140 -131 -186zM1165 734.999c0 -144.667 -47.332 -265.332 -141.999 -361.999c-92.667 -94.667 -205.667 -144.334 -339 -149.001c-9.33301 -26 -20.166 -51.167 -32.499 -75.5
s-25.833 -48.166 -40.5 -71.499c-30 -46 -57 -76.333 -81 -91c188 -84.667 327.667 -127 419 -127c88.667 0 133 28.333 133 85c0 16 -6.33301 31.667 -19 47c-5.33301 7.33301 -10.833 14.333 -16.5 21l-16.5 20c-1.33301 4 -2 6.66699 -2 8c0 4 2 6 6 6
c2 0 4.66699 -1 8 -3c45.333 -35.333 68 -67.666 68 -96.999c0 -90 -66 -135 -198 -135c-69.333 0 -141.333 16 -216 48c-4 1.33301 -22.667 10.666 -56 27.999l-146 75c-66.667 -42.667 -131.334 -64.667 -194.001 -66c-54 -1.33301 -105 6.66699 -153 24
c-53.333 19.333 -93 46 -119 80c-25.333 33.333 -38 73.666 -38 120.999c0 54.667 16.333 94 49 118c36.667 28.667 86.334 25.334 149.001 -9.99902c13.333 -8 29.166 -18.5 47.499 -31.5s39.166 -28.833 62.499 -47.5l84 -66c20 -16 32.667 -25.667 38 -29
c45.333 42 84.333 102.333 117 181c-80 16.667 -142 51.667 -186 105c-39.333 48.667 -59 105 -59 169c0 52.667 14 103.667 42 153c28.667 48.667 68.667 87.667 120 117c1.33301 0.666992 3 1 5 1c6.66699 0 10 -3.33301 10 -10c0 -3.33301 -1.66699 -6 -5 -8
c-44 -24 -78.667 -58.667 -104 -104c-23.333 -41.333 -35 -86 -35 -134c0 -62 18.333 -116.667 55 -164c39.333 -52 94.666 -86.667 165.999 -104c6.66699 16.667 16.334 45.334 29.001 86.001s28.334 94 47.001 160c14.667 51.333 29.5 96.666 44.5 135.999
s30.833 73 47.5 101c49.333 85.333 107.666 127.333 174.999 126c10.667 -0.666992 20.5 -1.83398 29.5 -3.50098s17.5 -4.16699 25.5 -7.5c36 15.333 74.333 23 115 23c30 0 56 -16.667 78 -50c18.667 -29.333 28 -60.333 28 -93zM1122 730.001
c0 82.667 -24.001 124.001 -72.001 124.001c-20.667 0 -43.667 -8.66699 -69 -26c19.333 -22.667 29 -51 29 -85c0 -38 -12 -74.333 -36 -109c-26 -38 -61.333 -65.333 -106 -82c-4 -1.33301 -6.66699 -0.333008 -8 3s-0.333008 6 3 8c39.333 18 71 45.667 95 83
c22.667 34.667 34 70 34 106c0 28 -7.33301 50.667 -22 68c-47.333 -36.667 -87.666 -90.334 -120.999 -161.001c-18.667 -40 -38.667 -86.667 -60 -140s-44 -114.333 -68 -183l-32 -91c122 6 225.333 58.333 310 157c82 96 123 205.333 123 328zM439.997 -19.998
c-6.66699 4 -13.998 8.66797 -21.998 14.001l-26 18c-49.333 -31.333 -101 -47 -155 -47c-26 0 -53 3.66699 -81 11c-2.66699 0.666992 -4.33398 2 -5.00098 4c-1.33301 2.66699 -1.33301 4.66699 0 6c1.33301 2 3 2.66699 5 2c13.333 -2.66699 26.333 -4.66699 39 -6
s25 -2 37 -2c54 0 102.667 13.667 146 41l-69.5 50l-69.5 50c-66.667 42.667 -117.334 64 -152.001 64c-46.667 0 -70 -22.667 -70 -68c0 -26.667 10 -56.334 30 -89.001c20 -32 49.667 -56.667 89 -74c36 -16.667 77.333 -25 124 -25c68 0 128 17 180 51z" />
    <glyph glyph-name="M" unicode="M" horiz-adv-x="1310" 
d="M286 107c73.333 164 110.666 323.668 111.999 479.001c0 60 -11.333 107.333 -34 142c-21.333 31.333 -47.666 47 -78.999 47c-40 0 -74.333 -23 -103 -69c-32.667 -52.667 -49 -122.334 -49 -209.001c0 -20.667 1 -41.334 3 -62.001
c4.66699 -57.333 19.667 -115.666 45 -174.999c28 -66 63 -117 105 -153zM586 138.001c-11.333 -29.333 -35.3301 -52.334 -71.9971 -69.001c-38.667 -17.333 -74.667 -25.666 -108 -24.999c-14.667 -25.333 -29.5 -48.833 -44.5 -70.5s-30.833 -41.167 -47.5 -58.5
c-36.667 -40 -69 -62.333 -97 -67c-4.66699 -0.666992 -9 -1.16699 -13 -1.5s-7.66699 -0.5 -11 -0.5c-40 0 -60 19.667 -60 59c0 20 4.66699 30 14 30c4.66699 0 6.66699 -5 6 -15c-4 -24 5 -36 27 -36c7.33301 0 14 1.33301 20 4c47.333 16.667 94.666 73 141.999 169
c-16.667 6 -33.334 14.667 -50.001 26c-18.667 -39.333 -44.334 -84 -77.001 -134c-2 -2.66699 -4.33301 -3 -7 -1c-3.33301 2 -4 4.33301 -2 7c11.333 18 23 38.333 35 61s24.667 48 38 76c-46.667 34.667 -86 85.667 -118 153c-28.667 60.667 -45.667 121.334 -51 182.001
c-2 20 -3 39.333 -3 58c0 94 20 169.667 60 227c34.667 50.667 76.334 76 125.001 76c37.333 0 68 -16.333 92 -49c26.667 -34.667 40 -83.667 40 -147c-1.33301 -151.333 -43 -316.333 -125 -495c7.33301 -6 15.166 -11.333 23.499 -16s16.833 -8.66699 25.5 -12
c22.667 46.667 43.667 100.334 63 161.001c42.667 130 64 242 64 336c0 114 -31 200.667 -93 260c-29.333 28.667 -61.333 43 -96 43c-52.667 0 -100.667 -30.667 -144 -92c-41.333 -59.333 -62 -121.333 -62 -186c0 -27.333 4.33301 -51 13 -71
c3.33301 -10 5 -17.333 5 -22c0 -8.66699 -3 -13 -9 -13c-8 0 -14.333 6.33301 -19 19c-14 32.667 -21 67.667 -21 105c0 72.667 23 137.667 69 195c46.667 58 101 87 163 87c40.667 0 80.334 -14.667 119.001 -44c84 -65.333 126 -174.333 126 -327
c0 -22.667 -1 -45.834 -3 -69.501s-5.33301 -48.167 -10 -73.5c17.333 42 33.166 78.167 47.499 108.5s27.833 55.166 40.5 74.499c79.333 129.333 144 194 194 194c28 0 49.333 -20.333 64 -61c14 -37.333 21 -86.666 21 -147.999c0 -13.333 -0.333008 -26.666 -1 -39.999
s-1.66699 -27.333 -3 -42c-2.66699 -22.667 -6.5 -49.5 -11.5 -80.5s-11.833 -66.833 -20.5 -107.5l-20 -99c-4.66699 -23.333 -7.33398 -37.666 -8.00098 -42.999c48.667 104 117 217 205 339c112.667 156.667 212 254.667 298 294c42.667 19.333 74.667 29 96 29
c24.667 0 37 -12 37 -36c0 -52 -47.667 -141.333 -143 -268c-73.333 -96 -135.333 -197 -186 -303c-32 -64 -55.667 -121.833 -71 -173.5s-23.333 -98.5 -24 -140.5c-0.666992 -44.667 10.333 -67 33 -67c21.333 0 45 14 71 42c4.66699 6 9.66699 9 15 9
c4 0 6 -1.66699 6 -5c0 -5.33301 -4.66699 -12.666 -14 -21.999c-39.333 -38 -78.666 -57 -117.999 -57c-40 0 -60 30 -60 90c0 10 0.5 20.5 1.5 31.5s2.83301 22.167 5.5 33.5c12.667 68.667 47.667 159 105 271c17.333 35.333 39.333 76.666 66 123.999l94 162l78 134
c19.333 34 32.333 57.667 39 71c8 18.667 12 32.334 12 41.001s-3.33301 13 -10 13c-22.667 0 -69.334 -34.333 -140.001 -103c-72 -71.333 -142 -153 -210 -245c-78.667 -105.333 -134 -200.666 -166 -285.999c-16 -40.667 -32.667 -61 -50 -61
c-10.667 0 -16 8.66699 -16 26c0 3.33301 0.166992 6.66602 0.5 9.99902s0.833008 6.66602 1.5 9.99902c30.667 157.333 47 279.666 49 366.999c2.66699 166 -15.666 249 -54.999 249c-38.667 0 -95 -75 -169 -225c-26.667 -54.667 -51.667 -109.667 -75 -165
s-45.333 -112 -66 -170c-11.333 -32.667 -25.666 -64.667 -42.999 -96c29.333 -0.666992 61 6.66602 95 21.999c36 17.333 58.333 38.666 67 63.999c1.33301 3.33301 3.66602 4.33301 6.99902 3c4 -0.666992 5.33301 -3 4 -7z" />
    <glyph glyph-name="N" unicode="N" horiz-adv-x="1217" 
d="M322 769c90.667 43.333 167.332 65 229.999 65c5.33301 0 9 -0.333008 11 -1c-24 38 -55.333 57 -94 57c-28 0 -55.167 -10.5 -81.5 -31.5s-48.166 -50.833 -65.499 -89.5zM575.998 810c-4.66699 0.666992 -8.99805 1.16797 -12.998 1.50098s-8.33301 0.5 -13 0.5
c-70.667 0 -152.667 -31.667 -246 -95c-11.333 -42 -17 -86.667 -17 -134c0 -28.667 2 -57.334 6 -86.001c20 -166.667 82 -275.334 186 -326.001c84 212.667 123.667 388.334 119 527.001c-0.666992 22 -2.83398 42.333 -6.50098 61s-8.83398 35.667 -15.501 51z
M545 148.001l37.001 92c68 182.667 102 322 102 418c0 80.667 -28 129.667 -84 147c12.667 -30 19.667 -65.667 21 -107c3.33301 -132 -40.334 -309.667 -131.001 -533c18 -7.33301 36.333 -13 55 -17zM1234 550.001c-39.333 -80.667 -71.834 -150.335 -97.501 -209.002
s-44.834 -107 -57.501 -145c-42.667 -126 -64 -222.333 -64 -289c0 -59.333 18.333 -89 55 -89c9.33301 0 19.666 2 30.999 6c6 2 12 4.83301 18 8.5s11.333 7.33398 16 11.001s8.33398 7.16699 11.001 10.5s4 5.66602 4 6.99902c4.66699 2 7 1 7 -3
c0 -11.333 -5.66699 -22.666 -17 -33.999c-15.333 -15.333 -35.333 -27.666 -60 -36.999c-21.333 -8 -39.333 -11 -54 -9c-46 6.66699 -69 43 -69 109c0 49.333 12.333 112 37 188c1.33301 4.66699 6.16602 18.5 14.499 41.5l35.5 97.5l65.5 170l81.5 219
c5.33301 18 8 31.333 8 40c0 16.667 -6.66699 25 -20 25c-11.333 0 -25.666 -5.33301 -42.999 -16c-30 -18 -59.667 -38.5 -89 -61.5s-59 -48.5 -89 -76.5l-105 -101.5c-29.333 -29 -53 -53.167 -71 -72.5c-63.333 -67.333 -114.666 -131.666 -153.999 -192.999
c24.667 3.33301 48.334 9.83301 71.001 19.5s43.167 22 61.5 37s34.5 32.5 48.5 52.5s25 42 33 66c0.666992 4 3.33398 5.33301 8.00098 4c4 -1.33301 5.33301 -4 4 -8c-18 -54 -49 -98.667 -93 -134c-41.333 -31.333 -89 -49.666 -143 -54.999l-68 -127
c-2.66699 -4.66699 -10.334 -11.667 -23.001 -21c-14 -10 -25 -15 -33 -15c-7.33301 0 -11 4.66699 -11 14c0 8 3 19.667 9 35l18.5 47l28.5 71c-9.33301 2 -18.5 4.5 -27.5 7.5l-27.5 9.5l-10 -24c-13.333 -30.667 -26.166 -58.834 -38.499 -84.501
s-24.833 -49.167 -37.5 -70.5c-2 -4 -5 -5 -9 -3c-3.33301 3.33301 -4 6.33301 -2 9c26.667 44 54 100.333 82 169l4 9c-114 54.667 -181.667 165.667 -203 333c-1.33301 14.667 -2.5 28.834 -3.5 42.501s-1.5 27.167 -1.5 40.5c0 46.667 5 89.667 15 129
c-59.333 -43.333 -108.333 -91 -147 -143c-40.667 -54.667 -61 -105 -61 -151c0 -19.333 6 -35.666 18 -48.999s26.667 -20 44 -20c3.33301 0 8.16602 0.833008 14.499 2.5s11.166 2.5 14.499 2.5c6.66699 0 10 -2 10 -6c0 -6.66699 -4.33301 -11.334 -13 -14.001
c-18 -5.33301 -33.667 -8 -47 -8c-28 0 -49.833 8.83301 -65.5 26.5s-23.5 43.5 -23.5 77.5c0 67.333 28.333 132.666 85 195.999c24 28 51.833 53.667 83.5 77s67.5 45.333 107.5 66c19.333 46 44.833 81.167 76.5 105.5s64.5 36.5 98.5 36.5c48 0 85.333 -22.333 112 -67
c98.667 -12.667 148 -82 148 -208c0 -84 -27.667 -210 -83 -378c156 185.333 294 320.666 414 405.999c48.667 34.667 87.334 56.667 116.001 66c17.333 5.33301 31.333 8 42 8c30.667 0 46 -17.333 46 -52c0 -34 -12 -75.333 -36 -124z" />
    <glyph glyph-name="O" unicode="O" horiz-adv-x="1220" 
d="M389 791c39.333 56.667 88.668 103.334 148.001 140.001c64.667 40 129 60 193 60c46 0 84.667 -11.667 116 -35c32 -24.667 51.667 -61 59 -109c153.333 -28 250.666 -93 291.999 -195c42.667 -104.667 13.667 -222 -87 -352
c-81.333 -105.333 -194.333 -189.333 -339 -252c-137.333 -60 -274.333 -90 -411 -90c-82.667 0 -145 17 -187 51c-38.667 30.667 -58 73 -58 127c0 40 10.333 82.667 31 128c-30.667 13.333 -55.667 34.333 -75 63s-29 59.667 -29 93c0 79.333 33.667 152.666 101 219.999
c60.667 60.667 142.667 111 246 151zM877.002 851c-12.667 86.667 -60.999 129.999 -144.999 129.999c-28.667 0 -61 -6 -97 -18c-86 -29.333 -158 -83 -216 -161c48 16.667 96.333 29.5 145 38.5s98 14.833 148 17.5c30 1.33301 58.667 1.33301 86 0
s53.666 -3.66602 78.999 -6.99902zM316.003 417.999c-39.333 -47.333 -69.334 -95.333 -90.001 -144c48 -13.333 94.333 -20 139 -20c16 0 32 1 48 3c-47.333 43.333 -79.666 97 -96.999 161zM347.002 717.999c-80.667 -38.667 -144.668 -83.334 -192.001 -134.001
c-51.333 -53.333 -77 -106.666 -77 -159.999c0 -28 7.83301 -53.667 23.5 -77s35.834 -40.333 60.501 -51c34 60.667 82 119.667 144 177c-0.666992 6.66699 -1.16699 13.5 -1.5 20.5s-0.5 14.167 -0.5 21.5c0 73.333 14.333 141 43 203zM880.001 816.999
c-53.333 6.66699 -110.332 7.66797 -170.999 3.00098c-57.333 -5.33301 -113.666 -15.333 -168.999 -30s-110 -34.334 -164 -59.001c-33.333 -68 -50 -140 -50 -216v-12c0 -4 0.333008 -8 1 -12c28.667 24 58 46.167 88 66.5s61 38.833 93 55.5c62 32 117.333 52 166 60
c9.33301 1.33301 14 -0.333984 14 -5.00098c0 -5.33301 -4 -9 -12 -11c-52 -9.33301 -108.333 -33.333 -169 -72c-32.667 -20.667 -63.334 -43.167 -92.001 -67.5s-55.667 -50.833 -81 -79.5c14 -71.333 47.667 -130.666 101 -177.999c114.667 18 214.667 79 300 183
c71.333 88.667 117.666 186.667 138.999 294c5.33301 28 7.33301 54.667 6 80zM1062 346c65.333 85.333 97.998 163.334 97.998 234.001c0 60 -23 110.667 -69 152c-45.333 39.333 -106.666 66.333 -183.999 81c0.666992 -11.333 0.333984 -23.333 -0.999023 -36
s-3.33301 -25.667 -6 -39c-23.333 -118.667 -72.333 -223.334 -147 -314.001c-81.333 -100 -178 -162.333 -290 -187c61.333 -44.667 131.333 -67 210 -67c74 0 138.333 20.333 193 61c0.666992 0.666992 2 1 4 1c3.33301 0 5.33301 -1.33301 6 -4s0 -5 -2 -7
c-57.333 -42 -125 -63 -203 -63c-85.333 0 -161.666 24.667 -228.999 74c-25.333 -4.66699 -53.333 -7 -84 -7c-48.667 0 -97.334 7 -146.001 21c-14 -37.333 -21 -72 -21 -104c0 -48 14.667 -85.333 44 -112s70.333 -40 123 -40c286 0 520.667 118.667 704 356z" />
    <glyph glyph-name="P" unicode="P" horiz-adv-x="904" 
d="M286 709c-6.66699 58 -40.998 85.667 -102.998 83c-10.667 -0.666992 -20.834 -3 -30.501 -7s-18.334 -8.83301 -26.001 -14.5s-13.667 -12 -18 -19s-6.5 -14.167 -6.5 -21.5c0 -21.333 22.333 -32 67 -32c25.333 -0.666992 64.333 3 117 11zM238.002 477
c-62.667 -32.667 -94 -69 -94 -109c0 -20 9.33301 -38 28 -54l38.5 91.5c11 27 20.167 50.833 27.5 71.5zM232.002 286c31.333 71.333 71 147.002 119 227.002c-16.667 -2.66699 -31.834 -5.83398 -45.501 -9.50098s-26.167 -7.83398 -37.5 -12.501
c-7.33301 -21.333 -17.666 -47.5 -30.999 -78.5l-48 -109.5c6.66699 -3.33301 13.5 -6.5 20.5 -9.5s14.5 -5.5 22.5 -7.5zM267.002 258.002c-43.333 -90.667 -64.9961 -152.998 -64.9961 -186.998c-0.666992 -24.667 4 -45.667 14 -63c10.667 -18.667 25.334 -28 44.001 -28
c5.33301 0 9.33301 0.333008 12 1c8 2 12 -0.666992 12 -8c0 -4 -2.33301 -6 -7 -6c-32.667 -2 -58.334 6 -77.001 24s-28.667 43 -30 75c-0.666992 22.667 3.33301 50.5 12 83.5s22.334 71.5 41.001 115.5c-8.66699 1.33301 -16.667 3.16602 -24 5.49902
s-14.333 4.83301 -21 7.5c-72.667 -162 -109 -269.333 -109 -322c0 -8.66699 0.333008 -14.667 1 -18c1.33301 -4 0 -6.66699 -4 -8s-6.33301 0 -7 4c-2 8.66699 -3 19.334 -3 32.001c0 52.667 34.667 159.334 104 320.001c-38.667 18.667 -58 43.667 -58 75
c0 24 12.333 48.667 37 74s59.334 47.666 104.001 66.999l5 2c11.333 33.333 20.166 63.5 26.499 90.5s10.166 51.167 11.499 72.5c-26 -4.66699 -49.5 -7.83398 -70.5 -9.50098s-39.5 -1.83398 -55.5 -0.500977c-56.667 4 -85 27.333 -85 70c0 20.667 11 38.667 33 54
c21.333 15.333 46.666 23.666 75.999 24.999c74 2.66699 115.667 -28.666 125 -93.999l93 16c24 3.33301 49.667 6 77 8s56.333 3 87 3c23.333 0 45.666 -0.5 66.999 -1.5s41.666 -2.83301 60.999 -5.5c152 -19.333 228 -69.333 228 -150c0 -66 -37.333 -126 -112 -180
c-62.667 -45.333 -143.334 -82 -242.001 -110c-86 -24.667 -163.667 -37 -233 -37c-23.333 0 -46 1 -68 3zM487.006 618.004c-13.333 -13.333 -32.333 -38.3311 -57 -74.998c12.667 1.33301 24.834 2.33301 36.501 3s23.167 1 34.5 1c88.667 0 143 -17 163 -51
c2.66699 -6 1 -9 -5 -9c-4 -0.666992 -9 0.666016 -15 3.99902c-35.333 22 -91.333 33 -168 33c-10 0 -20 -0.166992 -30 -0.5s-20 -0.833008 -30 -1.5c-25.333 -38.667 -49.5 -78.334 -72.5 -119.001s-45.167 -82.667 -66.5 -126
c6.66699 -0.666992 13.167 -1.16699 19.5 -1.5s13.166 -0.5 20.499 -0.5c96.667 0 189 17.333 277 52c82 31.333 148.333 71.333 199 120c52 48.667 78 94.667 78 138c0 66.667 -59.667 106.667 -179 120c-16 1.33301 -32.5 2.5 -49.5 3.5s-34.833 1.5 -53.5 1.5
c-70.667 0 -129 -5 -175 -15c-11.333 -2.66699 -25.5 -5.83398 -42.5 -9.50098l-60.5 -13.5c-2 -41.333 -13.667 -94 -35 -158c26.667 8.66699 55.667 15.334 87 20.001l29.5 46.5l25.5 37.5c11.333 15.333 28 23 50 23c16.667 0 25 -4 25 -12c0 -3.33301 -2 -7 -6 -11z" />
    <glyph glyph-name="Q" unicode="Q" horiz-adv-x="1196" 
d="M331 -51c-68.667 37.333 -126.667 79.667 -174 127c4.66699 -43.333 23.667 -76.333 57 -99c30.667 -20 69.667 -29.333 117 -28zM1102 393.001c20.667 -47.333 31 -93.667 31 -139c0 -70 -23.333 -127 -70 -171c-46 -44 -105 -66 -177 -66
c-52.667 0 -107.334 12.667 -164.001 38c-100.667 -62 -195 -104 -283 -126c44 -18.667 120.667 -39.667 230 -63c130.667 -28 242.667 -42 336 -42c150 0 225.333 37.333 226 112c0 5.33301 -3 24.666 -9 57.999c-0.666992 6.66699 2 10 8 10
c7.33301 0 11.333 -3.33301 12 -10c6.66699 -26.667 10 -52 10 -76c0 -83.333 -44.333 -130.333 -133 -141c-33.333 -4 -68.666 -6 -105.999 -6c-193.333 0 -400 49.333 -620 148c-14 -2.66699 -27.667 -4.5 -41 -5.5s-26.333 -1.5 -39 -1.5
c-58 1.33301 -107.333 15.666 -148 42.999c-45.333 30 -71.333 71.333 -78 124c-4 24.667 -3.33301 51.667 2 81c-46 68.667 -69 140.334 -69 215.001c0 124 58.667 228 176 312c129.333 92.667 306 140.334 530 143.001c104.667 0.666992 197.667 -15.333 279 -48
c110 -44 165 -112 165 -204c0 -56 -22.667 -117.667 -68 -185zM107 276c32 173.333 117.669 294.667 257.002 364c72.667 36.667 152.334 55 239.001 55c90 0 175 -19 255 -57c82 -38.667 148 -93 198 -163c11.333 42 13.666 80.333 6.99902 115
c-10.667 61.333 -46.334 111.666 -107.001 150.999c-59.333 38.667 -133.333 59.667 -222 63c-198.667 6.66699 -357.334 -35.333 -476.001 -126c-108 -83.333 -162 -187 -162 -311c0 -29.333 3.66699 -59.666 11 -90.999zM746.002 70.001c52 -22.667 101.667 -34 149 -34
c64.667 0 116.667 20 156 60c40 40.667 60 92.667 60 156c0 38.667 -8 79 -24 121c-26.667 -36 -59 -72.5 -97 -109.5s-82 -75.167 -132 -114.5l-54 -40c-18.667 -13.333 -38 -26.333 -58 -39zM485.002 359.001c0 27.333 7.66895 49.667 23.002 67
c13.333 15.333 27.666 22.333 42.999 21c4 -1.33301 5.66699 -3.66602 5 -6.99902c0 -4.66699 -2 -6.33398 -6 -5.00098c-8.66699 0.666992 -17 -5 -25 -17c-8.66699 -13.333 -13 -30.666 -13 -51.999c0 -54.667 19 -107.334 57 -158.001c34 -45.333 78.667 -84 134 -116
l60.5 39.5c19 13 36.5 25.833 52.5 38.5c119.333 93.333 196.666 187 231.999 281c-44 66 -104.333 117.333 -181 154c-76 35.333 -155.667 53 -239 53c-87.333 0 -165.333 -19.333 -234 -58c-147.333 -83.333 -227.333 -229 -240 -437
c50.667 -84.667 127.667 -154 231 -208c82.667 16 180 56.667 292 122c-56.667 32 -101.667 71.333 -135 118c-38 52 -57 106.667 -57 164z" />
    <glyph glyph-name="R" unicode="R" horiz-adv-x="965" 
d="M340 790c-28.667 52 -75.998 80.334 -141.998 85.001c-64.667 4.66699 -111 -11 -139 -47c-7.33301 -9.33301 -11 -18.666 -11 -27.999c0 -31.333 27.667 -45 83 -41c15.333 1.33301 37.666 4.16602 66.999 8.49902s66 10.166 110 17.499
c5.33301 1.33301 10.666 2.33301 15.999 3zM535.002 269.001c-34 14.667 -68.167 27.833 -102.5 39.5s-69.5 22.167 -105.5 31.5l-20.5 -49.5l-22.5 -52.5c75.333 -3.33301 159 7 251 31zM137.002 285c10.667 24.667 22.667 50.667 36 78
c-44.667 -0.666992 -67 -11.667 -67 -33c0 -14 10.333 -29 31 -45zM136.002 -49c14 -20.667 32.3311 -31.002 54.998 -31.002c6.66699 0 11.667 0.333008 15 1c11.333 3.33301 17 0 17 -10c0 -5.33301 -3.33301 -8 -10 -8c-36 -2.66699 -66.333 4.66602 -91 21.999l-50 -90
c-2 -3.33301 -5 -4 -9 -2c-4.66699 2 -6 4.66699 -4 8l51 94c-24 22.667 -37 55.667 -39 99c-1.33301 56 16.667 130 54 222c-48 26 -72 53 -72 81c0 38.667 45.333 58 136 58c38.667 74.667 72.834 136.334 102.501 185.001s55.167 84.667 76.5 108c-2 28 -7 52.333 -15 73
c-5.33301 -1.33301 -10.666 -2.5 -15.999 -3.5s-10.333 -2.16699 -15 -3.5c-15.333 -3.33301 -31 -7 -47 -11s-32 -7.66699 -48 -11c-20 -4.66699 -38.167 -8.16699 -54.5 -10.5s-30.833 -4.16602 -43.5 -5.49902c-71.333 -6 -107 14.333 -107 61c0 22 8.33301 42.333 25 61
c30.667 36.667 80.334 54.334 149.001 53.001c81.333 -2 137.333 -34.333 168 -97c50 7.33301 97.333 13 142 17s87.334 6.66699 128.001 8c131.333 3.33301 232.666 -16 303.999 -58c65.333 -39.333 98 -91 98 -155c0 -54 -23 -107.333 -69 -160
c-48.667 -55.333 -116.667 -102.666 -204 -141.999c-28 -12.667 -56.333 -23.667 -85 -33c134 -73.333 201 -167 201 -281c0 -28 -4.66699 -59 -14 -93c-4 -14 -10.333 -21 -19 -21c-5.33301 0 -8 3.66699 -8 11c0 2 0.666992 5.66699 2 11c5.33301 18 8 35.667 8 53
c0 108 -87 206 -261 294c-90.667 -21.333 -176.334 -32 -257.001 -32c-10.667 0 -20.667 0.166992 -30 0.5s-18.333 0.833008 -27 1.5c-15.333 -32.667 -34.333 -70.834 -57 -114.501zM176 234.998c-41.333 -89.333 -62.333 -154.334 -63 -195.001
c0 -27.333 4.66699 -52 14 -74l71.5 136.5c21 41.667 39.167 79.834 54.5 114.501c-27.333 3.33301 -53 9.33301 -77 18zM239 357.997l-27.5 -51.5029c-9 -17 -17.167 -33.167 -24.5 -48.5c12 -4.66699 24.333 -8.66699 37 -12s25.667 -5.66602 39 -6.99902
c8.66699 18.667 16.5 36.834 23.5 54.501s13.5 34.834 19.5 51.501c-22 4.66699 -42 8.66699 -60 12zM364 562.994l-53.499 -83.001l-52.5 -89c9.33301 -1.33301 19.166 -2.66602 29.499 -3.99902l32.5 -4c10.667 32 19.667 63 27 93s13 59 17 87zM456.001 682.993
c-18 -18 -39.998 -45.332 -65.998 -81.999c-2.66699 -34.667 -8.16699 -70.334 -16.5 -107.001s-19.166 -75 -32.499 -115c54.667 -9.33301 105.5 -21 152.5 -35s90.833 -30 131.5 -48c21.333 7.33301 41.666 15.166 60.999 23.499s37.666 17.166 54.999 26.499
c70 36.667 126 81 168 133c39.333 49.333 59 97.333 59 144c0 56 -27 99.667 -81 131c-59.333 35.333 -143.666 50.333 -252.999 45c-78 -4 -164.333 -15 -259 -33c3.33301 -9.33301 6.16602 -19.166 8.49902 -29.499s4.16602 -21.166 5.49902 -32.499
c12.667 6 26.667 9 42 9c22 0 33 -5.33301 33 -16c0 -4 -2.66699 -8.66699 -8 -14z" />
    <glyph glyph-name="S" unicode="S" horiz-adv-x="798" 
d="M564 335c0.666992 7.33301 1 14.501 1 21.501v21.5c0 115.333 -29 211 -87 287c-58.667 -44.667 -88 -93 -88 -145c0 -65.333 47.333 -121.333 142 -168c10 -4.66699 20.667 -10.334 32 -17.001zM501 681.001c56.667 -73.333 84.9961 -167.333 84.9961 -282
c0 -12.667 -0.5 -25.167 -1.5 -37.5s-2.16699 -24.5 -3.5 -36.5c83.333 -51.333 125 -106.666 125 -165.999c0 -56.667 -36.667 -110.667 -110 -162c-66.667 -46.667 -143.334 -76.667 -230.001 -90c-41.333 -6 -80 -9 -116 -9c-73.333 0 -131.333 12.333 -174 37
c-40 24 -60 54.667 -60 92c0 32 14.333 63.333 43 94c23.333 25.333 65 51 125 77c66 28 125.667 42 179 42c34.667 0 63.334 -6.33301 86.001 -19c4.66699 -2.66699 7 -5 7 -7c0 -5.33301 -7 -6.33301 -21 -3c-16.667 3.33301 -33.334 5 -50.001 5
c-52 0 -109.333 -12.667 -172 -38c-29.333 -12 -53.833 -24.5 -73.5 -37.5s-35.5 -25.833 -47.5 -38.5s-20.667 -25.167 -26 -37.5s-8 -23.833 -8 -34.5c0 -28 16.5 -49.5 49.5 -64.5s78.833 -22.5 137.5 -22.5c19.333 0 39.166 0.833008 59.499 2.5s41.5 4.16699 63.5 7.5
c83.333 12.667 150 39 200 79c46 36.667 69 79 69 127c0 44 -21 85 -63 123c-17.333 -85.333 -50.333 -155.333 -99 -210c-54.667 -60.667 -121.667 -94 -201 -100c-3.33301 -0.666992 -5.66602 1 -6.99902 5c0 3.33301 2 5.66602 6 6.99902
c80.667 6 146.334 39.333 197.001 100c46 54 75.667 124.333 89 211l-23 16.5c-8 5.66699 -16.667 11.167 -26 16.5c-52.667 28.667 -90.334 54 -113.001 76c-38 36 -57 75.667 -57 119c0 60 38.333 116.333 115 169c-53.333 55.333 -116.666 83 -189.999 83
c-42.667 0 -85 -10 -127 -30c-33.333 -15.333 -59.666 -40 -78.999 -74c-19.333 -34.667 -29 -69.667 -29 -105c0 -29.333 6.66699 -54.666 20 -75.999c24.667 -38.667 62 -58 112 -58c44.667 0 78.667 17 102 51c2 2.66699 4.33301 3.66699 7 3s4 -2.66699 4 -6
c0 -16 -15.333 -30.333 -46 -43c-28 -11.333 -51 -17 -69 -17c-54.667 0 -96 21 -124 63c-14 22.667 -21 49.334 -21 80.001c0 38 10.667 75.667 32 113c22 37.333 50.667 64 86 80c46.667 22 94.334 33 143.001 33c81.333 0 149 -27.333 203 -82
c79.333 49.333 152.333 77.666 219 84.999c4 0.666992 8 1 12 1h11c67.333 0 105.333 -24.333 114 -73c0.666992 -2.66699 0.666992 -6.33398 0 -11.001c-0.666992 -3.33301 -1 -6.33301 -1 -9c0 -2 1 -2.33301 3 -1c3.33301 2.66699 6.83301 5 10.5 7l12.5 7
c14 0.666992 21 -4.33301 21 -15c0 -12.667 -5.66699 -26.667 -17 -42c-49.333 -53.333 -79.666 -80 -90.999 -80c-3.33301 0 -5 2 -5 6c0 10.667 10.333 35.667 31 75c8 16 12 30 12 42c0 33.333 -28 50 -84 50c-5.33301 0 -10.666 -0.166992 -15.999 -0.5
s-11 -0.833008 -17 -1.5c-70.667 -6.66699 -135 -28.667 -193 -66z" />
    <glyph glyph-name="T" unicode="T" horiz-adv-x="940" 
d="M845 753c-6.66699 38.667 -21.001 68.5 -43.001 89.5s-48.333 31.5 -79 31.5c-51.333 0 -100.666 -26.667 -147.999 -80c41.333 -4 84.333 -9.5 129 -16.5s91.667 -15.167 141 -24.5zM528.999 78c157.333 192.667 258.668 370.667 304.001 534
c4.66699 16.667 8 32.667 10 48s3.33301 30.333 4 45c-26 4 -48.667 7 -68 9c-50 5.33301 -132.333 12.333 -247 21c-36.667 -62 -62.334 -136 -77.001 -222c-6 -36 -9 -74.333 -9 -115c0 -132 27.667 -238.667 83 -320zM870.001 702
c-0.666992 -14.667 -2 -29.8301 -4 -45.4971s-5.33301 -31.834 -10 -48.501c-42.667 -154.667 -149 -335.334 -319 -542.001c14.667 -19.333 30 -35.333 46 -48c15.333 15.333 30.833 32 46.5 50l46.5 56c50.667 64 103.167 142.167 157.5 234.5s110.833 199.5 169.5 321.5
c-15.333 3.33301 -33.833 6.66602 -55.5 9.99902zM785.001 -40.9961c-10 -1.33301 -19.8389 -2.49805 -29.5059 -3.49805s-19.167 -1.5 -28.5 -1.5c-30 0 -57.667 4.33301 -83 13c-115.333 -107.333 -240.666 -161 -375.999 -161c-46 0 -81.667 12.667 -107 38
c-22.667 22.667 -34 52 -34 88c0 52 21.667 97.667 65 137c4.66699 4.66699 9.33398 7 14.001 7s7 -2.33301 7 -7c0 -6 -3 -11.333 -9 -16c-31.333 -27.333 -47 -62.333 -47 -105c0 -28 8.66699 -51.333 26 -70c18.667 -20.667 47 -31 85 -31c92.667 0 193.667 53 303 159
c-8.66699 6.66699 -16.667 13.834 -24 21.501s-14.666 15.834 -21.999 24.501c-48 -58 -91.333 -104.333 -130 -139c-1.33301 -1.33301 -3 -2 -5 -2c-4 0 -6 2.33301 -6 7c0 2 0.666992 3.66699 2 5c19.333 17.333 39.833 37.5 61.5 60.5s44.5 49.5 68.5 79.5
c-64.667 85.333 -97 198.666 -97 339.999c0 38 3 73.667 9 107c14.667 88 41.334 163.333 80.001 226c-14 0.666992 -27.667 1.16699 -41 1.5s-26.666 0.5 -39.999 0.5c-252.667 0 -383.334 -53.333 -392.001 -160c-4.66699 -56.667 27.666 -106.334 96.999 -149.001
c54.667 -33.333 105.334 -52 152.001 -56c7.33301 -0.666992 19.333 0 36 2c15.333 2.66699 27.333 4 36 4c4.66699 0 7 -1.33301 7 -4c0 -6 -7 -12 -21 -18c-17.333 -8 -38.333 -12 -63 -12c-23.333 0 -47 3.33301 -71 10c-55.333 13.333 -102.666 39 -141.999 77
c-46 43.333 -66.667 91.333 -62 144c12.667 150.667 149.334 226 410.001 226c42.667 0 88.667 -2 138 -6c53.333 59.333 110.333 89 171 89c36.667 0 68.167 -12 94.5 -36s42.833 -57.333 49.5 -100c22.667 -4.66699 46.5 -9.83398 71.5 -15.501l80.5 -18.5
c24 42 49.5 74.333 76.5 97s57.5 34 91.5 34c12 0 22 -3.83301 30 -11.5s12 -17.167 12 -28.5c0 -13.333 -3 -20 -9 -20c-3.33301 0 -4.33301 3 -3 9c2.66699 22 -5.33301 33 -24 33c-19.333 0 -42 -15.333 -68 -46c-8 -9.33301 -16.5 -20.5 -25.5 -33.5
s-18.167 -28.167 -27.5 -45.5c38 -10.667 74.333 -18.834 109 -24.501s69 -9.16699 103 -10.5c72 -2.66699 114.333 7.66602 127 30.999c2 4 4.66699 6 8 6c6.66699 0 10 -3.33301 10 -10c0 -18 -17 -34 -51 -48c-30 -12 -55 -17.667 -75 -17
c-40 1.33301 -80.667 5.16602 -122 11.499s-83.333 15.166 -126 26.499l-57 -124.5l-56 -124.5c-34 -69.333 -65.833 -130.333 -95.5 -183s-58.5 -98 -86.5 -136c-16.667 -23.333 -33.5 -45.166 -50.5 -65.499s-34.833 -39.166 -53.5 -56.499
c38.667 -11.333 80.667 -13 126 -5c10 2 20 4.66699 30 8s19.5 7.5 28.5 12.5s17.167 10.167 24.5 15.5s13 11 17 17c0.666992 2 2.66699 3 6 3c4.66699 0 7 -2 7 -6c0 -11.333 -15.667 -24.666 -47 -39.999c-26 -13.333 -47 -21.333 -63 -24z" />
    <glyph glyph-name="U" unicode="U" horiz-adv-x="1060" 
d="M563 739c1.33301 111.333 -45.999 167.001 -141.999 167.001c-40 0 -84 -11.667 -132 -35c-46 -23.333 -85.667 -54 -119 -92c-58.667 -66.667 -88 -131.334 -88 -194.001c0 -16 2.66699 -32.667 8 -50c37.333 43.333 84 83.333 140 120
c95.333 62.667 183.666 94 264.999 94c25.333 0 48 -3.33301 68 -10zM587.001 760.001l-0.00292969 -29.9961c54.667 -26 82 -72 82 -138c0 -70 -32.333 -149.333 -97 -238l-28 -36.5l-40 -54.5c-77.333 -103.333 -116 -184 -116 -242c0 -44 21 -66 63 -66
c49.333 0 108.666 34.667 177.999 104c25.333 25.333 52.833 56.166 82.5 92.499s61.5 78.166 95.5 125.499l64.5 92l64.5 93l18 53c6 18 12.333 35.667 19 53c16.667 46 35.667 85.333 57 118c53.333 83.333 98 125 134 125c15.333 0 23 -10.667 23 -32
c0 -36 -20.333 -87.667 -61 -155c-22.667 -39.333 -67 -101.333 -133 -186c-62 -165.333 -93 -297 -93 -395c0 -106 34.333 -172.333 103 -199c16.667 -6.66699 25 -12.334 25 -17.001s-5.33301 -7 -16 -7c-6 0 -12.333 1 -19 3c-96 20 -144 97.333 -144 232
c0 82.667 18.667 185 56 307c-87.333 -122 -155.333 -210 -204 -264c-103.333 -115.333 -189.666 -173 -258.999 -173c-31.333 0 -56.666 8.66699 -75.999 26c-20.667 18.667 -31 45 -31 79c0 67.333 37 153.666 111 258.999l31 44l41 60
c63.333 98.667 95 177.334 95 236.001c0 32 -9.33301 56.333 -28 73c-8 -84 -47.667 -180.667 -119 -290l-58 -88l-58 -88c-46.667 -78.667 -70 -142.667 -70 -192c0 -50.667 17.333 -79.334 52 -86.001c3.33301 -1.33301 4.66602 -3.33301 3.99902 -6
c-1.33301 -4 -3.33301 -5.66699 -6 -5c-45.333 9.33301 -68 41.666 -68 96.999c0 48.667 23.667 114.667 71 198l57 88l56 88c72.667 115.333 111.334 215 116.001 299c-14 6.66699 -31.667 10 -53 10c-73.333 0 -157.333 -34.667 -252 -104
c-55.333 -41.333 -102.333 -86.333 -141 -135c28.667 -32.667 67 -49 115 -49c18 0 36 2.33301 54 7c4 1.33301 6.33301 0 7 -4s-0.666016 -6.33301 -3.99902 -7c-19.333 -6 -38.666 -9 -57.999 -9c-49.333 0 -90 17 -122 51c-48 -63.333 -72 -119.666 -72 -168.999
c0 -47.333 22.333 -83.333 67 -108c10.667 -6 16 -11.333 16 -16c0 -4 -3 -6 -9 -6c-5.33301 0 -12.333 2.66699 -21 8c-57.333 46 -86 99 -86 159c0 56.667 25 115.667 75 177c-9.33301 22.667 -14 46.667 -14 72c0 64.667 29 130.667 87 198c32.667 38 74.667 69 126 93
c50.667 24 99.667 36 147 36c48 0 85.667 -12.333 113 -37c31.333 -28 48 -69.333 50 -124z" />
    <glyph glyph-name="V" unicode="V" horiz-adv-x="1103" 
d="M527 757c-13.333 42 -33.166 72.999 -59.499 92.999s-54.833 28 -85.5 24c-32.667 -4 -62 -20 -88 -48c-28 -30 -48.667 -70 -62 -120c-2.66699 -9.33301 -4.83398 -18.666 -6.50098 -27.999s-3.16699 -19 -4.5 -29l9 6c110.667 74 209.667 108 297 102zM446 140.999
l8 23.999c60 172.667 90 323.667 90 453c0 46 -3.33301 83.333 -10 112c-4 0.666992 -8.16699 1.16699 -12.5 1.5s-8.83301 0.5 -13.5 0.5c-82 0 -178.667 -46.667 -290 -140c0 -90 20.333 -176 61 -258c41.333 -85.333 97 -149.666 167 -192.999zM559 721.998
c2.66699 -13.333 4.5 -28.5 5.5 -45.5s1.5 -35.167 1.5 -54.5c0 -126 -32 -279 -96 -459l-11 -30c16.667 -9.33301 33 -16.333 49 -21l35 107l47 148c25.333 84 38 153.667 38 209c0 77.333 -23 126 -69 146zM771 207.998c-8.66699 -32 -33.002 -59.335 -73.002 -82.002
c-44.667 -26 -90 -38.333 -136 -37c-21.333 -66 -32 -110.333 -32 -133c0 -13.333 3.33301 -20 10 -20c32 0 93.333 37.333 184 112c36.667 30 68.834 57.667 96.501 83s50.834 48.333 69.501 69c69.333 75.333 125.666 151.666 168.999 228.999c52 94 78 178.667 78 254
c0 66 -20.667 123.333 -62 172c-8.66699 10.667 -13 18.667 -13 24c0 2.66699 1.33301 4 4 4c6 0 15.333 -5.33301 28 -16c56.667 -48.667 85 -111 85 -187c0 -77.333 -29.333 -164.666 -88 -261.999c-23.333 -40 -50.333 -79.5 -81 -118.5s-65 -78.5 -103 -118.5
c-187.333 -195.333 -313 -293 -377 -293c-7.33301 0 -14.666 1.5 -21.999 4.5s-13.666 6.83301 -18.999 11.5s-9.66602 9.83398 -12.999 15.501s-4.66602 11.5 -3.99902 17.5c2 23.333 5.66699 48.333 11 75s12.333 55.334 21 86.001c-8.66699 2.66699 -17 5.5 -25 8.5
s-16.333 6.83301 -25 11.5c-35.333 -99.333 -54.333 -167.333 -57 -204c0 -4 -1.66699 -5 -5 -3c-4.66699 1.33301 -6.33398 4 -5.00098 8c4 43.333 21.667 112 53 206c-77.333 43.333 -138 106.333 -182 189c-42 78 -63.667 163.333 -65 256
c-104.667 -96 -157 -183.333 -157 -262c0 -47.333 22.333 -83.333 67 -108c10.667 -6 16 -11.333 16 -16c0 -4 -3 -6 -9 -6c-5.33301 0 -12.333 2.66699 -21 8c-57.333 46 -86 99 -86 159c0 48.667 19 99.667 57 153c34.667 48 80 92.667 136 134
c1.33301 12.667 3.16602 25.167 5.49902 37.5s5.16602 24.5 8.49902 36.5c12.667 49.333 34.667 91.666 66 126.999c36 40.667 77.333 61 124 61c34.667 0 64.667 -11.333 90 -34c28 -24 48.667 -59.667 62 -107c95.333 -17.333 143 -84.666 143 -201.999
c0 -61.333 -14 -130.333 -42 -207l-36.5 -100l-50.5 -142c43.333 -1.33301 85.333 10 126 34c38 21.333 60.333 46.333 67 75c1.33301 3.33301 3.66602 4.66602 6.99902 3.99902c4.66699 -1.33301 6.33398 -3.66602 5.00098 -6.99902z" />
    <glyph glyph-name="W" unicode="W" horiz-adv-x="1646" 
d="M482 853c-8 40 -23.667 69.833 -47 89.5s-50.333 29.5 -81 29.5c-58 0 -110.667 -28.667 -158 -86c-53.333 -64 -81.333 -146.333 -84 -247c36.667 40.667 81 78 133 112c92 58.667 171 92.667 237 102zM311 188l7.50195 18.501
c2.33301 5.66699 4.83301 10.834 7.5 15.501c106.667 238 160.667 428 162 570c0 5.33301 -0.166992 10.666 -0.5 15.999s-0.833008 10.666 -1.5 15.999c-53.333 -5.33301 -124.333 -40.666 -213 -105.999c-64.667 -46.667 -117.667 -99.334 -159 -158.001
c7.33301 -74 27.666 -144 60.999 -210c37.333 -73.333 82.666 -127.333 135.999 -162zM515.002 823.001v-18c-0.666992 -140.667 -58.667 -336 -174 -586c-2.66699 -5.33301 -5.33398 -11.333 -8.00098 -18s-5.66699 -13.667 -9 -21
c14.667 -8.66699 32.334 -15.667 53.001 -21l65 150l77 181c36.667 98 55 175.667 55 233c0 58.667 -19.667 92 -59 100zM645.002 237.001c-12 -31.333 -37.0029 -56.668 -75.0029 -76.001c-32.667 -16 -72 -25 -118 -27c-15.333 -54 -23 -94.667 -23 -122
c0 -34 11.333 -51 34 -51c32.667 0 90.667 39 174 117c52 48.667 104.333 109.167 157 181.5s106.334 157.166 161.001 254.499c3.33301 5.33301 11.333 10.5 24 15.5s25 7.5 37 7.5c12.667 0 21.667 -2.33301 27 -7c-29.333 -40 -55 -95 -77 -165
c-23.333 -76 -35 -146.667 -35 -212c0 -139.333 51 -209 153 -209c5.33301 0 10.833 0.166992 16.5 0.5s11.167 0.833008 16.5 1.5c84.667 12 167.334 63.333 248.001 154c36 40.667 68.333 84.834 97 132.501s53.667 99.5 75 155.5c31.333 82.667 47 162 47 238
c0 137.333 -57.333 206 -172 206c-58.667 0 -113.334 -15.333 -164.001 -46c-1.33301 -0.666992 -3 -1 -5 -1c-6.66699 0 -10 3.33301 -10 10c0 4 1.66699 7 5 9c54 32 112 48 174 48c80 0 139 -27.333 177 -82c31.333 -45.333 47 -107 47 -185c0 -72 -12 -144.333 -36 -217
c-44 -132.667 -117.333 -243 -220 -331c-91.333 -79.333 -178.333 -120.333 -261 -123c-163.333 -7.33301 -245 87 -245 283c0 19.333 1 39.5 3 60.5s4.66699 42.5 8 64.5c-44 -57.333 -84.667 -108 -122 -152s-72 -82 -104 -114c-101.333 -100 -182 -150 -242 -150
c-52.667 0 -79 34.333 -79 103c0 35.333 8.66699 75 26 119l5 11c-20 4 -38 9.66699 -54 17c-54.667 -140.667 -81.667 -241.334 -81 -302.001c0.666992 -10.667 -2.33301 -16 -9 -16c-3.33301 0 -5.66602 3.66699 -6.99902 11
c-3.33301 62.667 24.334 167.334 83.001 314.001c-54.667 30.667 -100.334 78.334 -137.001 143.001c-36.667 64 -60 138.667 -70 224c-28 -47.333 -42 -89.333 -42 -126c0 -47.333 22 -83.333 66 -108c10.667 -6 16 -11.667 16 -17c0 -4 -2.66699 -6 -8 -6
c-6 0 -13.333 2.66699 -22 8c-56.667 46.667 -85 100 -85 160c0 55.333 23.333 112.333 70 171c1.33301 114 32.666 207.333 93.999 280c54.667 66 116.334 99 185.001 99c36 0 66.667 -11 92 -33c28 -24.667 45.333 -59 52 -103c85.333 -1.33301 128 -51 128 -149
c0 -67.333 -21.333 -150.666 -64 -249.999l-54 -129l-37.5 -96c-11 -29.333 -20.167 -56.333 -27.5 -81c40.667 0 76.667 7 108 21c34.667 16 57.334 39.333 68.001 70c2 4 4.66699 5.33301 8 4c4 -0.666992 5.33301 -3.33398 4 -8.00098z" />
    <glyph glyph-name="X" unicode="X" horiz-adv-x="866" 
d="M412 324c-4 206 -14.335 339.333 -31.002 400c-86.667 -6 -170 -49.333 -250 -130c-5.33301 -4.66699 -12.666 -7 -21.999 -7c-4.66699 0 -7 1.66699 -7 5s2 8 6 14c10 14 39 38 87 72c60.667 44 117.334 74 170.001 90c-32 70.667 -79 106 -141 106
c-53.333 0 -95 -23.667 -125 -71c-28 -44 -42 -100.667 -42 -170c0 -78 17.667 -155 53 -231c39.333 -82 93.333 -144.333 162 -187l67 53.5zM413.998 161l-2 137.001l-61 -49l-57 -47c38 -20.667 78 -34.334 120 -41.001zM433.998 315.001v-157c4 -0.666992 8 -1 12 -1
s8 -0.333008 12 -1c12.667 -0.666992 25 -0.666992 37 0c1.33301 28 3 59.333 5 94s4 74 6 118l-37 -27zM401.998 725.001c19.333 -69.333 30.001 -197.667 32.001 -385l35 26l37 27c1.33301 209.333 -23.334 319 -74.001 329c-9.33301 0.666992 -19.333 1.66699 -30 3z
M697.999 334c-0.666992 -40.667 -13 -76.499 -37 -107.499s-56 -54.167 -96 -69.5c8.66699 -124 41.334 -186 98.001 -186c17.333 0 37.333 6.33301 60 19c20.667 11.333 44.167 28.5 70.5 51.5s55.833 52.5 88.5 88.5c4 4 8 6 12 6s6 -2 6 -6
c0 -3.33301 -2.66699 -8.33301 -8 -15c-30.667 -31.333 -59 -58.833 -85 -82.5s-50 -43.834 -72 -60.501c-57.333 -43.333 -104 -65 -140 -65c-68 0 -101.333 78 -100 234c-6.66699 -0.666992 -13 -1.16699 -19 -1.5s-12 -0.166016 -18 0.500977h-12c-4 0 -8 0.333008 -12 1
c0 -204.667 8.66699 -318.334 26 -341.001c0.666992 -0.666992 1 -1.66699 1 -3c0 -2 -1.33301 -3.33301 -4 -4s-5.66699 0 -9 2c-20 17.333 -31.333 133.666 -34 348.999c-49.333 6 -95.666 20 -138.999 42c-70.667 -61.333 -132.834 -121.333 -186.501 -180
s-98.834 -117 -135.501 -175c-23.333 -37.333 -44 -56 -62 -56c-8 0 -12 4.66699 -12 14c0 10.667 6 24.667 18 42c88 121.333 206.333 244 355 368c-72.667 43.333 -128.667 105 -168 185c-36.667 72.667 -55 149.667 -55 231c0 77.333 16.667 140.666 50 189.999
c36 53.333 85 80 147 80c30 0 58.667 -9 86 -27c30 -20 54 -48.333 72 -85c18 4 34.667 6 50 6c37.333 0 67.666 -11.333 90.999 -34c31.333 -29.333 46.333 -130.666 45 -303.999l133 92l133 92c86 60 148.667 109.667 188 149c37.333 36.667 66.333 55 87 55
c5.33301 0 8 -2 8 -6c0 -10 -13.667 -28.667 -41 -56c-13.333 -13.333 -36.166 -31.333 -68.499 -54l-124.5 -85l-189 -125l-126 -87c0 -1.33301 -0.333008 -7.83301 -1 -19.5l-3 -52.5c-1.33301 -21.333 -2.33301 -41.333 -3 -60s-1 -35.667 -1 -51
c0 -11.333 0.166992 -22 0.5 -32s0.833008 -19.667 1.5 -29c36 14 65.167 35.333 87.5 64s33.833 61.334 34.5 98.001c0 4 2 6 6 6s6 -2 6 -6z" />
    <glyph glyph-name="Y" unicode="Y" horiz-adv-x="1465" 
d="M249 751c44 20.667 88.499 38.4961 133.499 53.4961s91.167 27.5 138.5 37.5c32 6.66699 62.5 12.334 91.5 17.001s56.833 8.66699 83.5 12c-55.333 38.667 -127.333 56.334 -216 53.001c-77.333 -3.33301 -136.666 -22.666 -177.999 -57.999
c-37.333 -31.333 -55 -69.666 -53 -114.999zM1401 -89.0039c-2.66699 -2.66699 -5.33594 -4.00781 -8.00293 -4.00781c-3.33301 0 -5 1.66699 -5 5c0 2.66699 1.33301 5.33398 4 8.00098c15.333 15.333 23 28 23 38c0 18.667 -25 28 -75 28
c-22.667 0 -41.667 -1.33301 -57 -4c-40 -149.333 -105.333 -269.333 -196 -360c-50 -51.333 -107 -92.333 -171 -123c-69.333 -34.667 -136.666 -52 -201.999 -52c-25.333 0 -48 3.33301 -68 10s-37.167 16 -51.5 28s-25.333 26.167 -33 42.5s-11.5 34.5 -11.5 54.5
c0 100.667 90.333 193.334 271 278.001c106.667 50.667 242.334 96.667 407.001 138c8.66699 37.333 17 103 25 197c8.66699 104.667 11.667 188.334 9 251.001c-48 -48 -98.667 -95.5 -152 -142.5s-110 -94.5 -170 -142.5c-159.333 -125.333 -274.333 -188 -345 -188
c-36 0 -54 17.333 -54 52c0 18 5.66699 41 17 69c13.333 30.667 41 71 83 121l44.5 49l94.5 104l89 93l89 93c60.667 68.667 91 124 91 166c0 82 -69 123 -207 123c-11.333 0 -22.833 -0.333008 -34.5 -1s-23.834 -1.66699 -36.501 -3c36 -43.333 54 -95.666 54 -156.999
c0 -107.333 -50 -216 -150 -326c-50.667 -55.333 -88 -100.666 -112 -135.999c-40.667 -58.667 -63.334 -110.667 -68.001 -156c-3.33301 -25.333 -1.33301 -46.666 6 -63.999c9.33301 -25.333 22.333 -38 39 -38c5.33301 0 10.166 1.5 14.499 4.5s6.83301 4.5 7.5 4.5
c2 0 3.66699 -1.66699 5 -5c0.666992 -2.66699 -0.333008 -5 -3 -7c-8 -6 -16.333 -9 -25 -9c-23.333 0 -41.666 14.667 -54.999 44c-9.33301 20 -12.333 44 -9 72c4.66699 46 26 97 64 153c11.333 16.667 27 37.334 47 62.001l74 87c91.333 104.667 137 206.667 137 306
c0 64 -20 118 -60 162c-172 -20.667 -330.333 -67.334 -475 -140.001c14 -31.333 37 -57.666 69 -78.999c34.667 -21.333 76.334 -33.666 125.001 -36.999c49.333 -2 101.333 4.33301 156 19c4 0.666992 6 -1 6 -5c0 -3.33301 -1.66699 -5.66602 -5 -6.99902
c-52 -16.667 -104.333 -24.667 -157 -24c-53.333 1.33301 -99.333 13.666 -138 36.999c-35.333 22 -61 50.667 -77 86c-121.333 -65.333 -182 -127.333 -182 -186c0 -40 35 -73 105 -99c62.667 -24 134.667 -36 216 -36c65.333 0 117 9 155 27c9.33301 4.66699 17 7 23 7
c4 0 6 -1.33301 6 -4c0 -6 -6.66699 -13 -20 -21c-16.667 -10 -48 -19 -94 -27c-26.667 -4.66699 -53.5 -7.83398 -80.5 -9.50098s-54.5 -2.16699 -82.5 -1.5c-56 1.33301 -109.333 13.333 -160 36c-73.333 33.333 -110 79.333 -110 138
c0 84.667 70.333 161.334 211 230.001c-4 52 14.333 96.333 55 133c46.667 41.333 112.334 64 197.001 68c107.333 5.33301 192 -16.667 254 -66c15.333 1.33301 30.333 2.33301 45 3s28.667 1 42 1c172 0 258 -52.333 258 -157c0 -102.667 -87.667 -236.667 -263 -402
c-140 -131.333 -210 -219.333 -210 -264c0 -15.333 9.66699 -23 29 -23c26 0 64.667 13 116 39c26.667 14 54.167 30.333 82.5 49s57.833 39.667 88.5 63c54 42 106.667 87.833 158 137.5s102 103.834 152 162.501c27.333 31.333 48.333 47 63 47c16 0 27 -21 33 -63
c1.33301 -10.667 2.33301 -22.5 3 -35.5s1 -27.167 1 -42.5c0 -30.667 -1.33301 -64.334 -4 -101.001s-6.66699 -76.334 -12 -119.001c-8.66699 -69.333 -17.667 -122.666 -27 -159.999c5.33301 0.666992 10.833 1.16699 16.5 1.5s11.834 0.5 18.501 0.5
c28 0 52.333 -3.66699 73 -11c24 -9.33301 36 -22 36 -38c0 -14.667 -10.667 -32 -32 -52zM1222 -30.0117c-166 -46 -289.334 -88 -370.001 -126c-161.333 -76 -242 -162 -242 -258c0 -36 12.333 -63.833 37 -83.5s57.334 -29.5 98.001 -29.5c86 0 171.667 38.667 257 116
c102 92.667 175.333 219.667 220 381z" />
    <glyph glyph-name="Z" unicode="Z" horiz-adv-x="774" 
d="M170 649c38 24.667 78.333 47.332 121 67.999s88 39.334 136 56.001c98.667 34 187 51 265 51c16 0 31 -1 45 -3c-40 50.667 -101.333 76 -184 76c-70 0 -143.333 -19.667 -220 -59c-98 -51.333 -152.333 -114.333 -163 -189zM898 667.998c0 -66.667 -36 -138 -108 -214
c-56.667 -60 -146 -134 -268 -222c44.667 2 81 -16 109 -54c26 -35.333 39 -76.333 39 -123c0 -15.333 -2 -30.333 -6 -45c5.33301 0.666992 11 1.16699 17 1.5s12.333 0.5 19 0.5c28 0 52.333 -3.66699 73 -11c23.333 -9.33301 35 -22 35 -38
c0 -14.667 -10.333 -32 -31 -52c-2.66699 -2.66699 -5.33398 -4 -8.00098 -4c-4 0 -6 1.66699 -6 5c0 2.66699 1.33301 5.33398 4 8.00098c16 14.667 24 27.334 24 38.001c0 18.667 -25 28 -75 28c-10.667 0 -20.667 -0.333008 -30 -1s-18.666 -1.66699 -27.999 -3
c-39.333 -149.333 -104.333 -269.333 -195 -360c-50 -51.333 -107 -92.333 -171 -123c-69.333 -34.667 -137 -52 -203 -52c-50 0 -89.667 12.5 -119 37.5s-44 57.5 -44 97.5c0 100.667 90.333 193.334 271 278.001c106.667 50.667 242.334 96.667 407.001 138
c4 18.667 6 36.667 6 54c0 83.333 -38.333 127.333 -115 132l-31 -5c-8.66699 -1.33301 -15.667 -2.66602 -21 -3.99902c-11.333 -2.66699 -21.833 -5.33398 -31.5 -8.00098s-18.167 -5.66699 -25.5 -9c-62 -27.333 -96 -41 -102 -41c-9.33301 0 -14 5 -14 15
c0 13.333 6.66699 26.666 20 39.999c8.66699 8.66699 30 17.334 64 26.001c19.333 5.33301 35.166 10.5 47.499 15.5s21.166 9.16699 26.499 12.5c98 64.667 183 130.667 255 198c108.667 102.667 163 188.667 163 258c0 47.333 -16.667 81.666 -50 102.999
c4.66699 -14.667 7 -31.667 7 -51c0 -91.333 -58.333 -191.333 -175 -300c-16.667 -15.333 -36.167 -32 -58.5 -50s-47.833 -36.667 -76.5 -56c-36.667 -25.333 -71.667 -47.833 -105 -67.5s-66 -36.167 -98 -49.5c-3.33301 -2.66699 -5.66602 -1 -6.99902 5
c-2 5.33301 -1 8.66602 3 9.99902c62 28 129 67 201 117c28 19.333 53 37.666 75 54.999s41.333 33.666 58 48.999c101.333 95.333 152 185.666 152 270.999c0 30.667 -7.33301 58.334 -22 83.001c-7.33301 1.33301 -15.166 2.5 -23.499 3.5s-17.166 1.5 -26.499 1.5
c-75.333 0 -166.666 -22.333 -273.999 -67c-94 -39.333 -179 -85.333 -255 -138c6.66699 -37.333 26 -68 58 -92s72 -36 120 -36c44 0 89.667 10.333 137 31c3.33301 2.66699 5.66602 1.66699 6.99902 -3c2.66699 -3.33301 1.66699 -5.66602 -3 -6.99902
c-54 -24.667 -106.333 -37 -157 -37c-50 0 -92.333 11.167 -127 33.5s-56.667 51.5 -66 87.5c-0.666992 -0.666992 -5.66699 -4.83398 -15 -12.501l-43 -34.5c-34.667 -28.667 -52.334 -43 -53.001 -43c-3.33301 0 -5 2.66699 -5 8c0 6 2.33301 12.333 7 19
c22 36 57 72.333 105 109c5.33301 86 69 160.667 191 224c83.333 43.333 164.666 65 243.999 65c105.333 0 176.333 -33.333 213 -100c76 -21.333 114 -69.666 114 -144.999zM598 -30.002c-165.333 -45.333 -289 -87.333 -371 -126c-161.333 -76 -242 -162 -242 -258
c0 -36 12.5 -63.833 37.5 -83.5s57.5 -29.5 97.5 -29.5c86.667 0 172.667 38.667 258 116c102 92.667 175.333 219.667 220 381z" />
    <glyph glyph-name="bracketleft" unicode="[" horiz-adv-x="585" 
d="M583 682c0 -12 -8.33301 -17.9971 -25 -17.9971c-4 0 -9.33301 0.166992 -16 0.5s-13.5 0.833008 -20.5 1.5s-14 1.16699 -21 1.5s-12.5 0.5 -16.5 0.5c-23.333 0 -39 -1.66699 -47 -5c-49.333 -25.333 -118.333 -116 -207 -272
c-88.667 -156.667 -133 -264.334 -133 -323.001c0 -29.333 22.333 -44 67 -44c4 0 9.16699 0.166992 15.5 0.5s13 0.833008 20 1.5s13.833 1.16699 20.5 1.5s12 0.5 16 0.5c28 0 42 -7.33301 42 -22c0 -15.333 -41.333 -23 -124 -23c-77.333 0 -116 15 -116 45
c0 77.333 36.333 184.666 109 321.999c32 60 63.833 114.167 95.5 162.5s63.834 91.5 96.501 129.5c12 13.333 22.667 24.666 32 33.999s17.666 16.333 24.999 21c20.667 14 46 21 76 21h20c60.667 0.666992 91 -11.333 91 -36z" />
    <glyph glyph-name="backslash" unicode="\" horiz-adv-x="867" 
d="M859 -34l-7.00098 -5.99902c-50 15.333 -131.333 92.666 -244 231.999l-148 186.5l-148 186.5c-110.667 130.667 -191.667 196 -243 196c-5.33301 0 -12.333 -2 -21 -6c-12.667 -5.33301 -19.667 -8 -21 -8l-7 7c8.66699 24 32.667 36 72 36
c90.667 0 204.334 -92.333 341.001 -277l99 -136l100 -136c77.333 -103.333 150 -190 218 -260c4.66699 -6 7.66699 -11 9 -15z" />
    <glyph glyph-name="bracketright" unicode="]" horiz-adv-x="556" 
d="M548 670c0 -94 -28.666 -207.999 -85.999 -341.999c-56.667 -131.333 -119 -231 -187 -299c-30.667 -30.667 -91.667 -46 -183 -46c-42 0 -67 1.66699 -75 5c4 20 20.333 32 49 36c15.333 1.33301 30.666 2.5 45.999 3.5s30.666 2.16699 45.999 3.5
c40.667 6 71.667 21.333 93 46c51.333 57.333 103 145.666 155 264.999c55.333 126 83 223.667 83 293c0 10.667 -1 20.667 -3 30c-6 2.66699 -17 4 -33 4c-6.66699 0 -14.5 -0.166992 -23.5 -0.5s-19.833 -0.833008 -32.5 -1.5s-23.5 -1.16699 -32.5 -1.5
s-16.5 -0.5 -22.5 -0.5l-3 2c8.66699 32.667 57.334 49 146.001 49c22 0 36.667 -2.33301 44 -7c12.667 -6.66699 19 -19.667 19 -39z" />
    <glyph glyph-name="asciicircum" unicode="^" horiz-adv-x="370" 
d="M403 391c0.666992 -6 -3.33398 -9 -12.001 -9c-15.333 0 -38.666 12.333 -69.999 37c-29.333 21.333 -49.666 39.666 -60.999 54.999c-76 -55.333 -121.333 -84.666 -136 -87.999l-6 7c0.666992 8.66699 25.334 30.667 74.001 66c48.667 36 78.667 55 90 57l6 -3
c13.333 -19.333 29.166 -38.333 47.499 -57s39.166 -37.667 62.499 -57z" />
    <glyph glyph-name="underscore" unicode="_" horiz-adv-x="806" 
d="M793 -53l-7.00098 -7c-85.333 0 -175 -0.5 -269 -1.5s-193.333 -2.83301 -298 -5.5c-16 0 -48.333 -1 -97 -3c-41.333 -2 -73.666 -3 -96.999 -3c-11.333 0 -17 9.66699 -17 29c0 12.667 5.66699 19 17 19h740c18 0 27.333 -9.33301 28 -28z" />
    <glyph glyph-name="grave" unicode="`" horiz-adv-x="368" 
d="M119 623c-6.66699 6 -10 14.3301 -10 24.9971c0 12.667 4.66699 19 14 19c6 0 13.667 -3.66699 23 -11c16 -11.333 34.5 -25.166 55.5 -41.499l70.5 -55.5c3.33301 -3.33301 5 -6.66602 5 -9.99902c0 -7.33301 -4 -11 -12 -11c-2 0 -5 0.666992 -9 2
c-52 28.667 -97.667 56.334 -137 83.001z" />
    <glyph glyph-name="a" unicode="a" horiz-adv-x="422" 
d="M449 115c-78 -82.667 -144.335 -121.001 -199.002 -115.001c-18 2 -34.667 13 -50 33c-15.333 22.667 -24.666 51 -27.999 85c-12.667 -17.333 -25.5 -33.166 -38.5 -47.499s-26.833 -27.5 -41.5 -39.5c-26.667 -21.333 -48.667 -32 -66 -32c-24.667 0 -37 15.667 -37 47
c0 26.667 9.33301 54.334 28 83.001c43.333 66 92 111.667 146 137c23.333 10.667 45 16 65 16c5.33301 0 11.166 -0.833008 17.499 -2.5s12.333 -4 18 -7s10.334 -6.5 14.001 -10.5s5.5 -8.66699 5.5 -14c0 -2 -1.16699 -3.83301 -3.5 -5.5s-5 -3 -8 -4
s-5.83301 -2.16699 -8.5 -3.5s-4 -2.33301 -4 -3c-24.667 -44.667 -37 -87.334 -37 -128.001c0 -50.667 19.667 -76 59 -76c41.333 0 93 33 155 99c4.66699 6 9.33398 9 14.001 9c3.33301 0 5 -2.33301 5 -7c0 -5.33301 -2 -10 -6 -14zM199.998 246.999
c-55.333 1.33301 -103.002 -37.3311 -143.002 -115.998c-11.333 -21.333 -17 -40.333 -17 -57c0 -18 6.33301 -27 19 -27c12 0 27.667 8 47 24c34.667 29.333 57.334 58.666 68.001 87.999c4.66699 33.333 13.334 62.666 26.001 87.999z" />
    <glyph glyph-name="b" unicode="b" horiz-adv-x="396" 
d="M192 27c-35.333 4.66699 -68.667 18.333 -100 41c-2.66699 -11.333 -4 -23.333 -4 -36c0 -32.667 10.333 -49 31 -49s45 14.667 73 44zM266.999 48.999c54 8.66699 103.332 35.999 147.999 81.999c4.66699 3.33301 8 5 10 5c4 0 6 -2.33301 6 -7
c0 -6 -3.33301 -11.333 -10 -16c-56.667 -50.667 -114 -79.667 -172 -87c-40 -42.667 -82.333 -64 -127 -64c-51.333 0 -77 26.333 -77 79c0 17.333 3 37.666 9 60.999c-36.667 40.667 -55 86.667 -55 138c0 34 9.66699 62.333 29 85c22 24 52 36 90 36
c7.33301 0 15 -0.5 23 -1.5s16 -2.16699 24 -3.5c82.667 153.333 152 257 208 311c6.66699 6 16.334 9 29.001 9c24 0 36 -5.66699 36 -17c0 -3.33301 -1.66699 -6.66602 -5 -9.99902c-54 -51.333 -126.667 -153.666 -218 -306.999c68.667 -32 103 -84.333 103 -157
c0 -44.667 -17 -90 -51 -136zM100.998 103.998c32.667 -31.333 69.332 -49.999 109.999 -55.999l15.5 21.5c5 7 9.16699 14.167 12.5 21.5c22 44.667 33 86 33 124c0 57.333 -22 93.666 -66 108.999c-14 -23.333 -27.5 -47.333 -40.5 -72s-25.167 -49.667 -36.5 -75
c-11.333 -24.667 -20.666 -49 -27.999 -73zM154.996 335.999c-36.667 2.66699 -65.667 -6 -87 -26c-18 -18 -27 -42.667 -27 -74c0 -29.333 8.66699 -59.333 26 -90c14.667 44 40.667 101 78 171z" />
    <glyph glyph-name="c" unicode="c" horiz-adv-x="308" 
d="M338 117c-81.333 -85.333 -160.667 -128.001 -238 -128.001c-58.667 0 -88 31.667 -88 95c0 41.333 21 87 63 137c45.333 53.333 88.666 80 129.999 80c34 0 51 -15.333 51 -46c0 -10.667 -4 -24.334 -12 -41.001c-3.33301 -7.33301 -6.66602 -13.5 -9.99902 -18.5
s-6.33301 -9.16699 -9 -12.5c-3.33301 -3.33301 -6 -5 -8 -5c-6.66699 0 -7.33398 5 -2.00098 15c7.33301 13.333 11 24.333 11 33c0 12.667 -7.66699 19 -23 19c-20 0 -40.333 -8 -61 -24c-13.333 -10 -25.333 -21.333 -36 -34s-19.667 -25.667 -27 -39
s-13.166 -26.666 -17.499 -39.999s-6.5 -26 -6.5 -38c0 -38.667 20 -58 60 -58c21.333 0 47 6 77 18c40.667 16.667 84 49 130 97c6.66699 6.66699 12 10 16 10c3.33301 -1.33301 5 -3.66602 5 -6.99902c0 -4 -1.66699 -8.33301 -5 -13z" />
    <glyph glyph-name="d" unicode="d" horiz-adv-x="422" 
d="M540 639c0 -55.333 -33.6689 -124.67 -101.002 -208.003c-23.333 -30 -49.666 -59.5 -78.999 -88.5s-61.333 -58.5 -96 -88.5c-25.333 -65.333 -39.333 -119.333 -42 -162c4.66699 -42.667 24.334 -64 59.001 -64c41.333 0 93 33 155 99c4.66699 6 9.33398 9 14.001 9
c3.33301 0 5 -2.33301 5 -7c0 -5.33301 -2 -10 -6 -14c-78 -82.667 -144.333 -121 -199 -115c-18 2 -34.667 13 -50 33c-15.333 22.667 -24.666 51 -27.999 85c-12.667 -17.333 -25.5 -33.166 -38.5 -47.499s-26.833 -27.5 -41.5 -39.5c-26.667 -21.333 -48.667 -32 -66 -32
c-24.667 0 -37 15.667 -37 47c0 26.667 9.33301 54.334 28 83.001c11.333 16.667 24.166 33.167 38.499 49.5s30.5 32.166 48.5 47.499c46 38.667 84 56.667 114 54c14 38.667 28.667 75.834 44 111.501s31.666 69.834 48.999 102.501c46.667 92 89 150.333 127 175
c18.667 12 37.667 18 57 18c30 0 45 -16 45 -48zM509.998 636.996c2.66699 18 -1.66602 27.001 -12.999 27.001c-21.333 0 -43 -19.667 -65 -59c-29.333 -51.333 -56.833 -103.333 -82.5 -156s-49.834 -107 -72.501 -163c51.333 50 99.333 106.667 144 170
c53.333 75.333 83 135.666 89 180.999zM207.998 246.997c-28 0.666992 -56.998 -10.667 -86.998 -34c-13.333 -10.667 -25.166 -22.834 -35.499 -36.501s-19.833 -28.834 -28.5 -45.501c-11.333 -21.333 -17 -40.333 -17 -57c0 -18 6.33301 -27 19 -27c12 0 27.667 8 47 24
c17.333 14.667 31.666 29.334 42.999 44.001s19.666 29.334 24.999 44.001c19.333 52.667 30.666 82 33.999 88z" />
    <glyph glyph-name="e" unicode="e" horiz-adv-x="338" 
d="M367 115c-24 -29.333 -61.999 -57.333 -113.999 -84c-57.333 -30 -107.333 -45 -150 -45c-62 0 -93 34 -93 102c0 24.667 8.33301 54 25 88c16.667 36 37.667 66 63 90c28.667 27.333 55.667 41 81 41c33.333 0 50 -16.333 50 -49c0 -20 -8.66699 -41.333 -26 -64
c-30.667 -38 -75.334 -64.333 -134.001 -79c-2.66699 -11.333 -4 -23.333 -4 -36c0 -45.333 21 -68 63 -68c33.333 0 74.666 13.667 123.999 41c22.667 12.667 42.334 25.167 59.001 37.5s30.667 24.833 42 37.5c12.667 13.333 19 14 19 2c0 -4 -1.66699 -8.66699 -5 -14z
M183.001 209c12.667 21.333 19 39.666 19 54.999c0 12 -4 18 -12 18c-14 0 -33.333 -16.333 -58 -49c-24 -33.333 -43 -66.666 -57 -99.999c52.667 16.667 88.667 42 108 76z" />
    <glyph glyph-name="f" unicode="f" horiz-adv-x="245" 
d="M381 550c-36.667 -74 -115.67 -164.335 -237.003 -271.002c42 -0.666992 76 -1.16699 102 -1.5s43.667 -0.166016 53 0.500977c10 -3.33301 15 -7.66602 15 -12.999c0 -10 -12 -16.333 -36 -19c-5.33301 -0.666992 -21.333 -1.33398 -48 -2.00098
s-64.334 -1.33398 -113.001 -2.00098l-79.5 -154l-112.5 -211c-40 -68 -82.667 -118.667 -128 -152c-53.333 -40 -115.333 -60 -186 -60c-40 0 -71.333 11.333 -94 34c-21.333 20 -32 45 -32 75c0 29.333 10.667 55.333 32 78c2.66699 4 6 6 10 6s6 -2.33301 6 -7
c0 -2.66699 -1.66699 -6.33398 -5 -11.001c-15.333 -15.333 -23 -35.666 -23 -60.999c0 -26 8 -47.333 24 -64c18 -20 43 -30 75 -30c46.667 0 95.667 19.667 147 59c49.333 39.333 93.333 91.666 132 156.999c34.667 58.667 67.167 116.334 97.5 173.001
s58.833 113.334 85.5 170.001c-15.333 -0.666992 -26.666 -1 -33.999 -1s-10.666 0 -9.99902 0c-20.667 0.666992 -32 7 -34 19c-2 10 5 15 21 15h71l58.5 127c15.667 33.333 27.834 58.333 36.501 75c22.667 43.333 44.334 80.333 65.001 111s40.667 55.334 60 74.001
c20.667 19.333 38.667 29 54 29c29.333 0 44 -23.333 44 -70c0 -24.667 -5.66699 -49 -17 -73zM350.997 566.998c12.667 26 19 48.667 19 68c0 12.667 -3.33301 19 -10 19c-14.667 0 -36.334 -25.333 -65.001 -76l-75.5 -136.5l-80.5 -150.5
c100.667 95.333 171.334 187.333 212.001 276z" />
    <glyph glyph-name="g" unicode="g" horiz-adv-x="426" 
d="M390 232c-3.33301 -3.33301 -5.99707 -4.99902 -7.99707 -4.99902c-4 0 -6 2 -6 6c0 1.33301 1 3.66602 3 6.99902c10.667 12.667 16 24 16 34c0 21.333 -23.333 32 -70 32c-60 0 -121.667 -29.667 -185 -89c-56 -54 -84 -98.667 -84 -134c0 -14 7 -21 21 -21
c8.66699 0 21 3.66699 37 11c38.667 16.667 71 41 97 73c10 13.333 19 34 27 62c5.33301 21.333 8.66602 40.666 9.99902 57.999c2.66699 12.667 15 19 37 19c20.667 0 30.334 -5.66699 29.001 -17c-1.33301 -17.333 -6 -45.833 -14 -85.5s-19.667 -90.5 -35 -152.5
c26 4 48 4.66699 66 2c50 -6 75 -22.667 75 -50c0 -16.667 -10 -34.334 -30 -53.001c-2.66699 -2.66699 -5.33398 -4 -8.00098 -4c-4 0 -6 1.66699 -6 5c0 2.66699 1.33301 5.33398 4 8.00098c14 12.667 21 24.667 21 36c0 22 -22 33 -66 33l-27 -2.5
c-10.667 -1 -23 -2.5 -37 -4.5c-39.333 -149.333 -104.333 -269.333 -195 -360c-50 -51.333 -107 -92.333 -171 -123c-69.333 -34.667 -137 -52 -203 -52c-50 0 -89.667 12.5 -119 37.5s-44 57.5 -44 97.5c0 46.667 23.333 94.334 70 143.001
c51.333 54 126.166 103 224.499 147s226.166 86 383.499 126l10.5 49.5l15.5 74.5l-24 -24c-16.667 -16.667 -31 -30.5 -43 -41.5s-21.667 -19.5 -29 -25.5c-31.333 -24.667 -59.333 -37 -84 -37c-29.333 0 -44 19.333 -44 58c0 56 41.333 116 124 180
c67.333 52.667 135.333 79 204 79c53.333 0 80 -15.333 80 -46c0 -14.667 -7.66699 -31.667 -23 -51zM197.003 -11.999c-72 -20 -127.001 -36 -165.001 -48c-40 -12.667 -77 -25.167 -111 -37.5s-65.333 -25.166 -94 -38.499c-40.667 -18.667 -76.667 -38.834 -108 -60.501
s-57.666 -45.167 -78.999 -70.5c-37.333 -44.667 -56 -87.667 -56 -129c0 -34 12.667 -60.5 38 -79.5s59 -28.5 101 -28.5c90 0 178 38 264 114c102 90.667 172 216.667 210 378z" />
    <glyph glyph-name="h" unicode="h" horiz-adv-x="451" 
d="M460 117c-71.333 -74 -129.334 -110.999 -174.001 -110.999c-18.667 0 -33 15.333 -43 46c-3.33301 12 -6.5 24 -9.5 36s-6.16699 24 -9.5 36c-7.33301 18 -17.666 27 -30.999 27c-12 0 -25.667 -6.33301 -41 -19c-19.333 -14.667 -41.666 -38.667 -66.999 -72l-17 -23
l-17 -23c-12 -8 -22 -12 -30 -12c-15.333 0 -23 12.333 -23 37c0 9.33301 1.66699 20 5 32c9.33301 29.333 22.166 64.833 38.499 106.5s36.833 89.834 61.5 144.501c58.667 134 108.667 231.333 150 292c33.333 49.333 69.333 74 108 74c28.667 0 43 -17 43 -51
c0 -14.667 -3 -31.334 -9 -50.001c-31.333 -96 -120.333 -207 -267 -333c-31.333 -56.667 -56 -120.334 -74 -191.001l19 19l29.5 29l43.5 42c41.333 36.667 75.333 55 102 55c15.333 0 25.666 -14 30.999 -42l4 -39l4 -39c4.66699 -28 15.334 -42 32.001 -42
c17.333 0 40.333 10.333 69 31c20 14.667 38.667 31 56 49c6 6.66699 11.333 10 16 10c4 0 6 -2 6 -6c0 -4.66699 -2 -9 -6 -13zM361.999 591.001c8 18.667 12.002 34.666 12.002 47.999c0 16.667 -5.66699 25 -17 25c-18 0 -38.667 -19.667 -62 -59
c-29.333 -51.333 -56.833 -103.333 -82.5 -156s-49.834 -107 -72.501 -163c21.333 21.333 42.5 43.833 63.5 67.5s41.5 48.834 61.5 75.501c23.333 31.333 43.166 60.333 59.499 87s28.833 51.667 37.5 75z" />
    <glyph glyph-name="i" unicode="i" horiz-adv-x="273" 
d="M260 450c0 -33.333 -14.668 -50 -44.001 -50c-10 0 -18.833 4 -26.5 12s-11.5 16.667 -11.5 26c0 12.667 5.66699 23.667 17 33c10.667 7.33301 20.334 11 29.001 11c24 0 36 -10.667 36 -32zM301.999 117c-75.333 -80 -140.001 -119.002 -194.001 -117.002
c-61.333 1.33301 -89 44 -83 128c3.33301 40 23 86.333 59 139c7.33301 11.333 21.666 17 42.999 17c16 0 24 -4.33301 24 -13c0 -1.33301 -0.666992 -4 -2 -8c-11.333 -20.667 -20.5 -36.667 -27.5 -48s-11.167 -18.333 -12.5 -21
c-7.33301 -14 -13.166 -26.667 -17.499 -38s-7.16602 -21.666 -8.49902 -30.999c-2 -12 -3 -23.333 -3 -34c0 -44 15.667 -66 47 -66c42.667 0 95.667 34 159 102c6.66699 6.66699 12 10 16 10c3.33301 -1.33301 5 -3.66602 5 -6.99902c0 -4 -1.66699 -8.33301 -5 -13z" />
    <glyph glyph-name="j" unicode="j" horiz-adv-x="248" 
d="M310 450c0 -33.333 -14.667 -50 -44 -50c-10 0 -18.833 4 -26.5 12s-11.5 16.667 -11.5 26c0 12.667 5.66699 23.667 17 33c9.33301 7.33301 19 11 29 11c24 0 36 -10.667 36 -32zM201 244c-17.333 -19.333 -38.3359 -51.001 -63.0029 -95.001
c-11.333 -21.333 -21.5 -41.833 -30.5 -61.5s-16.5 -38.834 -22.5 -57.501c28.667 4 53 4.66699 73 2c49.333 -6 74 -22.667 74 -50c0 -16.667 -10 -34.334 -30 -53.001c-2 -2.66699 -4.33301 -4 -7 -4c-4 0 -6 1.66699 -6 5c0 2.66699 1.33301 5.33398 4 8.00098
c13.333 13.333 20 25.333 20 36c0 22 -21.667 33 -65 33c-9.33301 -1.33301 -20.666 -3.16602 -33.999 -5.49902s-28.666 -4.83301 -45.999 -7.5c-59.333 -144.667 -136 -266 -230 -364c-106 -110 -213.667 -165 -323 -165c-25.333 0 -48 3.33301 -68 10s-37 16 -51 28
s-24.833 26.167 -32.5 42.5s-11.5 34.5 -11.5 54.5c0 46.667 23.333 94.334 70 143.001c50.667 53.333 125 102.333 223 147c54 24 112.167 46.5 174.5 67.5s129.833 40.167 202.5 57.5l26.5 78.5c7 20.333 12.5 35.833 16.5 46.5c20.667 54 39.334 89.333 56.001 106
c12.667 12.667 30 19 52 19c21.333 0 32 -4.66699 32 -14c0 -2 -1.33301 -4.33301 -4 -7zM13.9971 -13.001c-108 -29.333 -189.665 -53.665 -244.998 -72.998c-92.667 -34 -168.334 -71.667 -227.001 -113c-40 -28.667 -72.333 -63.334 -97 -104.001
c-22 -37.333 -33 -73 -33 -107c0 -62 33.333 -93 100 -93c39.333 0 87 13 143 39c84 39.333 157.333 102.333 220 189c23.333 33.333 46.666 71.666 69.999 114.999s46.333 92.333 69 147z" />
    <glyph glyph-name="k" unicode="k" horiz-adv-x="460" 
d="M362 591c8 18.667 12.002 34.666 12.002 47.999c0 16.667 -5.66699 25 -17 25c-18 0 -38.667 -19.667 -62 -59c-29.333 -51.333 -56.833 -103.333 -82.5 -156s-49.834 -107 -72.501 -163c21.333 21.333 42.5 43.833 63.5 67.5s41.5 48.834 61.5 75.501
c23.333 31.333 43.166 60.333 59.499 87s28.833 51.667 37.5 75zM115.002 166.999c-5.33301 14 -9.33301 27 -12 39c-31.333 -67.333 -49.333 -122.333 -54 -165c20.667 46.667 42.667 88.667 66 126zM147.002 271.999c0.666992 -7.33301 1.66699 -14.6699 3 -22.0029
s3 -15 5 -23l34.5 45c11.667 14.667 23.834 28.667 36.501 42c32 33.333 62.333 50 91 50c14.667 0 26.667 -4.66699 36 -14s14 -20.666 14 -33.999c0 -8 -2 -16.333 -6 -25s-9 -13 -15 -13c-6.66699 0 -10.667 5.66699 -12 17c-3.33301 19.333 -14.666 29 -33.999 29
c-27.333 0 -58.333 -20 -93 -60l-24.5 -29c-7.66699 -9.33301 -14.834 -18.666 -21.501 -27.999c13.333 -44.667 34 -83 62 -115c31.333 -35.333 65.333 -53 102 -53c19.333 0 38.666 5 57.999 15c28.667 14 59 38.333 91 73c6.66699 6.66699 12 10 16 10
c3.33301 -1.33301 5 -3.66602 5 -6.99902c0 -4 -1.66699 -8.33301 -5 -13c-27.333 -28 -61 -53.333 -101 -76c-45.333 -25.333 -83 -38 -113 -38s-59.333 15.333 -88 46c-26 27.333 -47.667 60.666 -65 99.999c-10.667 -17.333 -21.834 -39.166 -33.501 -65.499
s-24.167 -57.166 -37.5 -92.499c-9.33301 -5.33301 -17.666 -8 -24.999 -8c-20 0 -30 14.333 -30 43c0 8.66699 1.33301 16 4 22c10 32 23.5 69.833 40.5 113.5l60.5 149.5c60.667 144 111 245 151 303c33.333 49.333 69.333 74 108 74c28.667 0 43 -17 43 -51
c0 -14.667 -3 -31.334 -9 -50.001c-29.333 -90 -112 -195 -248 -315z" />
    <glyph glyph-name="l" unicode="l" horiz-adv-x="257" 
d="M343 688c30.667 0.666992 45.999 -16.334 45.999 -51.001c0 -15.333 -3.33301 -32 -10 -50c-31.333 -96 -120.333 -207 -267 -333c-31.333 -57.333 -47 -113.333 -47 -168c0 -68 36.667 -81 110 -39c14.667 8.66699 29.834 19.5 45.501 32.5s32.167 28.833 49.5 47.5
c6.66699 6.66699 12 10 16 10c4 -1.33301 6 -3.66602 6 -6.99902c0 -4.66699 -2 -9 -6 -13c-75.333 -80 -140 -119 -194 -117c-50 0.666992 -75 30.667 -75 90c0 28.667 7.66699 71 23 127c10.667 36.667 25.5 77.167 44.5 121.5s42.833 92.5 71.5 144.5
c72.667 134.667 135 203 187 205zM346.999 590.999c7.33301 20 11 35.999 11 47.999c0 16.667 -5.66699 25 -17 25c-18.667 0 -39 -19.667 -61 -59c-59.333 -102.667 -111.333 -209 -156 -319c21.333 21.333 42.5 43.833 63.5 67.5s41.5 48.834 61.5 75.501
c48 62.667 80.667 116.667 98 162z" />
    <glyph glyph-name="m" unicode="m" horiz-adv-x="546" 
d="M578 119c-73.333 -80 -135.333 -120.002 -186 -120.002c-54.667 0 -79.334 51 -74.001 153c-4.66699 -4.66699 -10.5 -11.167 -17.5 -19.5l-26.5 -32.5l-60 -90c-12.667 -14.667 -24 -20 -34 -16c-10.667 2.66699 -14.667 9.33398 -12 20.001l3 32
c1.33301 10.667 2.33301 20.667 3 30s1.33398 18 2.00098 26c2.66699 54.667 -3.66602 82 -18.999 82c-12.667 0 -32.334 -14 -59.001 -42c-18 -18 -38.333 -47 -61 -87c-20 -35.333 -32 -54 -36 -56s-8 -3 -12 -3c-9.33301 0 -14 6.33301 -14 19c0 4 0.333008 7 1 9
l19 42.5l29 67.5c28 64.667 42 104 42 118c2 4 12.667 10.667 32 20c21.333 10 32 7.33301 32 -8l-32 -98c5.33301 5.33301 11.833 11.5 19.5 18.5l25.5 22.5c10.667 6.66699 22 10 34 10c31.333 0 49 -19.333 53 -58c0 -0.666992 -0.333008 -9.5 -1 -26.5l-3 -76.5
c20.667 32 61.667 89 123 171c12 16 25.333 24 40 24c7.33301 0 11 -4 11 -12c0 -2 -0.166992 -4 -0.5 -6s-0.833008 -4.33301 -1.5 -7c-16.667 -56 -25 -100.333 -25 -133c0 -42.667 14.667 -64 44 -64c24 0 51 12 81 36c5.33301 4.66699 13.5 12.334 24.5 23.001l40.5 41
c4.66699 4.66699 8.66699 7 12 7c2.66699 0 4.66699 -2 6 -6s0.333008 -7.66699 -3 -11z" />
    <glyph glyph-name="n" unicode="n" horiz-adv-x="384" 
d="M15 8c-2.66699 -6.66699 -7.33008 -10.001 -13.9971 -10.001s-12.834 3.16699 -18.501 9.5s-7.83398 11.833 -6.50098 16.5l19 42.5l29 67.5c28 64.667 42 104 42 118c2 4 12.667 10.667 32 20c21.333 10 32 7.33301 32 -8c-14 -43.333 -43.333 -111 -88 -203l79.5 85.5
l90.5 97.5c14.667 16.667 26.334 25 35.001 25c4.66699 0 7 -3.33301 7 -10c0 -4 -1 -9.33301 -3 -16c-22.667 -76 -34 -129.333 -34 -160c0 -36 12.333 -54 37 -54c24 0 51 12 81 36c5.33301 4.66699 13.5 12.334 24.5 23.001l40.5 41c4.66699 4.66699 8.66699 7 12 7
c2.66699 0 4.66699 -2 6 -6s0.333008 -7.66699 -3 -11c-68 -74.667 -128 -112 -180 -112c-46.667 0 -70 36.333 -70 109c0 16 1 33.667 3 53l-31.5 -30l-44.5 -42c-8.66699 -8 -16.834 -16 -24.501 -24s-14.834 -16.333 -21.501 -25l-15.5 -20z" />
    <glyph glyph-name="o" unicode="o" horiz-adv-x="351" 
d="M61 111l-0.000976562 -1c-5.33301 -23.333 -8 -42 -8 -56c0 -36 13 -54 39 -54c30.667 -0 57.334 16.333 80.001 49c-49.333 7.33301 -86.333 28 -111 62zM154.999 289c-31.333 -34.667 -56.667 -75.666 -76 -122.999c12.667 -54.667 48.334 -86 107.001 -94
c23.333 45.333 35 87.333 35 126c0 24.667 -5.83301 45.667 -17.5 63s-27.834 26.666 -48.501 27.999zM173.998 308.001l-3.99902 -4c24 -8 44 -22 60 -42s24 -42 24 -66c0 -42.667 -11.333 -83.334 -34 -122.001l-2 -4c62 2 112.667 22.667 152 62
c3.33301 3.33301 6.66602 5 9.99902 5c4 0 6 -2.33301 6 -7c0 -6.66699 -3.33301 -12.334 -10 -17.001c-49.333 -43.333 -107 -65 -173 -65c-18 -22.667 -39.333 -41.167 -64 -55.5s-47.667 -21.5 -69 -21.5c-45.333 0 -67.333 26.667 -66 80
c0 36.667 9.66699 80.334 29 131.001c-0.666992 5.33301 -1.16699 11 -1.5 17s-0.5 12 -0.5 18c0 55.333 27 86 81 92c14.667 16.667 27.667 25 39 25c18.667 0 28 -5.33301 28 -16c0 -3.33301 -1.66699 -6.66602 -5 -9.99902z" />
    <glyph glyph-name="p" unicode="p" horiz-adv-x="396" 
d="M151 273l-74.002 -151.002c-3.33301 -7.33301 -6.66602 -14.166 -9.99902 -20.499l-10 -19.5c18.667 -38 45 -57 79 -57c12 0 23.5 2.66699 34.5 8s20.833 12.833 29.5 22.5s15.5 20.834 20.5 33.501s7.5 26.667 7.5 42c0 22 -5.33301 43.667 -16 65
c-15.333 32 -35.666 57.667 -60.999 77zM-99.002 -99.002l68.5 118.503l65.5 120.5l78 153c-10 3.33301 -20.333 5.66602 -31 6.99902c-28 2.66699 -50.667 0 -68 -8c-22 -10 -31 -27 -27 -51c0.666992 -8 -2.66602 -12 -9.99902 -12c-4.66699 0 -7 6.66699 -7 20
c0 25.333 11 44.666 33 57.999s50.333 18.666 85 15.999c6.66699 -0.666992 13 -1.66699 19 -3s12.333 -2.66602 19 -3.99902c52 83.333 106.333 125 163 125c24.667 0 37 -10.667 37 -32c0 -14.667 -3 -22 -9 -22c-4 0 -5.33301 2.66699 -4 8c2.66699 22.667 -5 34 -23 34
c-34 0 -75.333 -43 -124 -129c32.667 -16.667 58 -39.667 76 -69c19.333 -31.333 29 -63.333 29 -96c0 -49.333 -18 -87.333 -54 -114c37.333 8 75 23.333 113 46c34.667 20 63 41.333 85 64c3.33301 3.33301 6.33301 5 9 5c4 0 6 -2.33301 6 -7
c0 -6.66699 -3.33301 -12.334 -10 -17.001c-36 -32 -76.333 -58.667 -121 -80c-50 -23.333 -94 -35 -132 -35c-54.667 0 -93.667 23.667 -117 71l-49.5 -91l-56.5 -99c-40 -68.667 -82.667 -119.667 -128 -153c-53.333 -40 -115.333 -60 -186 -60
c-40.667 0 -72.334 11.333 -95.001 34c-21.333 20 -32 45 -32 75c0 29.333 10.667 55.333 32 78c2.66699 4 6 6 10 6c4.66699 0 7 -2.33301 7 -7c0 -3.33301 -2 -7 -6 -11c-14.667 -14.667 -22 -35 -22 -61c0 -25.333 7.66699 -46.666 23 -63.999c18.667 -20 44 -30 76 -30
c24 0 48.167 5 72.5 15s48.5 24.5 72.5 43.5s47.167 41.667 69.5 68s43.5 56.166 63.5 89.499z" />
    <glyph glyph-name="q" unicode="q" horiz-adv-x="421" 
d="M332 -150c10 -26 15.001 -53.668 15.001 -83.001c0 -70.667 -24.667 -134.667 -74 -192c-50 -59.333 -107.667 -89 -173 -89c-34.667 0 -62.334 16.333 -83.001 49c-18.667 28.667 -28 64.334 -28 107.001c0 20 2.33301 38 7 54c4 15.333 11 36 21 62l38 96l54 128
c-12.667 6 -19 13.333 -19 22c0 6.66699 4.33301 10 13 10c2 0 5 -0.666992 9 -2c3.33301 -0.666992 6.16602 -1.16699 8.49902 -1.5s4.16602 -0.5 5.49902 -0.5c4 6.66699 21 38.667 51 96c-6.66699 -6.66699 -17 -16.167 -31 -28.5l-54 -46.5
c-26.667 -21.333 -48.667 -32 -66 -32c-24.667 0 -37 15.667 -37 47c0 26.667 9.33301 54.334 28 83.001c43.333 66 92 111.667 146 137c23.333 10.667 45 16 65 16c14 0 26 -3 36 -9c2 4 3.33301 6.33301 4 7c4 5.33301 11.667 8 23 8c18.667 0 29.667 -6.66699 33 -20
c-13.333 -18 -39.333 -60 -78 -126c-37.333 -64 -62.333 -109.667 -75 -137c38.667 -1.33301 81.667 8 129 28c52.667 22.667 98 54 136 94c6 6 10.667 9 14 9s5 -2 5 -6c0 -5.33301 -2 -10 -6 -14c-13.333 -14 -28.666 -27.667 -45.999 -41s-36.666 -26.333 -57.999 -39
c-50 -30.667 -96.667 -48 -140 -52c62.667 -34.667 105 -79.334 127 -134.001zM253.001 251.999c-32.667 1.33301 -69.667 -11 -111 -37c-42 -25.333 -70.333 -53.333 -85 -84c-11.333 -21.333 -17 -40.333 -17 -57c0 -18 6.33301 -27 19 -27c12 0 27.667 8 47 24l40.5 37
l52.5 51c8.66699 10.667 26.667 41.667 54 93zM302.001 -176.001c-6 34.667 -25 67.334 -57 98.001c-30.667 29.333 -57 44 -79 44c-4 0 -24 -32.667 -60 -98c-37.333 -71.333 -61 -123 -71 -155c-10 -33.333 -15 -63.333 -15 -90c0 -62 26.333 -93 79 -93
c52 0 99.333 27.333 142 82c42.667 53.333 64 111.666 64 174.999c0 12.667 -1 25 -3 37z" />
    <glyph glyph-name="r" unicode="r" horiz-adv-x="468" 
d="M492 112c-73.333 -63.333 -135.999 -104.331 -187.999 -122.998c-27.333 -10 -50.333 -15 -69 -15c-47.333 0 -71.333 25.333 -72 76c-1.33301 37.333 14.334 84.666 47.001 141.999c-16.667 -2 -32.334 3.33301 -47.001 16c-14 13.333 -20.667 28.333 -20 45
c-27.333 -51.333 -69.333 -100.333 -126 -147c-4.66699 -4.66699 -10 -7 -16 -7c-4 0 -6 1.66699 -6 5s3 7.66602 9 12.999c48.667 42.667 90 96.667 124 162c-2.66699 7.33301 -4 12.666 -4 15.999c-2 8.66699 -3 18 -3 28c0 25.333 7.33301 45.666 22 60.999
c12.667 14 27 21 43 21c19.333 0 29.333 -9.33301 30 -28c2 -26 -15.667 -61.333 -53 -106c-0.666992 -20.667 10 -31 32 -31c8 0 18.167 1.83301 30.5 5.5s21.166 5.5 26.499 5.5c20 0 30 -10 30 -30c0 -7.33301 -2.66699 -15.666 -8 -24.999
c-3.33301 -5.33301 -7.5 -12.833 -12.5 -22.5s-10.5 -21.167 -16.5 -34.5c-13.333 -29.333 -21.666 -51.333 -24.999 -66c-2 -9.33301 -3 -17.666 -3 -24.999c0 -27.333 13 -41 39 -41c32.667 0 73.334 14.333 122.001 43c21.333 12 40.666 24.5 57.999 37.5
s32.666 26.167 45.999 39.5c6 6 11 9 15 9s6 -2 6 -6c0 -4.66699 -3.66699 -10.667 -11 -18z" />
    <glyph glyph-name="s" unicode="s" horiz-adv-x="361" 
d="M98 25c-26 8.66699 -48.333 22.333 -67 41c0 -14 4.83301 -25.5 14.5 -34.5s20.167 -13.5 31.5 -13.5c9.33301 0 16.333 2.33301 21 7zM232 39.999c56.667 14 105.333 44 146 90c2.66699 4 6.33398 6 11.001 6c4 0 6 -2.66699 6 -8s-2.33301 -10.333 -7 -15
c-56 -54 -109 -85.333 -159 -94c-34.667 -6 -67 -6.66699 -97 -2c-10 -18 -25.333 -27 -46 -27c-15.333 0 -29.333 4.83301 -42 14.5s-20.667 21.5 -24 35.5c-7.33301 26.667 -8.33301 42.667 -3 48c0.666992 8.66699 4.66699 13 12 13c2 0 3.66699 -0.666992 5 -2
c19.333 -23.333 44 -41 74 -53c0.666992 8 -0.666016 18.333 -3.99902 31c-2.66699 8.66699 -5.83398 16.667 -9.50098 24s-7.83398 14.333 -12.501 21c-25.333 34.667 -36.333 69.667 -33 105c6 70.667 53.333 122.334 142 155.001c29.333 10.667 57.333 14.334 84 11.001
c30 -4 45 -20.333 45 -49c0 -21.333 -7 -42 -21 -62c-6 -8 -11.333 -13 -16 -15c-4.66699 -0.666992 -7 1.33301 -7 6c0 2.66699 1.66699 7.33398 5 14.001c7.33301 13.333 11 24.666 11 33.999c0 16.667 -11 25 -33 25c-2.66699 0 -5.5 -0.166992 -8.5 -0.5
s-6.16699 -0.833008 -9.5 -1.5c-72.667 -13.333 -121.334 -55.333 -146.001 -126c-3.33301 -12 -5 -22.333 -5 -31c0 -18.667 8 -41.334 24 -68.001c16.667 -27.333 25.334 -49 26.001 -65v-9c0 -2.66699 -0.333008 -5.33398 -1 -8.00098c30 -6 61 -5 93 3z" />
    <glyph glyph-name="t" unicode="t" horiz-adv-x="273" 
d="M20 277l14.498 -0.00195312c5 0 10.167 0.333008 15.5 1c3.33301 0.666992 7.5 1 12.5 1h15.5l20 37l33 60c7.33301 13.333 16 27.666 26 42.999l34 51c13.333 13.333 31.333 20 54 20c19.333 0 29 -5 29 -15c0 -2 -1 -4.33301 -3 -7l-53 -76l-75 -114h156
c10 -3.33301 15 -7.66602 15 -12.999c0 -10 -12 -16.333 -36 -19c-4 -0.666992 -18.667 -1 -44 -1s-62 -0.333008 -110 -1c-32.667 -61.333 -49 -111.333 -49 -150c0 -43.333 18.667 -65 56 -65c18.667 0 38.667 6 60 18c14.667 8.66699 29.834 19.5 45.501 32.5
s32.167 28.833 49.5 47.5c6.66699 6.66699 12 9.66699 16 9c3.33301 0 5 -2.33301 5 -7c0 -4 -1.66699 -8.33301 -5 -13c-75.333 -79.333 -140 -118 -194 -116c-42.667 1.33301 -68.334 23.333 -77.001 66c-1.33301 6.66699 -2.33301 13.334 -3 20.001s-1 13.334 -1 20.001
c0 40.667 11.333 86.667 34 138c-14.667 -0.666992 -25.167 -1 -31.5 -1s-8.16602 -0.333008 -5.49902 -1c-15.333 2 -23.666 8.66699 -24.999 20c-2 10 5 15 21 15z" />
    <glyph glyph-name="u" unicode="u" horiz-adv-x="432" 
d="M306 254c-38.667 -76.667 -58.001 -136.333 -58.001 -179c0 -33.333 13.333 -50 40 -50c42 0 95 34.333 159 103c6 6 11 9 15 9c3.33301 0 5 -2.33301 5 -7c0 -5.33301 -2.33301 -10 -7 -14c-77.333 -82.667 -143.333 -121.334 -198 -116.001
c-14 0.666992 -27 8.33398 -39 23.001c-14 16 -21 36.333 -21 61c0 10.667 1.66699 23.334 5 38.001c-48.667 -58 -86.334 -93.333 -113.001 -106c-16 -7.33301 -30 -11 -42 -11c-30.667 0 -46 17.333 -46 52c0 37.333 18.667 89.666 56 156.999c6.66699 12 20.667 18 42 18
c12.667 0 17.334 -4.66699 14.001 -14c-5.33301 -10.667 -10.833 -21 -16.5 -31s-11.167 -20.333 -16.5 -31c-19.333 -38.667 -29 -68 -29 -88c0 -24.667 6 -37 18 -37c28 0 61.333 26.333 100 79c34.667 46.667 61.334 94.667 80.001 144c7.33301 9.33301 20.333 14 39 14
c10 0 15 -2.66699 15 -8c0 -1.33301 -0.666992 -3.33301 -2 -6z" />
    <glyph glyph-name="v" unicode="v" horiz-adv-x="432" 
d="M460 117c-26.667 -30.667 -58.335 -45.998 -95.002 -45.998c-25.333 0 -48.166 7.5 -68.499 22.5s-34.166 34.167 -41.499 57.5c-22 -48.667 -49.333 -88.334 -82 -119.001c-33.333 -30 -61.666 -42.667 -84.999 -38c-30.667 6 -46 30.333 -46 73
c0 26.667 6.66699 54 20 82l-9 -10c-6.66699 -6.66699 -19.334 -18.334 -38.001 -35.001c-4 -4 -7.66699 -6 -11 -6c-4.66699 0 -7 2.33301 -7 7c1.33301 5.33301 5 10.666 11 15.999c40.667 37.333 77 77 109 119c6.66699 10 16 15 28 15c13.333 0 20 -5.66699 20 -17
c0 -4 -9.66699 -22.333 -29 -55l-26 -43.5c-6 -10.333 -9.66699 -16.833 -11 -19.5c-11.333 -24 -17 -46.333 -17 -67c0 -17.333 4.33301 -27 13 -29c2 -0.666992 5.33301 -1 10 -1c22 0 46.333 14.333 73 43c13.333 14.667 25.666 30.834 36.999 48.501
s21.666 36.834 30.999 57.501c-3.33301 48 2.33398 86 17.001 114c12 23.333 26.333 35 43 35c17.333 0 26 -11.333 26 -34c0 -3.33301 -0.166992 -6.5 -0.5 -9.5s-0.833008 -6.16699 -1.5 -9.5c-8 -33.333 -27.333 -62.333 -58 -87c1.33301 -24 10.666 -45.667 27.999 -65
c18.667 -20 40.667 -30 66 -30c29.333 0 57.333 14.333 84 43c6.66699 8 11.334 9.66699 14.001 5s1.33398 -10.334 -3.99902 -17.001z" />
    <glyph glyph-name="w" unicode="w" horiz-adv-x="492" 
d="M409 230c-3.33301 -34.667 -14.3311 -61.332 -32.998 -79.999c4 -16.667 12.167 -30.667 24.5 -42s26.5 -17 42.5 -17c23.333 0 45.333 12.333 66 37c7.33301 8.66699 12.666 10.334 15.999 5.00098c3.33301 -6.66699 1.66602 -12.334 -5.00098 -17.001
c-26.667 -26.667 -55 -40 -85 -40c-31.333 0 -56 14 -74 42c-14.667 -38 -33 -68 -55 -90s-42.667 -33 -62 -33c-29.333 0 -44 22 -44 66c0 4.66699 0.166992 9.16699 0.5 13.5s0.833008 8.83301 1.5 13.5c-3.33301 -3.33301 -16.666 -22 -39.999 -56
c-17.333 -24.667 -37.666 -45.167 -60.999 -61.5s-44.333 -24.5 -63 -24.5c-31.333 0 -47 22 -47 66c0 15.333 2.66699 35.333 8 60c6.66699 30 21 62.667 43 98c17.333 28 35.666 50.667 54.999 68c13.333 12.667 27 19 41 19c12.667 0 19 -4.66699 19 -14
c0 -3.33301 -1.33301 -6.33301 -4 -9c-30.667 -30.667 -62 -79.334 -94 -146.001c-19.333 -42 -29 -72.333 -29 -91c0 -17.333 7 -26 21 -26c27.333 0 59.666 23.667 96.999 71c18.667 24 35.167 49.667 49.5 77l41.5 81c2.66699 6 11.667 9 27 9
c16.667 0 25 -6.33301 25 -19c-8.66699 -15.333 -16 -30 -22 -44s-11.333 -27.333 -16 -40c-7.33301 -22 -11 -39.333 -11 -52c0 -18.667 6.33301 -28 19 -28s28 10.333 46 31c18.667 20.667 33.667 46.667 45 78c-11.333 23.333 -15.333 50 -12 80
c3.33301 43.333 16.666 65 39.999 65c9.33301 0 16.833 -4.5 22.5 -13.5s7.83398 -21.167 6.50098 -36.5z" />
    <glyph glyph-name="x" unicode="x" horiz-adv-x="374" 
d="M120 138c0.666992 -6.66699 1.66699 -15.5 3 -26.5l5 -39.5c4.66699 -34 20 -51 46 -51c38 0 90 35.333 156 106c6 6 10.667 9 14 9s5 -2.33301 5 -7c0 -5.33301 -2 -10 -6 -14c-11.333 -12.667 -24.166 -24.834 -38.499 -36.501s-29.833 -23.167 -46.5 -34.5
c-44.667 -30.667 -81.667 -46 -111 -46c-30.667 0 -50.667 17.667 -60 53c-1.33301 7.33301 -2.66602 15.666 -3.99902 24.999s-2.33301 19.666 -3 30.999c-18 -14 -46.667 -42 -86 -84l-42 -45l-42 -44c-2.66699 -2.66699 -5 -4 -7 -4c-3.33301 0 -5 1.66699 -5 5
c0 10 53 69.667 159 179l21 22c0.666992 5.33301 0.833984 11.833 0.500977 19.5s-1.16602 16.834 -2.49902 27.501c-2.66699 20.667 -5.66699 29.334 -9 26.001c-8.66699 -6.66699 -15.334 -10 -20.001 -10c-2 0 -3 0.666992 -3 2c0 4.66699 8.66699 13.667 26 27
s28.666 20 33.999 20c4 0 7.33301 -2.33301 10 -7s4.66699 -10.834 6 -18.501s2.16602 -16.167 2.49902 -25.5s0.166016 -18.333 -0.500977 -27l32.5 25l46.5 35c56.667 41.333 87.334 62 92.001 62c9.33301 0 8 -7.33301 -4 -22c-8.66699 -6 -20 -14.333 -34 -25l-52 -39
c-20.667 -15.333 -37.834 -28.666 -51.501 -39.999s-24.167 -20.666 -31.5 -27.999z" />
    <glyph glyph-name="y" unicode="y" horiz-adv-x="430" 
d="M177 -12c-72 -20 -127.002 -36 -165.002 -48c-40 -12.667 -77 -25.167 -111 -37.5s-65.333 -25.166 -94 -38.499c-40.667 -18.667 -76.667 -38.834 -108 -60.501s-57.666 -45.167 -78.999 -70.5c-37.333 -44.667 -56 -87.667 -56 -129c0 -36 12.333 -63.833 37 -83.5
s57.334 -29.5 98.001 -29.5c85.333 0 171.333 38.667 258 116c102 92.667 175.333 219.667 220 381zM233.998 269c4 10.667 13.333 15.999 28 15.999s22 -5.33301 22 -16c1.33301 -46 -11.667 -125.667 -39 -239c26 4 48 4.66699 66 2c50 -6 75 -22.667 75 -50
c0 -16.667 -10 -34.334 -30 -53.001c-2.66699 -2.66699 -5.33398 -4 -8.00098 -4c-4 0 -6 1.66699 -6 5c0 2.66699 1.33301 5.33398 4 8.00098c14 12.667 21 24.667 21 36c0 22 -22 33 -66 33l-27 -2.5c-10.667 -1 -23 -2.5 -37 -4.5
c-39.333 -149.333 -104.333 -269.333 -195 -360c-50 -51.333 -107 -92.333 -171 -123c-69.333 -34.667 -137 -52 -203 -52c-50 0 -89.667 12.5 -119 37.5s-44 57.5 -44 97.5c0 46.667 23.333 94.334 70 143.001c51.333 54 126.166 103 224.499 147s226.166 86 383.499 126
c5.33301 22 11.5 49.333 18.5 82l24.5 115c-47.333 -90 -97.333 -154 -150 -192c-16 -12 -30.333 -18 -43 -18c-21.333 0 -32 13.667 -32 41c0 38 24.333 101.333 73 190c3.33301 6 9.83301 11.833 19.5 17.5s17.834 8.5 24.501 8.5c5.33301 0 8 -2 8 -6
c0 -0.666992 -0.666992 -3 -2 -7c-7.33301 -12.667 -16.166 -29.5 -26.499 -50.5l-36.5 -76.5c-9.33301 -24.667 -14 -44.667 -14 -60c0 -14 4.33301 -21 13 -21c10 0 26.333 11.333 49 34c28.667 28.667 70.334 94 125.001 196z" />
    <glyph glyph-name="z" unicode="z" horiz-adv-x="476" 
d="M455 -71c-2.66699 -2.66699 -5.33594 -3.99707 -8.00293 -3.99707c-3.33301 0 -5 1.66699 -5 5c0 2.66699 1.33301 5.33398 4 8.00098c13.333 13.333 20 25.333 20 36c0 22 -21.667 33 -65 33l-28.5 -2.5s-23.167 -2.5 -36.5 -4.5
c-10.667 -132 -59.667 -245.667 -147 -341c-91.333 -100 -201.333 -150 -330 -150c-54.667 0 -98.667 11.667 -132 35c-36 24 -54 57.333 -54 100c0 43.333 18 85.666 54 126.999c42 46.667 104.667 88.667 188 126c102 44.667 223.333 84 364 118c0 22 -4 41 -12 57
c-10.667 20.667 -27.334 31 -50.001 31c-7.33301 0 -14.333 -1 -21 -3c-7.33301 -3.33301 -16.166 -7 -26.499 -11s-22.166 -8.33301 -35.499 -13c-8.66699 -2 -16 -1 -22 3s-9 9.33301 -9 16c0 24 30.667 41 92 51c14.667 7.33301 27.667 14.666 39 21.999
s20.666 14.666 27.999 21.999c22.667 20.667 34 41.667 34 63c0 26.667 -15.333 40 -46 40c-29.333 0 -61.333 -15.667 -96 -47c-13.333 -13.333 -26.333 -27 -39 -41l-38 -41c-41.333 -43.333 -66.666 -65 -75.999 -65c-4 0 -6 1.33301 -6 4c0 4 4.33301 10 13 18l51.5 59
l76.5 85c42.667 44.667 85.334 67 128.001 67c22 0 39.833 -6.16699 53.5 -18.5s20.5 -27.833 20.5 -46.5c0 -30 -16 -58.333 -48 -85c-5.33301 -4.66699 -12.333 -10.334 -21 -17.001l-30 -24c16.667 0.666992 34.667 -6.33301 54 -21
c28.667 -21.333 43.334 -52.333 44.001 -93c18 2.66699 33.167 4.33398 45.5 5.00098s21.833 0.666992 28.5 0c49.333 -6 74 -22.667 74 -50c0 -16.667 -10 -34.334 -30 -53.001zM278.998 -10.9971l-124.499 -32.999c-32.333 -8.66699 -55.833 -15.334 -70.5 -20.001
c-23.333 -7.33301 -47.833 -16.5 -73.5 -27.5l-83.5 -37.5c-132.667 -62.667 -199 -135 -199 -217c0 -36.667 15 -65.667 45 -87s68.333 -32 115 -32c114 0 208 48 282 144c67.333 86.667 103.666 190 108.999 310z" />
    <glyph glyph-name="braceleft" unicode="{" horiz-adv-x="369" 
d="M421 726c7.33301 0 11.002 -2.00098 11.002 -6.00098c0 -3.33301 -2 -7 -6 -11s-7.33301 -6 -10 -6c-48.667 0 -83.334 -9.33301 -104.001 -28c-22 -20 -40.333 -68.333 -55 -145c-17.333 -82 -36.333 -136 -57 -162c-26.667 -32 -71 -53.333 -133 -64
c53.333 -10 87.666 -28 102.999 -54c6 -11.333 9 -27.666 9 -48.999c0 -26.667 -4.33301 -60.334 -13 -101.001c-3.33301 -13.333 -6.5 -27 -9.5 -41s-6.16699 -27.667 -9.5 -41c-4 -21.333 -6 -39.333 -6 -54c0 -30 10 -50.333 30 -61c14.667 -8 39 -12 73 -12
c4.66699 0.666992 7 -2 7 -8c0 -9.33301 -3.33301 -14 -10 -14h-5c-65.333 0 -109 11.667 -131 35c-11.333 13.333 -17 35 -17 65c0 26 4.66699 61.333 14 106l10 40l10 40c4 20 6 37.333 6 52c0 36.667 -16 61.667 -48 75c-15.333 6 -37 9 -65 9c-4 0 -6 1.66699 -6 5
c0 4.66699 4 12 12 22c53.333 4.66699 90.666 15.334 111.999 32.001c23.333 19.333 40 54 50 104c17.333 84.667 26 126.667 26 126c14.667 54 35.334 91 62.001 111c31.333 23.333 80 35 146 35h4z" />
    <glyph glyph-name="bar" unicode="|" horiz-adv-x="485" 
d="M264 -231h-43v980h43v-980z" />
    <glyph glyph-name="braceright" unicode="}" horiz-adv-x="485" 
d="M477 304c4 0 5.99902 -1.66602 5.99902 -4.99902c0 -4.66699 -5 -12 -15 -22c-48 0 -87.667 -11.667 -119 -35c-22 -16.667 -41.333 -50 -58 -100l-20 -66l-20 -66c-18.667 -50.667 -43 -86.334 -73 -107.001c-32.667 -22.667 -81.667 -34 -147 -34h-5
c-4 0 -6 2.33301 -6 7c0 10 4.66699 15 14 15c48.667 0 84.334 9.33301 107.001 28c23.333 18 47.333 68.333 72 151c25.333 84 52 138.667 80 164c28 26 71.333 44.667 130 56c-68 12 -102 42.667 -102 92c0 26.667 14.667 90 44 190c8.66699 26 13 48.667 13 68
c0 24 -10.667 40.667 -32 50c-13.333 6 -35.333 9 -66 9c-4.66699 0 -7 1.33301 -7 4c0 4.66699 4.33301 11 13 19h5c68 0 111 -11.667 129 -35c9.33301 -11.333 14 -27.333 14 -48c0 -24.667 -10.667 -70 -32 -136c-20.667 -62.667 -31 -105.667 -31 -129
c0 -16 3.33301 -28.333 10 -37c12.667 -17.333 44.667 -28.333 96 -33z" />
    <glyph glyph-name="asciitilde" unicode="~" horiz-adv-x="485" 
d="M453 494c-28 -56.667 -61.002 -83.335 -99.002 -80.002c-12.667 0.666992 -33 7.33398 -61 20.001c-26 11.333 -46 17.666 -60 18.999c-21.333 2 -38.666 -9 -51.999 -33c-0.666992 -2.66699 -5 -3.66699 -13 -3c-7.33301 0.666992 -10.666 2.33398 -9.99902 5.00098
c30 53.333 62.667 78.333 98 75c14.667 -0.666992 35 -6.66699 61 -18c26.667 -11.333 46.667 -17.333 60 -18c24.667 -2 43 9.66699 55 35c0.666992 2.66699 4.66699 3.33398 12 2.00098c6.66699 -0.666992 9.66699 -2 9 -4z" />
    <glyph glyph-name="nonbreakingspace" unicode="&#xa0;" horiz-adv-x="276" 
 />
    <glyph glyph-name="exclamdown" unicode="&#xa1;" horiz-adv-x="416" 
d="M356 264c0 -12.667 -4.66699 -23.5 -14 -32.5s-20.666 -13.5 -33.999 -13.5s-24.666 4.5 -33.999 13.5s-14 19.833 -14 32.5s4.66699 23.5 14 32.5s20.666 13.5 33.999 13.5s24.666 -4.5 33.999 -13.5s14 -19.833 14 -32.5zM252 90
c-10.667 -26.667 -27.667 -64.668 -51 -114.001s-54 -110.666 -92 -183.999l-99.5 -192.5c-29 -54.333 -54.167 -99.5 -75.5 -135.5c-2 -3.33301 -5.33301 -5 -10 -5c-8.66699 0 -20 5 -34 15c-8 6 -14.833 12.667 -20.5 20s-7.5 12 -5.5 14l198 294
c34 54 63 105.333 87 154s43.667 95.334 59 140.001c6 17.333 16 26 30 26c11.333 0 17 -6 17 -18c0 -4.66699 -1 -9.33398 -3 -14.001z" />
    <glyph glyph-name="cent" unicode="&#xa2;" horiz-adv-x="316" 
d="M334 825c-2.66699 -4.66699 -5.99707 -12.1641 -9.99707 -22.4971l-16 -41.5c-9.33301 -26.667 -17.5 -49 -24.5 -67l-16.5 -42c36 -10.667 53.333 -35.667 52 -75c0 -17.333 -5.16699 -32 -15.5 -44s-23.166 -18 -38.499 -18c-14 0 -25.5 4.66699 -34.5 14
s-13.167 20.666 -12.5 33.999c1.33301 31.333 17 46.333 47 45c17.333 0 28.666 -6 33.999 -18c1.33301 10.667 -0.333984 20 -5.00098 28s-10.334 12.667 -17.001 14c-8 2 -17.333 1.16699 -28 -2.5s-21.834 -9.33398 -33.501 -17.001s-23.167 -17 -34.5 -28
s-22 -23.167 -32 -36.5c-40.667 -55.333 -60 -110 -58 -164c2 -44 20.333 -66 55 -66c52 0 107 58.667 165 176c4 7.33301 8 11 12 11c2.66699 0 4 -2 4 -6c0 -1.33301 -0.666992 -5.33301 -2 -12c-25.333 -58.667 -49.333 -101.334 -72 -128.001
c-32 -36.667 -69.333 -56 -112 -58l-45 -105c-25.333 -64.667 -38 -111.334 -38 -140.001c0 -20.667 6.66699 -32.667 20 -36c7.33301 -2 11 -5 11 -9c0 -7.33301 -5.33301 -9.66602 -16 -6.99902c-24 6.66699 -36 26.334 -36 59.001c0 30.667 12 75 36 133l23 52.5l23 52.5
c-56.667 4.66699 -85 37.667 -85 99c0 56 19.333 111.333 58 166c43.333 61.333 91.333 91.666 144 90.999h6l18 46l18 46c7.33301 17.333 14.5 33.5 21.5 48.5s14.167 28.167 21.5 39.5c12 18.667 18 20.667 18 6c0 -6.66699 -1.66699 -12.667 -5 -18z" />
    <glyph glyph-name="sterling" unicode="&#xa3;" horiz-adv-x="573" 
d="M818 531c0 -27.333 -14.3291 -59.3359 -42.9961 -96.0029c-22.667 -29.333 -48.334 -54.333 -77.001 -75c-5.33301 -3.33301 -9.33301 -5 -12 -5c-3.33301 0 -5 1.33301 -5 4c0 2 2 4.66699 6 8c78 64.667 117 119.667 117 165c0 22 -12.667 33 -38 33
c-32.667 0 -67.334 -15 -104.001 -45c-29.333 -24.667 -55.333 -53 -78 -85c-7.33301 -11.333 -14.833 -24.166 -22.5 -38.499s-15.834 -30.5 -24.501 -48.5l-21 -44l-20 -45c16.667 -2 32.334 -3 47.001 -3c9.33301 0 19 1 29 3c6 2.66699 12 4.33398 18 5.00098
c3.33301 0 5 -4.33301 5 -13c0 -4.66699 -1 -7.33398 -3 -8.00098c-14 -5.33301 -30.333 -8 -49 -8c-8.66699 0 -17.667 0.333008 -27 1s-19.666 1.66699 -30.999 3c-54.667 -104.667 -123.334 -180.667 -206.001 -228c10.667 -7.33301 24 -15.166 40 -23.499
s34.667 -17.166 56 -26.499c42.667 -18.667 77 -30.667 103 -36c14.667 -4 31 -6 49 -6c30 0 56.667 6 80 18c28 14.667 42 36.667 42 66c0 3.33301 1.33301 5 4 5s4 -2.33301 4 -7v-2c-6 -59.333 -51.333 -89 -136 -89c-29.333 0 -61 4 -95 12
c-11.333 2.66699 -25.5 6.66699 -42.5 12s-37.167 12 -60.5 20c-48 16.667 -80.333 29.667 -97 39c-30 -13.333 -57.667 -20 -83 -20s-50.333 5.66699 -75 17c-29.333 14 -44 32.333 -44 55c0 19.333 8.33301 34.333 25 45c15.333 9.33301 32.666 14 51.999 14
c26 0 53.667 -8 83 -24c16 -9.33301 40 -26.333 72 -51c27.333 23.333 55.666 57.666 84.999 102.999l22 37l46 80c-6 0.666992 -11.833 1.16699 -17.5 1.5s-11.167 0.5 -16.5 0.5c-27.333 0 -51.333 -3.66699 -72 -11c-4.66699 -2 -7.83398 -3 -9.50098 -3
s-2.5 4.33301 -2.5 13c0 4 1 6.66699 3 8c20 9.33301 47 14 81 14c12.667 0 27.667 -1 45 -3c120.667 212 229.334 318 326.001 318c20 0 36.333 -4.33301 49 -13c15.333 -11.333 23 -25.666 23 -42.999zM211.004 1.99707l-36.001 24l-36 23c-34.667 20.667 -60 31 -76 31
c-20.667 0 -31 -9.33301 -31 -28c0 -18 10 -34 30 -48c16.667 -12 35.334 -19 56.001 -21c3.33301 -0.666992 6.33301 -1 9 -1h9c26.667 0 51.667 6.66699 75 20z" />
    <glyph glyph-name="yen" unicode="&#xa5;" horiz-adv-x="722" 
d="M728 548c0 -12.667 -2.66504 -19 -7.99805 -19c-4.66699 0 -7 2.33301 -7 7c0 1.33301 0.333008 3.33301 1 6s1 4.66699 1 6c0 14 -5.33301 26.5 -16 37.5s-23 16.5 -37 16.5c-49.333 0 -125.333 -91 -228 -273h104c1.33301 0 2 -1 2 -3
c0 -3.33301 -2.16699 -7.33301 -6.5 -12s-8.16602 -7 -11.499 -7h-100c-11.333 -22 -29 -53.333 -53 -94h101c2 0 3 -1 3 -3c0 -2.66699 -2.16699 -6.5 -6.5 -11.5s-8.16602 -7.5 -11.499 -7.5h-100c-22.667 -34 -43.834 -63.5 -63.501 -88.5s-38.167 -46.167 -55.5 -63.5
c-56.667 -55.333 -112.334 -83 -167.001 -83c-12.667 0 -19 2.33301 -19 7c0 4 4.66699 6 14 6c41.333 0 87.333 28.333 138 85c26 28 60 73.667 102 137h-227c-2 0 -3 1 -3 3c0 2.66699 2.16699 6.5 6.5 11.5s8.16602 7.5 11.499 7.5h227l5 8
c-0.666992 14.667 -1.5 29 -2.5 43s-2.5 28.333 -4.5 43h-1h-140c-2 0 -3 0.666992 -3 2c0 3.33301 2.33301 7.5 7 12.5s8.33398 7.5 11.001 7.5h123c-4.66699 25.333 -10.5 49.166 -17.5 71.499s-15.833 43.833 -26.5 64.5c-29.333 57.333 -63.333 86 -102 86
c-24 0 -44.333 -13 -61 -39c-15.333 -23.333 -23 -47.333 -23 -72c0 -16.667 4.33301 -34 13 -52s13 -26.333 13 -25c0 -4.66699 -2.33301 -7 -7 -7c-2.66699 0 -4.33398 1 -5.00098 3c-17.333 23.333 -26 50.333 -26 81c0 30 8.33301 57.333 25 82
c18.667 28 42.334 42 71.001 42c40 0 76.333 -19.333 109 -58c25.333 -30.667 45.666 -68 60.999 -112c11.333 -36 18.666 -75 21.999 -117c3.33301 4.66699 6.66602 9.66699 9.99902 15l10 16c0 2.66699 3.33301 8.33398 10 17.001c5.33301 8 11.333 17.667 18 29l24 39
c94.667 148 171.334 222 230.001 222c18 0 33.5 -6.66699 46.5 -20s19.5 -29 19.5 -47z" />
    <glyph glyph-name="brokenbar" unicode="&#xa6;" horiz-adv-x="485" 
d="M428 749l-94 -427l-48 5l90 422h52zM311 216l-91 -447h-52l96 451z" />
    <glyph glyph-name="section" unicode="&#xa7;" horiz-adv-x="660" 
d="M656 264c0 -62.667 -16.6689 -118.667 -50.002 -168c-38 -54.667 -87 -82 -147 -82c-6 0 -12.167 0.333008 -18.5 1s-12.833 1.66699 -19.5 3c-63.333 -50.667 -131.666 -76 -204.999 -76c-4 0 -8 0.166992 -12 0.5s-8.33301 0.833008 -13 1.5
c14 -22.667 34.667 -38.667 62 -48c6 -2 10 -3 12 -3c2.66699 0 6.5 1 11.5 3s8.83301 3 11.5 3c4 0 6 -2 6 -6c0 -7.33301 -7.66699 -11 -23 -11c-2.66699 0.666992 -5.16699 1.33398 -7.5 2.00098s-5.16602 1.66699 -8.49902 3c-36.667 12.667 -62.334 32 -77.001 58
c-54.667 8 -98.667 27.667 -132 59c-34.667 34 -52 78.333 -52 133c0 52.667 15.333 102.334 46 149.001s70.667 80 120 100c34 13.333 68.333 20 103 20c52.667 0 94.334 -13.333 125.001 -40c18.667 20 35.334 39.167 50.001 57.5s27.334 36.166 38.001 53.499v13
c-0.666992 48.667 5 85.667 17 111c-6 24.667 -9 43.667 -9 57c0 32.667 12 49 36 49c22 0 33 -15.333 33 -46c0 -22.667 -9.66699 -58 -29 -106c3.33301 -6 10.666 -17.833 21.999 -35.5l48 -71.5c13.333 -20.667 24.666 -40.834 33.999 -60.501s16.333 -39.167 21 -58.5
s7 -41 7 -65zM542.998 664c0 19.333 -6.33301 29 -19 29c-20 0 -30 -12.667 -30 -38c0 -26.667 8.33301 -57 25 -91c16 40.667 24 74 24 100zM510.998 546l-7.50098 19.5c-2.33301 6.33301 -4.16602 12.833 -5.49902 19.5c-4 -9.33301 -6 -20 -6 -32
c0 -5.33301 0.333008 -11.5 1 -18.5s1.66699 -14.167 3 -21.5c6 10.667 11 21.667 15 33zM590.997 269c0 51.333 -7 97.6699 -21 139.003c-1.33301 2.66699 -6.33301 14.5 -15 35.5l-39 91.5c-2.66699 -6.66699 -5.33398 -13 -8.00098 -19s-5.66699 -12.333 -9 -19
c5.33301 -20.667 10.333 -41.334 15 -62.001s9.66699 -41.334 15 -62.001c10.667 -47.333 16 -89.333 16 -126c0 -83.333 -37.333 -156.333 -112 -219c40.667 0.666992 77.334 26 110.001 76c28 42.667 43.667 86.667 47 132c0.666992 5.33301 1 10.666 1 15.999v17z
M481.997 302.004c0 10 -0.167969 21.499 -0.500977 34.499s-0.833008 27.5 -1.5 43.5c-1.33301 21.333 -2.16602 38.5 -2.49902 51.5s-0.833008 22.167 -1.5 27.5c-22.667 -34 -50 -67 -82 -99c22.667 -22.667 34 -52 34 -88c0 -32.667 -9.16699 -62.5 -27.5 -89.5
s-42.5 -46.5 -72.5 -58.5c7.33301 -34 27.333 -60.333 60 -79c62.667 64.667 94 150.334 94 257.001zM406.996 269.003c0 26.667 -9.66602 51.333 -28.999 74c-82 -70 -139.667 -139 -173 -207c14.667 -12 33 -18 55 -18c18.667 0 37.667 5 57 15
c-1.33301 6.66699 -2 12.667 -2 18c0 24 7.33301 43.667 22 59c0.666992 0.666992 1.66699 1 3 1c2.66699 0 4 -1.33301 4 -4c-1.33301 -2.66699 -3 -5.33398 -5 -8.00098s-3.66699 -5.33398 -5 -8.00098c-6 -9.33301 -9 -22.666 -9 -39.999c0 -6 0.333008 -10.333 1 -13
c10.667 6.66699 21 15 31 25s18.667 20.833 26 32.5s13.166 23.834 17.499 36.501s6.5 25 6.5 37zM411.997 20.002h-4h4zM369.997 351.002c-29.333 27.333 -66.332 40.998 -110.999 40.998c-62.667 0 -119.667 -27.667 -171 -83c-50 -55.333 -75 -114.666 -75 -177.999
c0 -45.333 15.333 -84.333 46 -117c31.333 -33.333 68.666 -51.333 111.999 -54c-5.33301 16 -8 32.333 -8 49c0 36 9.66699 78.333 29 127c-16 14.667 -24 33.334 -24 56.001c0 4 0.666992 8.83301 2 14.5s3 11 5 16s4.33301 9.33301 7 13s5.66699 5.5 9 5.5
c0.666992 0 1.66699 -0.666992 3 -2l-3 -4.5c-2 -3 -4 -6.83301 -6 -11.5s-4 -9.83398 -6 -15.501s-3 -11.5 -3 -17.5c0 -17.333 6.66699 -32.666 20 -45.999c30 66.667 88 135.667 174 207zM381.998 39c-35.333 20.667 -56.333 47.667 -63 81c-18 -6 -36 -9 -54 -9
c-25.333 0 -46.333 5.66699 -63 17c-19.333 -44 -29 -82.333 -29 -115c0 -21.333 3.33301 -39 10 -53c78 0 144.333 26.333 199 79z" />
    <glyph glyph-name="dieresis" unicode="&#xa8;" horiz-adv-x="278" 
d="M233 464c0 -22 -10.667 -33 -32 -33c-22.667 0 -34 11 -34 33s10.667 33 32 33c22.667 0 34 -11 34 -33zM104 464c0 -22 -10.667 -33 -32 -33c-22.667 0 -34 11 -34 33s10.667 33 32 33c22.667 0 34 -11 34 -33z" />
    <glyph glyph-name="copyright" unicode="&#xa9;" horiz-adv-x="553" 
d="M562 304c0 -83.333 -31.668 -156.667 -95.001 -220c-62.667 -62.667 -136 -94 -220 -94c-73.333 0 -134.333 24 -183 72c-48.667 48.667 -73 109 -73 181c0 84.667 31.667 158 95 220c62.667 62.667 136.334 94 221.001 94c72 0 132.333 -24.333 181 -73
c49.333 -48 74 -108 74 -180zM544.999 302.999c0 68 -23 124.668 -69 170.001c-46 46 -103 69 -171 69c-79.333 0 -148.666 -29.667 -207.999 -89s-89 -128.333 -89 -207c0 -68.667 23 -126 69 -172c46.667 -45.333 103.667 -68 171 -68c79.333 0 148.666 29.667 207.999 89
s89 128.666 89 207.999zM472.999 390c0 -23.333 -19.334 -41.3301 -58.001 -53.9971c-28 -9.33301 -56.333 -14 -85 -14c-54 0 -100 11 -138 33c-44.667 -48.667 -67 -102.334 -67 -161.001c0 -32.667 7.33301 -59.334 22 -80.001c17.333 -25.333 41 -38 71 -38
c58 0 105.667 28 143 84c12.667 18.667 19 36 19 52c0 14 -4.66699 25.333 -14 34s-20.666 13 -33.999 13c-30.667 0 -51.334 -14 -62.001 -42c-1.33301 -3.33301 -2.66602 -5 -3.99902 -5c-2 0 -3 1 -3 3l1 4c10 30.667 33.667 46 71 46c16.667 0 30.5 -5.16699 41.5 -15.5
s16.5 -23.833 16.5 -40.5c0 -38 -20.333 -71.333 -61 -100c-37.333 -26 -75.333 -39 -114 -39c-40.667 0 -72.5 11.667 -95.5 35s-34.5 55 -34.5 95c0 63.333 26.667 120.666 80 171.999c-20.667 16.667 -31 35.667 -31 57c0 36.667 22 55 66 55
c30 0 51.667 -6.66699 65 -20c0.666992 -0.666992 1 -2 1 -4c0 -1.33301 -0.333008 -2 -1 -2c-23.333 12 -42.333 18 -57 18c-42 0 -63 -17 -63 -51c0 -17.333 8.33301 -33.333 25 -48c51.333 47.333 115.333 71 192 71c25.333 0 48 -3.66699 68 -11
c26.667 -10 40 -25.667 40 -47zM459.998 394.003c0 31.333 -30 47 -90 47c-64.667 0 -122.334 -27 -173.001 -81c34.667 -20 74.334 -30 119.001 -30c28.667 0 57 4 85 12c39.333 12 59 29.333 59 52z" />
    <glyph glyph-name="ordfeminine" unicode="&#xaa;" horiz-adv-x="374" 
d="M264 480c-39.333 -41.333 -72.667 -60.334 -100 -57.001c-23.333 3.33301 -36.333 23 -39 59c-12 -17.333 -24.833 -31.666 -38.5 -42.999s-25.167 -17 -34.5 -17c-12 0 -18 8 -18 24c0 12.667 4.66699 26.667 14 42c10.667 16.667 22.167 30.5 34.5 41.5
s25.166 19.833 38.499 26.5c12.667 5.33301 23.334 8 32.001 8c18.667 0 28 -5.66699 28 -17c0 -2 -2 -3.66699 -6 -5s-6 -2.33301 -6 -3c-12.667 -22.667 -19 -44 -19 -64c0 -25.333 10 -38 30 -38c20.667 0 46.334 16.333 77.001 49c4.66699 4.66699 7.66699 5.66699 9 3
c1.33301 -3.33301 0.666016 -6.33301 -2.00098 -9zM138.999 545.999c-26.667 0.666992 -50.332 -18.6689 -70.999 -58.002c-6 -11.333 -9 -20.666 -9 -27.999c0 -9.33301 3.33301 -14 10 -14c6 0 13.667 4 23 12c18 16 29.333 30.667 34 44
c3.33301 18.667 7.66602 33.334 12.999 44.001z" />
    <glyph glyph-name="guillemotleft" unicode="&#xab;" horiz-adv-x="451" 
d="M477 297c-4 -6.66699 -12.333 -15.667 -25 -27s-29.667 -24.666 -51 -39.999l-42 -30l-43 -30l-1 -136l-5 -10l-7 -3l-8 3c-5.33301 10 -12.333 35 -21 75l-8 40c-2.66699 13.333 -5.66699 26.666 -9 39.999c139.333 86 210.333 128.667 213 128l6 -3zM333 297
c-6.66699 -10.667 -32.335 -33.001 -77.002 -67.001l-42 -30l-43 -30l-1 -136l-5 -10l-7 -3c-1.33301 0.666992 -2.66602 1.16699 -3.99902 1.5s-2.66602 0.833008 -3.99902 1.5c-6.66699 18.667 -13.667 44.334 -21 77.001c-3.33301 13.333 -6.33301 26.333 -9 39l-8 39
c139.333 86 210.333 128.667 213 128l7 -3z" />
    <glyph glyph-name="logicalnot" unicode="&#xac;" horiz-adv-x="808" 
d="M669 277l-51.001 -240.999c-2.66699 -14.667 -11.667 -22 -27 -22c-5.33301 0 -10 2.33301 -14 7s-5.66699 9.66699 -5 15l41 193h-522c-13.333 0 -20 4.33301 -20 13c0 2.66699 1 6.16699 3 10.5s4.5 8.16602 7.5 11.499s6.33301 6.33301 10 9s6.83398 4 9.50098 4h568z
" />
    <glyph glyph-name="minus" unicode="&#xad;" horiz-adv-x="373" 
d="M362 208l-1 -1l-254 1v21l1 1h253l1 -1v-21z" />
    <glyph glyph-name="minus" unicode="&#x2212;" horiz-adv-x="373" 
d="M362 208l-1 -1l-254 1v21l1 1h253l1 -1v-21z" />
    <glyph glyph-name="registered" unicode="&#xae;" horiz-adv-x="553" 
d="M562 304c0 -83.333 -31.668 -156.667 -95.001 -220c-62.667 -62.667 -136 -94 -220 -94c-73.333 0 -134.333 24 -183 72c-48.667 48.667 -73 109 -73 181c0 84.667 31.667 158 95 220c62.667 62.667 136.334 94 221.001 94c72 0 132.333 -24.333 181 -73
c49.333 -48 74 -108 74 -180zM544.999 302.999c0 68 -23 124.668 -69 170.001c-46 46 -103 69 -171 69c-79.333 0 -148.666 -29.667 -207.999 -89s-89 -128.333 -89 -207c0 -68.667 23 -126 69 -172c46.667 -45.333 103.667 -68 171 -68c79.333 0 148.666 29.667 207.999 89
s89 128.666 89 207.999zM483.999 213c-8 -23.333 -21.332 -45.3311 -39.999 -65.998c-22 -24.667 -43 -37 -63 -37c-8.66699 0 -16.667 2.66699 -24 8c-18.667 12.667 -29 38.334 -31 77.001c-1.33301 29.333 -2.5 51.166 -3.5 65.499s-1.5 21.833 -1.5 22.5h-12
c-4.66699 0 -9.66699 0.666992 -15 2c-20.667 -50.667 -41 -88.334 -61 -113.001c-28 -34 -64 -56.667 -108 -68c-10.667 -2.66699 -22 -4 -34 -4c-27.333 0 -41 9 -41 27c0 19.333 8.66699 29 26 29c5.33301 0 8 -1.33301 8 -4s-0.666992 -4 -2 -4
s-2.83301 0.333008 -4.5 1s-2.83398 1 -3.50098 1c-10.667 0 -16 -6.33301 -16 -19c0 -16 12.333 -24 37 -24c41.333 0 79 24 113 72c5.33301 8.66699 13.5 23.167 24.5 43.5s24.5 47.5 40.5 81.5c33.333 67.333 70.666 115.333 111.999 144c-23.333 8.66699 -53 13 -89 13
c-92.667 0 -156.334 -29 -191.001 -87c-11.333 -19.333 -17 -38.333 -17 -57c0 -20 6.16699 -36.667 18.5 -50s28.5 -20 48.5 -20c10.667 0 21.167 2.16699 31.5 6.5s19.333 10.166 27 17.499s13.834 15.833 18.501 25.5s7 20.167 7 31.5c0 35.333 -16 53 -48 53
c-11.333 0 -21.5 -3.83301 -30.5 -11.5s-13.5 -17.167 -13.5 -28.5c0 -9.33301 5.33301 -14 16 -14c2 2 3.33301 3 4 3c1.33301 0 2 -0.666992 2 -2c0 -3.33301 -2.33301 -5 -7 -5c-13.333 0 -20 6 -20 18c0 12.667 5.5 23.5 16.5 32.5s22.833 13.5 35.5 13.5
c16.667 0 30.334 -5.33301 41.001 -16s16 -24.334 16 -41.001c0 -13.333 -2.66699 -25.333 -8 -36s-12.5 -20 -21.5 -28s-19.5 -14.167 -31.5 -18.5s-24.333 -6.5 -37 -6.5c-24 0 -44 7.33301 -60 22s-24 33.667 -24 57c0 15.333 3.66699 31 11 47
c18 35.333 49.667 62 95 80c36.667 14 78.667 21 126 21c36.667 0 68 -4.33301 94 -13c25.333 15.333 49.333 23 72 23c2.66699 0 4 -0.333008 4 -1l-2 -2c-27.333 -2 -49.666 -9.66699 -66.999 -23c42 -15.333 63 -38.333 63 -69c0 -28 -14.667 -51.667 -44 -71
c-22.667 -14.667 -50.334 -23.667 -83.001 -27c2 -6 3.83301 -13.5 5.5 -22.5s3.16699 -19.167 4.5 -30.5c1.33301 -10 2.33301 -20 3 -30s1.66699 -19.667 3 -29c5.33301 -29.333 13 -45.666 23 -48.999c4.66699 -2 9.33398 -3 14.001 -3c17.333 0 35.666 11.667 54.999 35
c16.667 20 27.667 39.667 33 59h1l3 -1zM440 383.002c0 27.333 -15.666 48.001 -46.999 62.001c-30 -26.667 -58.333 -69.334 -85 -128.001c12 -5.33301 21 -13.666 27 -24.999c27.333 5.33301 50.666 14.666 69.999 27.999c23.333 17.333 35 38.333 35 63zM319.001 291.003
c-3.33301 8 -8 14.333 -14 19l-8 -19h11h7h4z" />
    <glyph glyph-name="macron" unicode="&#xaf;" horiz-adv-x="485" 
d="M432 452l-21 -49h-233l22 49h232z" />
    <glyph glyph-name="macron" unicode="&#x2c9;" horiz-adv-x="485" 
d="M432 452l-21 -49h-233l22 49h232z" />
    <glyph glyph-name="degree" unicode="&#xb0;" 
 />
    <glyph glyph-name="plusminus" unicode="&#xb1;" horiz-adv-x="458" 
d="M467 287c11.333 -1.33301 16.999 -6.00098 16.999 -14.001c0 -8.66699 -6.66699 -13 -20 -13c-20 0 -64.333 -2 -133 -6c-3.33301 -18 -6.83301 -38.333 -10.5 -61l-12.5 -76c-0.666992 -4 -4.66699 -7.83301 -12 -11.5s-14.333 -5.5 -21 -5.5
c-13.333 0 -18.333 5.66699 -15 17l13.5 53.5l21.5 81.5c-36.667 -2 -84 -5 -142 -9c-7.33301 -1.33301 -11 5.33398 -11 20.001c0 18.667 7.66699 28 23 28h20c10 0 22.667 -0.333008 38 -1c18.667 -0.666992 34.667 -1.16699 48 -1.5s24.333 -0.5 33 -0.5l15 62.5l20 82.5
c2.66699 14 9.66699 21 21 21c8 0 10.333 -5.66699 7 -17c-6 -24 -16 -73.667 -30 -149h54.5c21.667 0 46.834 -0.333008 75.501 -1zM412.999 34.999c-50.667 0 -97.8311 -1 -141.498 -3s-84.5 -5.33301 -122.5 -10c-4 -0.666992 -7.83301 2.33301 -11.5 9
s-5.5 13.334 -5.5 20.001c0 12.667 5.66699 19 17 19c14 0 48 -1 102 -3c33.333 -1.33301 63.166 -2.33301 89.499 -3s49.166 -1.33398 68.499 -2.00098c14 0 21 -5.33301 21 -16c0 -7.33301 -5.66699 -11 -17 -11z" />
    <glyph glyph-name="twosuperior" unicode="&#xb2;" horiz-adv-x="357" 
d="M237 283c-5.33301 -3.33301 -8.00098 -1.66895 -8.00098 4.99805c0 2 2 4 6 6c10 4.66699 15 10 15 16c0 8 -10.333 15.333 -31 22c-20 6.66699 -39.333 9.66699 -58 9c-16 -0.666992 -35.667 -3.83398 -59 -9.50098s-50.333 -14.167 -81 -25.5
c-7.33301 -2.66699 -14 -4 -20 -4c-7.33301 0 -11 3 -11 9c0 7.33301 4.83301 15.333 14.5 24s20.167 13 31.5 13c34.667 10.667 78 33.667 130 69c58.667 38.667 102.334 76.334 131.001 113.001c23.333 29.333 35 54.333 35 75c0 22.667 -13 34 -39 34
c-14.667 0 -33.334 -4.66699 -56.001 -14c-59.333 -25.333 -95.666 -59 -108.999 -101c-2 -5.33301 -4.66699 -8 -8 -8c-2 0 -2.33301 3 -1 9c6 32 27 61.333 63 88c37.333 27.333 72 41 104 41c20 0 35.667 -6.16699 47 -18.5s17 -27.833 17 -46.5
c0 -26 -10.667 -51.667 -32 -77c-17.333 -19.333 -41 -38.666 -71 -57.999c-11.333 -7.33301 -23 -14.5 -35 -21.5s-23.667 -14.167 -35 -21.5c-43.333 -28.667 -68.666 -46.667 -75.999 -54c106 0 158 -15.333 156 -46c-0.666992 -13.333 -7.33398 -22.666 -20.001 -27.999
z" />
    <glyph glyph-name="threesuperior" unicode="&#xb3;" horiz-adv-x="357" 
d="M92 546c2 30 24 54.0029 66 72.0029c34.667 15.333 69.667 23 105 23c36 0 65.333 -7.5 88 -22.5s34 -33.167 34 -54.5c0 -42.667 -38.667 -76.667 -116 -102l-26.5 -5l-35.5 -7c28.667 0.666992 51.167 -4.83301 67.5 -16.5s24.5 -26.5 24.5 -44.5
c0 -25.333 -15.333 -49 -46 -71c-42 -30 -90 -45 -144 -45c-38.667 0 -62.334 10.333 -71.001 31c-3.33301 8.66699 -5 16.667 -5 24c0 23.333 13.333 37.333 40 42c5.33301 0 8 -1 8 -3c0 -4 -3 -5.33301 -9 -4c-5.33301 0.666992 -11 -2.83301 -17 -10.5
s-9 -16.167 -9 -25.5c0 -8 2.33301 -14.333 7 -19c8.66699 -12 25.667 -18 51 -18c50 0 94.667 15.667 134 47c22.667 18.667 34 35.667 34 51c0 17.333 -14.667 31.666 -44 42.999c-13.333 4.66699 -26.833 7.83398 -40.5 9.50098s-28.167 2.16699 -43.5 1.5
c-9.33301 0 -14 2.33301 -14 7c0 5.33301 16.667 9.66602 50 12.999c21.333 2.66699 38.5 4.66699 51.5 6s21.5 2.66602 25.5 3.99902c67.333 17.333 101 46.333 101 87c0 20 -9.5 37 -28.5 51s-43.833 21 -74.5 21c-31.333 0 -62 -7 -92 -21
c-35.333 -16.667 -54.666 -38.334 -57.999 -65.001c-1.33301 -6 -4 -9 -8 -9c-3.33301 0 -5 3.33301 -5 10z" />
    <glyph glyph-name="acute" unicode="&#xb4;" horiz-adv-x="267" 
d="M247 502c-4.66699 -8 -36.002 -25.333 -94.002 -52c-57.333 -26.667 -88.333 -39 -93 -37c-4.66699 2.66699 -5.66699 7 -3 13l57 42.5l66 48.5c14.667 10.667 28.334 16 41.001 16c6.66699 0 12.334 -1.33301 17.001 -4c12 -6 15 -15 9 -27z" />
    <glyph glyph-name="mu" unicode="&#xb5;" horiz-adv-x="324" 
d="M413 161c-50.667 -112.667 -99 -169.002 -145 -169.002c-34.667 0 -52 19.333 -52 58c0 17.333 3.33301 35 10 53c-44.667 -72.667 -87 -109 -127 -109c-22.667 0 -38.334 9.33301 -47.001 28l-129 -282c-1.33301 -2 -5.66602 -3 -12.999 -3
c-14.667 0 -26.334 2 -35.001 6c-3.33301 2.66699 -4.66602 4.33398 -3.99902 5.00098l193 379l24 49.5l25 49.5c9.33301 19.333 18.666 36.833 27.999 52.5l27 43.5h2c4.66699 -3.33301 10 -5 16 -5c14.667 0 30.667 7 48 21l2 -2c-10 -11.333 -26.333 -37 -49 -77
l-25 -43.5c-7.33301 -13 -14.333 -24.833 -21 -35.5c-39.333 -67.333 -59 -116.666 -59 -147.999c0 -18 8.33301 -27 25 -27c38.667 0 90.334 58.333 155.001 175l33 61.5l44 86.5h2c8.66699 -4.66699 17 -7 25 -7c14.667 0 25 6.66699 31 20l3 -1l-78 -151
c-46 -87.333 -69 -143 -69 -167c0 -13.333 5.66699 -20 17 -20c23.333 0 50.666 21.667 81.999 65c20.667 30 38.334 62 53.001 96h2h4z" />
    <glyph glyph-name="mu" unicode="&#x3bc;" horiz-adv-x="324" 
d="M413 161c-50.667 -112.667 -99 -169.002 -145 -169.002c-34.667 0 -52 19.333 -52 58c0 17.333 3.33301 35 10 53c-44.667 -72.667 -87 -109 -127 -109c-22.667 0 -38.334 9.33301 -47.001 28l-129 -282c-1.33301 -2 -5.66602 -3 -12.999 -3
c-14.667 0 -26.334 2 -35.001 6c-3.33301 2.66699 -4.66602 4.33398 -3.99902 5.00098l193 379l24 49.5l25 49.5c9.33301 19.333 18.666 36.833 27.999 52.5l27 43.5h2c4.66699 -3.33301 10 -5 16 -5c14.667 0 30.667 7 48 21l2 -2c-10 -11.333 -26.333 -37 -49 -77
l-25 -43.5c-7.33301 -13 -14.333 -24.833 -21 -35.5c-39.333 -67.333 -59 -116.666 -59 -147.999c0 -18 8.33301 -27 25 -27c38.667 0 90.334 58.333 155.001 175l33 61.5l44 86.5h2c8.66699 -4.66699 17 -7 25 -7c14.667 0 25 6.66699 31 20l3 -1l-78 -151
c-46 -87.333 -69 -143 -69 -167c0 -13.333 5.66699 -20 17 -20c23.333 0 50.666 21.667 81.999 65c20.667 30 38.334 62 53.001 96h2h4z" />
    <glyph glyph-name="paragraph" unicode="&#xb6;" horiz-adv-x="403" 
d="M604 654l-18 -50h-20l-221 -604h-67l221 604h-49l-221 -604h-67l133 363c-73.333 0 -110 28 -110 84c0 16.667 4 36 12 58c24 65.333 68.333 110.333 133 135c24.667 9.33301 58.667 14 102 14h172z" />
    <glyph glyph-name="periodcentered" unicode="&#xb7;" horiz-adv-x="823" 
 />
    <glyph glyph-name="periodcentered" unicode="&#x2219;" horiz-adv-x="823" 
 />
    <glyph glyph-name="cedilla" unicode="&#xb8;" horiz-adv-x="379" 
d="M326 -115c0 -28 -17.3311 -53.333 -51.998 -76c-17.333 -11.333 -42.666 -17 -75.999 -17c-23.333 0 -47.333 3.33301 -72 10c-36 8.66699 -54 20.667 -54 36c0 4.66699 2 7 6 7c2.66699 0 7.66699 -3.66699 15 -11c16 -16.667 44.667 -25 86 -25c48 0 80 12 96 36
c9.33301 15.333 14 29 14 41c0 18 -8.33301 32.333 -25 43c-14.667 9.33301 -31.334 14 -50.001 14c-14.667 0 -30.334 -4 -47.001 -12c-16 -8 -24.333 -12 -25 -12c-12.667 0 -19 5 -19 15c0 4 1.33301 7.33301 4 10c1.33301 1.33301 5.5 4.5 12.5 9.5
s16.167 12.167 27.5 21.5c23.333 17.333 35.666 26 36.999 26c3.33301 0 6 -2.66699 8 -8c-29.333 -22 -44 -33.667 -44 -35c12.667 2 25.667 3 39 3c26.667 0 52 -5.66699 76 -17c28.667 -14 43 -33.667 43 -59z" />
    <glyph glyph-name="onesuperior" unicode="&#xb9;" horiz-adv-x="366" 
d="M285 667c-24 -33.333 -53 -80.334 -87 -141.001l-53 -102c-16 -32 -30 -63 -42 -93c-1.33301 -3.33301 -5 -5 -11 -5c-6.66699 0 -10 2.66699 -10 8c0 0.666992 0.666992 3 2 7l32 67l32 67l31.5 72c9.66699 22.667 18.167 44.334 25.5 65.001
c-16 -8 -33.667 -21.667 -53 -41c-4.66699 -3.33301 -8 -5 -10 -5c-1.33301 0 -2 1 -2 3c0 6 38.667 45.667 116 119c1.33301 0.666992 3.33301 1 6 1c6.66699 0 12.667 -2.66699 18 -8s7 -10 5 -14z" />
    <glyph glyph-name="ordmasculine" unicode="&#xba;" horiz-adv-x="273" 
d="M74 482v-1c-2.66699 -10 -4 -19 -4 -27c0 -18.667 6.33301 -28 19 -28c15.333 0 29 8.33301 41 25c-24 2.66699 -42.667 13 -56 31zM121 571c-16 -17.333 -28.667 -37.667 -38 -61c6 -26.667 23.667 -42.667 53 -48c12 22.667 18 44 18 64c0 28.667 -11 43.667 -33 45z
M131 580.999l-3.00098 -2.00098c28 -9.33301 42 -27.333 42 -54c0 -20.667 -5.66699 -41.334 -17 -62.001l-1 -1c32 1.33301 57.333 11.333 76 30c2 2 3.66699 3 5 3c2 0 3 -1.33301 3 -4c0 -2 -1.66699 -4.66699 -5 -8c-25.333 -22 -54 -33 -86 -33
c-20 -25.333 -42.333 -38 -67 -38c-22 0 -33 13.333 -33 40c0 18.667 5 40.667 15 66c-0.666992 2.66699 -1 5.33398 -1 8.00098v9c0 28 13.333 43.333 40 46c6.66699 8.66699 13.334 13 20.001 13c9.33301 0 14 -3 14 -9c0 -1.33301 -0.666992 -2.66602 -2 -3.99902z" />
    <glyph glyph-name="guillemotright" unicode="&#xbb;" horiz-adv-x="451" 
d="M393 150l-204.999 -127.999l-8 -1l-7 2v9c9.33301 13.333 34.666 35.333 75.999 66l43 30l42 30v45c-1.33301 25.333 -1.33301 45.666 0 60.999c1.33301 22 3 35 5 39l8 4l8 -4c3.33301 -3.33301 16 -54.333 38 -153zM248.001 150.001l-205 -128l-7 -1
c-1.33301 0 -4 0.666992 -8 2l-1 4c0 8.66699 26.667 32.667 80 72l41 30l41 29l1 136c1.33301 2 2.33301 3.66699 3 5l2 4l8 4l9 -4c8 -19.333 15 -44.666 21 -75.999c2.66699 -12.667 5.16699 -25.334 7.5 -38.001z" />
    <glyph glyph-name="onequarter" unicode="&#xbc;" horiz-adv-x="622" 
d="M341 667c-12 -16.667 -25.332 -36.667 -39.999 -60s-30.667 -50.333 -48 -81l-53 -102c-16 -32 -29.667 -63 -41 -93c-1.33301 -3.33301 -5.33301 -5 -12 -5c-6 0 -9 2.66699 -9 8c0 0.666992 0.666992 3 2 7l31.5 67l31.5 67c23.333 50 42.666 95.667 57.999 137
c-16 -8 -33.667 -21.667 -53 -41c-4.66699 -3.33301 -8 -5 -10 -5c-1.33301 0 -2 1 -2 3c0 6 38.667 45.667 116 119c1.33301 0.666992 3.33301 1 6 1c6.66699 0 12.667 -2.66699 18 -8s7 -10 5 -14zM607.001 343c-3.33301 -3.33301 -9.83105 -12.1689 -19.498 -26.502
l-39.5 -59.5c-32 -51.333 -48 -79.666 -48 -84.999l7 -2c5.33301 -1.33301 10.666 -2.33301 15.999 -3s10.666 -1.66699 15.999 -3c15.333 -3.33301 23 -7.66602 23 -12.999c0 -6 -3 -9 -9 -9v2c0 -1.33301 -0.666992 -2 -2 -2l-5 1l-16 3c-16 2 -25.333 3 -28 3h-7
c-2.66699 -0.666992 -6 -1 -10 -1c-5.33301 -9.33301 -12.5 -23.166 -21.5 -41.499l-33.5 -69.5l-23 -48c-4 -9.33301 -8 -16.333 -12 -21c-7.33301 0 -11 4.66699 -11 14s10.333 36 31 80l30 63.5c6.66699 14.333 10.334 22.166 11.001 23.499
c-2.66699 1.33301 -5.66699 2 -9 2c-56.667 0 -109 -8.33301 -157 -25c-8.66699 0 -13 4.66699 -13 14c0 4 7.66699 11.667 23 23l15 9.5l15 9.5l69 48l68 48c25.333 19.333 48.166 38.5 68.499 57.5s37.833 37.833 52.5 56.5c12.667 0 19 -12 19 -36v-13zM548.003 320.997
l-50.001 -41.001c-17.333 -14 -35.666 -27.667 -54.999 -41l-48 -35.5c-13.333 -10.333 -24.333 -19.166 -33 -26.499h51c33.333 0 51.333 -0.666992 54 -2c8 0 35 48.667 81 146zM622.002 665.996l-584 -761h-32l584 761h32z" />
    <glyph glyph-name="onehalf" unicode="&#xbd;" horiz-adv-x="622" 
d="M844 775c10 -5.33301 15 -12.332 15 -20.999c0 -4.66699 -2.33301 -7 -7 -7c-4 0 -10.167 2.33301 -18.5 7s-16.5 7 -24.5 7c-42.667 0 -114 -55.333 -214 -166c-58 -64 -150.667 -177.667 -278 -341c-56.667 -72.667 -107.667 -132.834 -153 -180.501
s-85.333 -83.167 -120 -106.5c-6.66699 -4.66699 -12.334 -7 -17.001 -7s-7 2 -7 6c0 4.66699 3 9.66699 9 15c94 86.667 179 185.667 255 297l61 90l60 90c34 48 66.333 90.333 97 127s60 68.667 88 96c74.667 72.667 140.334 109 197.001 109c20.667 0 39.667 -5 57 -15z
M341 667.001c-12 -16.667 -25.332 -36.667 -39.999 -60s-30.667 -50.333 -48 -81l-53 -102c-16 -32 -29.667 -63 -41 -93c-1.33301 -3.33301 -5.33301 -5 -12 -5c-6 0 -9 2.66699 -9 8c0 0.666992 0.666992 3 2 7l31.5 67l31.5 67c23.333 50 42.666 95.667 57.999 137
c-16 -8 -33.667 -21.667 -53 -41c-4.66699 -3.33301 -8 -5 -10 -5c-1.33301 0 -2 1 -2 3c0 6 38.667 45.667 116 119c1.33301 0.666992 3.33301 1 6 1c6.66699 0 12.667 -2.66699 18 -8s7 -10 5 -14zM555.001 -25.999c-6 -2 -9 -0.332031 -9 5.00098
c0 2.66699 2 4.66699 6 6c10.667 4.66699 16 10 16 16c0 8 -10.333 15.333 -31 22c-10.667 3.33301 -20.667 6 -30 8s-18.666 2.66699 -27.999 2c-31.333 -0.666992 -78 -12.334 -140 -35.001c-8.66699 -3.33301 -15.334 -5 -20.001 -5c-8 0 -12 3 -12 9
c0 7.33301 4.83301 15.333 14.5 24s20.167 13 31.5 13c35.333 11.333 79 34.333 131 69c29.333 19.333 54.833 38.333 76.5 57s39.834 37.334 54.501 56.001c23.333 29.333 35 54.333 35 75c0 22.667 -13 34 -39 34c-15.333 0 -34.333 -4.66699 -57 -14
c-58.667 -24.667 -95 -58.334 -109 -101.001c-0.666992 -4.66699 -3 -7 -7 -7c-2.66699 0 -3.33398 2.66699 -2.00098 8c7.33301 32 28.666 61.333 63.999 88c36.667 27.333 71.334 41 104.001 41c20 0 35.667 -6 47 -18s17 -27.333 17 -46c0 -27.333 -11 -53.333 -33 -78
c-16.667 -19.333 -40 -38.333 -70 -57l-35 -22l-36 -22l-51.5 -35.5c-13 -9 -21.167 -15.167 -24.5 -18.5c106 0 158 -15.333 156 -46c-0.666992 -14 -7 -23.333 -19 -28z" />
    <glyph glyph-name="threequarters" unicode="&#xbe;" horiz-adv-x="622" 
d="M92 546c2 30 24 54.0029 66 72.0029c34.667 15.333 69.667 23 105 23c36 0 65.333 -7.5 88 -22.5s34 -33.167 34 -54.5c0 -42.667 -38.667 -76.667 -116 -102l-26.5 -5l-35.5 -7c28.667 0.666992 51.167 -4.83301 67.5 -16.5s24.5 -26.5 24.5 -44.5
c0 -25.333 -15.333 -49 -46 -71c-42 -30 -90 -45 -144 -45c-38.667 0 -62.334 10.333 -71.001 31c-3.33301 8.66699 -5 16.667 -5 24c0 23.333 13.333 37.333 40 42c5.33301 0 8 -1 8 -3c0 -4 -3 -5.33301 -9 -4c-5.33301 0.666992 -11 -2.83301 -17 -10.5
s-9 -16.167 -9 -25.5c0 -8 2.33301 -14.333 7 -19c8.66699 -12 25.667 -18 51 -18c50 0 94.667 15.667 134 47c22.667 18.667 34 35.667 34 51c0 17.333 -14.667 31.666 -44 42.999c-13.333 4.66699 -26.833 7.83398 -40.5 9.50098s-28.167 2.16699 -43.5 1.5
c-9.33301 0 -14 2.33301 -14 7c0 5.33301 16.667 9.66602 50 12.999c21.333 2.66699 38.5 4.66699 51.5 6s21.5 2.66602 25.5 3.99902c67.333 17.333 101 46.333 101 87c0 20 -9.5 37 -28.5 51s-43.833 21 -74.5 21c-31.333 0 -62 -7 -92 -21
c-35.333 -16.667 -54.666 -38.334 -57.999 -65.001c-1.33301 -6 -4 -9 -8 -9c-3.33301 0 -5 3.33301 -5 10zM607 343.003c-3.33301 -3.33301 -9.83105 -12.1689 -19.498 -26.502l-39.5 -59.5c-32 -51.333 -48 -79.666 -48 -84.999l7 -2
c5.33301 -1.33301 10.666 -2.33301 15.999 -3s10.666 -1.66699 15.999 -3c15.333 -3.33301 23 -7.66602 23 -12.999c0 -6 -3 -9 -9 -9v2c0 -1.33301 -0.666992 -2 -2 -2l-5 1l-16 3c-16 2 -25.333 3 -28 3h-7c-2.66699 -0.666992 -6 -1 -10 -1
c-5.33301 -9.33301 -12.5 -23.166 -21.5 -41.499l-33.5 -69.5l-23 -48c-4 -9.33301 -8 -16.333 -12 -21c-7.33301 0 -11 4.66699 -11 14s10.333 36 31 80l30 63.5c6.66699 14.333 10.334 22.166 11.001 23.499c-2.66699 1.33301 -5.66699 2 -9 2
c-56.667 0 -109 -8.33301 -157 -25c-8.66699 0 -13 4.66699 -13 14c0 4 7.66699 11.667 23 23l15 9.5l15 9.5l69 48l68 48c25.333 19.333 48.166 38.5 68.499 57.5s37.833 37.833 52.5 56.5c12.667 0 19 -12 19 -36v-13zM548.002 321l-50.001 -41.001
c-17.333 -14 -35.666 -27.667 -54.999 -41l-48 -35.5c-13.333 -10.333 -24.333 -19.166 -33 -26.499h51c33.333 0 51.333 -0.666992 54 -2c8 0 35 48.667 81 146zM622.001 665.999l-584 -761h-32l584 761h32z" />
    <glyph glyph-name="questiondown" unicode="&#xbf;" horiz-adv-x="600" 
d="M510 264c0 -12.667 -4.66699 -23.5 -14 -32.5s-20.666 -13.5 -33.999 -13.5s-24.666 4.5 -33.999 13.5s-14 19.833 -14 32.5s4.66699 23.5 14 32.5s20.666 13.5 33.999 13.5s24.666 -4.5 33.999 -13.5s14 -19.833 14 -32.5zM498 -324
c-25.333 -37.333 -73.335 -78.334 -144.002 -123.001c-89.333 -58 -171.333 -87 -246 -87c-26.667 0 -52.667 8.66699 -78 26c-29.333 20 -44 46 -44 78c0 44.667 22 91.667 66 141c28.667 32 76.667 73 144 123c32.667 24 80.667 62 144 114c41.333 40 62 77.333 62 112v4
c0 8 -4 12 -12 12c2.66699 7.33301 4 14 4 20c4 13.333 12 20 24 20c10.667 0 19.667 -6 27 -18c4.66699 -8.66699 7 -18 7 -28c0 -37.333 -21.667 -81.666 -65 -132.999c-12.667 -15.333 -30.5 -34.333 -53.5 -57s-51.5 -49.334 -85.5 -80.001c-32 -28 -78 -72 -138 -132
c-41.333 -47.333 -62 -84.666 -62 -111.999c0 -30.667 16 -46 48 -46c78 0 159.333 27.333 244 82c64.667 41.333 109.334 79.333 134.001 114c4.66699 6.66699 11.334 10 20.001 10c10 0 15 -4.66699 15 -14c0 -6 -3.66699 -14.667 -11 -26z" />
    <glyph glyph-name="Agrave" unicode="&#xc0;" horiz-adv-x="1018" 
d="M278 265c15.333 3.33301 32 6.33105 50 8.99805s37.667 5.33398 59 8.00098c108.667 110.667 188.667 219.667 240 327c22 46.667 33 89 33 127c0 36.667 -9.66699 65.667 -29 87s-44.333 32 -75 32c-45.333 0 -90.333 -21.333 -135 -64c-52 -50 -94.333 -120 -127 -210
c-22 -61.333 -33 -125.666 -33 -192.999c0 -44 5.66699 -85 17 -123zM1049 117.998c-14.667 -19.333 -30.6709 -37.3242 -48.0039 -53.9912s-35.666 -32.334 -54.999 -47.001c-47.333 -36 -88.666 -54 -123.999 -54c-50.667 0 -83.667 36.667 -99 110
c-3.33301 16.667 -5 34.667 -5 54c0 42 6.33301 92.667 19 152c-28.667 -0.666992 -63.667 -1.83398 -105 -3.50098s-89.666 -4.16699 -144.999 -7.5c-2.66699 -2 -15 -13.333 -37 -34l-97 -91c40.667 -33.333 91.667 -50 153 -50c42.667 0 74.334 10.333 95.001 31
c2.66699 2.66699 5.33398 2.66699 8.00098 0s2.66699 -5.33398 0 -8.00098c-23.333 -23.333 -57.666 -35 -102.999 -35c-66 0 -120.333 17.333 -163 52c-54.667 -52 -103 -95.167 -145 -129.5s-78 -60.166 -108 -77.499c14.667 -7.33301 31.334 -13.333 50.001 -18
s39.667 -8.33398 63 -11.001c7.33301 -1.33301 11 -3 11 -5c0 -5.33301 -6 -7.33301 -18 -6c-47.333 5.33301 -88 15.666 -122 30.999c-106.667 -62.667 -192.334 -92.667 -257.001 -90c-28 0.666992 -42 9.66699 -42 27c0 7.33301 3 16.666 9 27.999
c3.33301 9.33301 8.66602 15.666 15.999 18.999c-6 -14 -9 -25.333 -9 -34c0 -14.667 11.333 -22.334 34 -23.001c60.667 -2 137.334 25.333 230.001 82c-52.667 24.667 -79 59.334 -79 104.001c0 30.667 13 62 39 94c54.667 66.667 136 112.334 244 137.001
c-13.333 42 -20 88 -20 138c0 66.667 10.333 128 31 184c34.667 94 80 166.333 136 217c48.667 44 98.334 66 149.001 66c36.667 0 66.667 -12.167 90 -36.5s35 -57.5 35 -99.5c0 -37.333 -10.667 -79.333 -32 -126c-47.333 -100.667 -127.333 -207.334 -240 -320.001
c7.33301 1.33301 16.166 2.5 26.499 3.5l35.5 3.5c36 36 73 75.167 111 117.5s77.333 88.833 118 139.5c112 140 168 235 168 285c0 24 -13 36.667 -39 38c-6 0 -9 1.66699 -9 5c0 6 5.33301 9 16 9c50 -2 75 -23 75 -63c0 -26.667 -11 -61.334 -33 -104.001
c3.33301 -4.66699 4 -11.667 2 -21c-10 -40 -22 -92 -36 -156l-49 -231c83.333 13.333 125 47.666 125 102.999c0 7.33301 3 11 9 11c4 0 6.66699 -2.66699 8 -8c3.33301 -72 -45.334 -116 -146.001 -132c-4.66699 -28 -8 -53.667 -10 -77s-3 -45 -3 -65
c0 -33.333 3 -61.333 9 -84c10.667 -48 31.667 -72 63 -72c26 0 59 18 99 54c7.33301 6.66699 17.666 17 30.999 31l50 54c8 8 14 12 18 12c3.33301 0 5 -2.66699 5 -8c0 -4.66699 -1 -8.33398 -3 -11.001zM848.996 668.007c-45.333 -71.333 -96.334 -137.333 -153.001 -198
c-15.333 -16.667 -37.833 -39.5 -67.5 -68.5l-111.5 -106.5c26.667 2.66699 64.334 4.66699 113.001 6c56 0.666992 93.667 1.66699 113 3c6 25.333 13.5 53.833 22.5 85.5l30.5 104.5l26 87zM274.995 222.007c-58.667 -19.333 -111.333 -45.333 -158 -78
c-62 -43.333 -93 -86.333 -93 -129c0 -28.667 16 -55 48 -79c28.667 18.667 64 45.667 106 81s91 79.666 147 132.999c-9.33301 8.66699 -18.333 19.334 -27 32.001l-11 -9c-81.333 -69.333 -128 -104 -140 -104c-2.66699 0 -4.33398 1.33301 -5.00098 4
c-1.33301 4 -0.666016 6.33301 2.00098 7c21.333 13.333 44.166 29.333 68.499 48s50.5 40 78.5 64c-3.33301 4.66699 -6.16602 9.5 -8.49902 14.5zM346.996 243.007c-9.33301 -2.66699 -18.668 -5.16797 -28.001 -7.50098s-18.666 -5.16602 -27.999 -8.49902l6 -12
c2 -4 4.33301 -8 7 -12c14.667 12.667 29 26 43 40zM440.994 262.006c-13.333 -2.66699 -25.999 -5.00098 -37.999 -7.00098s-22.667 -4 -32 -6l-30 -28.5c-10 -9.66699 -20.333 -19.167 -31 -28.5c3.33301 -5.33301 7.16602 -10.666 11.499 -15.999l13.5 -16
c12.667 11.333 27.667 25.5 45 42.5zM919.995 1167c-6.66699 6 -10 14.3301 -10 24.9971c0 12.667 4.66699 19 14 19c6 0 13.667 -3.66699 23 -11c16 -11.333 34.5 -25.166 55.5 -41.499l70.5 -55.5c3.33301 -3.33301 5 -6.66602 5 -9.99902c0 -7.33301 -4 -11 -12 -11
c-2 0 -5 0.666992 -9 2c-52 28.667 -97.667 56.334 -137 83.001z" />
    <glyph glyph-name="Aacute" unicode="&#xc1;" horiz-adv-x="1018" 
d="M278 265c15.333 3.33301 32 6.33105 50 8.99805s37.667 5.33398 59 8.00098c108.667 110.667 188.667 219.667 240 327c22 46.667 33 89 33 127c0 36.667 -9.66699 65.667 -29 87s-44.333 32 -75 32c-45.333 0 -90.333 -21.333 -135 -64c-52 -50 -94.333 -120 -127 -210
c-22 -61.333 -33 -125.666 -33 -192.999c0 -44 5.66699 -85 17 -123zM1049 117.998c-14.667 -19.333 -30.6709 -37.3242 -48.0039 -53.9912s-35.666 -32.334 -54.999 -47.001c-47.333 -36 -88.666 -54 -123.999 -54c-50.667 0 -83.667 36.667 -99 110
c-3.33301 16.667 -5 34.667 -5 54c0 42 6.33301 92.667 19 152c-28.667 -0.666992 -63.667 -1.83398 -105 -3.50098s-89.666 -4.16699 -144.999 -7.5c-2.66699 -2 -15 -13.333 -37 -34l-97 -91c40.667 -33.333 91.667 -50 153 -50c42.667 0 74.334 10.333 95.001 31
c2.66699 2.66699 5.33398 2.66699 8.00098 0s2.66699 -5.33398 0 -8.00098c-23.333 -23.333 -57.666 -35 -102.999 -35c-66 0 -120.333 17.333 -163 52c-54.667 -52 -103 -95.167 -145 -129.5s-78 -60.166 -108 -77.499c14.667 -7.33301 31.334 -13.333 50.001 -18
s39.667 -8.33398 63 -11.001c7.33301 -1.33301 11 -3 11 -5c0 -5.33301 -6 -7.33301 -18 -6c-47.333 5.33301 -88 15.666 -122 30.999c-106.667 -62.667 -192.334 -92.667 -257.001 -90c-28 0.666992 -42 9.66699 -42 27c0 7.33301 3 16.666 9 27.999
c3.33301 9.33301 8.66602 15.666 15.999 18.999c-6 -14 -9 -25.333 -9 -34c0 -14.667 11.333 -22.334 34 -23.001c60.667 -2 137.334 25.333 230.001 82c-52.667 24.667 -79 59.334 -79 104.001c0 30.667 13 62 39 94c54.667 66.667 136 112.334 244 137.001
c-13.333 42 -20 88 -20 138c0 66.667 10.333 128 31 184c34.667 94 80 166.333 136 217c48.667 44 98.334 66 149.001 66c36.667 0 66.667 -12.167 90 -36.5s35 -57.5 35 -99.5c0 -37.333 -10.667 -79.333 -32 -126c-47.333 -100.667 -127.333 -207.334 -240 -320.001
c7.33301 1.33301 16.166 2.5 26.499 3.5l35.5 3.5c36 36 73 75.167 111 117.5s77.333 88.833 118 139.5c112 140 168 235 168 285c0 24 -13 36.667 -39 38c-6 0 -9 1.66699 -9 5c0 6 5.33301 9 16 9c50 -2 75 -23 75 -63c0 -26.667 -11 -61.334 -33 -104.001
c3.33301 -4.66699 4 -11.667 2 -21c-10 -40 -22 -92 -36 -156l-49 -231c83.333 13.333 125 47.666 125 102.999c0 7.33301 3 11 9 11c4 0 6.66699 -2.66699 8 -8c3.33301 -72 -45.334 -116 -146.001 -132c-4.66699 -28 -8 -53.667 -10 -77s-3 -45 -3 -65
c0 -33.333 3 -61.333 9 -84c10.667 -48 31.667 -72 63 -72c26 0 59 18 99 54c7.33301 6.66699 17.666 17 30.999 31l50 54c8 8 14 12 18 12c3.33301 0 5 -2.66699 5 -8c0 -4.66699 -1 -8.33398 -3 -11.001zM848.996 668.007c-45.333 -71.333 -96.334 -137.333 -153.001 -198
c-15.333 -16.667 -37.833 -39.5 -67.5 -68.5l-111.5 -106.5c26.667 2.66699 64.334 4.66699 113.001 6c56 0.666992 93.667 1.66699 113 3c6 25.333 13.5 53.833 22.5 85.5l30.5 104.5l26 87zM274.995 222.007c-58.667 -19.333 -111.333 -45.333 -158 -78
c-62 -43.333 -93 -86.333 -93 -129c0 -28.667 16 -55 48 -79c28.667 18.667 64 45.667 106 81s91 79.666 147 132.999c-9.33301 8.66699 -18.333 19.334 -27 32.001l-11 -9c-81.333 -69.333 -128 -104 -140 -104c-2.66699 0 -4.33398 1.33301 -5.00098 4
c-1.33301 4 -0.666016 6.33301 2.00098 7c21.333 13.333 44.166 29.333 68.499 48s50.5 40 78.5 64c-3.33301 4.66699 -6.16602 9.5 -8.49902 14.5zM346.996 243.007c-9.33301 -2.66699 -18.668 -5.16797 -28.001 -7.50098s-18.666 -5.16602 -27.999 -8.49902l6 -12
c2 -4 4.33301 -8 7 -12c14.667 12.667 29 26 43 40zM440.994 262.006c-13.333 -2.66699 -25.999 -5.00098 -37.999 -7.00098s-22.667 -4 -32 -6l-30 -28.5c-10 -9.66699 -20.333 -19.167 -31 -28.5c3.33301 -5.33301 7.16602 -10.666 11.499 -15.999l13.5 -16
c12.667 11.333 27.667 25.5 45 42.5zM1076 1043c-4.66699 -8 -36.002 -25.333 -94.002 -52c-57.333 -26.667 -88.333 -39 -93 -37c-4.66699 2.66699 -5.66699 7 -3 13l57 42.5l66 48.5c14.667 10.667 28.334 16 41.001 16c6.66699 0 12.334 -1.33301 17.001 -4
c12 -6 15 -15 9 -27z" />
    <glyph glyph-name="Acircumflex" unicode="&#xc2;" horiz-adv-x="1018" 
d="M278 265c15.333 3.33301 32 6.33105 50 8.99805s37.667 5.33398 59 8.00098c108.667 110.667 188.667 219.667 240 327c22 46.667 33 89 33 127c0 36.667 -9.66699 65.667 -29 87s-44.333 32 -75 32c-45.333 0 -90.333 -21.333 -135 -64c-52 -50 -94.333 -120 -127 -210
c-22 -61.333 -33 -125.666 -33 -192.999c0 -44 5.66699 -85 17 -123zM1049 117.998c-14.667 -19.333 -30.6709 -37.3242 -48.0039 -53.9912s-35.666 -32.334 -54.999 -47.001c-47.333 -36 -88.666 -54 -123.999 -54c-50.667 0 -83.667 36.667 -99 110
c-3.33301 16.667 -5 34.667 -5 54c0 42 6.33301 92.667 19 152c-28.667 -0.666992 -63.667 -1.83398 -105 -3.50098s-89.666 -4.16699 -144.999 -7.5c-2.66699 -2 -15 -13.333 -37 -34l-97 -91c40.667 -33.333 91.667 -50 153 -50c42.667 0 74.334 10.333 95.001 31
c2.66699 2.66699 5.33398 2.66699 8.00098 0s2.66699 -5.33398 0 -8.00098c-23.333 -23.333 -57.666 -35 -102.999 -35c-66 0 -120.333 17.333 -163 52c-54.667 -52 -103 -95.167 -145 -129.5s-78 -60.166 -108 -77.499c14.667 -7.33301 31.334 -13.333 50.001 -18
s39.667 -8.33398 63 -11.001c7.33301 -1.33301 11 -3 11 -5c0 -5.33301 -6 -7.33301 -18 -6c-47.333 5.33301 -88 15.666 -122 30.999c-106.667 -62.667 -192.334 -92.667 -257.001 -90c-28 0.666992 -42 9.66699 -42 27c0 7.33301 3 16.666 9 27.999
c3.33301 9.33301 8.66602 15.666 15.999 18.999c-6 -14 -9 -25.333 -9 -34c0 -14.667 11.333 -22.334 34 -23.001c60.667 -2 137.334 25.333 230.001 82c-52.667 24.667 -79 59.334 -79 104.001c0 30.667 13 62 39 94c54.667 66.667 136 112.334 244 137.001
c-13.333 42 -20 88 -20 138c0 66.667 10.333 128 31 184c34.667 94 80 166.333 136 217c48.667 44 98.334 66 149.001 66c36.667 0 66.667 -12.167 90 -36.5s35 -57.5 35 -99.5c0 -37.333 -10.667 -79.333 -32 -126c-47.333 -100.667 -127.333 -207.334 -240 -320.001
c7.33301 1.33301 16.166 2.5 26.499 3.5l35.5 3.5c36 36 73 75.167 111 117.5s77.333 88.833 118 139.5c112 140 168 235 168 285c0 24 -13 36.667 -39 38c-6 0 -9 1.66699 -9 5c0 6 5.33301 9 16 9c50 -2 75 -23 75 -63c0 -26.667 -11 -61.334 -33 -104.001
c3.33301 -4.66699 4 -11.667 2 -21c-10 -40 -22 -92 -36 -156l-49 -231c83.333 13.333 125 47.666 125 102.999c0 7.33301 3 11 9 11c4 0 6.66699 -2.66699 8 -8c3.33301 -72 -45.334 -116 -146.001 -132c-4.66699 -28 -8 -53.667 -10 -77s-3 -45 -3 -65
c0 -33.333 3 -61.333 9 -84c10.667 -48 31.667 -72 63 -72c26 0 59 18 99 54c7.33301 6.66699 17.666 17 30.999 31l50 54c8 8 14 12 18 12c3.33301 0 5 -2.66699 5 -8c0 -4.66699 -1 -8.33398 -3 -11.001zM848.996 668.007c-45.333 -71.333 -96.334 -137.333 -153.001 -198
c-15.333 -16.667 -37.833 -39.5 -67.5 -68.5l-111.5 -106.5c26.667 2.66699 64.334 4.66699 113.001 6c56 0.666992 93.667 1.66699 113 3c6 25.333 13.5 53.833 22.5 85.5l30.5 104.5l26 87zM274.995 222.007c-58.667 -19.333 -111.333 -45.333 -158 -78
c-62 -43.333 -93 -86.333 -93 -129c0 -28.667 16 -55 48 -79c28.667 18.667 64 45.667 106 81s91 79.666 147 132.999c-9.33301 8.66699 -18.333 19.334 -27 32.001l-11 -9c-81.333 -69.333 -128 -104 -140 -104c-2.66699 0 -4.33398 1.33301 -5.00098 4
c-1.33301 4 -0.666016 6.33301 2.00098 7c21.333 13.333 44.166 29.333 68.499 48s50.5 40 78.5 64c-3.33301 4.66699 -6.16602 9.5 -8.49902 14.5zM346.996 243.007c-9.33301 -2.66699 -18.668 -5.16797 -28.001 -7.50098s-18.666 -5.16602 -27.999 -8.49902l6 -12
c2 -4 4.33301 -8 7 -12c14.667 12.667 29 26 43 40zM440.994 262.006c-13.333 -2.66699 -25.999 -5.00098 -37.999 -7.00098s-22.667 -4 -32 -6l-30 -28.5c-10 -9.66699 -20.333 -19.167 -31 -28.5c3.33301 -5.33301 7.16602 -10.666 11.499 -15.999l13.5 -16
c12.667 11.333 27.667 25.5 45 42.5zM979.995 936.005c1.33301 -3.33301 0.333008 -5.66602 -3 -6.99902c-3.33301 -0.666992 -7.33301 -0.333984 -12 0.999023s-8 3.33301 -10 6l-56 87l-162 -87c-5.33301 -4 -12 -6 -20 -6c-8 -1.33301 -12 -0.333008 -12 3
c0 1.33301 0.333008 2.33301 1 3l183 130c30 4 45.667 4 47 0z" />
    <glyph glyph-name="Atilde" unicode="&#xc3;" horiz-adv-x="1018" 
d="M278 265c15.333 3.33301 32 6.33105 50 8.99805s37.667 5.33398 59 8.00098c108.667 110.667 188.667 219.667 240 327c22 46.667 33 89 33 127c0 36.667 -9.66699 65.667 -29 87s-44.333 32 -75 32c-45.333 0 -90.333 -21.333 -135 -64c-52 -50 -94.333 -120 -127 -210
c-22 -61.333 -33 -125.666 -33 -192.999c0 -44 5.66699 -85 17 -123zM1049 117.998c-14.667 -19.333 -30.6709 -37.3242 -48.0039 -53.9912s-35.666 -32.334 -54.999 -47.001c-47.333 -36 -88.666 -54 -123.999 -54c-50.667 0 -83.667 36.667 -99 110
c-3.33301 16.667 -5 34.667 -5 54c0 42 6.33301 92.667 19 152c-28.667 -0.666992 -63.667 -1.83398 -105 -3.50098s-89.666 -4.16699 -144.999 -7.5c-2.66699 -2 -15 -13.333 -37 -34l-97 -91c40.667 -33.333 91.667 -50 153 -50c42.667 0 74.334 10.333 95.001 31
c2.66699 2.66699 5.33398 2.66699 8.00098 0s2.66699 -5.33398 0 -8.00098c-23.333 -23.333 -57.666 -35 -102.999 -35c-66 0 -120.333 17.333 -163 52c-54.667 -52 -103 -95.167 -145 -129.5s-78 -60.166 -108 -77.499c14.667 -7.33301 31.334 -13.333 50.001 -18
s39.667 -8.33398 63 -11.001c7.33301 -1.33301 11 -3 11 -5c0 -5.33301 -6 -7.33301 -18 -6c-47.333 5.33301 -88 15.666 -122 30.999c-106.667 -62.667 -192.334 -92.667 -257.001 -90c-28 0.666992 -42 9.66699 -42 27c0 7.33301 3 16.666 9 27.999
c3.33301 9.33301 8.66602 15.666 15.999 18.999c-6 -14 -9 -25.333 -9 -34c0 -14.667 11.333 -22.334 34 -23.001c60.667 -2 137.334 25.333 230.001 82c-52.667 24.667 -79 59.334 -79 104.001c0 30.667 13 62 39 94c54.667 66.667 136 112.334 244 137.001
c-13.333 42 -20 88 -20 138c0 66.667 10.333 128 31 184c34.667 94 80 166.333 136 217c48.667 44 98.334 66 149.001 66c36.667 0 66.667 -12.167 90 -36.5s35 -57.5 35 -99.5c0 -37.333 -10.667 -79.333 -32 -126c-47.333 -100.667 -127.333 -207.334 -240 -320.001
c7.33301 1.33301 16.166 2.5 26.499 3.5l35.5 3.5c36 36 73 75.167 111 117.5s77.333 88.833 118 139.5c112 140 168 235 168 285c0 24 -13 36.667 -39 38c-6 0 -9 1.66699 -9 5c0 6 5.33301 9 16 9c50 -2 75 -23 75 -63c0 -26.667 -11 -61.334 -33 -104.001
c3.33301 -4.66699 4 -11.667 2 -21c-10 -40 -22 -92 -36 -156l-49 -231c83.333 13.333 125 47.666 125 102.999c0 7.33301 3 11 9 11c4 0 6.66699 -2.66699 8 -8c3.33301 -72 -45.334 -116 -146.001 -132c-4.66699 -28 -8 -53.667 -10 -77s-3 -45 -3 -65
c0 -33.333 3 -61.333 9 -84c10.667 -48 31.667 -72 63 -72c26 0 59 18 99 54c7.33301 6.66699 17.666 17 30.999 31l50 54c8 8 14 12 18 12c3.33301 0 5 -2.66699 5 -8c0 -4.66699 -1 -8.33398 -3 -11.001zM848.996 668.007c-45.333 -71.333 -96.334 -137.333 -153.001 -198
c-15.333 -16.667 -37.833 -39.5 -67.5 -68.5l-111.5 -106.5c26.667 2.66699 64.334 4.66699 113.001 6c56 0.666992 93.667 1.66699 113 3c6 25.333 13.5 53.833 22.5 85.5l30.5 104.5l26 87zM274.995 222.007c-58.667 -19.333 -111.333 -45.333 -158 -78
c-62 -43.333 -93 -86.333 -93 -129c0 -28.667 16 -55 48 -79c28.667 18.667 64 45.667 106 81s91 79.666 147 132.999c-9.33301 8.66699 -18.333 19.334 -27 32.001l-11 -9c-81.333 -69.333 -128 -104 -140 -104c-2.66699 0 -4.33398 1.33301 -5.00098 4
c-1.33301 4 -0.666016 6.33301 2.00098 7c21.333 13.333 44.166 29.333 68.499 48s50.5 40 78.5 64c-3.33301 4.66699 -6.16602 9.5 -8.49902 14.5zM346.996 243.007c-9.33301 -2.66699 -18.668 -5.16797 -28.001 -7.50098s-18.666 -5.16602 -27.999 -8.49902l6 -12
c2 -4 4.33301 -8 7 -12c14.667 12.667 29 26 43 40zM440.994 262.006c-13.333 -2.66699 -25.999 -5.00098 -37.999 -7.00098s-22.667 -4 -32 -6l-30 -28.5c-10 -9.66699 -20.333 -19.167 -31 -28.5c3.33301 -5.33301 7.16602 -10.666 11.499 -15.999l13.5 -16
c12.667 11.333 27.667 25.5 45 42.5zM1209 1022c-22.667 -48 -50.665 -70.3301 -83.998 -66.9971c-12 1.33301 -29 6.66602 -51 15.999c-24 10.667 -41.333 16.334 -52 17.001c-18 1.33301 -32.333 -8.33398 -43 -29.001c-1.33301 -2 -5.33301 -2.66699 -12 -2
c-6 1.33301 -8.66699 2.66602 -8 3.99902c25.333 45.333 53 66.666 83 63.999c6.66699 -0.666992 14.167 -2.33398 22.5 -5.00098s18.166 -6.33398 29.499 -11.001c22.667 -9.33301 39.667 -14.333 51 -15c20.667 -2 36 8 46 30
c1.33301 2.66699 4.66602 3.33398 9.99902 2.00098c6 -1.33301 8.66699 -2.66602 8 -3.99902z" />
    <glyph glyph-name="Adieresis" unicode="&#xc4;" horiz-adv-x="1018" 
d="M278 265c15.333 3.33301 32 6.33105 50 8.99805s37.667 5.33398 59 8.00098c108.667 110.667 188.667 219.667 240 327c22 46.667 33 89 33 127c0 36.667 -9.66699 65.667 -29 87s-44.333 32 -75 32c-45.333 0 -90.333 -21.333 -135 -64c-52 -50 -94.333 -120 -127 -210
c-22 -61.333 -33 -125.666 -33 -192.999c0 -44 5.66699 -85 17 -123zM1049 117.998c-14.667 -19.333 -30.6709 -37.3242 -48.0039 -53.9912s-35.666 -32.334 -54.999 -47.001c-47.333 -36 -88.666 -54 -123.999 -54c-50.667 0 -83.667 36.667 -99 110
c-3.33301 16.667 -5 34.667 -5 54c0 42 6.33301 92.667 19 152c-28.667 -0.666992 -63.667 -1.83398 -105 -3.50098s-89.666 -4.16699 -144.999 -7.5c-2.66699 -2 -15 -13.333 -37 -34l-97 -91c40.667 -33.333 91.667 -50 153 -50c42.667 0 74.334 10.333 95.001 31
c2.66699 2.66699 5.33398 2.66699 8.00098 0s2.66699 -5.33398 0 -8.00098c-23.333 -23.333 -57.666 -35 -102.999 -35c-66 0 -120.333 17.333 -163 52c-54.667 -52 -103 -95.167 -145 -129.5s-78 -60.166 -108 -77.499c14.667 -7.33301 31.334 -13.333 50.001 -18
s39.667 -8.33398 63 -11.001c7.33301 -1.33301 11 -3 11 -5c0 -5.33301 -6 -7.33301 -18 -6c-47.333 5.33301 -88 15.666 -122 30.999c-106.667 -62.667 -192.334 -92.667 -257.001 -90c-28 0.666992 -42 9.66699 -42 27c0 7.33301 3 16.666 9 27.999
c3.33301 9.33301 8.66602 15.666 15.999 18.999c-6 -14 -9 -25.333 -9 -34c0 -14.667 11.333 -22.334 34 -23.001c60.667 -2 137.334 25.333 230.001 82c-52.667 24.667 -79 59.334 -79 104.001c0 30.667 13 62 39 94c54.667 66.667 136 112.334 244 137.001
c-13.333 42 -20 88 -20 138c0 66.667 10.333 128 31 184c34.667 94 80 166.333 136 217c48.667 44 98.334 66 149.001 66c36.667 0 66.667 -12.167 90 -36.5s35 -57.5 35 -99.5c0 -37.333 -10.667 -79.333 -32 -126c-47.333 -100.667 -127.333 -207.334 -240 -320.001
c7.33301 1.33301 16.166 2.5 26.499 3.5l35.5 3.5c36 36 73 75.167 111 117.5s77.333 88.833 118 139.5c112 140 168 235 168 285c0 24 -13 36.667 -39 38c-6 0 -9 1.66699 -9 5c0 6 5.33301 9 16 9c50 -2 75 -23 75 -63c0 -26.667 -11 -61.334 -33 -104.001
c3.33301 -4.66699 4 -11.667 2 -21c-10 -40 -22 -92 -36 -156l-49 -231c83.333 13.333 125 47.666 125 102.999c0 7.33301 3 11 9 11c4 0 6.66699 -2.66699 8 -8c3.33301 -72 -45.334 -116 -146.001 -132c-4.66699 -28 -8 -53.667 -10 -77s-3 -45 -3 -65
c0 -33.333 3 -61.333 9 -84c10.667 -48 31.667 -72 63 -72c26 0 59 18 99 54c7.33301 6.66699 17.666 17 30.999 31l50 54c8 8 14 12 18 12c3.33301 0 5 -2.66699 5 -8c0 -4.66699 -1 -8.33398 -3 -11.001zM848.996 668.007c-45.333 -71.333 -96.334 -137.333 -153.001 -198
c-15.333 -16.667 -37.833 -39.5 -67.5 -68.5l-111.5 -106.5c26.667 2.66699 64.334 4.66699 113.001 6c56 0.666992 93.667 1.66699 113 3c6 25.333 13.5 53.833 22.5 85.5l30.5 104.5l26 87zM274.995 222.007c-58.667 -19.333 -111.333 -45.333 -158 -78
c-62 -43.333 -93 -86.333 -93 -129c0 -28.667 16 -55 48 -79c28.667 18.667 64 45.667 106 81s91 79.666 147 132.999c-9.33301 8.66699 -18.333 19.334 -27 32.001l-11 -9c-81.333 -69.333 -128 -104 -140 -104c-2.66699 0 -4.33398 1.33301 -5.00098 4
c-1.33301 4 -0.666016 6.33301 2.00098 7c21.333 13.333 44.166 29.333 68.499 48s50.5 40 78.5 64c-3.33301 4.66699 -6.16602 9.5 -8.49902 14.5zM346.996 243.007c-9.33301 -2.66699 -18.668 -5.16797 -28.001 -7.50098s-18.666 -5.16602 -27.999 -8.49902l6 -12
c2 -4 4.33301 -8 7 -12c14.667 12.667 29 26 43 40zM440.994 262.006c-13.333 -2.66699 -25.999 -5.00098 -37.999 -7.00098s-22.667 -4 -32 -6l-30 -28.5c-10 -9.66699 -20.333 -19.167 -31 -28.5c3.33301 -5.33301 7.16602 -10.666 11.499 -15.999l13.5 -16
c12.667 11.333 27.667 25.5 45 42.5zM877.995 890.005c0 -22 -10.667 -33 -32 -33c-22.667 0 -34 11 -34 33s10.667 33 32 33c22.667 0 34 -11 34 -33zM748.995 890.005c0 -22 -10.667 -33 -32 -33c-22.667 0 -34 11 -34 33s10.667 33 32 33c22.667 0 34 -11 34 -33z" />
    <glyph glyph-name="Aring" unicode="&#xc5;" horiz-adv-x="1018" 
d="M278 265c15.333 3.33301 32 6.33105 50 8.99805s37.667 5.33398 59 8.00098c108.667 110.667 188.667 219.667 240 327c22 46.667 33 89 33 127c0 36.667 -9.66699 65.667 -29 87s-44.333 32 -75 32c-45.333 0 -90.333 -21.333 -135 -64c-52 -50 -94.333 -120 -127 -210
c-22 -61.333 -33 -125.666 -33 -192.999c0 -44 5.66699 -85 17 -123zM1049 117.998c-14.667 -19.333 -30.6709 -37.3242 -48.0039 -53.9912s-35.666 -32.334 -54.999 -47.001c-47.333 -36 -88.666 -54 -123.999 -54c-50.667 0 -83.667 36.667 -99 110
c-3.33301 16.667 -5 34.667 -5 54c0 42 6.33301 92.667 19 152c-28.667 -0.666992 -63.667 -1.83398 -105 -3.50098s-89.666 -4.16699 -144.999 -7.5c-2.66699 -2 -15 -13.333 -37 -34l-97 -91c40.667 -33.333 91.667 -50 153 -50c42.667 0 74.334 10.333 95.001 31
c2.66699 2.66699 5.33398 2.66699 8.00098 0s2.66699 -5.33398 0 -8.00098c-23.333 -23.333 -57.666 -35 -102.999 -35c-66 0 -120.333 17.333 -163 52c-54.667 -52 -103 -95.167 -145 -129.5s-78 -60.166 -108 -77.499c14.667 -7.33301 31.334 -13.333 50.001 -18
s39.667 -8.33398 63 -11.001c7.33301 -1.33301 11 -3 11 -5c0 -5.33301 -6 -7.33301 -18 -6c-47.333 5.33301 -88 15.666 -122 30.999c-106.667 -62.667 -192.334 -92.667 -257.001 -90c-28 0.666992 -42 9.66699 -42 27c0 7.33301 3 16.666 9 27.999
c3.33301 9.33301 8.66602 15.666 15.999 18.999c-6 -14 -9 -25.333 -9 -34c0 -14.667 11.333 -22.334 34 -23.001c60.667 -2 137.334 25.333 230.001 82c-52.667 24.667 -79 59.334 -79 104.001c0 30.667 13 62 39 94c54.667 66.667 136 112.334 244 137.001
c-13.333 42 -20 88 -20 138c0 66.667 10.333 128 31 184c34.667 94 80 166.333 136 217c48.667 44 98.334 66 149.001 66c36.667 0 66.667 -12.167 90 -36.5s35 -57.5 35 -99.5c0 -37.333 -10.667 -79.333 -32 -126c-47.333 -100.667 -127.333 -207.334 -240 -320.001
c7.33301 1.33301 16.166 2.5 26.499 3.5l35.5 3.5c36 36 73 75.167 111 117.5s77.333 88.833 118 139.5c112 140 168 235 168 285c0 24 -13 36.667 -39 38c-6 0 -9 1.66699 -9 5c0 6 5.33301 9 16 9c50 -2 75 -23 75 -63c0 -26.667 -11 -61.334 -33 -104.001
c3.33301 -4.66699 4 -11.667 2 -21c-10 -40 -22 -92 -36 -156l-49 -231c83.333 13.333 125 47.666 125 102.999c0 7.33301 3 11 9 11c4 0 6.66699 -2.66699 8 -8c3.33301 -72 -45.334 -116 -146.001 -132c-4.66699 -28 -8 -53.667 -10 -77s-3 -45 -3 -65
c0 -33.333 3 -61.333 9 -84c10.667 -48 31.667 -72 63 -72c26 0 59 18 99 54c7.33301 6.66699 17.666 17 30.999 31l50 54c8 8 14 12 18 12c3.33301 0 5 -2.66699 5 -8c0 -4.66699 -1 -8.33398 -3 -11.001zM848.996 668.007c-45.333 -71.333 -96.334 -137.333 -153.001 -198
c-15.333 -16.667 -37.833 -39.5 -67.5 -68.5l-111.5 -106.5c26.667 2.66699 64.334 4.66699 113.001 6c56 0.666992 93.667 1.66699 113 3c6 25.333 13.5 53.833 22.5 85.5l30.5 104.5l26 87zM274.995 222.007c-58.667 -19.333 -111.333 -45.333 -158 -78
c-62 -43.333 -93 -86.333 -93 -129c0 -28.667 16 -55 48 -79c28.667 18.667 64 45.667 106 81s91 79.666 147 132.999c-9.33301 8.66699 -18.333 19.334 -27 32.001l-11 -9c-81.333 -69.333 -128 -104 -140 -104c-2.66699 0 -4.33398 1.33301 -5.00098 4
c-1.33301 4 -0.666016 6.33301 2.00098 7c21.333 13.333 44.166 29.333 68.499 48s50.5 40 78.5 64c-3.33301 4.66699 -6.16602 9.5 -8.49902 14.5zM346.996 243.007c-9.33301 -2.66699 -18.668 -5.16797 -28.001 -7.50098s-18.666 -5.16602 -27.999 -8.49902l6 -12
c2 -4 4.33301 -8 7 -12c14.667 12.667 29 26 43 40zM440.994 262.006c-13.333 -2.66699 -25.999 -5.00098 -37.999 -7.00098s-22.667 -4 -32 -6l-30 -28.5c-10 -9.66699 -20.333 -19.167 -31 -28.5c3.33301 -5.33301 7.16602 -10.666 11.499 -15.999l13.5 -16
c12.667 11.333 27.667 25.5 45 42.5zM972.995 909.005c0 -17.333 -6.16699 -32.333 -18.5 -45s-27.5 -19 -45.5 -19c-17.333 0 -32.166 6.33301 -44.499 19s-18.5 27.667 -18.5 45s6.16699 32.333 18.5 45s27.166 19 44.499 19c18 0 33.167 -6.33301 45.5 -19
s18.5 -27.667 18.5 -45zM954.995 909.005c0 12.667 -4.5 23.5 -13.5 32.5s-20.167 13.5 -33.5 13.5c-12.667 0 -23.5 -4.5 -32.5 -13.5s-13.5 -19.833 -13.5 -32.5c0 -13.333 4.5 -24.5 13.5 -33.5s19.833 -13.5 32.5 -13.5c13.333 0 24.5 4.5 33.5 13.5
s13.5 20.167 13.5 33.5z" />
    <glyph glyph-name="AE" unicode="&#xc6;" horiz-adv-x="1453" 
d="M648 604c-31.333 -64.667 -107.671 -166.666 -229.004 -305.999c-134 -152.667 -224.667 -229 -272 -229c-2.66699 0 -4.33398 1.33301 -5.00098 4c-1.33301 4 -0.666016 6.33301 2.00098 7c21.333 13.333 44.333 29.5 69 48.5s51 40.5 79 64.5
c155.333 133.333 267 272 335 416c22 46.667 33 89 33 127c0 36.667 -9.66699 65.667 -29 87s-44.333 32 -75 32c-45.333 0 -90.333 -21.333 -135 -64c-52 -50 -94.333 -120 -127 -210c-22 -61.333 -33 -125.666 -33 -192.999c0 -84.667 18 -152.334 54 -203.001
c43.333 -61.333 107 -92 191 -92c42.667 0 74.334 10.333 95.001 31c2.66699 2.66699 5.33398 2.66699 8.00098 0s2.66699 -5.33398 0 -8.00098c-23.333 -23.333 -57.666 -35 -102.999 -35c-91.333 0 -160.333 33 -207 99c-40 56.667 -60 129.667 -60 219
c0 66.667 10.333 128 31 184c34.667 94 80 166.333 136 217c48.667 44 98.334 66 149.001 66c36.667 0 66.667 -12.167 90 -36.5s35 -57.5 35 -99.5c0 -37.333 -10.667 -79.333 -32 -126zM736.995 279.001c-28.667 -0.666992 -63.668 -1.82812 -105.001 -3.49512
s-89.666 -4.16699 -144.999 -7.5l-99 -93l-100 -93c-81.333 -74 -147.333 -126 -198 -156c14.667 -7.33301 31.334 -13.333 50.001 -18s39.667 -8.33398 63 -11.001c7.33301 -1.33301 11 -3 11 -5c0 -5.33301 -6 -7.33301 -18 -6c-47.333 5.33301 -88 15.666 -122 30.999
c-106.667 -62.667 -192.334 -92.667 -257.001 -90c-28 0.666992 -42 9.66699 -42 27c0 7.33301 3 16.666 9 27.999c3.33301 9.33301 8.66602 15.666 15.999 18.999c-6 -14 -9 -25.333 -9 -34c0 -14.667 11.333 -22.334 34 -23.001c60.667 -2 137.334 25.333 230.001 82
c-52.667 24.667 -79 59.334 -79 104.001c0 30.667 13 62 39 94c48 59.333 117.667 102 209 128c46.667 12.667 128.667 25.667 246 39c36 36 73 75.167 111 117.5s77.333 88.833 118 139.5c112 140 168 235 168 285c0 24 -13 36.667 -39 38c-6 0 -9 1.66699 -9 5
c0 6 5.33301 9 16 9c50 -2 75 -23 75 -63c0 -26.667 -11 -61.334 -33 -104.001c3.33301 -4.66699 4 -11.667 2 -21c-10 -40 -22 -92 -36 -156l-49 -231c15.333 3.33301 23 1.33301 23 -6c0 -11.333 -9 -18 -27 -20c-4 -22.667 -12.667 -34 -26 -34
c-7.33301 0 -13.833 3.16699 -19.5 9.5s-8.16699 12.833 -7.5 19.5zM848.994 668.007c-45.333 -71.333 -96.334 -137.333 -153.001 -198c-15.333 -16.667 -37.833 -39.5 -67.5 -68.5l-111.5 -106.5c26.667 2.66699 64.334 4.66699 113.001 6
c56 0.666992 93.667 1.66699 113 3c6 25.333 13.5 53.833 22.5 85.5l30.5 104.5l26 87zM440.993 262.007c-102.667 -18 -185.999 -42.668 -249.999 -74.001c-111.333 -56 -167 -113.667 -167 -173c0 -28.667 16 -55 48 -79c23.333 14.667 50.166 34.334 80.499 59.001
s64.833 54.667 103.5 90l60.5 58zM1439.99 202.006c-2.66699 -64.667 -44.3311 -121.666 -124.998 -170.999c-72.667 -44.667 -159.334 -73 -260.001 -85c-118 -14.667 -213.333 -2.66699 -286 36c-66.667 36 -100 85.333 -100 148c0 50.667 24 99.667 72 147
c53.333 52 128.666 93.667 225.999 125c3.33301 1.33301 16.833 4.33301 40.5 9l102.5 21c-51.333 -1.33301 -96.333 10.667 -135 36c-38 24.667 -55.333 54.667 -52 90c4.66699 45.333 35 87.666 91 126.999c46.667 34 104.334 60.333 173.001 79
c58 15.333 109.333 23 154 23c53.333 0 95.666 -10.667 126.999 -32c27.333 -19.333 41 -42.666 41 -69.999c0 -20.667 -8.5 -39.5 -25.5 -56.5s-39.833 -27.833 -68.5 -32.5c-12.667 -0.666992 -19 1.33301 -19 6c0 6.66699 6 9.66699 18 9
c12.667 -1.33301 24 4.83398 34 18.501s15 29.5 15 47.5c0 24 -9 43.667 -27 59c-21.333 18.667 -54 28 -98 28c-42.667 0 -93.334 -9 -152.001 -27c-55.333 -17.333 -101.333 -43 -138 -77c-38 -34 -59 -70 -63 -108s26 -68 90 -90c55.333 -19.333 117 -27.333 185 -24
c22 0.666992 33 -5.66602 33 -18.999c0 -14.667 -13 -21.334 -39 -20.001c-80.667 2.66699 -167.667 -8 -261 -32c-83.333 -22 -148.666 -55 -195.999 -99c-42 -40 -63 -83 -63 -129c0 -48 22 -88 66 -120c46.667 -34 109.334 -51 188.001 -51c25.333 0 52 2 80 6
c93.333 13.333 174 40.666 242 81.999c74 45.333 113.333 94.666 118 147.999c1.33301 9.33301 4 14 8 14c3.33301 0 4.66602 -5.33301 3.99902 -16z" />
    <glyph glyph-name="Ccedilla" unicode="&#xc7;" horiz-adv-x="865" 
d="M59 409c12 22 27.001 44.333 45.001 67c68.667 88 161 160.667 277 218c-59.333 14.667 -116.333 20.667 -171 18c-58.667 -4 -109.334 -20.333 -152.001 -49c-50.667 -34.667 -75 -79 -73 -133c2 -50.667 26.667 -91 74 -121zM760.001 391l61.002 33.999
c17.333 10 31.666 19.333 42.999 28c44.667 32.667 76.667 69.667 96 111c10.667 22 16 43.667 16 65c0 38.667 -19.333 68.334 -58 89.001c-37.333 19.333 -87 29 -149 29c-97.333 0 -199.333 -22 -306 -66c51.333 -22 101.666 -50.667 150.999 -86
c33.333 -23.333 64.333 -51 93 -83c36.667 -40.667 55 -76 55 -106c0 -3.33301 -0.666992 -8.33301 -2 -15zM997.003 570.999c-43.333 -80 -127.671 -149.334 -253.004 -208.001l-2 -1c-5.33301 -2 -9.33301 -3 -12 -3c-4 0 -5.33301 1.66699 -4 5s4.33301 7 9 11
c5.33301 9.33301 8 19.333 8 30c0 30 -19.667 66.667 -59 110c-28 30 -54 53.667 -78 71c-51.333 36.667 -105 65.667 -161 87c-131.333 -57.333 -235 -135.333 -311 -234c-13.333 -17.333 -25.333 -34.333 -36 -51c42.667 -17.333 88.334 -26 137.001 -26
c60 0 95.667 11 107 33c1.33301 3.33301 3.66602 4 6.99902 2c4 -2 5 -5 3 -9c-6 -12 -21.5 -21.833 -46.5 -29.5s-54.5 -11.5 -88.5 -11.5c-46.667 0 -90 7.66699 -130 23c-33.333 -57.333 -50 -110.333 -50 -159c0 -68.667 31.667 -123 95 -163
c64.667 -39.333 150.667 -59 258 -59c13.333 0 27 0.333008 41 1s28.333 1.66699 43 3c80 6.66699 145 16.667 195 30c90 22.667 161.667 58.667 215 108c4.66699 4 8.33398 6 11.001 6c4 0 5.66699 -3 5 -9c-1.33301 -5.33301 -4 -10 -8 -14
c-44 -38 -113 -73.667 -207 -107c-39.333 -13.333 -76.333 -24.333 -111 -33s-67.334 -15 -98.001 -19c-33.333 -4 -65.666 -6 -96.999 -6c-153.333 0 -262 43.667 -326 131c-63.333 88.667 -64.666 192 -3.99902 310c-52.667 32.667 -79 79.667 -79 141
c-1.33301 59.333 24.334 108 77.001 146c45.333 34.667 99.333 53.334 162 56.001c60.667 2.66699 125.334 -7 194.001 -29c134 61.333 268 92 402 92c74 0 129.333 -15.333 166 -46c30.667 -24.667 46 -57.667 46 -99c0 -28 -6.66699 -54.667 -20 -80zM359.998 -153.002
c0 -28 -17.3311 -53.333 -51.998 -76c-17.333 -11.333 -42.666 -17 -75.999 -17c-23.333 0 -47.333 3.33301 -72 10c-36 8.66699 -54 20.667 -54 36c0 4.66699 2 7 6 7c2.66699 0 7.66699 -3.66699 15 -11c16 -16.667 44.667 -25 86 -25c48 0 80 12 96 36
c9.33301 15.333 14 29 14 41c0 18 -8.33301 32.333 -25 43c-14.667 9.33301 -31.334 14 -50.001 14c-14.667 0 -30.334 -4 -47.001 -12c-16 -8 -24.333 -12 -25 -12c-12.667 0 -19 5 -19 15c0 4 1.33301 7.33301 4 10c1.33301 1.33301 5.5 4.5 12.5 9.5
s16.167 12.167 27.5 21.5c23.333 17.333 35.666 26 36.999 26c3.33301 0 6 -2.66699 8 -8c-29.333 -22 -44 -33.667 -44 -35c12.667 2 25.667 3 39 3c26.667 0 52 -5.66699 76 -17c28.667 -14 43 -33.667 43 -59z" />
    <glyph glyph-name="Egrave" unicode="&#xc8;" horiz-adv-x="794" 
d="M769 614c22 8.66699 33.001 29.668 33.001 63.001c0 24 -9 43.667 -27 59c-21.333 18.667 -54 28 -98 28c-42.667 0 -93.334 -9 -152.001 -27s-107.334 -46.333 -146.001 -85c46.667 18 93.334 31 140.001 39c10.667 1.33301 23.167 2.5 37.5 3.5s30.833 1.5 49.5 1.5
c114.667 0 172 -20.667 172 -62c0 -6.66699 -3 -13.334 -9 -20.001zM80.001 277.001c53.333 52 128.667 93.667 226 125c6.66699 2 54.667 12 144 30c-52 -0.666992 -97.333 11.333 -136 36c-38 24.667 -55 54.667 -51 90l2 12c0.666992 4 1.66699 8 3 12
c-130.667 -74.667 -196 -161 -196 -259c0 -16 2.66699 -31.333 8 -46zM779.002 202.001c-2.66699 -64.667 -44 -121.667 -124 -171c-72 -44.667 -159 -73 -261 -85c-31.333 -4 -60.666 -6 -87.999 -6c-86 0 -155.667 16.333 -209 49c-51.333 30 -80.333 69.333 -87 118
c-8 48.667 7.66699 97 47 145c-6.66699 14 -10 31 -10 51c0 120 77.333 221.333 232 304c37.333 69.333 119.666 121.666 246.999 156.999c58 15.333 109.333 23 154 23c53.333 0 95.666 -10.667 126.999 -32c27.333 -19.333 41 -42.666 41 -69.999
c0 -20.667 -8.16699 -39.5 -24.5 -56.5s-39.5 -27.833 -69.5 -32.5h-7h-3c-5.33301 1.33301 -8 3 -8 5c0 6.66699 5 10 15 10c10 4.66699 15 12.334 15 23.001c0 30.667 -48.333 46 -145 46c-42.667 0 -76.334 -2 -101.001 -6c-52.667 -8.66699 -108 -25.334 -166 -50.001
c-17.333 -24 -27.333 -48 -30 -72c-4 -38 26 -68 90 -90c56 -19.333 117.667 -27.333 185 -24c22 0.666992 33 -5.66602 33 -18.999c0 -14.667 -12.667 -21.334 -38 -20.001c-81.333 2.66699 -168.666 -8 -261.999 -32c-104 -26.667 -178.333 -70 -223 -130
c28 -26 65.667 -39 113 -39c20 0 39.833 2.5 59.5 7.5s41.5 15.833 65.5 32.5c29.333 20 44 39 44 57c0 4.66699 -1.33301 9.33398 -4 14.001c-2.66699 3.33301 -2.33398 5.66602 0.999023 6.99902c1.33301 0.666992 3.33301 -0.666016 6 -3.99902
c3.33301 -6.66699 5 -13 5 -19c0 -20 -14.333 -41.333 -43 -64c-23.333 -18 -45.666 -30.667 -66.999 -38c-30 -10.667 -60.667 -16 -92 -16c-43.333 0 -78.666 10.667 -105.999 32c-11.333 -24 -17 -46.667 -17 -68c0 -48 21.667 -88 65 -120
c46.667 -34 109.334 -51 188.001 -51c26 0 52.667 2 80 6c93.333 13.333 174 40.666 242 81.999c74 44.667 113.333 94 118 148c1.33301 9.33301 4 14 8 14c3.33301 0 4.66602 -5.33301 3.99902 -16zM629.002 916.001c-6.66699 6 -10 14.3301 -10 24.9971
c0 12.667 4.66699 19 14 19c6 0 13.667 -3.66699 23 -11c16 -11.333 34.5 -25.166 55.5 -41.499l70.5 -55.5c3.33301 -3.33301 5 -6.66602 5 -9.99902c0 -7.33301 -4 -11 -12 -11c-2 0 -5 0.666992 -9 2c-52 28.667 -97.667 56.334 -137 83.001z" />
    </font>
</defs>
</svg>
