<?xml version="1.0" encoding="utf-8"?>
<!-- Generator: Adobe Illustrator 17.1.0, SVG Export Plug-In . SVG Version: 6.00 Build 0)  -->
<!DOCTYPE svg PUBLIC "-//W3C//DTD SVG 1.1//EN" "http://www.w3.org/Graphics/SVG/1.1/DTD/svg11.dtd">
<svg version="1.1" id="Layer_1" xmlns="http://www.w3.org/2000/svg" xmlns:xlink="http://www.w3.org/1999/xlink" x="0px" y="0px"
	 viewBox="0 0 48 48" enable-background="new 0 0 48 48" xml:space="preserve">
<g id="Shopping_Bag_2" display="none">
	<g display="inline">
		<path fill="#FFFFFF" d="M40.5,40.4l-1.7-26.3c0-0.4-0.4-0.8-0.8-0.8h-7.2c0,0,0,0,0-0.1c0-3.7-3-6.7-6.7-6.7s-6.7,3-6.7,6.7v0.1
			h-7.2c-0.4,0-0.8,0.3-0.9,0.8L7.5,40.6c0,0.2,0.1,0.5,0.2,0.6c0.2,0.2,0.4,0.3,0.6,0.3h31.3c0,0,0,0,0,0c0.5,0,0.9-0.4,0.9-0.9
			C40.5,40.5,40.5,40.5,40.5,40.4z M19,13.3c0-2.8,2.3-5,5-5s5,2.3,5,5c0,0,0,0,0,0.1L19,13.3L19,13.3z M9.3,39.8L10.9,15h6.4V17
			c-0.4,0.3-0.7,0.7-0.7,1.3c0,0.9,0.7,1.6,1.6,1.6c0.9,0,1.6-0.7,1.6-1.6c0-0.5-0.3-1-0.7-1.3V15H29V17c-0.4,0.3-0.7,0.7-0.7,1.3
			c0,0.9,0.7,1.6,1.6,1.6c0.9,0,1.6-0.7,1.6-1.6c0-0.5-0.3-1-0.7-1.3V15h6.4l1.6,24.7L9.3,39.8L9.3,39.8z"/>
	</g>
	<g display="inline">
		<path fill="#FFFFFF" d="M40.5,40.4l-1.7-26.3c0-0.4-0.4-0.8-0.8-0.8h-7.2c0,0,0,0,0-0.1c0-3.7-3-6.7-6.7-6.7s-6.7,3-6.7,6.7v0.1
			h-7.2c-0.4,0-0.8,0.3-0.9,0.8L7.5,40.6c0,0.2,0.1,0.5,0.2,0.6c0.2,0.2,0.4,0.3,0.6,0.3h31.3c0,0,0,0,0,0c0.5,0,0.9-0.4,0.9-0.9
			C40.5,40.5,40.5,40.5,40.5,40.4z M19,13.3c0-2.8,2.3-5,5-5s5,2.3,5,5c0,0,0,0,0,0.1L19,13.3L19,13.3z M9.3,39.8L10.9,15h6.4V17
			c-0.4,0.3-0.7,0.7-0.7,1.3c0,0.9,0.7,1.6,1.6,1.6c0.9,0,1.6-0.7,1.6-1.6c0-0.5-0.3-1-0.7-1.3V15H29V17c-0.4,0.3-0.7,0.7-0.7,1.3
			c0,0.9,0.7,1.6,1.6,1.6c0.9,0,1.6-0.7,1.6-1.6c0-0.5-0.3-1-0.7-1.3V15h6.4l1.6,24.7L9.3,39.8L9.3,39.8z"/>
	</g>
</g>
<g display="none">
	<path display="inline" fill="#FFFFFF" stroke="#FFFFFF" stroke-width="0.75" stroke-miterlimit="10" d="M32.3,24.5
		c0,0.6-0.3,1.1-1,1.6c-0.5,0.4-1.2,0.7-1.9,1c-0.2,0.1-0.3,0.1-0.4,0c0,0,0-0.1,0.1-0.2c0.1-0.1,0.1-0.3,0.1-0.5
		c0-0.5-0.3-1-0.8-1.7c-0.4-0.5-0.9-1-1.3-1.3c-0.1-0.1-0.2-0.2-0.4-0.2s-0.2-0.2-0.4-0.2c-1,0.2-1.9,0.4-2.6,0.6
		c-2.1,0.7-3.9,1.7-5.2,3.1c0.7,0.3,1.5,0.5,2.4,0.5c1,0,1.6-0.2,1.7-0.5c0-0.1,0.1-0.1,0.1,0c0.1,0,0.1,0.1,0,0.1
		c-0.1,0.2-0.4,0.4-0.8,0.5s-0.9,0.2-1.5,0.2c-0.9,0-1.7-0.1-2.4-0.4c-1.3,1.4-2,2.9-2,4.5c0,1.1,0.5,2,1.6,2.6
		c1,0.6,2.2,0.8,3.7,0.8c1.9,0,3.6-0.5,5-1.4c1.5-1,2.2-2.4,2-4.1c-0.5,0-1,0-1.5,0c-0.5,0-1,0.1-1.4,0.2c-0.3,0-0.7,0.1-1.1,0.2
		c-0.4,0.1-0.9,0.2-1.4,0.3c-0.6,0.1-1.1,0.3-1.6,0.4s-0.9,0.2-1.2,0.2c-0.1-0.2,0-0.4,0.1-0.6c0.1-0.2,0.2-0.4,0.4-0.4
		c0.7-0.3,2.3-0.5,4.8-0.7c0.5,0,1-0.1,1.5-0.1c0.5,0,0.9,0,1.3,0c1.5,0,2.6,0.1,3.3,0.4c0.2,0.1,0.3,0.2,0.3,0.3c0,0,0,0.1,0,0.2
		c0,0.1,0,0.2,0,0.3c-0.9-0.3-1.8-0.4-2.8-0.5c0.3,0.3,0.4,0.7,0.4,1.2c0,1.3-1,2.4-2.9,3.4c-1.8,1-3.8,1.5-5.9,1.5
		c-1.6,0-2.8-0.3-3.7-1c-1-0.8-1.6-1.9-1.6-3.4c0-1.7,0.7-3.2,2-4.6c-0.7-0.5-1-1.2-1-2c0-0.9,0.5-1.7,1.4-2.4
		c0.9-0.6,1.8-0.9,2.8-0.9c1.6-0.1,3.2,0.3,4.9,1.1c1.2-0.3,2.3-0.4,3.2-0.4c1.3,0,2.3,0.3,2.8,1C32.1,23.5,32.3,24,32.3,24.5z
		 M17.9,26.3c1.5-1.5,3.4-2.6,5.8-3.4c0.3-0.1,0.6-0.2,0.8-0.3s0.5-0.2,0.8-0.2c-1.3-0.6-2.7-0.9-4.2-0.9c-0.9,0-1.8,0.3-2.7,0.8
		c-1,0.6-1.5,1.3-1.4,2.2C17,25.2,17.3,25.8,17.9,26.3z M29.5,26.8c0.4-0.2,0.9-0.7,1.3-1.2c0.5-0.6,0.8-1.1,0.8-1.5
		c0-0.9-0.8-1.3-2.4-1.3c-0.3,0-0.7,0-1.1,0.1c-0.4,0-0.8,0.1-1.3,0.2c0.1,0.1,0.2,0.1,0.4,0.2c0.1,0.1,0.2,0.2,0.4,0.2
		c0.5,0.4,1,0.8,1.4,1.3c0.4,0.6,0.7,1.1,0.7,1.6C29.6,26.5,29.6,26.7,29.5,26.8z"/>
</g>
<g id="Love" display="none">
	<g display="inline">
		<path fill="#FFFFFF" d="M68.8,13.8c-3.7,0-6.8,3-6.8,6.8c0,0.4,0.3,0.8,0.8,0.8c0.4,0,0.8-0.4,0.8-0.8c0-2.9,2.3-5.2,5.2-5.2
			c0.4,0,0.8-0.4,0.8-0.8C69.6,14.1,69.3,13.8,68.8,13.8z M93.6,20.4c0-5.6-4.6-10.2-10.2-10.2c-2.8,0-5.4,1.1-7.3,3.1
			c-1.9-2-4.5-3.1-7.3-3.1c-5.6,0-10.2,4.6-10.2,10.2c0,2.6,1,5.1,2.8,7c0,0,0.1,0.1,0.1,0.1l0.1,0.1l0,0L74.5,40
			c0.4,0.4,1,0.6,1.6,0.6c0.6,0,1.2-0.2,1.6-0.7c0.4-0.4,10.6-10,12.9-12.3c0,0,0,0,0,0l0,0c0,0,0.1-0.1,0.1-0.1
			C92.6,25.6,93.6,23.1,93.6,20.4z M89.6,26.5C89.6,26.5,89.6,26.5,89.6,26.5C89.6,26.5,89.5,26.5,89.6,26.5
			C89.5,26.5,89.5,26.5,89.6,26.5c-2.3,2.3-12.9,12.4-12.9,12.4c-0.1,0.1-0.3,0.2-0.5,0.2s-0.4-0.1-0.5-0.2L62.7,26.5
			c0,0,0,0-0.1-0.1l-0.1-0.1c0,0,0,0,0,0c-1.5-1.5-2.4-3.7-2.4-6c0-4.8,3.9-8.6,8.6-8.6c3.1,0,5.8,1.6,7.3,4
			c1.5-2.4,4.2-4.1,7.3-4.1c4.8,0,8.6,3.9,8.6,8.6C92.1,22.8,91.1,24.9,89.6,26.5z"/>
	</g>
</g>
<g>
	<path fill="#FFFFFF" d="M38.6,19.9c0,0,0.1-0.7-0.6-0.8h-4.4L26.7,12l0,0c0.1-0.1,0.1-0.4,0.1-0.5c0-0.8-0.6-1.4-1.4-1.4
		c-0.8,0-1.4,0.6-1.4,1.4s0.6,1.4,1.4,1.4c0.2,0,0.4,0,0.5-0.1l0.1,0l5.8,6.3H16.2l5.9-6.3l0,0c0.2,0.1,0.3,0.1,0.5,0.1
		c0.8,0,1.4-0.6,1.4-1.4s-0.6-1.4-1.4-1.4c-0.8,0-1.4,0.6-1.4,1.4c0,0.2,0,0.3,0.1,0.5l0,0l-6.8,7.1H10c0,0-0.6,0-0.7,0.6v2.8
		c0,0,0,0.6,0.7,0.5l27.9,0c0,0,0.8,0.1,0.8-0.6C38.6,21.9,38.6,19.9,38.6,19.9z"/>
	<path fill="#FFFFFF" d="M10.6,24.5L10.6,24.5c0,0,2.8,9.3,3.7,11.1c0.6,1.3,1.7,1.9,2.3,2.1c0.2,0.1,0.4,0.1,0.6,0.1
		c1.8,0,13.3,0.2,14.1,0c2.1-0.6,2.9-2.7,2.9-2.7l3.3-10.6H10.6z M17.9,35.2c-1,0-1-0.5-1.1-1l-1.2-6.9c0-0.2-0.1-0.9,0.6-0.9l0.9,0
		c0.4,0.1,0.5,0.3,0.6,0.9l1.2,6.9C19,34.8,18.9,35.2,17.9,35.2z M21,35.2c-0.8,0-1-0.1-1.1-1l-0.6-6.8c0-0.5,0-1,0.9-1h0.4
		c0.7,0,0.9,0.4,1,1l0.4,6.8C22.1,35,21.9,35.2,21,35.2z M25.3,34.2c0,0.8-0.1,1-1.1,1c-0.9,0-1-0.3-1.1-1v-6.8c0-0.6,0.1-1,1.1-1
		c0.9,0,1.1,0.3,1.1,1V34.2z M29.1,27.4l-0.6,6.8c-0.1,0.9-0.3,1-1.1,1c-0.9,0-1.1-0.2-1.1-1l0.4-6.8c0.1-0.7,0.3-1,1-1h0.4
		C29.1,26.4,29.2,26.9,29.1,27.4z M32.8,27.3l-1.2,6.9c-0.1,0.6-0.1,1.1-1.1,1c-1,0-1.1-0.4-1.1-1l1.2-6.9c0.1-0.6,0.2-0.8,0.6-0.9
		l0.9,0C32.9,26.4,32.8,27.1,32.8,27.3z"/>
</g>
</svg>
