<?xml version="1.0" encoding="utf-8"?>
<!-- Generator: Adobe Illustrator 17.1.0, SVG Export Plug-In . SVG Version: 6.00 Build 0)  -->
<!DOCTYPE svg PUBLIC "-//W3C//DTD SVG 1.1//EN" "http://www.w3.org/Graphics/SVG/1.1/DTD/svg11.dtd">
<svg version="1.1" id="Слой_1" xmlns="http://www.w3.org/2000/svg" xmlns:xlink="http://www.w3.org/1999/xlink" x="0px" y="0px"
	 viewBox="0 0 24 24" enable-background="new 0 0 24 24" xml:space="preserve">
<image display="none" overflow="visible" width="128" height="128" xlink:href="../Downloads/shopping-basket.png"  transform="matrix(1 0 0 1 -51.5417 -52.0833)">
</image>
<path fill="#FFFFFF" d="M20.1,9.8c0,0,0-0.4-0.4-0.4h-2.5l-3.8-4l0,0c0.1-0.1,0.1-0.2,0.1-0.3c0-0.4-0.4-0.8-0.8-0.8
	c-0.4,0-0.8,0.4-0.8,0.8c0,0.4,0.4,0.8,0.8,0.8c0.1,0,0.2,0,0.3-0.1l0.1,0l3.2,3.5H7.6l3.3-3.5l0,0c0.1,0,0.2,0.1,0.3,0.1
	c0.4,0,0.8-0.4,0.8-0.8c0-0.4-0.4-0.8-0.8-0.8s-0.8,0.4-0.8,0.8c0,0.1,0,0.2,0,0.3l0,0l-3.8,4H4.2c0,0-0.4,0-0.4,0.4v1.6
	c0,0,0,0.3,0.4,0.3l15.5,0c0,0,0.4,0.1,0.4-0.3C20.1,10.9,20.1,9.8,20.1,9.8z"/>
<path fill="#FFFFFF" d="M4.5,12.4L4.5,12.4c0,0,1.6,5.2,2,6.2c0.4,0.7,1,1,1.3,1.2c0.1,0,0.2,0.1,0.3,0.1c1,0,7.4,0.1,7.9,0
	c1.1-0.3,1.6-1.5,1.6-1.5l1.8-5.9H4.5z M8.6,18.3C8,18.3,8,18.1,8,17.8l-0.7-3.9c0-0.1-0.1-0.5,0.4-0.5l0.5,0c0.2,0,0.3,0.2,0.4,0.5
	l0.6,3.9C9.2,18.1,9.1,18.3,8.6,18.3z M10.3,18.3c-0.4,0-0.6-0.1-0.6-0.6L9.4,14c0-0.3,0-0.6,0.5-0.6h0.2c0.4,0,0.5,0.2,0.6,0.6
	l0.2,3.8C10.9,18.2,10.8,18.3,10.3,18.3z M12.7,17.8c0,0.4-0.1,0.6-0.6,0.6c-0.5,0-0.6-0.2-0.6-0.6V14c0-0.4,0.1-0.6,0.6-0.6
	c0.5,0,0.6,0.2,0.6,0.6V17.8z M14.8,14l-0.3,3.8c-0.1,0.5-0.2,0.6-0.6,0.6c-0.5,0-0.6-0.1-0.6-0.6l0.2-3.8c0-0.4,0.2-0.6,0.6-0.6
	h0.2C14.8,13.4,14.9,13.7,14.8,14z M16.9,13.9l-0.7,3.9c-0.1,0.3-0.1,0.6-0.6,0.6c-0.6,0-0.6-0.2-0.6-0.6l0.6-3.9
	c0.1-0.3,0.1-0.5,0.4-0.5l0.5,0C16.9,13.4,16.9,13.8,16.9,13.9z"/>
</svg>
