<?xml version="1.0" encoding="utf-8"?>
<!-- Generator: Adobe Illustrator 17.1.0, SVG Export Plug-In . SVG Version: 6.00 Build 0)  -->
<!DOCTYPE svg PUBLIC "-//W3C//DTD SVG 1.1//EN" "http://www.w3.org/Graphics/SVG/1.1/DTD/svg11.dtd">
<svg version="1.1" id="Слой_1" xmlns="http://www.w3.org/2000/svg" xmlns:xlink="http://www.w3.org/1999/xlink" x="0px" y="0px"
	 viewBox="113 13 24 24" enable-background="new 113 13 24 24" xml:space="preserve">
<path fill="#FFFFFF" d="M133.9,22.7c0,0,0-0.4-0.4-0.4h-2.7l-4.2-4.4l0,0c0.1-0.1,0.1-0.2,0.1-0.3c0-0.4-0.4-0.9-0.9-0.9
	c-0.4,0-0.9,0.4-0.9,0.9s0.4,0.9,0.9,0.9c0.1,0,0.2,0,0.3-0.1h0.1l3.5,3.8h-9.6l3.6-3.8l0,0c0.1,0,0.2,0.1,0.3,0.1
	c0.4,0,0.9-0.4,0.9-0.9c0-0.4-0.4-0.9-0.9-0.9s-0.9,0.4-0.9,0.9c0,0.1,0,0.2,0,0.3l0,0l-4.2,4.4h-2.6c0,0-0.4,0-0.4,0.4v1.8
	c0,0,0,0.3,0.4,0.3h17c0,0,0.4,0.1,0.4-0.3C133.9,23.9,133.9,22.7,133.9,22.7z"/>
<path fill="#FFFFFF" d="M116.7,25.6L116.7,25.6c0,0,1.8,5.7,2.2,6.8c0.4,0.8,1.1,1.1,1.4,1.3c0.1,0,0.2,0.1,0.3,0.1
	c1.1,0,8.1,0.1,8.7,0c1.2-0.3,1.8-1.6,1.8-1.6l2-6.5h-16.4V25.6z M121.2,32c-0.7,0-0.7-0.2-0.7-0.5l-0.8-4.3c0-0.1-0.1-0.5,0.4-0.5
	h0.5c0.2,0,0.3,0.2,0.4,0.5l0.7,4.3C121.9,31.8,121.8,32,121.2,32z M123.1,32c-0.4,0-0.7-0.1-0.7-0.7l-0.3-4.1c0-0.3,0-0.7,0.5-0.7
	h0.2c0.4,0,0.5,0.2,0.7,0.7l0.2,4.2C123.7,31.9,123.6,32,123.1,32z M125.7,31.5c0,0.4-0.1,0.7-0.7,0.7c-0.5,0-0.7-0.2-0.7-0.7v-4.2
	c0-0.4,0.1-0.7,0.7-0.7c0.5,0,0.7,0.2,0.7,0.7V31.5z M128,27.3l-0.3,4.2c-0.1,0.5-0.2,0.7-0.7,0.7c-0.5,0-0.7-0.1-0.7-0.7l0.2-4.2
	c0-0.4,0.2-0.7,0.7-0.7h0.2C128,26.7,128.1,27,128,27.3z M130.3,27.2l-0.8,4.3c-0.1,0.3-0.1,0.7-0.7,0.7c-0.7,0-0.7-0.2-0.7-0.7
	l0.7-4.3c0.1-0.3,0.1-0.5,0.4-0.5h0.5C130.3,26.7,130.3,27.1,130.3,27.2z"/>
</svg>
