<?xml version="1.0" encoding="utf-8"?>
<!-- Generator: Adobe Illustrator 21.0.2, SVG Export Plug-In . SVG Version: 6.00 Build 0)  -->
<svg version="1.1" id="Capa_1" xmlns="http://www.w3.org/2000/svg" xmlns:xlink="http://www.w3.org/1999/xlink" x="0px" y="0px"
	 viewBox="0 0 25 25" style="enable-background:new 0 0 25 25;" xml:space="preserve">
<style type="text/css">
	.st0{fill:#D9017A;}
</style>
<g>
	<path class="st0" d="M12.5,0C5.6,0,0,5.6,0,12.5c0,0.3,0.2,0.6,0.6,0.6s0.6-0.2,0.6-0.6c0-6.3,5.1-11.4,11.4-11.4
		s11.4,5.1,11.4,11.4s-5.1,11.4-11.4,11.4c-2.3,0-4.6-0.7-6.5-2c-1.9-1.3-3.3-3.1-4.1-5.2c-0.1-0.3-0.4-0.4-0.7-0.3
		c-0.3,0.1-0.4,0.4-0.3,0.7c0.9,2.3,2.5,4.3,4.5,5.7c2.1,1.4,4.5,2.2,7.1,2.2C19.4,25,25,19.4,25,12.5S19.4,0,12.5,0z"/>
	<path class="st0" d="M12.5,2.9c-5.3,0-9.6,4.3-9.6,9.6s4.3,9.6,9.6,9.6s9.6-4.3,9.6-9.6c0-2.9-1.3-5.6-3.5-7.4
		c-0.2-0.2-0.6-0.2-0.8,0.1c-0.2,0.2-0.2,0.6,0.1,0.8c2,1.6,3.1,4,3.1,6.6c0,4.7-3.8,8.5-8.5,8.5S4,17.2,4,12.5S7.8,4,12.5,4
		c0.3,0,0.6-0.2,0.6-0.6S12.8,2.9,12.5,2.9z"/>
	<path class="st0" d="M12.5,5.7c-0.3,0-0.6,0.2-0.6,0.6v6.2c0,0.1,0.1,0.3,0.2,0.4l2.4,2.4c0.1,0.1,0.2,0.2,0.4,0.2s0.3-0.1,0.4-0.2
		c0.2-0.2,0.2-0.6,0-0.8l-2.2-2.2v-6C13.1,6,12.8,5.7,12.5,5.7z"/>
</g>
</svg>
