<?xml version="1.0" encoding="utf-8"?>
<!-- Generator: Adobe Illustrator 21.0.2, SVG Export Plug-In . SVG Version: 6.00 Build 0)  -->
<svg version="1.1" id="Слой_1" xmlns="http://www.w3.org/2000/svg" xmlns:xlink="http://www.w3.org/1999/xlink" x="0px" y="0px"
	 viewBox="0 0 23.7 24" style="enable-background:new 0 0 23.7 24;" xml:space="preserve">
<style type="text/css">
	.st0{display:none;}
	.st1{display:inline;fill:#D9017A;}
	.st2{display:none;fill:#D9017A;}
	.st3{fill:#D9017A;}
</style>
<g class="st0">
	<path class="st1" d="M22.9,8.9c0,0,0-0.5-0.5-0.5h-3.2l-5-5.3l0,0c0.1-0.1,0.1-0.2,0.1-0.4c0-0.5-0.5-1.1-1.1-1.1
		c-0.5,0-1.1,0.5-1.1,1.1s0.5,1.1,1.1,1.1c0.1,0,0.2,0,0.4-0.1h0.1l4.2,4.6H6.3l4.3-4.6l0,0c0.1,0,0.2,0.1,0.4,0.1
		c0.5,0,1.1-0.5,1.1-1.1c0-0.5-0.5-1.1-1.1-1.1S9.9,2.2,9.9,2.8c0,0.1,0,0.2,0,0.4l0,0l-5,5.3H1.8c0,0-0.5,0-0.5,0.5v2.2
		c0,0,0,0.4,0.5,0.4h20.4c0,0,0.7,0.1,0.7-0.4L22.9,8.9z"/>
	<path class="st1" d="M2.3,12.4L2.3,12.4c2.2,7,2.1,6.7,2.6,8.1c0.5,1,1.3,1.3,1.7,1.6c0.1,0,0.2,0.1,0.4,0.1c1.3,0,9.7,0.1,10.4,0
		c1.4-0.4,2.2-1.9,2.2-1.9l2.4-7.8L2.3,12.4C2.3,12.4,2.3,12.4,2.3,12.4z M7.8,20.3c-0.8,0-0.9-0.6-0.9-0.6l-1-5.4
		c0-0.1-0.1-0.6,0.5-0.6l0.6,0c0.2,0,0.4,0.2,0.5,0.6l1,5.3C8.5,20,8.5,20.3,7.8,20.3z M9.9,20.3c-0.5,0-0.8-0.1-0.8-0.8l-0.4-5
		c0-0.4,0-0.8,0.6-0.8h0.2c0.5,0,0.8,0.1,0.8,0.8l0.3,5.2C10.6,20.2,10.5,20.3,9.9,20.3z M13,19.5c0,0.5-0.1,0.8-0.8,0.8
		c-0.6,0-0.8-0.2-0.8-0.8v-5c0-0.5,0.1-0.8,0.8-0.8c0.6,0,0.8,0.2,0.8,0.8V19.5z M15.8,14.4l-0.4,5c-0.1,0.6-0.2,0.8-0.8,0.8
		c-0.6,0-0.8-0.1-0.8-0.8l0.3-5c0-0.5,0.2-0.8,0.8-0.8l0.2,0C15.8,13.7,15.8,14,15.8,14.4z M18.5,14.3l-1,5.2
		c-0.1,0.4-0.1,0.8-0.8,0.8c-0.8,0-0.8-0.2-0.8-0.8l0.8-5.2c0-0.3,0.1-0.7,0.5-0.7l0.5,0C18.5,13.7,18.5,14.2,18.5,14.3z"/>
</g>
<path class="st2" d="M37.1,8.4H26c-0.3,0-0.5-0.2-0.5-0.5V7.7c0-0.3,0.2-0.5,0.5-0.5h11.1c0.3,0,0.5,0.2,0.5,0.5v0.1
	C37.6,8.1,37.3,8.4,37.1,8.4z"/>
<path class="st2" d="M39.8,12.2h-11c-0.3,0-0.6-0.2-0.6-0.6v0c0-0.3,0.2-0.6,0.6-0.6h11c0.3,0,0.6,0.2,0.6,0.6v0
	C40.3,12,40.1,12.2,39.8,12.2z"/>
<path class="st2" d="M34.4,16h-11c-0.3,0-0.6-0.2-0.6-0.6v0c0-0.3,0.2-0.6,0.6-0.6h11c0.3,0,0.6,0.2,0.6,0.6v0
	C34.9,15.8,34.7,16,34.4,16z"/>
<g>
	<path class="st3" d="M21.7,11.2h-9v-9c0-0.5-0.3-0.8-0.8-0.8s-0.8,0.3-0.8,0.8v9h-9c-0.5,0-0.8,0.3-0.8,0.8s0.3,0.8,0.8,0.8h9v9
		c0,0.5,0.3,0.8,0.8,0.8s0.8-0.3,0.8-0.8v-9h9c0.5,0,0.8-0.3,0.8-0.8S22.2,11.2,21.7,11.2z"/>
</g>
</svg>
