<?xml version="1.0" encoding="utf-8"?>
<!-- Generator: Adobe Illustrator 21.0.2, SVG Export Plug-In . SVG Version: 6.00 Build 0)  -->
<svg version="1.1" baseProfile="tiny" id="Capa_1" xmlns="http://www.w3.org/2000/svg" xmlns:xlink="http://www.w3.org/1999/xlink"
	 x="0px" y="0px" viewBox="0 0 40 40" xml:space="preserve">
<path fill="#D9017A" d="M20,5C11.7,5,5,11.7,5,20s6.7,15,15,15s15-6.7,15-15S28.3,5,20,5z M20,33.5c-7.5,0-13.5-6.1-13.5-13.5
	c0-7.5,6.1-13.5,13.5-13.5c7.5,0,13.5,6.1,13.5,13.5S27.5,33.5,20,33.5z M23.5,26.3v1.6c0,0.1-0.1,0.1-0.1,0.1h-5.7
	c-0.1,0-0.1-0.1-0.1-0.1v-1.6c0-0.1,0.1-0.1,0.1-0.1h1.6v-8.3h-1.7c-0.1,0-0.1-0.1-0.1-0.1v-1.6c0-0.1,0.1-0.1,0.1-0.1h3.9
	c0.1,0,0.1,0.1,0.1,0.1v10h1.7C23.4,26.2,23.5,26.3,23.5,26.3z M18.3,13.2c0-1,0.8-1.8,1.8-1.8s1.8,0.8,1.8,1.8S21.1,15,20.1,15
	S18.3,14.2,18.3,13.2z"/>
</svg>
