<?xml version="1.0" encoding="utf-8"?>
<!-- Generator: Adobe Illustrator 17.0.0, SVG Export Plug-In . SVG Version: 6.00 Build 0)  -->
<!DOCTYPE svg PUBLIC "-//W3C//DTD SVG 1.1//EN" "http://www.w3.org/Graphics/SVG/1.1/DTD/svg11.dtd" [
	<!ENTITY ns_flows "http://ns.adobe.com/Flows/1.0/">
	<!ENTITY ns_extend "http://ns.adobe.com/Extensibility/1.0/">
	<!ENTITY ns_ai "http://ns.adobe.com/AdobeIllustrator/10.0/">
	<!ENTITY ns_graphs "http://ns.adobe.com/Graphs/1.0/">
]>
<svg version="1.1" id="Слой_1" xmlns:x="&ns_extend;" xmlns:i="&ns_ai;" xmlns:graph="&ns_graphs;"
	 xmlns="http://www.w3.org/2000/svg" xmlns:xlink="http://www.w3.org/1999/xlink" xmlns:a="http://ns.adobe.com/AdobeSVGViewerExtensions/3.0/"
	 x="0px" y="0px" width="30px" height="30px" viewBox="0 0 30 30" enable-background="new 0 0 30 30" xml:space="preserve">
<g id="Shape_1_copy">
	<g>
		<path fill="#DB2D70" d="M8.16,15.821c-1.328,0.452-1.973,1.727-1.523,3.049c0.449,1.322,1.738,1.94,3.066,1.488
			c1.322-0.449,1.966-1.725,1.517-3.047C10.77,15.99,9.481,15.371,8.16,15.821z M9.421,19.529c-0.815,0.277-1.547-0.171-1.824-0.986
			c-0.279-0.822,0.03-1.617,0.845-1.894c0.809-0.275,1.538,0.166,1.818,0.988C10.536,18.453,10.229,19.254,9.421,19.529z
			 M9.66,6.711C9.418,6.554,9.211,6.349,9.052,6.108l-3.876,4.468l1.616-0.558L9.66,6.711z M17.29,6.391l1.616-0.558l-6.042-1.168
			c0.014,0.097,0.03,0.193,0.03,0.293c0,0.198-0.036,0.385-0.087,0.566L17.29,6.391z M17.382,16.742l-0.34-0.999l2.124-0.722
			l-0.279-0.822l-2.124,0.722L16.449,14l2.17-0.738L18.34,12.44l-3.104,1.055l1.491,4.386l3.104-1.055l-0.279-0.822L17.382,16.742z
			 M29.186,16.242l-2.913-8.845c-0.507-1.539-2.171-2.378-3.71-1.871l-19.737,6.5c-1.539,0.507-2.378,2.171-1.872,3.71l2.913,8.845
			c0.507,1.539,2.171,2.378,3.71,1.872l19.737-6.5C28.853,19.445,29.692,17.781,29.186,16.242z M26.963,18.886l-19.737,6.5
			c-0.951,0.313-2.002-0.198-2.315-1.149l-2.913-8.845c-0.313-0.951,0.229-1.987,1.18-2.3l19.737-6.5
			c0.951-0.313,2.002,0.198,2.315,1.149l2.913,8.845C28.456,17.537,27.914,18.572,26.963,18.886z M13.18,14.195l-2.052,0.698
			l1.491,4.386l0.934-0.318l-0.532-1.565l1.118-0.38c0.947-0.322,1.254-1.145,0.994-1.908C14.872,14.338,14.133,13.87,13.18,14.195z
			 M13.728,16.238l-0.986,0.335l-0.4-1.177l0.986-0.335c0.368-0.125,0.727,0.002,0.852,0.37
			C14.303,15.793,14.096,16.113,13.728,16.238z M22.06,11.175l0.937,2.755l-2.969-2.064l-0.96,0.326l1.491,4.386l0.934-0.318
			l-0.973-2.86l3.064,2.149l0.901-0.306l-1.491-4.386L22.06,11.175z M10.798,6.383c0.788,0,1.427-0.639,1.427-1.427
			c0-0.788-0.639-1.427-1.427-1.427c-0.788,0-1.427,0.639-1.427,1.427C9.371,5.744,10.01,6.383,10.798,6.383z"/>
	</g>
</g>
</svg>
