<?xml version="1.0" encoding="utf-8"?>
<!-- Generator: Adobe Illustrator 21.0.2, SVG Export Plug-In . SVG Version: 6.00 Build 0)  -->
<svg version="1.1" id="Layer_1" xmlns="http://www.w3.org/2000/svg" xmlns:xlink="http://www.w3.org/1999/xlink" x="0px" y="0px"
	 viewBox="0 0 40 40" style="enable-background:new 0 0 40 40;" xml:space="preserve">
<style type="text/css">
	.st0{fill:#D9017A;stroke:#D9017A;stroke-width:5.000000e-02;stroke-miterlimit:10;}
</style>
<g id="User">
	<g>
		<path class="st0" d="M20,5.3C11.9,5.3,5.3,11.9,5.3,20S11.9,34.8,20,34.8S34.8,28.1,34.8,20S28.1,5.3,20,5.3z M20,33.4
			c-3.5,0-6.6-1.3-9-3.5c0.7-0.5,1.7-0.8,3-1.1c1.3-0.3,3.3-0.5,3.2-2.1c0.4,0,0.7,0.4,1.2,0.6c1.6,0.6,3.5,0.3,4.6-0.8
			c-0.2,1.7,1.8,1.9,3.2,2.3c1.2,0.3,2.1,0.5,2.9,1C26.7,32,23.5,33.4,20,33.4z M21,11.7c3,0.3,5,3.7,4.2,7.2c0.1,0.1,0.5,0,0.5,0.2
			c0.1,1.2-0.3,2.5-1.2,2.9c-0.5,2-1.7,4.2-4,4.5c-2.8,0.3-4.3-2.2-4.8-4.5c-1-0.4-1.2-1.5-1.2-2.8c0.1-0.2,0.3-0.2,0.5-0.3
			C14.3,14.4,16.5,11.3,21,11.7z M29.9,28.9c-0.2-0.2-0.5-0.4-0.8-0.5c-1.5-0.7-3.4-0.7-4.9-1.5v-1.5c0.5-0.8,1-1.5,1.2-2.6
			c0.9-0.9,1.5-2,1.5-3.5c0-0.5-0.4-0.8-0.4-1.2c-0.1-0.5,0.1-0.9,0.1-1.3c-0.2-3.4-2.4-5.8-5.5-6.3h-1.8c-3,0.4-5.3,2.8-5.5,5.9
			c-0.1,0.5,0.1,1.1,0,1.7c-0.1,0.4-0.3,0.7-0.4,1.1c-0.1,0.9,0.2,1.7,0.4,2.3c0.2,0.5,0.7,0.8,1,1.4c0.5,0.9,0.6,1.9,1.3,2.6v1.5
			c-1.8,0.9-3.6,0.8-5.1,1.5c-0.3,0.1-0.5,0.3-0.8,0.6c-2.2-2.4-3.5-5.5-3.5-9c0-7.4,6-13.4,13.4-13.4s13.4,6,13.4,13.4
			C33.4,23.4,32.1,26.5,29.9,28.9z"/>
	</g>
	<g>
		<path class="st0" d="M20,5.3C11.9,5.3,5.3,11.9,5.3,20S11.9,34.8,20,34.8S34.8,28.1,34.8,20S28.1,5.3,20,5.3z M20,33.4
			c-3.5,0-6.6-1.3-9-3.5c0.7-0.5,1.7-0.8,3-1.1c1.3-0.3,3.3-0.5,3.2-2.1c0.4,0,0.7,0.4,1.2,0.6c1.6,0.6,3.5,0.3,4.6-0.8
			c-0.2,1.7,1.8,1.9,3.2,2.3c1.2,0.3,2.1,0.5,2.9,1C26.7,32,23.5,33.4,20,33.4z M21,11.7c3,0.3,5,3.7,4.2,7.2c0.1,0.1,0.5,0,0.5,0.2
			c0.1,1.2-0.3,2.5-1.2,2.9c-0.5,2-1.7,4.2-4,4.5c-2.8,0.3-4.3-2.2-4.8-4.5c-1-0.4-1.2-1.5-1.2-2.8c0.1-0.2,0.3-0.2,0.5-0.3
			C14.3,14.4,16.5,11.3,21,11.7z M29.9,28.9c-0.2-0.2-0.5-0.4-0.8-0.5c-1.5-0.7-3.4-0.7-4.9-1.5v-1.5c0.5-0.8,1-1.5,1.2-2.6
			c0.9-0.9,1.5-2,1.5-3.5c0-0.5-0.4-0.8-0.4-1.2c-0.1-0.5,0.1-0.9,0.1-1.3c-0.2-3.4-2.4-5.8-5.5-6.3h-1.8c-3,0.4-5.3,2.8-5.5,5.9
			c-0.1,0.5,0.1,1.1,0,1.7c-0.1,0.4-0.3,0.7-0.4,1.1c-0.1,0.9,0.2,1.7,0.4,2.3c0.2,0.5,0.7,0.8,1,1.4c0.5,0.9,0.6,1.9,1.3,2.6v1.5
			c-1.8,0.9-3.6,0.8-5.1,1.5c-0.3,0.1-0.5,0.3-0.8,0.6c-2.2-2.4-3.5-5.5-3.5-9c0-7.4,6-13.4,13.4-13.4s13.4,6,13.4,13.4
			C33.4,23.4,32.1,26.5,29.9,28.9z"/>
	</g>
</g>
</svg>
