<?xml version="1.0" encoding="utf-8"?>
<!-- Generator: Adobe Illustrator 21.0.2, SVG Export Plug-In . SVG Version: 6.00 Build 0)  -->
<svg version="1.1" id="Слой_1" xmlns="http://www.w3.org/2000/svg" xmlns:xlink="http://www.w3.org/1999/xlink" x="0px" y="0px"
	 viewBox="0 0 40 40" style="enable-background:new 0 0 40 40;" xml:space="preserve">
<style type="text/css">
	.st0{display:none;}
	.st1{display:inline;}
	.st2{fill:#DB2D70;}
	.st3{fill:#D9017A;}
</style>
<g id="Shape_18" class="st0">
	<g class="st1">
		<path class="st2" d="M34,21.9c0.3-0.4,0.7-1.1,0.7-2c0.1-2.7-2.5-3.6-3.9-3.7h-4.3l-0.1,0c-0.2-0.4,0.1-0.8,0.1-0.8c0,0,0,0,0,0
			c0.1-0.1,1.4-1.7,2.3-4.5c1-3-1.6-5.2-1.7-5.2L27,5.6c-0.1,0-1-0.4-1.9,0.1c-0.7,0.4-1.1,1.1-1.2,2.2c-0.3,2.5-2.4,4.7-3.4,5.4
			c-0.1,0.1-0.3,0.2-0.3,0.3c-0.7,0.6-1.4,2.3-2,3.4c-0.4,0.7-1.4,1.9-1.9,2.4c-0.4,0-1,0-1.5,0c-0.2-0.6-0.7-1.2-1.3-1.2H7
			c-0.8,0-1.4,0.6-1.4,1.4v12.7c0,0.8,0.6,1.4,1.4,1.4h6.6c0.7,0,1.2-0.5,1.3-1.1c0.2,0,0.5-0.2,0.6-0.2c0.2,0.2,0.6,0.9,1.5,1.3
			l0.1,0h0.1c0.1,0,4.4,0,8.3,0c2,0,3.7,0,4.4,0c1.3,0,1.9-0.6,2.3-1c0.6-0.9,0.7-1.9,0.5-2.5c0.8-0.8,0.9-2.1,1-2.7
			c0-0.5-0.1-0.9-0.3-1.2c0.5-0.4,0.9-1.3,1-2.3C34.5,22.9,34.2,22.3,34,21.9z M13.7,32.3c0,0.1-0.1,0.1-0.1,0.1H7
			c-0.1,0-0.1-0.1-0.1-0.1V19.6c0-0.1,0.1-0.1,0.1-0.1h6.6c0.1,0,0.1,0.1,0.1,0.1V32.3z M32.8,21.3l-0.6,0.5l0.6,0.5
			c0,0,0.5,0.5,0.4,1.5c-0.1,1.1-0.9,1.6-0.9,1.6l-0.9,0.4l0.7,0.6c0.1,0.1,0.4,0.4,0.3,1c0,0.5-0.2,1.5-0.8,2L31,29.7l0.5,0.4
			c0.1,0.4,0.1,1.3-0.3,1.9c-0.2,0.3-0.7,0.5-1.3,0.5c-2,0-11.4,0-12.6,0c-0.4-0.2-0.8-0.4-0.9-0.5c-0.1-0.2-0.4-0.9-1.5-0.9V20.7
			c0.7,0,1.7,0,1.7,0l0.2,0l0.2-0.1c0.1-0.1,1.8-1.7,2.4-2.9c0.6-1.2,1.2-2.6,1.7-3c0.1-0.1,0.2-0.1,0.3-0.2c1-0.8,3.5-3.2,3.9-6.3
			c0.1-0.7,0.3-1.1,0.6-1.3c0.3-0.2,0.6-0.1,0.7-0.1c0.4,0.3,1.9,1.9,1.2,3.8c-0.8,2.5-2.1,4-2.1,4.1c-0.3,0.4-0.7,1.4-0.1,2.3
			c0.3,0.4,0.7,0.5,1.1,0.5l4.2,0c0.1,0,2.8,0.2,2.7,2.4C33.4,20.9,32.8,21.3,32.8,21.3z"/>
	</g>
</g>
<g>
	<path class="st3" d="M5.9,13.7H3.1v-2.7h9.3v2.7H9.6v15.2H5.9V13.7z"/>
	<path class="st3" d="M14.9,27.7c-0.8-1-1.2-2.5-1.2-4.4v-6.7c0-1.9,0.4-3.4,1.2-4.3s2.2-1.5,4.1-1.5c1.9,0,3.2,0.5,4,1.5
		c0.8,1,1.2,2.4,1.2,4.3v6.7c0,1.9-0.4,3.4-1.2,4.4c-0.8,1-2.2,1.5-4,1.5C17,29.2,15.7,28.7,14.9,27.7z M20.2,25.9
		c0.2-0.4,0.3-1,0.3-1.7v-8.4c0-0.7-0.1-1.3-0.3-1.7c-0.2-0.4-0.6-0.6-1.2-0.6s-1,0.2-1.2,0.6c-0.2,0.4-0.3,1-0.3,1.7v8.4
		c0,0.8,0.1,1.3,0.3,1.7c0.2,0.4,0.6,0.6,1.3,0.6C19.5,26.6,19.9,26.4,20.2,25.9z"/>
	<path class="st3" d="M26.6,11.1h5.7c3.1,0,4.6,1.7,4.6,5.1c0,1.8-0.4,3.1-1.3,3.8c-0.9,0.8-2.1,1.1-3.7,1.1h-1.7v7.7h-3.6V11.1z
		 M31.5,18.6c0.8,0,1.3-0.2,1.6-0.6s0.4-1,0.4-1.9c0-0.6,0-1.1-0.1-1.4c-0.1-0.3-0.3-0.6-0.6-0.8c-0.3-0.2-0.7-0.3-1.3-0.3h-1.3v5
		H31.5z"/>
</g>
</svg>
