<?xml version="1.0" encoding="utf-8"?>
<!-- Generator: Adobe Illustrator 21.0.2, SVG Export Plug-In . SVG Version: 6.00 Build 0)  -->
<svg version="1.1" id="Слой_1" xmlns="http://www.w3.org/2000/svg" xmlns:xlink="http://www.w3.org/1999/xlink" x="0px" y="0px"
	 viewBox="0 0 40 40" style="enable-background:new 0 0 40 40;" xml:space="preserve">
<style type="text/css">
	.st0{fill:#D9016A;}
	.st1{display:none;}
	.st2{display:inline;}
	.st3{fill:#DB2D70;}
</style>
<g id="Shape_1_copy">
	<g>
		<path class="st0" d="M10.9,20.1c-1.8,0.6-2.7,2.3-2.1,4.1c0.6,1.8,2.3,2.6,4.1,2c1.8-0.6,2.6-2.3,2-4.1
			C14.4,20.3,12.7,19.4,10.9,20.1z M12.6,25c-1.1,0.4-2.1-0.2-2.5-1.3c-0.4-1.1,0-2.2,1.1-2.5c1.1-0.4,2.1,0.2,2.4,1.3
			C14.1,23.6,13.7,24.7,12.6,25z M23.2,7.4l2.2-0.8L17.2,5c0,0.1,0,0.3,0,0.4c0,0.3,0,0.5-0.1,0.8L23.2,7.4z M12.9,7.8
			c-0.3-0.2-0.6-0.5-0.8-0.8l-5.2,6l2.2-0.8L12.9,7.8z M29.6,13.8l1.3,3.7l-4-2.8l-1.3,0.4l2,5.9l1.3-0.4l-1.3-3.8l4.1,2.9l1.2-0.4
			l-2-5.9L29.6,13.8z M17.6,17.9l-2.8,0.9l2,5.9l1.3-0.4l-0.7-2.1l1.5-0.5c1.3-0.4,1.7-1.5,1.3-2.6C19.9,18.1,18.9,17.4,17.6,17.9z
			 M18.4,20.6l-1.3,0.5l-0.5-1.6l1.3-0.5c0.5-0.2,1,0,1.1,0.5C19.2,20,18.9,20.4,18.4,20.6z M39.2,20.6L35.3,8.7
			c-0.7-2.1-2.9-3.2-5-2.5L3.7,14.9c-2.1,0.7-3.2,2.9-2.5,5l3.9,11.9c0.7,2.1,2.9,3.2,5,2.5l26.6-8.7C38.7,24.9,39.9,22.7,39.2,20.6
			z M36.2,24.2L9.6,32.9c-1.3,0.4-2.7-0.3-3.1-1.5L2.6,19.5c-0.4-1.3,0.3-2.7,1.6-3.1l26.6-8.7c1.3-0.4,2.7,0.3,3.1,1.5l3.9,11.9
			C38.2,22.4,37.5,23.8,36.2,24.2z M23.3,21.3l-0.5-1.3l2.9-1l-0.4-1.1l-2.9,1L22,17.6l2.9-1l-0.4-1.1l-4.2,1.4l2,5.9l4.2-1.4
			l-0.4-1.1L23.3,21.3z M14.4,7.4c1.1,0,1.9-0.9,1.9-1.9s-0.9-1.9-1.9-1.9s-1.9,0.9-1.9,1.9S13.4,7.4,14.4,7.4z"/>
	</g>
</g>
<g id="Shape_18" class="st1">
	<g class="st2">
		<path class="st3" d="M34,21.9c0.3-0.4,0.7-1.1,0.7-2c0.1-2.7-2.5-3.6-3.9-3.7h-4.3l-0.1,0c-0.2-0.4,0.1-0.8,0.1-0.8c0,0,0,0,0,0
			c0.1-0.1,1.4-1.7,2.3-4.5c1-3-1.6-5.2-1.7-5.2L27,5.6c-0.1,0-1-0.4-1.9,0.1c-0.7,0.4-1.1,1.1-1.2,2.2c-0.3,2.5-2.4,4.7-3.4,5.4
			c-0.1,0.1-0.3,0.2-0.3,0.3c-0.7,0.6-1.4,2.3-2,3.4c-0.4,0.7-1.4,1.9-1.9,2.4c-0.4,0-1,0-1.5,0c-0.2-0.6-0.7-1.2-1.3-1.2H7
			c-0.8,0-1.4,0.6-1.4,1.4v12.7c0,0.8,0.6,1.4,1.4,1.4h6.6c0.7,0,1.2-0.5,1.3-1.1c0.2,0,0.5-0.2,0.6-0.2c0.2,0.2,0.6,0.9,1.5,1.3
			l0.1,0h0.1c0.1,0,4.4,0,8.3,0c2,0,3.7,0,4.4,0c1.3,0,1.9-0.6,2.3-1c0.6-0.9,0.7-1.9,0.5-2.5c0.8-0.8,0.9-2.1,1-2.7
			c0-0.5-0.1-0.9-0.3-1.2c0.5-0.4,0.9-1.3,1-2.3C34.5,22.9,34.2,22.3,34,21.9z M13.7,32.3c0,0.1-0.1,0.1-0.1,0.1H7
			c-0.1,0-0.1-0.1-0.1-0.1V19.6c0-0.1,0.1-0.1,0.1-0.1h6.6c0.1,0,0.1,0.1,0.1,0.1V32.3z M32.8,21.3l-0.6,0.5l0.6,0.5
			c0,0,0.5,0.5,0.4,1.5c-0.1,1.1-0.9,1.6-0.9,1.6l-0.9,0.4l0.7,0.6c0.1,0.1,0.4,0.4,0.3,1c0,0.5-0.2,1.5-0.8,2L31,29.7l0.5,0.4
			c0.1,0.4,0.1,1.3-0.3,1.9c-0.2,0.3-0.7,0.5-1.3,0.5c-2,0-11.4,0-12.6,0c-0.4-0.2-0.8-0.4-0.9-0.5c-0.1-0.2-0.4-0.9-1.5-0.9V20.7
			c0.7,0,1.7,0,1.7,0l0.2,0l0.2-0.1c0.1-0.1,1.8-1.7,2.4-2.9c0.6-1.2,1.2-2.6,1.7-3c0.1-0.1,0.2-0.1,0.3-0.2c1-0.8,3.5-3.2,3.9-6.3
			c0.1-0.7,0.3-1.1,0.6-1.3c0.3-0.2,0.6-0.1,0.7-0.1c0.4,0.3,1.9,1.9,1.2,3.8c-0.8,2.5-2.1,4-2.1,4.1c-0.3,0.4-0.7,1.4-0.1,2.3
			c0.3,0.4,0.7,0.5,1.1,0.5l4.2,0c0.1,0,2.8,0.2,2.7,2.4C33.4,20.9,32.8,21.3,32.8,21.3z"/>
	</g>
</g>
</svg>
