<?xml version="1.0" encoding="utf-8"?>
<!-- Generator: Adobe Illustrator 21.0.2, SVG Export Plug-In . SVG Version: 6.00 Build 0)  -->
<svg version="1.1" id="Layer_1" xmlns="http://www.w3.org/2000/svg" xmlns:xlink="http://www.w3.org/1999/xlink" x="0px" y="0px"
	 viewBox="0 0 80 80" style="enable-background:new 0 0 80 80;" xml:space="preserve">
<style type="text/css">
	.st0{fill:#FFFFFF;}
</style>
<path class="st0" d="M40,0C17.9,0,0,17.9,0,40s17.9,40,40,40s40-17.9,40-40S62.1,0,40,0z M10.5,30.9c0.6-2,2.7-3.2,4.9-2.4l13.3,4.4
	c2,0.6,3,2.7,2.4,4.9c-0.6,2-2.7,3.2-4.9,2.4l-13.3-4.4C11,35.2,9.9,32.9,10.5,30.9z M35.4,53.5l-8.2,11.4c-1.2,1.7-3.6,2.1-5.3,0.9
	c-1.7-1.2-2.1-3.6-0.9-5.3l8.2-11.4c1.2-1.7,3.6-2.1,5.3-0.9S36.6,51.8,35.4,53.5z M43.9,27.4c0,2.1-1.7,3.8-3.8,3.8
	c-2.1,0-3.8-1.7-3.8-3.8V13.3c0-2.1,1.7-3.8,3.8-3.8c2.1,0,3.8,1.7,3.8,3.8V27.4z M58.3,65.8c-1.8,1.2-4.1,0.8-5.3-0.9l-8.2-11.4
	c-1.2-1.7-0.8-4.1,0.9-5.3s4.1-0.8,5.3,0.9l8.2,11.4C60.4,62.2,59.9,64.6,58.3,65.8z M67.1,35.8l-13.3,4.4c-2.1,0.8-4.2-0.5-4.9-2.4
	c-0.6-2.1,0.5-4.2,2.4-4.9l13.3-4.4c2.1-0.8,4.2,0.5,4.9,2.4C70.1,32.9,69,35.2,67.1,35.8z"/>
</svg>
