<?xml version="1.0" encoding="utf-8"?>
<!-- Generator: Adobe Illustrator 17.0.0, SVG Export Plug-In . SVG Version: 6.00 Build 0)  -->
<!DOCTYPE svg PUBLIC "-//W3C//DTD SVG 1.1//EN" "http://www.w3.org/Graphics/SVG/1.1/DTD/svg11.dtd" [
	<!ENTITY ns_flows "http://ns.adobe.com/Flows/1.0/">
	<!ENTITY ns_extend "http://ns.adobe.com/Extensibility/1.0/">
	<!ENTITY ns_ai "http://ns.adobe.com/AdobeIllustrator/10.0/">
	<!ENTITY ns_graphs "http://ns.adobe.com/Graphs/1.0/">
]>
<svg version="1.1" id="Layer_1" xmlns:x="&ns_extend;" xmlns:i="&ns_ai;" xmlns:graph="&ns_graphs;"
	 xmlns="http://www.w3.org/2000/svg" xmlns:xlink="http://www.w3.org/1999/xlink" xmlns:a="http://ns.adobe.com/AdobeSVGViewerExtensions/3.0/"
	 x="0px" y="0px" width="32px" height="32px" viewBox="0 0 32 32" enable-background="new 0 0 32 32" xml:space="preserve">
<g id="User">
	<g>
		<path fill="#FFFFFF" d="M16,2.875C8.763,2.875,2.875,8.763,2.875,16S8.763,29.125,16,29.125S29.125,23.237,29.125,16
			S23.237,2.875,16,2.875z M16,27.904c-3.077,0-5.877-1.184-7.992-3.107c0.662-0.469,1.495-0.689,2.65-0.971
			c1.19-0.29,2.944-0.445,2.854-1.886c0.323-0.027,0.621,0.35,1.064,0.532c1.395,0.572,3.111,0.241,4.111-0.677
			c-0.15,1.48,1.567,1.712,2.854,2.031c1.097,0.272,1.903,0.461,2.559,0.872C21.973,26.68,19.13,27.904,16,27.904z M16.898,8.638
			c2.682,0.231,4.49,3.252,3.773,6.385c0.114,0.095,0.417,0.002,0.435,0.193c0.08,1.103-0.222,2.224-1.064,2.564
			c-0.434,1.778-1.53,3.719-3.531,3.966c-2.477,0.306-3.868-1.998-4.305-3.966c-0.877-0.333-1.102-1.317-1.112-2.515
			c0.045-0.18,0.277-0.174,0.435-0.242C10.951,11.023,12.903,8.295,16.898,8.638z M24.849,23.934
			c-0.21-0.162-0.433-0.316-0.696-0.446c-1.292-0.64-3.05-0.581-4.353-1.354v-1.306c0.436-0.692,0.921-1.336,1.112-2.273
			c0.78-0.768,1.373-1.821,1.306-3.096c-0.021-0.411-0.332-0.736-0.387-1.112c-0.059-0.402,0.071-0.801,0.048-1.161
			c-0.19-3.066-2.118-5.147-4.934-5.611h-1.643c-2.645,0.355-4.674,2.474-4.934,5.223c-0.045,0.477,0.062,0.999,0,1.499
			c-0.044,0.359-0.295,0.614-0.338,1.016c-0.085,0.793,0.154,1.493,0.387,2.031c0.211,0.488,0.612,0.748,0.871,1.209
			c0.432,0.769,0.531,1.705,1.161,2.273v1.354c-1.559,0.766-3.225,0.682-4.498,1.354c-0.253,0.133-0.485,0.307-0.705,0.502
			C5.297,21.917,4.096,19.1,4.096,16C4.096,9.436,9.436,4.096,16,4.096S27.904,9.436,27.904,16
			C27.904,19.049,26.742,21.826,24.849,23.934z"/>
	</g>
	<g>
		<path fill="none" stroke="#FFFFFF" stroke-width="0.5" stroke-miterlimit="10" d="M16,2.875C8.763,2.875,2.875,8.763,2.875,16
			S8.763,29.125,16,29.125S29.125,23.237,29.125,16S23.237,2.875,16,2.875z M16,27.904c-3.077,0-5.877-1.184-7.992-3.107
			c0.662-0.469,1.495-0.689,2.65-0.971c1.19-0.29,2.944-0.445,2.854-1.886c0.323-0.027,0.621,0.35,1.064,0.532
			c1.395,0.572,3.111,0.241,4.111-0.677c-0.15,1.48,1.567,1.712,2.854,2.031c1.097,0.272,1.903,0.461,2.559,0.872
			C21.973,26.68,19.13,27.904,16,27.904z M16.898,8.638c2.682,0.231,4.49,3.252,3.773,6.385c0.114,0.095,0.417,0.002,0.435,0.193
			c0.08,1.103-0.222,2.224-1.064,2.564c-0.434,1.778-1.53,3.719-3.531,3.966c-2.477,0.306-3.868-1.998-4.305-3.966
			c-0.877-0.333-1.102-1.317-1.112-2.515c0.045-0.18,0.277-0.174,0.435-0.242C10.951,11.023,12.903,8.295,16.898,8.638z
			 M24.849,23.934c-0.21-0.162-0.433-0.316-0.696-0.446c-1.292-0.64-3.05-0.581-4.353-1.354v-1.306
			c0.436-0.692,0.921-1.336,1.112-2.273c0.78-0.768,1.373-1.821,1.306-3.096c-0.021-0.411-0.332-0.736-0.387-1.112
			c-0.059-0.402,0.071-0.801,0.048-1.161c-0.19-3.066-2.118-5.147-4.934-5.611h-1.643c-2.645,0.355-4.674,2.474-4.934,5.223
			c-0.045,0.477,0.062,0.999,0,1.499c-0.044,0.359-0.295,0.614-0.338,1.016c-0.085,0.793,0.154,1.493,0.387,2.031
			c0.211,0.488,0.612,0.748,0.871,1.209c0.432,0.769,0.531,1.705,1.161,2.273v1.354c-1.559,0.766-3.225,0.682-4.498,1.354
			c-0.253,0.133-0.485,0.307-0.705,0.502C5.297,21.917,4.096,19.1,4.096,16C4.096,9.436,9.436,4.096,16,4.096
			S27.904,9.436,27.904,16C27.904,19.049,26.742,21.826,24.849,23.934z"/>
	</g>
</g>
</svg>
