<?xml version="1.0" encoding="utf-8"?>
<!-- Generator: Adobe Illustrator 19.1.1, SVG Export Plug-In . SVG Version: 6.00 Build 0)  -->
<svg version="1.1" id="Layer_1" xmlns="http://www.w3.org/2000/svg" xmlns:xlink="http://www.w3.org/1999/xlink" x="0px" y="0px"
	 viewBox="-289 381 32 32" style="enable-background:new -289 381 32 32;" xml:space="preserve">
<style type="text/css">
	.st0{fill:#FFFFFF;stroke:#FFFFFF;stroke-width:0.5;stroke-miterlimit:10;}
</style>
<g id="User">
	<g>
		<path class="st0" d="M-273,387.3c-5.3,0-9.7,4.4-9.7,9.7s4.4,9.7,9.7,9.7s9.7-4.4,9.7-9.7S-267.7,387.3-273,387.3z M-273,405.8
			c-2.3,0-4.4-0.9-5.9-2.3c0.5-0.4,1.1-0.5,1.9-0.7c0.9-0.2,2.1-0.3,2.1-1.4c0.2,0,0.4,0.3,0.8,0.4c1,0.4,2.3,0.1,3-0.5
			c-0.1,1.1,1.2,1.3,2.1,1.5c0.8,0.2,1.4,0.4,1.9,0.7C-268.6,404.9-270.7,405.8-273,405.8z M-272.3,391.5c2,0.1,3.3,2.4,2.8,4.7
			c0.1,0.1,0.3,0,0.3,0.1c0.1,0.8-0.1,1.6-0.8,1.9c-0.3,1.3-1.1,2.7-2.6,3c-1.8,0.2-2.9-1.5-3.2-3c-0.7-0.2-0.8-1-0.8-1.8
			c0-0.1,0.2-0.1,0.3-0.1C-276.7,393.3-275.3,391.3-272.3,391.5z M-272.3,391.5c2,0.1,3.3,2.4,2.8,4.7c0.1,0.1,0.3,0,0.3,0.1
			c0.1,0.8-0.1,1.6-0.8,1.9c-0.3,1.3-1.1,2.7-2.6,3c-1.8,0.2-2.9-1.5-3.2-3c-0.7-0.2-0.8-1-0.8-1.8c0-0.1,0.2-0.1,0.3-0.1
			C-276.7,393.3-275.3,391.3-272.3,391.5z M-266.5,402.8c-0.1-0.1-0.3-0.2-0.5-0.3c-1-0.4-2.3-0.4-3.3-1v-1c0.3-0.5,0.7-1,0.8-1.7
			c0.6-0.6,1-1.3,1-2.3c0-0.3-0.2-0.5-0.3-0.8c-0.1-0.3,0.1-0.6,0-0.9c-0.1-2.3-1.6-3.8-3.6-4.1h-1.2c-1.9,0.3-3.5,1.8-3.6,3.8
			c0,0.4,0.1,0.7,0,1.1c0,0.3-0.2,0.4-0.2,0.7c-0.1,0.6,0.1,1.1,0.3,1.5c0.1,0.4,0.4,0.5,0.7,0.9c0.3,0.6,0.4,1.3,0.9,1.7v1
			c-1.2,0.6-2.4,0.5-3.3,1c-0.2,0.1-0.4,0.2-0.5,0.4c-1.4-1.6-2.3-3.6-2.3-5.9c0-4.9,3.9-8.8,8.8-8.8c4.9,0,8.8,3.9,8.8,8.8
			C-264.2,399.2-265.1,401.3-266.5,402.8z"/>
	</g>
</g>
</svg>
