<?xml version="1.0" encoding="utf-8"?>
<!-- Generator: Adobe Illustrator 17.1.0, SVG Export Plug-In . SVG Version: 6.00 Build 0)  -->
<!DOCTYPE svg PUBLIC "-//W3C//DTD SVG 1.1//EN" "http://www.w3.org/Graphics/SVG/1.1/DTD/svg11.dtd">
<svg version="1.1" id="Layer_1" xmlns="http://www.w3.org/2000/svg" xmlns:xlink="http://www.w3.org/1999/xlink" x="0px" y="0px"
	 viewBox="6 6 20 20" enable-background="new 6 6 20 20" xml:space="preserve">
<path fill="none" stroke="#CCCCCC" stroke-width="1.5" stroke-linecap="round" stroke-linejoin="round" stroke-miterlimit="10" d="
	M16,7.2L16,7.2c2.2,0,3.9,1.9,3.9,4v1.7c0,2.2-1.8,4.1-3.9,4.1l0,0c-2.1,0-3.9-1.9-3.9-4v-1.8C12.1,9.1,13.9,7.2,16,7.2z"/>
<path fill="none" stroke="#CCCCCC" stroke-width="1.5" stroke-linecap="round" stroke-linejoin="round" stroke-miterlimit="10" d="
	M19.6,15c1.9,0,3.5,1.4,3.9,3.2l0.4,1.9c0.5,2.4-1.4,4.7-3.9,4.7H12c-2.5,0-4.4-2.2-3.9-4.7l0.4-1.9c0.4-1.9,2-3.2,3.9-3.2"/>
</svg>
