<?xml version="1.0" encoding="utf-8"?>
<!-- Generator: Adobe Illustrator 21.0.2, SVG Export Plug-In . SVG Version: 6.00 Build 0)  -->
<svg version="1.1" id="Слой_1" xmlns="http://www.w3.org/2000/svg" xmlns:xlink="http://www.w3.org/1999/xlink" x="0px" y="0px"
	 viewBox="0 0 195 196" style="enable-background:new 0 0 195 196;" xml:space="preserve">
<style type="text/css">
	.st0{fill:#FFFFFF;}
</style>
<path class="st0" d="M72.9,7C94,1.1,117.2,2.6,137,12c21,9.6,38.3,27.3,47.3,48.5c7.5,17.4,9.7,36.9,6.2,55.5
	c-3.5,18.4-12.3,35.7-25.4,49c-15.8,16.2-37.6,26.6-60.2,27.8c-4.2,0.8-8.5,0.8-12.7,0c-7.8-0.4-15.6-1.7-23-4.4
	c0.4-3.1,0.9-6.3,1.7-9.4c5.6-21.8,17-42.2,33.8-57.4c8.2-7.3,17.5-13.8,27.9-17.5c4.1,4.7,10.3,7.1,16.5,7.1
	c6.1-0.6,12.2-3.4,15.8-8.5c4.3-5.8,5-13.7,2.7-20.4c-2.2-6.2-7.7-10.8-13.9-12.7c-5.1-0.9-10.7-0.9-15.3,1.8
	c-6.9,3.5-11.1,11.1-11.2,18.7c-39.6,11.7-74.4,40.7-91.2,78.7c-5.5-4.5-10.3-9.9-14.2-15.7c-0.6-9.4,1.3-18.8,3.6-27.8
	C31.8,102,46,80.7,65.7,66.6c1.5-1,2.8,1,3.9,1.7c7.3,6.2,19.1,5.9,26.3-0.4c5.2-4.6,8.3-11.8,7.2-18.8c-1-8.1-7.2-15.5-15.1-17.6
	c-8.2-2.7-17.6,1.1-22.5,8c-3.1,4-4,9.2-3.9,14.1c-24,8.6-45.1,25.8-57,48.4C3.7,81.6,9.4,60.9,21.2,44.2
	C33.3,26.2,52.1,12.9,72.9,7z"/>
</svg>
