<?xml version="1.0" encoding="utf-8"?>
<!-- Generator: Adobe Illustrator 21.0.2, SVG Export Plug-In . SVG Version: 6.00 Build 0)  -->
<svg version="1.1" id="Layer_1" xmlns="http://www.w3.org/2000/svg" xmlns:xlink="http://www.w3.org/1999/xlink" x="0px" y="0px"
	 viewBox="0 0 30.3 26.3" style="enable-background:new 0 0 30.3 26.3;" xml:space="preserve">
<style type="text/css">
	.st0{display:none;}
	.st1{display:inline;}
	.st2{fill:url(#SVGID_1_);stroke:url(#SVGID_2_);stroke-width:0.25;stroke-miterlimit:10;}
	.st3{fill:url(#SVGID_3_);stroke:url(#SVGID_4_);stroke-width:0.25;stroke-miterlimit:10;}
	.st4{display:inline;fill:url(#SVGID_5_);stroke:url(#SVGID_6_);stroke-width:0.75;stroke-miterlimit:10;}
	.st5{fill:#D9017A;}
	.st6{fill:#D9017A;stroke:#FFFFFF;stroke-width:0.25;stroke-miterlimit:10;}
</style>
<g id="Shopping_Bag_2" class="st0">
	<g class="st1">
		
			<linearGradient id="SVGID_1_" gradientUnits="userSpaceOnUse" x1="217.045" y1="-1563.0951" x2="217.045" y2="-1599.3522" gradientTransform="matrix(1 0 0 -1 -201.92 -1568.0701)">
			<stop  offset="0" style="stop-color:#AB1050"/>
			<stop  offset="1" style="stop-color:#5D2466"/>
			<stop  offset="1" style="stop-color:#000000"/>
		</linearGradient>
		
			<linearGradient id="SVGID_2_" gradientUnits="userSpaceOnUse" x1="15.125" y1="-1016.65" x2="15.125" y2="-1053.157" gradientTransform="matrix(1 0 0 -1 0 -1021.75)">
			<stop  offset="0" style="stop-color:#AB1050"/>
			<stop  offset="1" style="stop-color:#5D2466"/>
			<stop  offset="1" style="stop-color:#000000"/>
		</linearGradient>
		<path class="st2" d="M32.2,30.1L30.4,2.9c0-0.5-0.4-0.8-0.9-0.8h-7.4c0,0,0,0,0-0.1c0-3.9-3.1-7-7-7s-7,3.1-7,7v0.1H0.6
			c-0.5,0-0.9,0.4-0.9,0.8L-2,30.3c0,0.2,0.1,0.5,0.2,0.7c0.2,0.2,0.4,0.3,0.6,0.3h32.4l0,0c0.5,0,0.9-0.4,0.9-0.9
			C32.2,30.3,32.2,30.2,32.2,30.1z M9.9,2c0-2.9,2.3-5.2,5.2-5.2s5.2,2.3,5.2,5.2c0,0,0,0,0,0.1L9.9,2L9.9,2z M-0.2,29.5L1.4,3.8
			h6.7v2C7.7,6.1,7.4,6.6,7.4,7.1C7.4,8,8.1,8.7,9,8.7s1.6-0.7,1.6-1.6c0-0.6-0.3-1-0.7-1.3v-2h10.4v2c-0.4,0.3-0.7,0.8-0.7,1.3
			c0,0.9,0.7,1.6,1.6,1.6s1.6-0.7,1.6-1.6c0-0.6-0.3-1-0.7-1.3v-2h6.6l1.6,25.7H-0.2L-0.2,29.5z"/>
	</g>
	<g class="st1">
		
			<linearGradient id="SVGID_3_" gradientUnits="userSpaceOnUse" x1="217.045" y1="-1563.0951" x2="217.045" y2="-1599.3522" gradientTransform="matrix(1 0 0 -1 -201.92 -1568.0701)">
			<stop  offset="0" style="stop-color:#AB1050"/>
			<stop  offset="1" style="stop-color:#5D2466"/>
			<stop  offset="1" style="stop-color:#000000"/>
		</linearGradient>
		
			<linearGradient id="SVGID_4_" gradientUnits="userSpaceOnUse" x1="15.125" y1="-1016.65" x2="15.125" y2="-1053.157" gradientTransform="matrix(1 0 0 -1 0 -1021.75)">
			<stop  offset="0" style="stop-color:#AB1050"/>
			<stop  offset="1" style="stop-color:#5D2466"/>
			<stop  offset="1" style="stop-color:#000000"/>
		</linearGradient>
		<path class="st3" d="M32.2,30.1L30.4,2.9c0-0.5-0.4-0.8-0.9-0.8h-7.4c0,0,0,0,0-0.1c0-3.9-3.1-7-7-7s-7,3.1-7,7v0.1H0.6
			c-0.5,0-0.9,0.4-0.9,0.8L-2,30.3c0,0.2,0.1,0.5,0.2,0.7c0.2,0.2,0.4,0.3,0.6,0.3h32.4l0,0c0.5,0,0.9-0.4,0.9-0.9
			C32.2,30.3,32.2,30.2,32.2,30.1z M9.9,2c0-2.9,2.3-5.2,5.2-5.2s5.2,2.3,5.2,5.2c0,0,0,0,0,0.1L9.9,2L9.9,2z M-0.2,29.5L1.4,3.8
			h6.7v2C7.7,6.1,7.4,6.6,7.4,7.1C7.4,8,8.1,8.7,9,8.7s1.6-0.7,1.6-1.6c0-0.6-0.3-1-0.7-1.3v-2h10.4v2c-0.4,0.3-0.7,0.8-0.7,1.3
			c0,0.9,0.7,1.6,1.6,1.6s1.6-0.7,1.6-1.6c0-0.6-0.3-1-0.7-1.3v-2h6.6l1.6,25.7H-0.2L-0.2,29.5z"/>
	</g>
</g>
<g class="st0">
	
		<linearGradient id="SVGID_5_" gradientUnits="userSpaceOnUse" x1="216.845" y1="-1578.4231" x2="216.845" y2="-1592.7891" gradientTransform="matrix(1 0 0 -1 -201.92 -1568.0701)">
		<stop  offset="0" style="stop-color:#AB1050"/>
		<stop  offset="1" style="stop-color:#5D2466"/>
		<stop  offset="1" style="stop-color:#000000"/>
	</linearGradient>
	
		<linearGradient id="SVGID_6_" gradientUnits="userSpaceOnUse" x1="216.845" y1="-1578.0481" x2="216.845" y2="-1593.1641" gradientTransform="matrix(1 0 0 -1 -201.92 -1568.0701)">
		<stop  offset="0" style="stop-color:#AB1050"/>
		<stop  offset="1" style="stop-color:#5D2466"/>
		<stop  offset="1" style="stop-color:#000000"/>
	</linearGradient>
	<path class="st4" d="M23.4,13.6c0,0.6-0.3,1.1-1,1.6c-0.5,0.4-1.2,0.7-1.9,1c-0.2,0.1-0.3,0.1-0.4,0c0,0,0-0.1,0.1-0.2
		s0.1-0.3,0.1-0.5c0-0.5-0.3-1-0.8-1.7c-0.4-0.5-0.9-1-1.3-1.3c-0.1-0.1-0.2-0.2-0.4-0.2s-0.2-0.2-0.4-0.2c-1,0.2-1.9,0.4-2.6,0.6
		c-2.1,0.7-3.9,1.7-5.2,3.1c0.7,0.3,1.5,0.5,2.4,0.5c1,0,1.6-0.2,1.7-0.5c0-0.1,0.1-0.1,0.1,0c0.1,0,0.1,0.1,0,0.1
		c-0.1,0.2-0.4,0.4-0.8,0.5s-0.9,0.2-1.5,0.2c-0.9,0-1.7-0.1-2.4-0.4c-1.3,1.4-2,2.9-2,4.5c0,1.1,0.5,2,1.6,2.6
		c1,0.6,2.2,0.8,3.7,0.8c1.9,0,3.6-0.5,5-1.4c1.5-1,2.2-2.4,2-4.1c-0.5,0-1,0-1.5,0s-1,0.1-1.4,0.2c-0.3,0-0.7,0.1-1.1,0.2
		s-0.9,0.2-1.4,0.3c-0.6,0.1-1.1,0.3-1.6,0.4s-0.9,0.2-1.2,0.2c-0.1-0.2,0-0.4,0.1-0.6s0.2-0.4,0.4-0.4c0.7-0.3,2.3-0.5,4.8-0.7
		c0.5,0,1-0.1,1.5-0.1s0.9,0,1.3,0c1.5,0,2.6,0.1,3.3,0.4c0.2,0.1,0.3,0.2,0.3,0.3c0,0,0,0.1,0,0.2s0,0.2,0,0.3
		c-0.9-0.3-1.8-0.4-2.8-0.5c0.3,0.3,0.4,0.7,0.4,1.2c0,1.3-1,2.4-2.9,3.4c-1.8,1-3.8,1.5-5.9,1.5c-1.6,0-2.8-0.3-3.7-1
		c-1-0.8-1.6-1.9-1.6-3.4c0-1.7,0.7-3.2,2-4.6c-0.7-0.5-1-1.2-1-2c0-0.9,0.5-1.7,1.4-2.4c0.9-0.6,1.8-0.9,2.8-0.9
		c1.6-0.1,3.2,0.3,4.9,1.1c1.2-0.3,2.3-0.4,3.2-0.4c1.3,0,2.3,0.3,2.8,1C23.2,12.6,23.4,13.1,23.4,13.6z M9,15.4
		c1.5-1.5,3.4-2.6,5.8-3.4c0.3-0.1,0.6-0.2,0.8-0.3s0.5-0.2,0.8-0.2c-1.3-0.6-2.7-0.9-4.2-0.9c-0.9,0-1.8,0.3-2.7,0.8
		c-1,0.6-1.5,1.3-1.4,2.2C8.1,14.3,8.4,14.9,9,15.4z M20.6,15.9c0.4-0.2,0.9-0.7,1.3-1.2c0.5-0.6,0.8-1.1,0.8-1.5
		c0-0.9-0.8-1.3-2.4-1.3c-0.3,0-0.7,0-1.1,0.1c-0.4,0-0.8,0.1-1.3,0.2c0.1,0.1,0.2,0.1,0.4,0.2c0.1,0.1,0.2,0.2,0.4,0.2
		c0.5,0.4,1,0.8,1.4,1.3c0.4,0.6,0.7,1.1,0.7,1.6C20.7,15.6,20.7,15.8,20.6,15.9z"/>
</g>
<g id="Love">
	<g>
		<path class="st5" d="M30.1,8.8c0-4.8-3.9-8.7-8.7-8.7c-2.4,0-4.6,1-6.3,2.7c-1.6-1.7-3.9-2.6-6.3-2.6C4,0.1,0.1,4,0.1,8.8
			c0,2.2,0.8,4.3,2.4,6l0.1,0.1L2.7,15l0,0l11.1,10.6c0.3,0.3,0.8,0.5,1.3,0.5s1-0.2,1.4-0.6c0.3-0.3,9.1-8.6,11-10.6l0,0l0,0
			c0,0,0.1,0,0.1-0.1C29.2,13.3,30.1,11.1,30.1,8.8z M26.6,14L26.6,14L26.6,14L26.6,14c-2,2-11.1,10.6-11.1,10.6
			c-0.1,0.1-0.3,0.2-0.4,0.2s-0.3-0.1-0.4-0.2L3.6,14.1l0,0L3.5,14l0,0c-1.3-1.3-2.1-3.1-2.1-5.1c0-4.1,3.3-7.4,7.4-7.4
			c2.6,0,5,1.4,6.3,3.5c1.3-2.1,3.6-3.5,6.3-3.5c4.1,0,7.4,3.3,7.4,7.4C28.8,10.8,27.9,12.7,26.6,14z M8.8,3.1C5.6,3.1,3,5.7,3,8.9
			c0,0.4,0.3,0.7,0.7,0.7s0.7-0.3,0.7-0.7c0-2.5,2-4.5,4.5-4.5c0.4,0,0.7-0.3,0.7-0.7C9.5,3.4,9.2,3.1,8.8,3.1z"/>
	</g>
	<g>
		<path class="st6" d="M30.1,8.8c0-4.8-3.9-8.7-8.7-8.7c-2.4,0-4.6,1-6.3,2.7c-1.6-1.7-3.9-2.6-6.3-2.6C4,0.1,0.1,4,0.1,8.8
			c0,2.2,0.8,4.3,2.4,6l0.1,0.1L2.7,15l0,0l11.1,10.6c0.3,0.3,0.8,0.5,1.3,0.5s1-0.2,1.4-0.6c0.3-0.3,9.1-8.6,11-10.6l0,0l0,0
			c0,0,0.1,0,0.1-0.1C29.2,13.3,30.1,11.1,30.1,8.8z M26.6,14L26.6,14L26.6,14L26.6,14c-2,2-11.1,10.6-11.1,10.6
			c-0.1,0.1-0.3,0.2-0.4,0.2s-0.3-0.1-0.4-0.2L3.6,14.1l0,0L3.5,14l0,0c-1.3-1.3-2.1-3.1-2.1-5.1c0-4.1,3.3-7.4,7.4-7.4
			c2.6,0,5,1.4,6.3,3.5c1.3-2.1,3.6-3.5,6.3-3.5c4.1,0,7.4,3.3,7.4,7.4C28.8,10.8,27.9,12.7,26.6,14z M8.8,3.1C5.6,3.1,3,5.7,3,8.9
			c0,0.4,0.3,0.7,0.7,0.7s0.7-0.3,0.7-0.7c0-2.5,2-4.5,4.5-4.5c0.4,0,0.7-0.3,0.7-0.7C9.5,3.4,9.2,3.1,8.8,3.1z"/>
	</g>
</g>
</svg>
