<?xml version="1.0" encoding="utf-8"?>
<!-- Generator: Adobe Illustrator 17.0.0, SVG Export Plug-In . SVG Version: 6.00 Build 0)  -->
<!DOCTYPE svg PUBLIC "-//W3C//DTD SVG 1.1//EN" "http://www.w3.org/Graphics/SVG/1.1/DTD/svg11.dtd" [
	<!ENTITY ns_flows "http://ns.adobe.com/Flows/1.0/">
	<!ENTITY ns_extend "http://ns.adobe.com/Extensibility/1.0/">
	<!ENTITY ns_ai "http://ns.adobe.com/AdobeIllustrator/10.0/">
	<!ENTITY ns_graphs "http://ns.adobe.com/Graphs/1.0/">
]>
<svg version="1.1" id="Layer_1" xmlns:x="&ns_extend;" xmlns:i="&ns_ai;" xmlns:graph="&ns_graphs;"
	 xmlns="http://www.w3.org/2000/svg" xmlns:xlink="http://www.w3.org/1999/xlink" xmlns:a="http://ns.adobe.com/AdobeSVGViewerExtensions/3.0/"
	 x="0px" y="0px" width="48px" height="48px" viewBox="0 0 48 48" enable-background="new 0 0 48 48" xml:space="preserve">
<g id="Shopping_Bag_2" display="none">
	<g display="inline">
		
			<linearGradient id="SVGID_1_" gradientUnits="userSpaceOnUse" x1="225.9204" y1="552.191" x2="225.9204" y2="588.4481" gradientTransform="matrix(1 0 0 1 -201.92 -546.32)">
			<stop  offset="0" style="stop-color:#AB1050"/>
			<stop  offset="1" style="stop-color:#5D2466"/>
			<stop  offset="1" style="stop-color:#000000"/>
			<a:midPointStop  offset="0" style="stop-color:#AB1050"/>
			<a:midPointStop  offset="0.5" style="stop-color:#AB1050"/>
			<a:midPointStop  offset="1" style="stop-color:#5D2466"/>
			<a:midPointStop  offset="0.5" style="stop-color:#5D2466"/>
			<a:midPointStop  offset="1" style="stop-color:#000000"/>
		</linearGradient>
		<linearGradient id="SVGID_2_" gradientUnits="userSpaceOnUse" x1="24.0004" y1="5.746" x2="24.0004" y2="42.253">
			<stop  offset="0" style="stop-color:#AB1050"/>
			<stop  offset="1" style="stop-color:#5D2466"/>
			<stop  offset="1" style="stop-color:#000000"/>
			<a:midPointStop  offset="0" style="stop-color:#AB1050"/>
			<a:midPointStop  offset="0.5" style="stop-color:#AB1050"/>
			<a:midPointStop  offset="1" style="stop-color:#5D2466"/>
			<a:midPointStop  offset="0.5" style="stop-color:#5D2466"/>
			<a:midPointStop  offset="1" style="stop-color:#000000"/>
		</linearGradient>
		<path fill="url(#SVGID_1_)" stroke="url(#SVGID_2_)" stroke-width="0.25" stroke-miterlimit="10" d="M41.08,41.009l-1.757-27.248
			c-0.033-0.464-0.418-0.823-0.882-0.823h-7.472c0.002-0.025,0.014-0.047,0.014-0.073c0-3.856-3.136-6.994-6.994-6.994
			s-6.991,3.137-6.991,6.994v0.073H9.543c-0.465,0-0.851,0.36-0.882,0.823l-1.77,27.423c-0.017,0.244,0.069,0.485,0.236,0.664
			c0.166,0.179,0.401,0.28,0.648,0.28H40.21c0.007-0.002,0.011,0,0.017,0c0.488,0,0.885-0.395,0.885-0.885
			C41.111,41.163,41.1,41.085,41.08,41.009z M18.769,12.865c0-2.881,2.343-5.224,5.224-5.224s5.224,2.345,5.224,5.224
			c0,0.025,0.013,0.047,0.014,0.073H18.769V12.865z M8.722,40.361l1.647-25.655h6.629v1.998c-0.428,0.29-0.726,0.756-0.726,1.31
			c0,0.889,0.722,1.61,1.61,1.61c0.89,0,1.61-0.722,1.61-1.61c0-0.555-0.299-1.021-0.726-1.31v-1.998h10.447v1.998
			c-0.428,0.29-0.726,0.756-0.726,1.31c0,0.889,0.722,1.61,1.61,1.61c0.889,0,1.61-0.722,1.61-1.61c0-0.555-0.299-1.021-0.726-1.31
			v-1.998h6.631l1.648,25.653H8.722V40.361z"/>
	</g>
	<g display="inline">
		
			<linearGradient id="SVGID_3_" gradientUnits="userSpaceOnUse" x1="225.9204" y1="552.191" x2="225.9204" y2="588.4481" gradientTransform="matrix(1 0 0 1 -201.92 -546.32)">
			<stop  offset="0" style="stop-color:#AB1050"/>
			<stop  offset="1" style="stop-color:#5D2466"/>
			<stop  offset="1" style="stop-color:#000000"/>
			<a:midPointStop  offset="0" style="stop-color:#AB1050"/>
			<a:midPointStop  offset="0.5" style="stop-color:#AB1050"/>
			<a:midPointStop  offset="1" style="stop-color:#5D2466"/>
			<a:midPointStop  offset="0.5" style="stop-color:#5D2466"/>
			<a:midPointStop  offset="1" style="stop-color:#000000"/>
		</linearGradient>
		<linearGradient id="SVGID_4_" gradientUnits="userSpaceOnUse" x1="24.0004" y1="5.746" x2="24.0004" y2="42.253">
			<stop  offset="0" style="stop-color:#AB1050"/>
			<stop  offset="1" style="stop-color:#5D2466"/>
			<stop  offset="1" style="stop-color:#000000"/>
			<a:midPointStop  offset="0" style="stop-color:#AB1050"/>
			<a:midPointStop  offset="0.5" style="stop-color:#AB1050"/>
			<a:midPointStop  offset="1" style="stop-color:#5D2466"/>
			<a:midPointStop  offset="0.5" style="stop-color:#5D2466"/>
			<a:midPointStop  offset="1" style="stop-color:#000000"/>
		</linearGradient>
		<path fill="url(#SVGID_3_)" stroke="url(#SVGID_4_)" stroke-width="0.25" stroke-miterlimit="10" d="M41.08,41.009l-1.757-27.248
			c-0.033-0.464-0.418-0.823-0.882-0.823h-7.472c0.002-0.025,0.014-0.047,0.014-0.073c0-3.856-3.136-6.994-6.994-6.994
			s-6.991,3.137-6.991,6.994v0.073H9.543c-0.465,0-0.851,0.36-0.882,0.823l-1.77,27.423c-0.017,0.244,0.069,0.485,0.236,0.664
			c0.166,0.179,0.401,0.28,0.648,0.28H40.21c0.007-0.002,0.011,0,0.017,0c0.488,0,0.885-0.395,0.885-0.885
			C41.111,41.163,41.1,41.085,41.08,41.009z M18.769,12.865c0-2.881,2.343-5.224,5.224-5.224s5.224,2.345,5.224,5.224
			c0,0.025,0.013,0.047,0.014,0.073H18.769V12.865z M8.722,40.361l1.647-25.655h6.629v1.998c-0.428,0.29-0.726,0.756-0.726,1.31
			c0,0.889,0.722,1.61,1.61,1.61c0.89,0,1.61-0.722,1.61-1.61c0-0.555-0.299-1.021-0.726-1.31v-1.998h10.447v1.998
			c-0.428,0.29-0.726,0.756-0.726,1.31c0,0.889,0.722,1.61,1.61,1.61c0.889,0,1.61-0.722,1.61-1.61c0-0.555-0.299-1.021-0.726-1.31
			v-1.998h6.631l1.648,25.653H8.722V40.361z"/>
	</g>
</g>
<g display="none">
	
		<linearGradient id="SVGID_5_" gradientUnits="userSpaceOnUse" x1="225.92" y1="567.5481" x2="225.92" y2="581.9141" gradientTransform="matrix(1 0 0 1 -201.92 -546.32)">
		<stop  offset="0" style="stop-color:#AB1050"/>
		<stop  offset="1" style="stop-color:#5D2466"/>
		<stop  offset="1" style="stop-color:#000000"/>
		<a:midPointStop  offset="0" style="stop-color:#AB1050"/>
		<a:midPointStop  offset="0.5" style="stop-color:#AB1050"/>
		<a:midPointStop  offset="1" style="stop-color:#5D2466"/>
		<a:midPointStop  offset="0.5" style="stop-color:#5D2466"/>
		<a:midPointStop  offset="1" style="stop-color:#000000"/>
	</linearGradient>
	
		<linearGradient id="SVGID_6_" gradientUnits="userSpaceOnUse" x1="225.92" y1="567.1731" x2="225.92" y2="582.2891" gradientTransform="matrix(1 0 0 1 -201.92 -546.32)">
		<stop  offset="0" style="stop-color:#AB1050"/>
		<stop  offset="1" style="stop-color:#5D2466"/>
		<stop  offset="1" style="stop-color:#000000"/>
		<a:midPointStop  offset="0" style="stop-color:#AB1050"/>
		<a:midPointStop  offset="0.5" style="stop-color:#AB1050"/>
		<a:midPointStop  offset="1" style="stop-color:#5D2466"/>
		<a:midPointStop  offset="0.5" style="stop-color:#5D2466"/>
		<a:midPointStop  offset="1" style="stop-color:#000000"/>
	</linearGradient>
	<path display="inline" fill="url(#SVGID_5_)" stroke="url(#SVGID_6_)" stroke-width="0.75" stroke-miterlimit="10" d="
		M32.348,24.538c0,0.556-0.347,1.101-1.042,1.634c-0.544,0.417-1.18,0.748-1.907,0.993c-0.214,0.117-0.331,0.134-0.352,0.049
		c-0.011-0.043,0.031-0.106,0.128-0.192c0.097-0.139,0.145-0.31,0.145-0.512c0-0.471-0.256-1.036-0.77-1.699
		c-0.438-0.523-0.886-0.956-1.346-1.298c-0.117-0.085-0.234-0.168-0.352-0.248s-0.235-0.157-0.353-0.232
		c-1.015,0.192-1.879,0.401-2.595,0.625c-2.105,0.673-3.851,1.705-5.24,3.093c0.705,0.331,1.507,0.496,2.404,0.496
		c0.983,0,1.564-0.171,1.747-0.512c0.032-0.075,0.075-0.086,0.128-0.032c0.054,0.032,0.064,0.075,0.032,0.129
		c-0.096,0.191-0.355,0.35-0.778,0.473s-0.905,0.184-1.45,0.184c-0.907,0-1.698-0.149-2.371-0.449
		c-1.302,1.42-1.954,2.915-1.954,4.484c0,1.112,0.534,1.988,1.603,2.628c0.972,0.566,2.195,0.849,3.669,0.849
		c1.944,0,3.617-0.465,5.016-1.394c1.548-1.047,2.215-2.425,2.003-4.134c-0.523,0-1.031,0.017-1.522,0.049
		c-0.491,0.031-0.967,0.086-1.426,0.16c-0.31,0.043-0.67,0.106-1.081,0.191c-0.411,0.086-0.889,0.188-1.435,0.305
		c-0.598,0.14-1.132,0.257-1.603,0.353s-0.876,0.176-1.218,0.24c-0.054-0.171-0.021-0.379,0.096-0.625
		c0.117-0.245,0.235-0.396,0.352-0.449c0.695-0.277,2.285-0.523,4.775-0.737c0.512-0.043,0.997-0.072,1.457-0.088
		c0.459-0.016,0.903-0.024,1.329-0.024c1.517,0,2.611,0.14,3.285,0.417c0.17,0.074,0.272,0.171,0.305,0.288
		c0.01,0.021,0.013,0.072,0.008,0.152c-0.006,0.08-0.014,0.179-0.024,0.297c-0.897-0.277-1.82-0.449-2.771-0.512
		c0.299,0.267,0.449,0.652,0.449,1.153c0,1.261-0.961,2.409-2.885,3.445c-1.848,1.003-3.808,1.506-5.881,1.506
		c-1.56,0-2.793-0.336-3.701-1.009c-1.047-0.757-1.57-1.884-1.57-3.381c0-1.667,0.656-3.204,1.97-4.614
		c-0.671-0.512-1.008-1.195-1.008-2.05c0-0.918,0.475-1.709,1.426-2.371c0.865-0.577,1.8-0.886,2.805-0.929
		c1.559-0.085,3.188,0.284,4.887,1.106c1.206-0.299,2.269-0.449,3.187-0.449c1.346,0,2.28,0.342,2.805,1.026
		C32.139,23.454,32.348,23.993,32.348,24.538z M17.912,26.284c1.453-1.453,3.402-2.575,5.848-3.366
		c0.299-0.096,0.582-0.184,0.849-0.264s0.523-0.152,0.77-0.216c-1.272-0.577-2.676-0.865-4.214-0.865
		c-0.929,0-1.833,0.261-2.707,0.785c-0.993,0.609-1.474,1.347-1.442,2.211C17.025,25.243,17.325,25.815,17.912,26.284z
		 M29.528,26.796c0.427-0.245,0.875-0.651,1.346-1.217c0.523-0.62,0.785-1.132,0.785-1.539c0-0.865-0.801-1.298-2.404-1.298
		c-0.341,0-0.71,0.019-1.106,0.056c-0.395,0.037-0.823,0.093-1.282,0.168c0.117,0.075,0.234,0.15,0.352,0.225
		c0.117,0.075,0.235,0.155,0.353,0.24c0.513,0.363,0.967,0.812,1.362,1.346c0.438,0.599,0.657,1.133,0.657,1.603
		C29.593,26.54,29.571,26.68,29.528,26.796z"/>
</g>
<g id="Love">
	<g>
		<linearGradient id="SVGID_7_" gradientUnits="userSpaceOnUse" x1="24" y1="8.7884" x2="24" y2="39.2116">
			<stop  offset="0" style="stop-color:#AB1050"/>
			<stop  offset="1" style="stop-color:#5D2466"/>
			<a:midPointStop  offset="0" style="stop-color:#AB1050"/>
			<a:midPointStop  offset="0.5" style="stop-color:#AB1050"/>
			<a:midPointStop  offset="1" style="stop-color:#5D2466"/>
		</linearGradient>
		<path fill-rule="evenodd" clip-rule="evenodd" fill="url(#SVGID_7_)" d="M41.5,18.98c0-5.62-4.572-10.191-10.191-10.191
			c-2.803,0-5.416,1.128-7.314,3.092c-1.897-1.958-4.506-3.081-7.303-3.081c-5.62,0-10.191,4.572-10.191,10.191
			c0,2.603,0.98,5.074,2.761,6.972C9.292,26,9.325,26.036,9.36,26.07l0.102,0.102l0.049,0.05l12.895,12.346
			c0.409,0.407,0.981,0.644,1.589,0.644c0.608,0,1.18-0.236,1.611-0.665c0.405-0.384,10.568-10.023,12.89-12.341
			c0.013-0.013,0.026-0.026,0.039-0.039l-0.018,0.016c0.03-0.028,0.059-0.058,0.087-0.089C40.472,24.18,41.5,21.656,41.5,18.98z
			 M37.446,25.04C37.446,25.04,37.446,25.041,37.446,25.04c-0.011,0.012-0.024,0.026-0.036,0.038c-0.001,0-0.002,0.001-0.002,0.002
			c-2.297,2.297-12.906,12.358-12.906,12.358c-0.14,0.139-0.323,0.209-0.506,0.209c-0.183,0-0.366-0.07-0.506-0.209L10.618,25.115
			c-0.017-0.017-0.034-0.035-0.051-0.052l-0.102-0.102c0,0,0.003,0,0.003-0.001c-1.487-1.55-2.402-3.652-2.402-5.969
			c0-4.764,3.862-8.626,8.626-8.626c3.079,0,5.779,1.614,7.305,4.042c1.525-2.433,4.229-4.053,7.313-4.053
			c4.764,0,8.625,3.862,8.625,8.626C39.934,21.342,38.984,23.482,37.446,25.04z M16.706,12.351c-3.74,0-6.783,3.043-6.783,6.783
			c0,0.432,0.351,0.783,0.783,0.783c0.432,0,0.783-0.35,0.783-0.783c0-2.877,2.34-5.217,5.217-5.217
			c0.432,0,0.783-0.351,0.783-0.783C17.489,12.701,17.138,12.351,16.706,12.351z"/>
	</g>
	<g>
		<path fill="none" stroke="#FFFFFF" stroke-width="0.25" stroke-miterlimit="10" d="M41.5,18.98c0-5.62-4.572-10.191-10.191-10.191
			c-2.803,0-5.416,1.128-7.314,3.092c-1.897-1.958-4.506-3.081-7.303-3.081c-5.62,0-10.191,4.572-10.191,10.191
			c0,2.603,0.98,5.074,2.761,6.972C9.292,26,9.325,26.036,9.36,26.07l0.102,0.102l0.049,0.05l12.895,12.346
			c0.409,0.407,0.981,0.644,1.589,0.644c0.608,0,1.18-0.236,1.611-0.665c0.405-0.384,10.568-10.023,12.89-12.341
			c0.013-0.013,0.026-0.026,0.039-0.039l-0.018,0.016c0.03-0.028,0.059-0.058,0.087-0.089C40.472,24.18,41.5,21.656,41.5,18.98z
			 M37.446,25.04C37.446,25.04,37.446,25.041,37.446,25.04c-0.011,0.012-0.024,0.026-0.036,0.038c-0.001,0-0.002,0.001-0.002,0.002
			c-2.297,2.297-12.906,12.358-12.906,12.358c-0.14,0.139-0.323,0.209-0.506,0.209c-0.183,0-0.366-0.07-0.506-0.209L10.618,25.115
			c-0.017-0.017-0.034-0.035-0.051-0.052l-0.102-0.102c0,0,0.003,0,0.003-0.001c-1.487-1.55-2.402-3.652-2.402-5.969
			c0-4.764,3.862-8.626,8.626-8.626c3.079,0,5.779,1.614,7.305,4.042c1.525-2.433,4.229-4.053,7.313-4.053
			c4.764,0,8.625,3.862,8.625,8.626C39.934,21.342,38.984,23.482,37.446,25.04z M16.706,12.351c-3.74,0-6.783,3.043-6.783,6.783
			c0,0.432,0.351,0.783,0.783,0.783c0.432,0,0.783-0.35,0.783-0.783c0-2.877,2.34-5.217,5.217-5.217
			c0.432,0,0.783-0.351,0.783-0.783C17.489,12.701,17.138,12.351,16.706,12.351z"/>
	</g>
</g>
</svg>
