<?xml version="1.0" encoding="utf-8"?>
<!-- Generator: Adobe Illustrator 17.0.0, SVG Export Plug-In . SVG Version: 6.00 Build 0)  -->
<!DOCTYPE svg PUBLIC "-//W3C//DTD SVG 1.1//EN" "http://www.w3.org/Graphics/SVG/1.1/DTD/svg11.dtd" [
	<!ENTITY ns_flows "http://ns.adobe.com/Flows/1.0/">
	<!ENTITY ns_extend "http://ns.adobe.com/Extensibility/1.0/">
	<!ENTITY ns_ai "http://ns.adobe.com/AdobeIllustrator/10.0/">
	<!ENTITY ns_graphs "http://ns.adobe.com/Graphs/1.0/">
]>
<svg version="1.1" id="Layer_1" xmlns:x="&ns_extend;" xmlns:i="&ns_ai;" xmlns:graph="&ns_graphs;"
	 xmlns="http://www.w3.org/2000/svg" xmlns:xlink="http://www.w3.org/1999/xlink" xmlns:a="http://ns.adobe.com/AdobeSVGViewerExtensions/3.0/"
	 x="0px" y="0px" width="36px" height="36px" viewBox="6 6 36 36" enable-background="new 6 6 36 36" xml:space="preserve">
<g id="Shopping_Bag_2" display="none">
	<g display="inline">
		
			<linearGradient id="SVGID_1_" gradientUnits="userSpaceOnUse" x1="225.9204" y1="552.191" x2="225.9204" y2="588.4481" gradientTransform="matrix(1 0 0 1 -201.92 -546.32)">
			<stop  offset="0" style="stop-color:#AB1050"/>
			<stop  offset="1" style="stop-color:#5D2466"/>
			<stop  offset="1" style="stop-color:#000000"/>
			<a:midPointStop  offset="0" style="stop-color:#AB1050"/>
			<a:midPointStop  offset="0.5" style="stop-color:#AB1050"/>
			<a:midPointStop  offset="1" style="stop-color:#5D2466"/>
			<a:midPointStop  offset="0.5" style="stop-color:#5D2466"/>
			<a:midPointStop  offset="1" style="stop-color:#000000"/>
		</linearGradient>
		<linearGradient id="SVGID_2_" gradientUnits="userSpaceOnUse" x1="24.0004" y1="5.746" x2="24.0004" y2="42.253">
			<stop  offset="0" style="stop-color:#AB1050"/>
			<stop  offset="1" style="stop-color:#5D2466"/>
			<stop  offset="1" style="stop-color:#000000"/>
			<a:midPointStop  offset="0" style="stop-color:#AB1050"/>
			<a:midPointStop  offset="0.5" style="stop-color:#AB1050"/>
			<a:midPointStop  offset="1" style="stop-color:#5D2466"/>
			<a:midPointStop  offset="0.5" style="stop-color:#5D2466"/>
			<a:midPointStop  offset="1" style="stop-color:#000000"/>
		</linearGradient>
		<path fill="url(#SVGID_1_)" stroke="url(#SVGID_2_)" stroke-width="0.25" stroke-miterlimit="10" d="M41.08,41.009l-1.757-27.248
			c-0.033-0.464-0.418-0.823-0.882-0.823h-7.472c0.002-0.025,0.014-0.047,0.014-0.073c0-3.856-3.136-6.994-6.994-6.994
			s-6.991,3.137-6.991,6.994v0.073H9.543c-0.465,0-0.851,0.36-0.882,0.823l-1.77,27.423c-0.017,0.244,0.069,0.485,0.236,0.664
			c0.166,0.179,0.401,0.28,0.648,0.28H40.21c0.007-0.002,0.011,0,0.017,0c0.488,0,0.885-0.395,0.885-0.885
			C41.111,41.163,41.1,41.085,41.08,41.009z M18.769,12.865c0-2.881,2.343-5.224,5.224-5.224s5.224,2.345,5.224,5.224
			c0,0.025,0.013,0.047,0.014,0.073H18.769V12.865z M8.722,40.361l1.647-25.655h6.629v1.998c-0.428,0.29-0.726,0.756-0.726,1.31
			c0,0.889,0.722,1.61,1.61,1.61c0.89,0,1.61-0.722,1.61-1.61c0-0.555-0.299-1.021-0.726-1.31v-1.998h10.447v1.998
			c-0.428,0.29-0.726,0.756-0.726,1.31c0,0.889,0.722,1.61,1.61,1.61c0.889,0,1.61-0.722,1.61-1.61c0-0.555-0.299-1.021-0.726-1.31
			v-1.998h6.631l1.648,25.653H8.722V40.361z"/>
	</g>
	<g display="inline">
		
			<linearGradient id="SVGID_3_" gradientUnits="userSpaceOnUse" x1="225.9204" y1="552.191" x2="225.9204" y2="588.4481" gradientTransform="matrix(1 0 0 1 -201.92 -546.32)">
			<stop  offset="0" style="stop-color:#AB1050"/>
			<stop  offset="1" style="stop-color:#5D2466"/>
			<stop  offset="1" style="stop-color:#000000"/>
			<a:midPointStop  offset="0" style="stop-color:#AB1050"/>
			<a:midPointStop  offset="0.5" style="stop-color:#AB1050"/>
			<a:midPointStop  offset="1" style="stop-color:#5D2466"/>
			<a:midPointStop  offset="0.5" style="stop-color:#5D2466"/>
			<a:midPointStop  offset="1" style="stop-color:#000000"/>
		</linearGradient>
		<linearGradient id="SVGID_4_" gradientUnits="userSpaceOnUse" x1="24.0004" y1="5.746" x2="24.0004" y2="42.253">
			<stop  offset="0" style="stop-color:#AB1050"/>
			<stop  offset="1" style="stop-color:#5D2466"/>
			<stop  offset="1" style="stop-color:#000000"/>
			<a:midPointStop  offset="0" style="stop-color:#AB1050"/>
			<a:midPointStop  offset="0.5" style="stop-color:#AB1050"/>
			<a:midPointStop  offset="1" style="stop-color:#5D2466"/>
			<a:midPointStop  offset="0.5" style="stop-color:#5D2466"/>
			<a:midPointStop  offset="1" style="stop-color:#000000"/>
		</linearGradient>
		<path fill="url(#SVGID_3_)" stroke="url(#SVGID_4_)" stroke-width="0.25" stroke-miterlimit="10" d="M41.08,41.009l-1.757-27.248
			c-0.033-0.464-0.418-0.823-0.882-0.823h-7.472c0.002-0.025,0.014-0.047,0.014-0.073c0-3.856-3.136-6.994-6.994-6.994
			s-6.991,3.137-6.991,6.994v0.073H9.543c-0.465,0-0.851,0.36-0.882,0.823l-1.77,27.423c-0.017,0.244,0.069,0.485,0.236,0.664
			c0.166,0.179,0.401,0.28,0.648,0.28H40.21c0.007-0.002,0.011,0,0.017,0c0.488,0,0.885-0.395,0.885-0.885
			C41.111,41.163,41.1,41.085,41.08,41.009z M18.769,12.865c0-2.881,2.343-5.224,5.224-5.224s5.224,2.345,5.224,5.224
			c0,0.025,0.013,0.047,0.014,0.073H18.769V12.865z M8.722,40.361l1.647-25.655h6.629v1.998c-0.428,0.29-0.726,0.756-0.726,1.31
			c0,0.889,0.722,1.61,1.61,1.61c0.89,0,1.61-0.722,1.61-1.61c0-0.555-0.299-1.021-0.726-1.31v-1.998h10.447v1.998
			c-0.428,0.29-0.726,0.756-0.726,1.31c0,0.889,0.722,1.61,1.61,1.61c0.889,0,1.61-0.722,1.61-1.61c0-0.555-0.299-1.021-0.726-1.31
			v-1.998h6.631l1.648,25.653H8.722V40.361z"/>
	</g>
</g>
<g display="none">
	
		<linearGradient id="SVGID_5_" gradientUnits="userSpaceOnUse" x1="225.92" y1="567.5481" x2="225.92" y2="581.9141" gradientTransform="matrix(1 0 0 1 -201.92 -546.32)">
		<stop  offset="0" style="stop-color:#AB1050"/>
		<stop  offset="1" style="stop-color:#5D2466"/>
		<stop  offset="1" style="stop-color:#000000"/>
		<a:midPointStop  offset="0" style="stop-color:#AB1050"/>
		<a:midPointStop  offset="0.5" style="stop-color:#AB1050"/>
		<a:midPointStop  offset="1" style="stop-color:#5D2466"/>
		<a:midPointStop  offset="0.5" style="stop-color:#5D2466"/>
		<a:midPointStop  offset="1" style="stop-color:#000000"/>
	</linearGradient>
	
		<linearGradient id="SVGID_6_" gradientUnits="userSpaceOnUse" x1="225.92" y1="567.1731" x2="225.92" y2="582.2891" gradientTransform="matrix(1 0 0 1 -201.92 -546.32)">
		<stop  offset="0" style="stop-color:#AB1050"/>
		<stop  offset="1" style="stop-color:#5D2466"/>
		<stop  offset="1" style="stop-color:#000000"/>
		<a:midPointStop  offset="0" style="stop-color:#AB1050"/>
		<a:midPointStop  offset="0.5" style="stop-color:#AB1050"/>
		<a:midPointStop  offset="1" style="stop-color:#5D2466"/>
		<a:midPointStop  offset="0.5" style="stop-color:#5D2466"/>
		<a:midPointStop  offset="1" style="stop-color:#000000"/>
	</linearGradient>
	<path display="inline" fill="url(#SVGID_5_)" stroke="url(#SVGID_6_)" stroke-width="0.75" stroke-miterlimit="10" d="
		M32.348,24.538c0,0.556-0.347,1.101-1.042,1.634c-0.544,0.417-1.18,0.748-1.907,0.993c-0.214,0.117-0.331,0.134-0.352,0.049
		c-0.011-0.043,0.031-0.106,0.128-0.192c0.097-0.139,0.145-0.31,0.145-0.512c0-0.471-0.256-1.036-0.77-1.699
		c-0.438-0.523-0.886-0.956-1.346-1.298c-0.117-0.085-0.234-0.168-0.352-0.248s-0.235-0.157-0.353-0.232
		c-1.015,0.192-1.879,0.401-2.595,0.625c-2.105,0.673-3.851,1.705-5.24,3.093c0.705,0.331,1.507,0.496,2.404,0.496
		c0.983,0,1.564-0.171,1.747-0.512c0.032-0.075,0.075-0.086,0.128-0.032c0.054,0.032,0.064,0.075,0.032,0.129
		c-0.096,0.191-0.355,0.35-0.778,0.473s-0.905,0.184-1.45,0.184c-0.907,0-1.698-0.149-2.371-0.449
		c-1.302,1.42-1.954,2.915-1.954,4.484c0,1.112,0.534,1.988,1.603,2.628c0.972,0.566,2.195,0.849,3.669,0.849
		c1.944,0,3.617-0.465,5.016-1.394c1.548-1.047,2.215-2.425,2.003-4.134c-0.523,0-1.031,0.017-1.522,0.049
		c-0.491,0.031-0.967,0.086-1.426,0.16c-0.31,0.043-0.67,0.106-1.081,0.191c-0.411,0.086-0.889,0.188-1.435,0.305
		c-0.598,0.14-1.132,0.257-1.603,0.353s-0.876,0.176-1.218,0.24c-0.054-0.171-0.021-0.379,0.096-0.625
		c0.117-0.245,0.235-0.396,0.352-0.449c0.695-0.277,2.285-0.523,4.775-0.737c0.512-0.043,0.997-0.072,1.457-0.088
		c0.459-0.016,0.903-0.024,1.329-0.024c1.517,0,2.611,0.14,3.285,0.417c0.17,0.074,0.272,0.171,0.305,0.288
		c0.01,0.021,0.013,0.072,0.008,0.152c-0.006,0.08-0.014,0.179-0.024,0.297c-0.897-0.277-1.82-0.449-2.771-0.512
		c0.299,0.267,0.449,0.652,0.449,1.153c0,1.261-0.961,2.409-2.885,3.445c-1.848,1.003-3.808,1.506-5.881,1.506
		c-1.56,0-2.793-0.336-3.701-1.009c-1.047-0.757-1.57-1.884-1.57-3.381c0-1.667,0.656-3.204,1.97-4.614
		c-0.671-0.512-1.008-1.195-1.008-2.05c0-0.918,0.475-1.709,1.426-2.371c0.865-0.577,1.8-0.886,2.805-0.929
		c1.559-0.085,3.188,0.284,4.887,1.106c1.206-0.299,2.269-0.449,3.187-0.449c1.346,0,2.28,0.342,2.805,1.026
		C32.139,23.454,32.348,23.993,32.348,24.538z M17.912,26.284c1.453-1.453,3.402-2.575,5.848-3.366
		c0.299-0.096,0.582-0.184,0.849-0.264s0.523-0.152,0.77-0.216c-1.272-0.577-2.676-0.865-4.214-0.865
		c-0.929,0-1.833,0.261-2.707,0.785c-0.993,0.609-1.474,1.347-1.442,2.211C17.025,25.243,17.325,25.815,17.912,26.284z
		 M29.528,26.796c0.427-0.245,0.875-0.651,1.346-1.217c0.523-0.62,0.785-1.132,0.785-1.539c0-0.865-0.801-1.298-2.404-1.298
		c-0.341,0-0.71,0.019-1.106,0.056c-0.395,0.037-0.823,0.093-1.282,0.168c0.117,0.075,0.234,0.15,0.352,0.225
		c0.117,0.075,0.235,0.155,0.353,0.24c0.513,0.363,0.967,0.812,1.362,1.346c0.438,0.599,0.657,1.133,0.657,1.603
		C29.593,26.54,29.571,26.68,29.528,26.796z"/>
</g>
<g id="Love">
	<g>
		<path fill-rule="evenodd" clip-rule="evenodd" fill="#FFFFFF" d="M37.743,20.057c0-4.413-3.59-8.003-8.003-8.003
			c-2.202,0-4.253,0.886-5.744,2.429c-1.49-1.538-3.539-2.42-5.736-2.42c-4.413,0-8.003,3.59-8.003,8.003
			c0,2.044,0.769,3.985,2.168,5.475c0.024,0.029,0.05,0.058,0.077,0.085l0.081,0.08l0.038,0.039l10.127,9.696
			c0.321,0.32,0.77,0.506,1.248,0.506c0.478,0,0.927-0.186,1.265-0.522c0.318-0.301,8.299-7.871,10.123-9.691
			c0.01-0.01,0.02-0.02,0.031-0.031l-0.014,0.013c0.023-0.022,0.046-0.046,0.068-0.07C36.936,24.141,37.743,22.159,37.743,20.057z
			 M34.559,24.817C34.559,24.817,34.559,24.817,34.559,24.817c-0.009,0.01-0.019,0.02-0.028,0.03c-0.001,0-0.001,0.001-0.002,0.001
			c-1.804,1.804-10.136,9.705-10.136,9.705c-0.11,0.109-0.253,0.164-0.397,0.164c-0.143,0-0.288-0.055-0.397-0.164l-10.108-9.677
			c-0.013-0.014-0.027-0.027-0.04-0.041l-0.08-0.08c0,0,0.002,0,0.003-0.001c-1.168-1.217-1.887-2.868-1.887-4.688
			c0-3.741,3.033-6.774,6.774-6.774c2.418,0,4.539,1.268,5.737,3.174c1.198-1.911,3.321-3.183,5.743-3.183
			c3.741,0,6.774,3.033,6.774,6.774C36.514,21.913,35.767,23.593,34.559,24.817z M18.272,14.851c-2.937,0-5.327,2.39-5.327,5.327
			c0,0.34,0.275,0.615,0.615,0.615c0.339,0,0.615-0.275,0.615-0.615c0-2.259,1.838-4.097,4.097-4.097
			c0.34,0,0.615-0.275,0.615-0.615S18.611,14.851,18.272,14.851z"/>
	</g>
	<g>
		<path fill="none" stroke="#FFFFFF" stroke-width="0.25" stroke-miterlimit="10" d="M37.743,20.057c0-4.413-3.59-8.003-8.003-8.003
			c-2.202,0-4.253,0.886-5.744,2.429c-1.49-1.538-3.539-2.42-5.736-2.42c-4.413,0-8.003,3.59-8.003,8.003
			c0,2.044,0.769,3.985,2.168,5.475c0.024,0.029,0.05,0.058,0.077,0.085l0.081,0.08l0.038,0.039l10.127,9.696
			c0.321,0.32,0.77,0.506,1.248,0.506c0.478,0,0.927-0.186,1.265-0.522c0.318-0.301,8.299-7.871,10.123-9.691
			c0.01-0.01,0.02-0.02,0.031-0.031l-0.014,0.013c0.023-0.022,0.046-0.046,0.068-0.07C36.936,24.141,37.743,22.159,37.743,20.057z
			 M34.559,24.817C34.559,24.817,34.559,24.817,34.559,24.817c-0.009,0.01-0.019,0.02-0.028,0.03c-0.001,0-0.001,0.001-0.002,0.001
			c-1.804,1.804-10.136,9.705-10.136,9.705c-0.11,0.109-0.253,0.164-0.397,0.164c-0.143,0-0.288-0.055-0.397-0.164l-10.108-9.677
			c-0.013-0.014-0.027-0.027-0.04-0.041l-0.08-0.08c0,0,0.002,0,0.003-0.001c-1.168-1.217-1.887-2.868-1.887-4.688
			c0-3.741,3.033-6.774,6.774-6.774c2.418,0,4.539,1.268,5.737,3.174c1.198-1.911,3.321-3.183,5.743-3.183
			c3.741,0,6.774,3.033,6.774,6.774C36.514,21.913,35.767,23.593,34.559,24.817z M18.272,14.851c-2.937,0-5.327,2.39-5.327,5.327
			c0,0.34,0.275,0.615,0.615,0.615c0.339,0,0.615-0.275,0.615-0.615c0-2.259,1.838-4.097,4.097-4.097
			c0.34,0,0.615-0.275,0.615-0.615S18.611,14.851,18.272,14.851z"/>
	</g>
</g>
</svg>
