<svg id="Слой_1" data-name="Слой 1" xmlns="http://www.w3.org/2000/svg" viewBox="0 0 75.17 45"><defs><style>.cls-1{fill:#fff;}</style></defs><title>logo_mobile</title><path class="cls-1" d="M36.7,14c0,1.2-.8,2.4-2.3,3.6a16.67,16.67,0,0,1-4.2,2.2c-.5.3-.7.3-.8.1s.1-.2.3-.4a2,2,0,0,0,.3-1.1,6.65,6.65,0,0,0-1.7-3.7,18.83,18.83,0,0,0-2.9-2.8,3.51,3.51,0,0,0-.8-.5c-.3-.2-.5-.3-.8-.5a47.6,47.6,0,0,0-5.7,1.4A28.17,28.17,0,0,0,6.6,19.1,19.08,19.08,0,0,0,12,20c2.1,0,3.4-.4,3.8-1.1.1-.2.2-.2.3-.1a.37.37,0,0,1,.1.3,2.48,2.48,0,0,1-1.7,1,10.38,10.38,0,0,1-3.2.4,12.07,12.07,0,0,1-5.2-1c-2.9,3.1-4.3,6.4-4.3,9.8A6.46,6.46,0,0,0,5.3,35a16,16,0,0,0,8,1.9,19.69,19.69,0,0,0,11-3c3.4-2.3,4.8-5.3,4.4-9-1.1,0-2.3,0-3.3.1a29.09,29.09,0,0,0-3.1.4c-.7.1-1.5.2-2.4.4s-1.9.4-3.1.7-2.5.6-3.5.8-1.9.4-2.7.5a2.49,2.49,0,0,1,.2-1.4c.3-.5.5-.9.8-1,1.5-.6,5-1.1,10.4-1.6,1.1-.1,2.2-.2,3.2-.2s2-.1,2.9-.1a20.93,20.93,0,0,1,7.2.9,1.44,1.44,0,0,1,.7.6v.3a1.27,1.27,0,0,1-.1.6,25.22,25.22,0,0,0-6.1-1.1,3,3,0,0,1,1,2.5q0,4.2-6.3,7.5a26.35,26.35,0,0,1-12.9,3.3c-3.4,0-6.1-.7-8.1-2.2C1.2,34.2.1,31.8.1,28.5A14.53,14.53,0,0,1,4.4,18.4,5.1,5.1,0,0,1,2.3,14c0-2,1-3.7,3.1-5.2a11.36,11.36,0,0,1,6.1-2A21.56,21.56,0,0,1,22.2,9.2a27.37,27.37,0,0,1,7-1c2.9,0,5,.7,6.1,2.2A6.31,6.31,0,0,1,36.7,14ZM5.1,17.9a31.82,31.82,0,0,1,12.8-7.4c.7-.2,1.3-.4,1.9-.6s1.1-.3,1.7-.5a21.66,21.66,0,0,0-9.2-1.9A11.78,11.78,0,0,0,6.4,9.2C4.2,10.5,3.2,12.1,3.2,14A4.78,4.78,0,0,0,5.1,17.9ZM30.5,19a10.08,10.08,0,0,0,2.9-2.7c1.1-1.4,1.7-2.5,1.7-3.4,0-1.9-1.8-2.8-5.3-2.8a20.08,20.08,0,0,0-2.4.1c-.9.1-1.8.2-2.8.4.3.2.5.3.8.5s.5.3.8.5a16.43,16.43,0,0,1,3,2.9A5.86,5.86,0,0,1,30.6,18,1.64,1.64,0,0,1,30.5,19Z"/><path class="cls-1" d="M52.5,30.4A12.81,12.81,0,0,1,48,33.7a13.06,13.06,0,0,1-5.9,1.8c-2.5,0-3.7-1.3-3.7-4a7.84,7.84,0,0,1,1-3.5,13.57,13.57,0,0,1,2.5-3.6,4.66,4.66,0,0,1,3.2-1.6c1.3,0,2,.6,2,1.9a4,4,0,0,1-1,2.5,9.65,9.65,0,0,1-5.3,3.1,5.9,5.9,0,0,0-.2,1.4c0,1.8.8,2.7,2.5,2.7A10.29,10.29,0,0,0,48,32.8a15.3,15.3,0,0,0,2.3-1.5A12.94,12.94,0,0,0,52,29.8c.5-.5.8-.6.8-.1A4.88,4.88,0,0,1,52.5,30.4Zm-7.3-3.7a4.57,4.57,0,0,0,.8-2.2c0-.5-.2-.7-.5-.7-.6,0-1.3.6-2.3,1.9a23,23,0,0,0-2.3,4A7.57,7.57,0,0,0,45.2,26.7Z"/><path class="cls-1" d="M74.2,30.3c-2.9,3.2-5.4,4.8-7.4,4.8-2.2,0-3.1-2-2.9-6.1a6.53,6.53,0,0,0-.7.8c-.3.3-.6.8-1,1.3l-2.4,3.6c-.5.6-.9.8-1.3.6a.62.62,0,0,1-.5-.8l.1-1.3a4.87,4.87,0,0,0,.1-1.2c0-.4.1-.7.1-1,.1-2.2-.1-3.2-.8-3.2-.5,0-1.3.6-2.3,1.7a19.06,19.06,0,0,0-2.4,3.4,17.35,17.35,0,0,1-1.4,2.2.9.9,0,0,1-.5.1c-.4,0-.6-.3-.6-.8V34c.2-.4.4-1,.8-1.7s.7-1.6,1.1-2.7c1.1-2.6,1.7-4.1,1.7-4.7.1-.2.5-.4,1.3-.8s1.3-.3,1.3.3l-1.3,3.9a5.72,5.72,0,0,1,.8-.7,9,9,0,0,1,1-.9,2.2,2.2,0,0,1,1.3-.4c1.2,0,1.9.8,2.1,2.3v1c0,.7-.1,1.7-.1,3,.8-1.3,2.4-3.5,4.9-6.8a2.2,2.2,0,0,1,1.6-1c.3,0,.4.2.4.5v.2a.37.37,0,0,1-.1.3,18.34,18.34,0,0,0-1,5.3c0,1.7.6,2.5,1.7,2.5A5.8,5.8,0,0,0,71,32.2a11.15,11.15,0,0,1,1-.9l1.6-1.6c.2-.2.3-.3.5-.3a.22.22,0,0,1,.2.2A.76.76,0,0,1,74.2,30.3Z"/></svg>